M48
;Layer_Color=9474304
;FILE_FORMAT=2:5
INCH,LZ
;TYPE=PLATED
T1F00S00C0.01000
T2F00S00C0.01200
T4F00S00C0.03150
T6F00S00C0.03543
T8F00S00C0.04724
T9F00S00C0.12992
;TYPE=NON_PLATED
T10F00S00C0.02953
%
T01
X05565Y0251
Y0254
X056
Y0251
T02
X0476Y0142
X04885Y01375
X0517Y0146
X05505Y0145
X057Y01355
X05365Y01255
X05315
X0542Y01125
X05475Y0113
X06265Y01795
X06295Y0181
Y01845
Y01875
X06285Y0198
X0634Y02055
X0652Y02025
Y0199
Y01955
X0656
Y0199
Y02025
X06565Y01655
Y01625
X06605
Y01655
X064Y02305
X0636
X06325Y02325
X0628
X06275Y02545
Y0258
X0633
Y02545
X06425
X0650656Y0275047
X065057Y0278676
X06505Y02825
X065475
X065482Y0278676
X0654906Y0275047
X0659156
X065907Y0278676
X0659Y02825
X06696Y03055
X0579Y029
X0575488Y0285488
X0574Y0265
X0571Y0263
X05665Y02605
Y02565
X05675Y0251
Y02465
X0573
Y0251
X05785
Y02465
Y0224
X06005Y02235
X06095Y02305
X0622048Y0226952
X0613Y0209
X06075
X0616259Y019274
X0624Y01741
Y0171
Y01679
Y0164799
Y0161699
X06205
X0577Y017
X05665Y01635
X0565Y0157
X05655Y0184
X0565Y019
X05565Y01995
X0557Y02055
X05355Y0216
X0532Y022
X05265Y02205
X0525772Y0216728
X05185Y0205
X0512Y02015
X0504Y02045
X05045Y01975
X0497Y01835
X04925
X0517Y01695
X0534Y0163
X05335Y0157
Y0184
X0533Y019
X05435Y0234
X05395Y02395
X05455Y0242
X0544Y02525
X05315Y0247
X0525228Y0240728
X05215Y0241
X05095Y02645
X05105Y0268
X0507Y02705
X04935Y0264
X04885Y0263
X0483886Y0262613
X0486372Y0266076
X04825Y02745
X04785
X04965Y02195
X05
X0585Y0194
X0558Y03055
X0464Y0267
Y0233
X04605Y023
X04455Y02295
X0446Y0234
X04467Y0225
Y0221
X0457272Y0212228
X05015Y03265
X05355Y0325
Y03315
X05475Y0327
X0564689Y03275
X0562689Y03305
X0567189Y0323
X0571189
X0577Y03315
Y03355
X0581
Y03315
X05855Y0315
X0591959Y0316459
X05905Y03526
X05835Y0376
Y038
X0579
Y0376
X0575
Y038
X05565Y03655
X0522363Y0366363
X0517Y03665
X05135Y03545
X06255Y0338
X0625445Y0334416
X06255Y0331
X063
X0629945Y0334416
X063Y0338
X06345
X0634445Y0334416
X06345Y0331
X0673Y0322
X06715Y0349
Y0358
T04
X06335Y0145563
Y0153437
X06695Y0149874
Y0142
T06
X0483Y0129
X0493
X0503
X0513
X051Y02855
X05
X049
X048
X0534098
X0544098
X0554098
X0564098
X04075Y0282
Y0292
Y0302
Y0312
Y0272
Y0262
Y0252
Y0242
Y0232
Y0222
Y0212
Y0202
X05005Y0315
X05105
X05205
T08
X0630496Y01135
X0649
X0667504
T09
X0413366Y0111044
X0775111Y0111012
X0413368Y0382673
X0775185Y0382701
T10
X051Y0367
X0532756
M30
