G04*
G04 #@! TF.GenerationSoftware,Altium Limited,Altium Designer,22.0.2 (36)*
G04*
G04 Layer_Color=32768*
%FSLAX25Y25*%
%MOIN*%
G70*
G04*
G04 #@! TF.SameCoordinates,7F160BED-0690-4144-9330-6DFC8CD618BD*
G04*
G04*
G04 #@! TF.FilePolarity,Positive*
G04*
G01*
G75*
%ADD14C,0.00394*%
%ADD88C,0.00200*%
%ADD89C,0.00100*%
%ADD90C,0.00197*%
%ADD91C,0.00158*%
%ADD92C,0.00039*%
G36*
X550540Y270149D02*
Y269951D01*
X550399Y269810D01*
X550201D01*
X550060Y269951D01*
Y270149D01*
X550201Y270290D01*
X550399D01*
X550540Y270149D01*
D02*
G37*
G36*
X549310Y268090D02*
X547150D01*
Y270050D01*
X549310D01*
Y268090D01*
D02*
G37*
G36*
X540850D02*
X538690D01*
Y270050D01*
X540850D01*
Y268090D01*
D02*
G37*
G36*
X549310Y251950D02*
X547150D01*
Y253910D01*
X549310D01*
Y251950D01*
D02*
G37*
G36*
X540850D02*
X538690D01*
Y253910D01*
X540850D01*
Y251950D01*
D02*
G37*
G36*
X522690Y209399D02*
Y209300D01*
Y209201D01*
X522549Y209060D01*
X522351D01*
X522210Y209201D01*
Y209300D01*
Y209399D01*
X522351Y209540D01*
X522549D01*
X522690Y209399D01*
D02*
G37*
G36*
X540550Y206150D02*
X538590D01*
Y208310D01*
X540550D01*
Y206150D01*
D02*
G37*
G36*
X524410D02*
X522450D01*
Y208310D01*
X524410D01*
Y206150D01*
D02*
G37*
G36*
X540550Y197690D02*
X538590D01*
Y199850D01*
X540550D01*
Y197690D01*
D02*
G37*
G36*
X524410D02*
X522450D01*
Y199850D01*
X524410D01*
Y197690D01*
D02*
G37*
G36*
X554120Y180419D02*
Y180320D01*
Y180221D01*
X553979Y180080D01*
X553781D01*
X553640Y180221D01*
Y180320D01*
Y180419D01*
X553781Y180560D01*
X553979D01*
X554120Y180419D01*
D02*
G37*
G36*
X521765D02*
Y180320D01*
Y180221D01*
X521624Y180080D01*
X521425D01*
X521285Y180221D01*
Y180320D01*
Y180419D01*
X521425Y180560D01*
X521624D01*
X521765Y180419D01*
D02*
G37*
G36*
X571980Y177170D02*
X570020D01*
Y179330D01*
X571980D01*
Y177170D01*
D02*
G37*
G36*
X555840D02*
X553880D01*
Y179330D01*
X555840D01*
Y177170D01*
D02*
G37*
G36*
X539625D02*
X537665D01*
Y179330D01*
X539625D01*
Y177170D01*
D02*
G37*
G36*
X523485D02*
X521525D01*
Y179330D01*
X523485D01*
Y177170D01*
D02*
G37*
G36*
X571980Y168710D02*
X570020D01*
Y170870D01*
X571980D01*
Y168710D01*
D02*
G37*
G36*
X555840D02*
X553880D01*
Y170870D01*
X555840D01*
Y168710D01*
D02*
G37*
G36*
X539625D02*
X537665D01*
Y170870D01*
X539625D01*
Y168710D01*
D02*
G37*
G36*
X523485D02*
X521525D01*
Y170870D01*
X523485D01*
Y168710D01*
D02*
G37*
G36*
X554120Y153419D02*
Y153320D01*
Y153221D01*
X553979Y153080D01*
X553781D01*
X553640Y153221D01*
Y153320D01*
Y153419D01*
X553781Y153560D01*
X553979D01*
X554120Y153419D01*
D02*
G37*
G36*
X522620D02*
Y153320D01*
Y153221D01*
X522479Y153080D01*
X522281D01*
X522140Y153221D01*
Y153320D01*
Y153419D01*
X522281Y153560D01*
X522479D01*
X522620Y153419D01*
D02*
G37*
G36*
X571980Y150170D02*
X570020D01*
Y152330D01*
X571980D01*
Y150170D01*
D02*
G37*
G36*
X555840D02*
X553880D01*
Y152330D01*
X555840D01*
Y150170D01*
D02*
G37*
G36*
X540480D02*
X538520D01*
Y152330D01*
X540480D01*
Y150170D01*
D02*
G37*
G36*
X524340D02*
X522380D01*
Y152330D01*
X524340D01*
Y150170D01*
D02*
G37*
G36*
X571980Y141710D02*
X570020D01*
Y143870D01*
X571980D01*
Y141710D01*
D02*
G37*
G36*
X555840D02*
X553880D01*
Y143870D01*
X555840D01*
Y141710D01*
D02*
G37*
G36*
X540480D02*
X538520D01*
Y143870D01*
X540480D01*
Y141710D01*
D02*
G37*
G36*
X524340D02*
X522380D01*
Y143870D01*
X524340D01*
Y141710D01*
D02*
G37*
D14*
X642531Y218000D02*
X646468D01*
X644500Y216032D02*
Y219969D01*
X621339Y167532D02*
X625276D01*
X623307Y165563D02*
Y169500D01*
X567254Y347508D02*
Y351445D01*
X565286Y349476D02*
X569223D01*
X590508Y260435D02*
X594445D01*
X592476Y258466D02*
Y262403D01*
X493358Y233394D02*
Y237331D01*
X491390Y235362D02*
X495327D01*
X514032Y337051D02*
X517969D01*
X516000Y335083D02*
Y339020D01*
X505173Y321051D02*
Y353051D01*
X526827Y321051D02*
Y353051D01*
X505173Y321051D02*
X526827D01*
X505173Y353051D02*
X526827D01*
D88*
X523230Y196700D02*
Y209300D01*
X539770D01*
Y196700D02*
Y209300D01*
X523230Y196700D02*
X539770D01*
X537700Y269270D02*
X550300D01*
Y252730D02*
Y269270D01*
X537700Y252730D02*
X550300D01*
X537700D02*
Y269270D01*
X523160Y140720D02*
X539700D01*
Y153320D01*
X523160D02*
X539700D01*
X523160Y140720D02*
Y153320D01*
X554660Y167720D02*
X571200D01*
Y180320D01*
X554660D02*
X571200D01*
X554660Y167720D02*
Y180320D01*
X522305Y167720D02*
X538845D01*
Y180320D01*
X522305D02*
X538845D01*
X522305Y167720D02*
Y180320D01*
X554660Y140720D02*
Y153320D01*
X571200D01*
Y140720D02*
Y153320D01*
X554660Y140720D02*
X571200D01*
D89*
X575500Y106000D02*
G03*
X575500Y106000I-500J0D01*
G01*
X570000Y106000D02*
G03*
X570000Y106000I-500J0D01*
G01*
X564000D02*
G03*
X564000Y106000I-500J0D01*
G01*
X558500Y106000D02*
G03*
X558500Y106000I-500J0D01*
G01*
X548000Y105407D02*
G03*
X548000Y105407I-500J0D01*
G01*
X542667D02*
G03*
X542667Y105407I-500J0D01*
G01*
X536933D02*
G03*
X536933Y105407I-500J0D01*
G01*
X531600D02*
G03*
X531600Y105407I-500J0D01*
G01*
X531000Y328500D02*
G03*
X531000Y328500I-500J0D01*
G01*
X549500Y205500D02*
G03*
X549500Y205500I-500J0D01*
G01*
X549500Y199500D02*
G03*
X549500Y199500I-500J0D01*
G01*
X543500Y246500D02*
G03*
X543500Y246500I-500J0D01*
G01*
X673673Y361000D02*
G03*
X673673Y361000I-500J0D01*
G01*
X673500Y353000D02*
G03*
X673500Y353000I-500J0D01*
G01*
X672000Y327500D02*
G03*
X672000Y327500I-500J0D01*
G01*
X647646Y230500D02*
G03*
X647646Y230500I-500J0D01*
G01*
X633500Y224146D02*
G03*
X633500Y224146I-500J0D01*
G01*
X627464Y224098D02*
G03*
X627464Y224098I-500J0D01*
G01*
X642400Y205500D02*
G03*
X642400Y205500I-500J0D01*
G01*
X669000Y163500D02*
G03*
X669000Y163500I-500J0D01*
G01*
X620854Y178000D02*
G03*
X620854Y178000I-500J0D01*
G01*
X582646Y198500D02*
G03*
X582646Y198500I-500J0D01*
G01*
X614833Y217000D02*
G03*
X614833Y217000I-500J0D01*
G01*
X609000Y217000D02*
G03*
X609000Y217000I-500J0D01*
G01*
X591000Y343000D02*
G03*
X591000Y343000I-500J0D01*
G01*
X526500Y157000D02*
G03*
X526500Y157000I-500J0D01*
G01*
Y163000D02*
G03*
X526500Y163000I-500J0D01*
G01*
X525645Y184000D02*
G03*
X525645Y184000I-500J0D01*
G01*
Y190000D02*
G03*
X525645Y190000I-500J0D01*
G01*
X612500Y173000D02*
G03*
X612500Y173000I-500J0D01*
G01*
X560000Y323500D02*
G03*
X560000Y323500I-500J0D01*
G01*
X567000Y268189D02*
G03*
X567000Y268189I-500J0D01*
G01*
X561000Y294500D02*
G03*
X561000Y294500I-500J0D01*
G01*
Y300500D02*
G03*
X561000Y300500I-500J0D01*
G01*
X592041Y308412D02*
G03*
X592041Y308412I-500J0D01*
G01*
X586000Y308354D02*
G03*
X586000Y308354I-500J0D01*
G01*
X558000Y184000D02*
G03*
X558000Y184000I-500J0D01*
G01*
Y190000D02*
G03*
X558000Y190000I-500J0D01*
G01*
X558000Y157000D02*
G03*
X558000Y157000I-500J0D01*
G01*
Y163000D02*
G03*
X558000Y163000I-500J0D01*
G01*
X509000Y199500D02*
G03*
X509000Y199500I-500J0D01*
G01*
X523000Y218500D02*
G03*
X523000Y218500I-500J0D01*
G01*
X527500Y244000D02*
G03*
X527500Y244000I-500J0D01*
G01*
X504500Y269000D02*
G03*
X504500Y269000I-500J0D01*
G01*
X456000Y221000D02*
G03*
X456000Y221000I-500J0D01*
G01*
X455975Y224960D02*
G03*
X455975Y224960I-500J0D01*
G01*
X479000Y269000D02*
G03*
X479000Y269000I-500J0D01*
G01*
X483194Y269041D02*
G03*
X483194Y269041I-500J0D01*
G01*
X537728Y219500D02*
G03*
X537728Y219500I-500J0D01*
G01*
X534500Y239500D02*
G03*
X534500Y239500I-500J0D01*
G01*
X486000Y142000D02*
G03*
X486000Y142000I-500J0D01*
G01*
X575000Y105213D02*
Y106787D01*
X574213Y106000D02*
X575787D01*
X568713Y106000D02*
X570287D01*
X569500Y105213D02*
Y106787D01*
X562713Y106000D02*
X564287D01*
X563500Y105213D02*
Y106787D01*
X558000Y105213D02*
Y106787D01*
X557213Y106000D02*
X558787D01*
X547500Y104620D02*
Y106194D01*
X546713Y105407D02*
X548287D01*
X542167Y104620D02*
Y106194D01*
X541379Y105407D02*
X542954D01*
X535646D02*
X537221D01*
X536433Y104620D02*
Y106194D01*
X530312Y105407D02*
X531887D01*
X531100Y104620D02*
Y106194D01*
X529713Y328500D02*
X531287D01*
X530500Y327713D02*
Y329287D01*
X549000Y204713D02*
Y206287D01*
X548213Y205500D02*
X549787D01*
X549000Y198713D02*
Y200287D01*
X548213Y199500D02*
X549787D01*
X543000Y245713D02*
Y247287D01*
X542213Y246500D02*
X543787D01*
X673173Y360213D02*
Y361787D01*
X672386Y361000D02*
X673961D01*
X673000Y352213D02*
Y353787D01*
X672213Y353000D02*
X673787D01*
X670713Y327500D02*
X672287D01*
X671500Y326712D02*
Y328287D01*
X647146Y229713D02*
Y231287D01*
X646358Y230500D02*
X647933D01*
X632213Y224146D02*
X633787D01*
X633000Y223358D02*
Y224933D01*
X626176Y224098D02*
X627751D01*
X626964Y223311D02*
Y224886D01*
X641900Y204713D02*
Y206287D01*
X641113Y205500D02*
X642687D01*
X668500Y162713D02*
Y164287D01*
X667713Y163500D02*
X669287D01*
X620354Y177213D02*
Y178787D01*
X619567Y178000D02*
X621142D01*
X581358Y198500D02*
X582933D01*
X582146Y197713D02*
Y199287D01*
X614333Y216213D02*
Y217787D01*
X613546Y217000D02*
X615121D01*
X608500Y216213D02*
Y217787D01*
X607713Y217000D02*
X609287D01*
X590500Y342213D02*
Y343788D01*
X589713Y343000D02*
X591287D01*
X525213Y157000D02*
X526787D01*
X526000Y156213D02*
Y157787D01*
X525213Y163000D02*
X526787D01*
X526000Y162213D02*
Y163787D01*
X524357Y184000D02*
X525932D01*
X525145Y183213D02*
Y184787D01*
X524357Y190000D02*
X525932D01*
X525145Y189213D02*
Y190787D01*
X612000Y172213D02*
Y173787D01*
X611213Y173000D02*
X612787D01*
X558713Y323500D02*
X560287D01*
X559500Y322713D02*
Y324287D01*
X566500Y267402D02*
Y268977D01*
X565713Y268189D02*
X567287D01*
X560500Y293713D02*
Y295287D01*
X559713Y294500D02*
X561287D01*
X560500Y299713D02*
Y301287D01*
X559713Y300500D02*
X561287D01*
X590754Y308412D02*
X592328D01*
X591541Y307625D02*
Y309199D01*
X584713Y308354D02*
X586287D01*
X585500Y307567D02*
Y309142D01*
X557500Y183213D02*
Y184787D01*
X556713Y184000D02*
X558287D01*
X557500Y189213D02*
Y190787D01*
X556713Y190000D02*
X558287D01*
X557500Y156213D02*
Y157787D01*
X556713Y157000D02*
X558287D01*
X557500Y162213D02*
Y163787D01*
X556713Y163000D02*
X558287D01*
X507713Y199500D02*
X509287D01*
X508500Y198713D02*
Y200287D01*
X521713Y218500D02*
X523287D01*
X522500Y217712D02*
Y219287D01*
X527000Y243213D02*
Y244787D01*
X526213Y244000D02*
X527787D01*
X503213Y269000D02*
X504787D01*
X504000Y268213D02*
Y269788D01*
X455500Y220213D02*
Y221787D01*
X454712Y221000D02*
X456287D01*
X455475Y224173D02*
Y225747D01*
X454688Y224960D02*
X456262D01*
X477713Y269000D02*
X479287D01*
X478500Y268213D02*
Y269788D01*
X481906Y269041D02*
X483481D01*
X482694Y268253D02*
Y269828D01*
X537228Y218713D02*
Y220287D01*
X536441Y219500D02*
X538016D01*
X534000Y238713D02*
Y240287D01*
X533213Y239500D02*
X534788D01*
X484713Y142000D02*
X486287D01*
X485500Y141213D02*
Y142787D01*
D90*
X661378Y240500D02*
G03*
X661378Y240500I-1378J0D01*
G01*
X637378Y248500D02*
G03*
X637378Y248500I-1378J0D01*
G01*
Y239000D02*
G03*
X637378Y239000I-1378J0D01*
G01*
X670366Y171500D02*
G03*
X670366Y171500I-1378J0D01*
G01*
X670878Y145937D02*
G03*
X670878Y145937I-1378J0D01*
G01*
X668378Y180000D02*
G03*
X668378Y180000I-1378J0D01*
G01*
Y187500D02*
G03*
X668378Y187500I-1378J0D01*
G01*
X641778Y198000D02*
G03*
X641778Y198000I-1378J0D01*
G01*
X623378Y185000D02*
G03*
X623378Y185000I-1378J0D01*
G01*
D02*
G03*
X623378Y185000I-1378J0D01*
G01*
X612878Y189000D02*
G03*
X612878Y189000I-1378J0D01*
G01*
D02*
G03*
X612878Y189000I-1378J0D01*
G01*
X548878Y338000D02*
G03*
X548878Y338000I-1378J0D01*
G01*
X573378Y368000D02*
G03*
X573378Y368000I-1378J0D01*
G01*
X575378Y264689D02*
G03*
X575378Y264689I-1378J0D01*
G01*
X610878Y243000D02*
G03*
X610878Y243000I-1378J0D01*
G01*
X582378Y280000D02*
G03*
X582378Y280000I-1378J0D01*
G01*
X564378Y330500D02*
G03*
X564378Y330500I-1378J0D01*
G01*
X580378Y300000D02*
G03*
X580378Y300000I-1378J0D01*
G01*
X660000Y238531D02*
Y242469D01*
X658032Y240500D02*
X661969D01*
X636000Y246532D02*
Y250468D01*
X634031Y248500D02*
X637968D01*
X636000Y237032D02*
Y240968D01*
X634031Y239000D02*
X637968D01*
X636429Y208748D02*
Y227252D01*
X652571Y208748D02*
Y227252D01*
X636429Y208748D02*
X652571D01*
X636429Y227252D02*
X652571D01*
X668988Y169532D02*
Y173468D01*
X667020Y171500D02*
X670957D01*
X667531Y145937D02*
X671468D01*
X669500Y143968D02*
Y147906D01*
X665031Y180000D02*
X668968D01*
X667000Y178032D02*
Y181969D01*
X665031Y187500D02*
X668968D01*
X667000Y185532D02*
Y189469D01*
X640400Y196031D02*
Y199969D01*
X638432Y198000D02*
X642369D01*
X622000Y183031D02*
Y186969D01*
X620031Y185000D02*
X623969D01*
X620031D02*
X623969D01*
X622000Y183031D02*
Y186969D01*
X609531Y189000D02*
X613469D01*
X611500Y187031D02*
Y190969D01*
Y187031D02*
Y190969D01*
X609531Y189000D02*
X613469D01*
X614941Y160248D02*
Y174815D01*
X631673Y160248D02*
Y174815D01*
X614941D02*
X631673D01*
X614941Y160248D02*
X631673D01*
X545532Y338000D02*
X549469D01*
X547500Y336032D02*
Y339968D01*
X570031Y368000D02*
X573969D01*
X572000Y366032D02*
Y369969D01*
X551506Y363059D02*
X583002D01*
X551506Y335894D02*
X583002D01*
X551506D02*
Y363059D01*
X583002Y335894D02*
Y363059D01*
X574000Y262721D02*
Y266658D01*
X572031Y264689D02*
X575969D01*
X606059Y244687D02*
Y276183D01*
X578894Y244687D02*
Y276183D01*
X606059D01*
X578894Y244687D02*
X606059D01*
X609500Y241032D02*
Y244969D01*
X607531Y243000D02*
X611469D01*
X581000Y278031D02*
Y281968D01*
X579032Y280000D02*
X582969D01*
X561031Y330500D02*
X564968D01*
X563000Y328532D02*
Y332469D01*
X467965Y260756D02*
X518752D01*
X467965Y209968D02*
X518752D01*
X467965D02*
Y260756D01*
X518752Y209968D02*
Y260756D01*
X577032Y300000D02*
X580969D01*
X579000Y298031D02*
Y301969D01*
D91*
X536207Y230000D02*
G03*
X536207Y230000I-707J0D01*
G01*
X534500D02*
X536500D01*
X535500Y229000D02*
Y231000D01*
D92*
X632500Y149500D02*
X634500D01*
X633500Y149000D02*
Y150000D01*
M02*
