G04*
G04 #@! TF.GenerationSoftware,Altium Limited,Altium Designer,22.0.2 (36)*
G04*
G04 Layer_Color=32896*
%FSLAX25Y25*%
%MOIN*%
G70*
G04*
G04 #@! TF.SameCoordinates,7F160BED-0690-4144-9330-6DFC8CD618BD*
G04*
G04*
G04 #@! TF.FilePolarity,Positive*
G04*
G01*
G75*
%ADD88C,0.00200*%
G36*
X769622Y220697D02*
X769613Y220484D01*
X769604Y220290D01*
X769585Y220114D01*
X769567Y219966D01*
X769548Y219836D01*
X769539Y219744D01*
X769530Y219716D01*
X769521Y219689D01*
Y219670D01*
X769474Y219503D01*
X769419Y219356D01*
X769373Y219226D01*
X769317Y219115D01*
X769271Y219022D01*
X769234Y218958D01*
X769206Y218921D01*
X769197Y218902D01*
X769113Y218782D01*
X769012Y218680D01*
X768919Y218579D01*
X768827Y218495D01*
X768744Y218421D01*
X768679Y218366D01*
X768633Y218329D01*
X768614Y218320D01*
X768466Y218227D01*
X768309Y218134D01*
X768161Y218060D01*
X768013Y218005D01*
X767883Y217950D01*
X767781Y217913D01*
X767744Y217903D01*
X767717Y217894D01*
X767698Y217885D01*
X767689D01*
X767467Y217829D01*
X767245Y217783D01*
X767032Y217755D01*
X766829Y217727D01*
X766653Y217718D01*
X766579D01*
X766514Y217709D01*
X766468D01*
X766422D01*
X766403D01*
X766394D01*
X766080Y217718D01*
X765793Y217746D01*
X765534Y217792D01*
X765414Y217811D01*
X765312Y217839D01*
X765210Y217866D01*
X765127Y217885D01*
X765053Y217903D01*
X764988Y217931D01*
X764932Y217940D01*
X764895Y217959D01*
X764877Y217968D01*
X764868D01*
X764627Y218070D01*
X764415Y218190D01*
X764229Y218320D01*
X764072Y218440D01*
X763943Y218551D01*
X763850Y218643D01*
X763823Y218680D01*
X763795Y218708D01*
X763786Y218717D01*
X763776Y218726D01*
X763656Y218875D01*
X763563Y219032D01*
X763480Y219189D01*
X763415Y219337D01*
X763369Y219466D01*
X763342Y219568D01*
X763323Y219605D01*
Y219633D01*
X763314Y219652D01*
Y219661D01*
X763286Y219818D01*
X763258Y220003D01*
X763240Y220188D01*
X763231Y220373D01*
X763221Y220539D01*
Y223000D01*
X769622D01*
Y220697D01*
D02*
G37*
G36*
X767550Y216904D02*
X767744Y216886D01*
X767930Y216858D01*
X768096Y216821D01*
X768253Y216775D01*
X768401Y216728D01*
X768531Y216673D01*
X768651Y216617D01*
X768753Y216562D01*
X768845Y216507D01*
X768919Y216460D01*
X768984Y216414D01*
X769039Y216377D01*
X769076Y216349D01*
X769095Y216331D01*
X769104Y216321D01*
X769215Y216201D01*
X769308Y216081D01*
X769391Y215951D01*
X769465Y215813D01*
X769521Y215683D01*
X769576Y215545D01*
X769650Y215285D01*
X769668Y215165D01*
X769687Y215054D01*
X769705Y214952D01*
X769715Y214869D01*
X769724Y214805D01*
Y214703D01*
X769705Y214416D01*
X769659Y214157D01*
X769604Y213926D01*
X769567Y213833D01*
X769530Y213741D01*
X769493Y213657D01*
X769456Y213583D01*
X769428Y213528D01*
X769400Y213473D01*
X769373Y213436D01*
X769354Y213408D01*
X769336Y213389D01*
Y213380D01*
X769169Y213195D01*
X768993Y213047D01*
X768808Y212917D01*
X768633Y212825D01*
X768475Y212751D01*
X768401Y212723D01*
X768346Y212696D01*
X768290Y212677D01*
X768253Y212668D01*
X768235Y212659D01*
X768225D01*
X768124Y213473D01*
X768299Y213546D01*
X768447Y213630D01*
X768577Y213713D01*
X768679Y213787D01*
X768753Y213852D01*
X768808Y213907D01*
X768845Y213953D01*
X768855Y213963D01*
X768928Y214083D01*
X768984Y214203D01*
X769021Y214333D01*
X769049Y214444D01*
X769067Y214545D01*
X769076Y214629D01*
Y214703D01*
X769067Y214814D01*
X769058Y214915D01*
X769012Y215101D01*
X768947Y215267D01*
X768873Y215415D01*
X768808Y215526D01*
X768744Y215609D01*
X768697Y215665D01*
X768679Y215674D01*
Y215683D01*
X768512Y215813D01*
X768327Y215915D01*
X768124Y215988D01*
X767939Y216044D01*
X767772Y216072D01*
X767698Y216090D01*
X767633Y216100D01*
X767578D01*
X767541Y216109D01*
X767513D01*
X767504D01*
Y212640D01*
X767412Y212631D01*
X767347D01*
X767310D01*
X767301D01*
X767088Y212640D01*
X766893Y212659D01*
X766709Y212686D01*
X766533Y212723D01*
X766375Y212770D01*
X766227Y212816D01*
X766098Y212871D01*
X765978Y212927D01*
X765867Y212982D01*
X765774Y213038D01*
X765700Y213084D01*
X765635Y213130D01*
X765580Y213167D01*
X765543Y213195D01*
X765524Y213213D01*
X765515Y213223D01*
X765404Y213334D01*
X765303Y213454D01*
X765219Y213583D01*
X765145Y213713D01*
X765080Y213843D01*
X765034Y213963D01*
X764988Y214092D01*
X764960Y214203D01*
X764932Y214323D01*
X764914Y214425D01*
X764895Y214518D01*
X764886Y214592D01*
X764877Y214656D01*
Y214749D01*
X764886Y214925D01*
X764905Y215091D01*
X764932Y215248D01*
X764979Y215396D01*
X765025Y215535D01*
X765080Y215665D01*
X765136Y215785D01*
X765201Y215887D01*
X765256Y215988D01*
X765321Y216072D01*
X765377Y216146D01*
X765423Y216201D01*
X765469Y216248D01*
X765497Y216284D01*
X765515Y216303D01*
X765524Y216312D01*
X765654Y216414D01*
X765793Y216507D01*
X765932Y216590D01*
X766080Y216664D01*
X766237Y216719D01*
X766385Y216765D01*
X766681Y216840D01*
X766810Y216867D01*
X766940Y216886D01*
X767051Y216895D01*
X767153Y216904D01*
X767236Y216914D01*
X767291D01*
X767338D01*
X767347D01*
X767550Y216904D01*
D02*
G37*
G36*
X768494Y211918D02*
X768725Y211835D01*
X768910Y211734D01*
X769067Y211632D01*
X769197Y211539D01*
X769280Y211456D01*
X769336Y211401D01*
X769345Y211391D01*
X769354Y211382D01*
X769419Y211290D01*
X769474Y211188D01*
X769567Y210966D01*
X769631Y210735D01*
X769678Y210512D01*
X769696Y210411D01*
X769705Y210318D01*
X769715Y210226D01*
Y210152D01*
X769724Y210087D01*
Y210004D01*
X769715Y209800D01*
X769696Y209625D01*
X769668Y209458D01*
X769631Y209310D01*
X769594Y209190D01*
X769567Y209097D01*
X769548Y209042D01*
X769539Y209033D01*
Y209023D01*
X769456Y208866D01*
X769373Y208736D01*
X769280Y208626D01*
X769197Y208524D01*
X769123Y208450D01*
X769058Y208403D01*
X769021Y208366D01*
X769002Y208357D01*
X768873Y208283D01*
X768734Y208228D01*
X768614Y208182D01*
X768503Y208154D01*
X768401Y208135D01*
X768327Y208126D01*
X768281D01*
X768262D01*
X768115Y208135D01*
X767985Y208154D01*
X767874Y208191D01*
X767772Y208219D01*
X767689Y208256D01*
X767633Y208293D01*
X767596Y208311D01*
X767587Y208320D01*
X767495Y208394D01*
X767412Y208477D01*
X767338Y208561D01*
X767282Y208644D01*
X767236Y208727D01*
X767208Y208783D01*
X767190Y208820D01*
X767180Y208838D01*
X767153Y208903D01*
X767125Y208977D01*
X767060Y209153D01*
X766995Y209347D01*
X766940Y209541D01*
X766884Y209717D01*
X766866Y209800D01*
X766847Y209865D01*
X766829Y209921D01*
X766819Y209967D01*
X766810Y209995D01*
Y210004D01*
X766783Y210105D01*
X766755Y210198D01*
X766736Y210281D01*
X766709Y210355D01*
X766681Y210475D01*
X766653Y210568D01*
X766625Y210633D01*
X766616Y210670D01*
X766607Y210688D01*
Y210698D01*
X766570Y210771D01*
X766542Y210836D01*
X766505Y210892D01*
X766477Y210929D01*
X766449Y210966D01*
X766422Y210984D01*
X766412Y210994D01*
X766403Y211003D01*
X766311Y211058D01*
X766218Y211086D01*
X766181D01*
X766153Y211095D01*
X766135D01*
X766126D01*
X766043Y211086D01*
X765959Y211058D01*
X765885Y211021D01*
X765830Y210975D01*
X765774Y210938D01*
X765737Y210901D01*
X765719Y210873D01*
X765709Y210864D01*
X765645Y210762D01*
X765598Y210642D01*
X765571Y210512D01*
X765543Y210392D01*
X765534Y210272D01*
X765524Y210179D01*
Y210087D01*
X765534Y209930D01*
X765552Y209782D01*
X765589Y209662D01*
X765626Y209569D01*
X765663Y209486D01*
X765700Y209430D01*
X765719Y209393D01*
X765728Y209384D01*
X765811Y209292D01*
X765904Y209227D01*
X765996Y209171D01*
X766080Y209125D01*
X766163Y209097D01*
X766227Y209079D01*
X766264Y209069D01*
X766283D01*
X766181Y208302D01*
X766024Y208339D01*
X765885Y208376D01*
X765765Y208422D01*
X765654Y208468D01*
X765580Y208514D01*
X765515Y208552D01*
X765478Y208570D01*
X765469Y208579D01*
X765377Y208663D01*
X765293Y208755D01*
X765219Y208857D01*
X765155Y208959D01*
X765108Y209051D01*
X765071Y209125D01*
X765053Y209171D01*
X765043Y209180D01*
Y209190D01*
X764988Y209347D01*
X764951Y209513D01*
X764914Y209671D01*
X764895Y209819D01*
X764886Y209958D01*
X764877Y210059D01*
Y210281D01*
X764895Y210411D01*
X764905Y210522D01*
X764923Y210624D01*
X764942Y210707D01*
X764960Y210771D01*
X764969Y210808D01*
X764979Y210827D01*
X765016Y210938D01*
X765053Y211040D01*
X765090Y211123D01*
X765127Y211197D01*
X765155Y211252D01*
X765182Y211290D01*
X765192Y211317D01*
X765201Y211327D01*
X765266Y211419D01*
X765340Y211493D01*
X765423Y211558D01*
X765487Y211613D01*
X765552Y211660D01*
X765598Y211687D01*
X765635Y211706D01*
X765645Y211715D01*
X765746Y211761D01*
X765839Y211798D01*
X765941Y211817D01*
X766024Y211835D01*
X766107Y211844D01*
X766163Y211854D01*
X766200D01*
X766218D01*
X766348Y211844D01*
X766459Y211826D01*
X766570Y211798D01*
X766662Y211771D01*
X766736Y211743D01*
X766801Y211715D01*
X766838Y211697D01*
X766847Y211687D01*
X766949Y211613D01*
X767032Y211530D01*
X767106Y211447D01*
X767171Y211364D01*
X767217Y211290D01*
X767254Y211234D01*
X767273Y211197D01*
X767282Y211178D01*
X767310Y211114D01*
X767347Y211031D01*
X767412Y210845D01*
X767467Y210651D01*
X767532Y210448D01*
X767578Y210272D01*
X767606Y210189D01*
X767624Y210115D01*
X767643Y210059D01*
X767652Y210013D01*
X767661Y209985D01*
Y209976D01*
X767689Y209856D01*
X767717Y209754D01*
X767744Y209662D01*
X767772Y209578D01*
X767791Y209504D01*
X767818Y209439D01*
X767856Y209329D01*
X767883Y209255D01*
X767911Y209208D01*
X767920Y209180D01*
X767930Y209171D01*
X767985Y209088D01*
X768059Y209033D01*
X768124Y208986D01*
X768188Y208959D01*
X768253Y208940D01*
X768299Y208931D01*
X768336D01*
X768346D01*
X768457Y208940D01*
X768549Y208968D01*
X768642Y209014D01*
X768716Y209060D01*
X768781Y209116D01*
X768827Y209153D01*
X768855Y209190D01*
X768864Y209199D01*
X768938Y209310D01*
X768984Y209430D01*
X769021Y209569D01*
X769049Y209699D01*
X769067Y209819D01*
X769076Y209911D01*
Y210004D01*
X769067Y210198D01*
X769039Y210365D01*
X769002Y210503D01*
X768956Y210624D01*
X768910Y210716D01*
X768873Y210790D01*
X768845Y210827D01*
X768836Y210845D01*
X768734Y210947D01*
X768614Y211031D01*
X768494Y211086D01*
X768383Y211132D01*
X768281Y211169D01*
X768188Y211188D01*
X768133Y211206D01*
X768124D01*
X768115D01*
X768235Y211983D01*
X768494Y211918D01*
D02*
G37*
G36*
X769622Y206405D02*
X764979D01*
Y207192D01*
X769622D01*
Y206405D01*
D02*
G37*
G36*
X764118D02*
X763221D01*
Y207192D01*
X764118D01*
Y206405D01*
D02*
G37*
G36*
X767458Y205499D02*
X767633Y205490D01*
X767948Y205425D01*
X768096Y205388D01*
X768225Y205342D01*
X768355Y205295D01*
X768466Y205249D01*
X768577Y205203D01*
X768670Y205157D01*
X768744Y205111D01*
X768818Y205073D01*
X768864Y205036D01*
X768910Y205009D01*
X768928Y204999D01*
X768938Y204990D01*
X769058Y204889D01*
X769160Y204778D01*
X769252Y204657D01*
X769336Y204537D01*
X769400Y204408D01*
X769456Y204287D01*
X769502Y204167D01*
X769539Y204047D01*
X769567Y203936D01*
X769585Y203834D01*
X769604Y203742D01*
X769613Y203658D01*
Y203593D01*
X769622Y203547D01*
Y203501D01*
X769613Y203362D01*
X769594Y203223D01*
X769567Y203094D01*
X769530Y202974D01*
X769428Y202761D01*
X769317Y202567D01*
X769262Y202493D01*
X769206Y202419D01*
X769150Y202354D01*
X769104Y202308D01*
X769067Y202271D01*
X769039Y202243D01*
X769021Y202224D01*
X769012Y202215D01*
X769150D01*
X769271D01*
X769391Y202224D01*
X769493D01*
X769585D01*
X769668Y202234D01*
X769742D01*
X769807Y202243D01*
X769900Y202252D01*
X769974Y202261D01*
X770011Y202271D01*
X770020D01*
X770159Y202317D01*
X770279Y202382D01*
X770381Y202447D01*
X770473Y202511D01*
X770538Y202576D01*
X770594Y202631D01*
X770621Y202668D01*
X770631Y202678D01*
X770705Y202798D01*
X770760Y202937D01*
X770797Y203076D01*
X770825Y203205D01*
X770843Y203334D01*
X770853Y203427D01*
Y203520D01*
X770843Y203695D01*
X770816Y203862D01*
X770779Y204000D01*
X770732Y204112D01*
X770695Y204204D01*
X770658Y204269D01*
X770631Y204306D01*
X770621Y204324D01*
X770556Y204398D01*
X770473Y204454D01*
X770390Y204500D01*
X770307Y204537D01*
X770224Y204556D01*
X770159Y204574D01*
X770122Y204583D01*
X770103D01*
X770002Y205351D01*
X770140D01*
X770260Y205332D01*
X770381Y205314D01*
X770492Y205286D01*
X770686Y205203D01*
X770843Y205111D01*
X770963Y205018D01*
X771047Y204944D01*
X771102Y204879D01*
X771111Y204870D01*
X771121Y204861D01*
X771250Y204657D01*
X771343Y204435D01*
X771408Y204213D01*
X771454Y204000D01*
X771472Y203899D01*
X771482Y203806D01*
X771491Y203732D01*
Y203658D01*
X771500Y203603D01*
Y203520D01*
X771491Y203270D01*
X771454Y203039D01*
X771417Y202835D01*
X771361Y202668D01*
X771315Y202530D01*
X771297Y202474D01*
X771269Y202428D01*
X771259Y202391D01*
X771241Y202363D01*
X771232Y202354D01*
Y202345D01*
X771130Y202178D01*
X771010Y202030D01*
X770890Y201910D01*
X770779Y201808D01*
X770677Y201734D01*
X770594Y201688D01*
X770538Y201651D01*
X770529Y201642D01*
X770519D01*
X770427Y201605D01*
X770325Y201568D01*
X770214Y201540D01*
X770094Y201512D01*
X769835Y201475D01*
X769585Y201448D01*
X769465Y201438D01*
X769354Y201429D01*
X769252D01*
X769169Y201420D01*
X769095D01*
X769039D01*
X769002D01*
X768993D01*
X764979D01*
Y202141D01*
X765552D01*
X765432Y202243D01*
X765330Y202354D01*
X765238Y202465D01*
X765164Y202576D01*
X765099Y202696D01*
X765043Y202807D01*
X764997Y202918D01*
X764960Y203020D01*
X764932Y203122D01*
X764914Y203214D01*
X764895Y203297D01*
X764886Y203362D01*
X764877Y203418D01*
Y203501D01*
X764886Y203723D01*
X764923Y203926D01*
X764979Y204112D01*
X765034Y204269D01*
X765090Y204398D01*
X765145Y204491D01*
X765164Y204528D01*
X765182Y204556D01*
X765192Y204565D01*
Y204574D01*
X765312Y204731D01*
X765460Y204870D01*
X765598Y204990D01*
X765737Y205092D01*
X765867Y205166D01*
X765969Y205222D01*
X766006Y205240D01*
X766033Y205258D01*
X766052Y205268D01*
X766061D01*
X766274Y205351D01*
X766487Y205406D01*
X766690Y205453D01*
X766875Y205481D01*
X767041Y205499D01*
X767106D01*
X767171Y205508D01*
X767217D01*
X767254D01*
X767273D01*
X767282D01*
X767458Y205499D01*
D02*
G37*
G36*
X769622Y199440D02*
X767097D01*
X766940D01*
X766783Y199422D01*
X766653Y199403D01*
X766533Y199385D01*
X766422Y199357D01*
X766320Y199329D01*
X766227Y199292D01*
X766153Y199255D01*
X766089Y199227D01*
X766033Y199190D01*
X765987Y199163D01*
X765950Y199135D01*
X765904Y199098D01*
X765885Y199080D01*
X765774Y198941D01*
X765700Y198793D01*
X765645Y198645D01*
X765598Y198515D01*
X765580Y198395D01*
X765571Y198302D01*
X765561Y198266D01*
Y198219D01*
X765571Y198108D01*
X765580Y197997D01*
X765608Y197905D01*
X765635Y197831D01*
X765663Y197766D01*
X765682Y197711D01*
X765700Y197683D01*
X765709Y197673D01*
X765765Y197590D01*
X765830Y197516D01*
X765895Y197461D01*
X765950Y197415D01*
X766006Y197387D01*
X766052Y197359D01*
X766080Y197341D01*
X766089D01*
X766190Y197313D01*
X766301Y197285D01*
X766422Y197266D01*
X766542Y197257D01*
X766644Y197248D01*
X766727D01*
X766792D01*
X766801D01*
X766810D01*
X769622D01*
Y196462D01*
X766773D01*
X766579D01*
X766422Y196471D01*
X766292Y196480D01*
X766181D01*
X766107Y196490D01*
X766052Y196499D01*
X766015Y196508D01*
X766006D01*
X765885Y196536D01*
X765774Y196582D01*
X765682Y196619D01*
X765589Y196656D01*
X765524Y196702D01*
X765478Y196730D01*
X765441Y196748D01*
X765432Y196758D01*
X765340Y196832D01*
X765266Y196915D01*
X765192Y196998D01*
X765136Y197091D01*
X765090Y197165D01*
X765062Y197230D01*
X765043Y197266D01*
X765034Y197285D01*
X764979Y197415D01*
X764942Y197553D01*
X764914Y197683D01*
X764895Y197803D01*
X764886Y197905D01*
X764877Y197979D01*
Y198053D01*
X764886Y198229D01*
X764914Y198395D01*
X764951Y198543D01*
X764997Y198691D01*
X765053Y198820D01*
X765118Y198941D01*
X765192Y199052D01*
X765256Y199144D01*
X765330Y199237D01*
X765404Y199311D01*
X765469Y199375D01*
X765524Y199431D01*
X765571Y199468D01*
X765608Y199496D01*
X765635Y199514D01*
X765645Y199523D01*
X764979D01*
Y200226D01*
X769622D01*
Y199440D01*
D02*
G37*
G36*
X767550Y195509D02*
X767744Y195491D01*
X767930Y195463D01*
X768096Y195426D01*
X768253Y195379D01*
X768401Y195333D01*
X768531Y195278D01*
X768651Y195222D01*
X768753Y195167D01*
X768845Y195111D01*
X768919Y195065D01*
X768984Y195019D01*
X769039Y194982D01*
X769076Y194954D01*
X769095Y194936D01*
X769104Y194926D01*
X769215Y194806D01*
X769308Y194686D01*
X769391Y194556D01*
X769465Y194418D01*
X769521Y194288D01*
X769576Y194149D01*
X769650Y193890D01*
X769668Y193770D01*
X769687Y193659D01*
X769705Y193557D01*
X769715Y193474D01*
X769724Y193409D01*
Y193307D01*
X769705Y193021D01*
X769659Y192762D01*
X769604Y192531D01*
X769567Y192438D01*
X769530Y192345D01*
X769493Y192262D01*
X769456Y192188D01*
X769428Y192133D01*
X769400Y192077D01*
X769373Y192040D01*
X769354Y192013D01*
X769336Y191994D01*
Y191985D01*
X769169Y191800D01*
X768993Y191652D01*
X768808Y191522D01*
X768633Y191430D01*
X768475Y191356D01*
X768401Y191328D01*
X768346Y191300D01*
X768290Y191282D01*
X768253Y191272D01*
X768235Y191263D01*
X768225D01*
X768124Y192077D01*
X768299Y192151D01*
X768447Y192235D01*
X768577Y192318D01*
X768679Y192392D01*
X768753Y192456D01*
X768808Y192512D01*
X768845Y192558D01*
X768855Y192568D01*
X768928Y192688D01*
X768984Y192808D01*
X769021Y192938D01*
X769049Y193049D01*
X769067Y193150D01*
X769076Y193234D01*
Y193307D01*
X769067Y193419D01*
X769058Y193520D01*
X769012Y193705D01*
X768947Y193872D01*
X768873Y194020D01*
X768808Y194131D01*
X768744Y194214D01*
X768697Y194270D01*
X768679Y194279D01*
Y194288D01*
X768512Y194418D01*
X768327Y194519D01*
X768124Y194593D01*
X767939Y194649D01*
X767772Y194676D01*
X767698Y194695D01*
X767633Y194704D01*
X767578D01*
X767541Y194713D01*
X767513D01*
X767504D01*
Y191245D01*
X767412Y191235D01*
X767347D01*
X767310D01*
X767301D01*
X767088Y191245D01*
X766893Y191263D01*
X766709Y191291D01*
X766533Y191328D01*
X766375Y191374D01*
X766227Y191420D01*
X766098Y191476D01*
X765978Y191532D01*
X765867Y191587D01*
X765774Y191642D01*
X765700Y191689D01*
X765635Y191735D01*
X765580Y191772D01*
X765543Y191800D01*
X765524Y191818D01*
X765515Y191827D01*
X765404Y191938D01*
X765303Y192059D01*
X765219Y192188D01*
X765145Y192318D01*
X765080Y192447D01*
X765034Y192568D01*
X764988Y192697D01*
X764960Y192808D01*
X764932Y192928D01*
X764914Y193030D01*
X764895Y193122D01*
X764886Y193196D01*
X764877Y193261D01*
Y193354D01*
X764886Y193529D01*
X764905Y193696D01*
X764932Y193853D01*
X764979Y194001D01*
X765025Y194140D01*
X765080Y194270D01*
X765136Y194390D01*
X765201Y194492D01*
X765256Y194593D01*
X765321Y194676D01*
X765377Y194750D01*
X765423Y194806D01*
X765469Y194852D01*
X765497Y194889D01*
X765515Y194908D01*
X765524Y194917D01*
X765654Y195019D01*
X765793Y195111D01*
X765932Y195194D01*
X766080Y195268D01*
X766237Y195324D01*
X766385Y195370D01*
X766681Y195444D01*
X766810Y195472D01*
X766940Y195491D01*
X767051Y195500D01*
X767153Y195509D01*
X767236Y195518D01*
X767291D01*
X767338D01*
X767347D01*
X767550Y195509D01*
D02*
G37*
G36*
X767569Y190560D02*
X767809Y190533D01*
X768022Y190486D01*
X768207Y190440D01*
X768290Y190421D01*
X768355Y190403D01*
X768420Y190375D01*
X768475Y190357D01*
X768512Y190338D01*
X768540Y190329D01*
X768559Y190320D01*
X768568D01*
X768762Y190218D01*
X768928Y190098D01*
X769076Y189978D01*
X769197Y189857D01*
X769289Y189755D01*
X769363Y189672D01*
X769400Y189617D01*
X769419Y189608D01*
Y189598D01*
X769521Y189423D01*
X769594Y189247D01*
X769650Y189071D01*
X769687Y188914D01*
X769705Y188784D01*
X769715Y188673D01*
X769724Y188636D01*
Y188581D01*
X769715Y188424D01*
X769696Y188276D01*
X769659Y188137D01*
X769613Y188016D01*
X769567Y187896D01*
X769511Y187785D01*
X769447Y187693D01*
X769382Y187610D01*
X769317Y187526D01*
X769252Y187461D01*
X769197Y187406D01*
X769150Y187360D01*
X769104Y187323D01*
X769067Y187295D01*
X769049Y187286D01*
X769039Y187276D01*
X769622D01*
Y186546D01*
X763221D01*
Y187332D01*
X765515D01*
X765414Y187415D01*
X765330Y187508D01*
X765247Y187591D01*
X765182Y187683D01*
X765136Y187758D01*
X765090Y187813D01*
X765071Y187850D01*
X765062Y187868D01*
X764997Y187989D01*
X764951Y188118D01*
X764923Y188248D01*
X764895Y188368D01*
X764886Y188470D01*
X764877Y188544D01*
Y188618D01*
X764886Y188821D01*
X764923Y189015D01*
X764969Y189191D01*
X765025Y189339D01*
X765090Y189469D01*
X765136Y189561D01*
X765155Y189598D01*
X765173Y189626D01*
X765182Y189635D01*
Y189645D01*
X765303Y189811D01*
X765450Y189950D01*
X765589Y190070D01*
X765728Y190163D01*
X765858Y190236D01*
X765959Y190292D01*
X765996Y190311D01*
X766024Y190329D01*
X766043Y190338D01*
X766052D01*
X766264Y190412D01*
X766487Y190468D01*
X766699Y190514D01*
X766893Y190542D01*
X767060Y190560D01*
X767134D01*
X767190Y190569D01*
X767245D01*
X767282D01*
X767301D01*
X767310D01*
X767569Y190560D01*
D02*
G37*
G36*
X769622Y182097D02*
X769039D01*
X769160Y182004D01*
X769262Y181912D01*
X769354Y181810D01*
X769437Y181699D01*
X769502Y181597D01*
X769558Y181486D01*
X769604Y181384D01*
X769641Y181282D01*
X769687Y181097D01*
X769705Y181014D01*
X769715Y180949D01*
Y180894D01*
X769724Y180848D01*
Y180811D01*
X769715Y180663D01*
X769696Y180515D01*
X769668Y180376D01*
X769622Y180246D01*
X769521Y179997D01*
X769456Y179895D01*
X769400Y179793D01*
X769336Y179701D01*
X769280Y179627D01*
X769225Y179562D01*
X769178Y179497D01*
X769132Y179451D01*
X769104Y179423D01*
X769086Y179405D01*
X769076Y179395D01*
X768947Y179294D01*
X768808Y179201D01*
X768670Y179118D01*
X768512Y179053D01*
X768364Y178998D01*
X768207Y178952D01*
X767911Y178877D01*
X767772Y178850D01*
X767643Y178831D01*
X767532Y178822D01*
X767430Y178813D01*
X767347Y178804D01*
X767291D01*
X767245D01*
X767236D01*
X767051Y178813D01*
X766875Y178822D01*
X766718Y178850D01*
X766579Y178877D01*
X766459Y178905D01*
X766366Y178924D01*
X766338Y178933D01*
X766311Y178942D01*
X766301Y178952D01*
X766292D01*
X766135Y179007D01*
X765987Y179072D01*
X765858Y179137D01*
X765746Y179201D01*
X765663Y179257D01*
X765598Y179303D01*
X765552Y179331D01*
X765543Y179340D01*
X765432Y179432D01*
X765330Y179543D01*
X765247Y179645D01*
X765182Y179747D01*
X765127Y179830D01*
X765080Y179904D01*
X765062Y179950D01*
X765053Y179969D01*
X764997Y180108D01*
X764951Y180256D01*
X764923Y180394D01*
X764895Y180515D01*
X764886Y180616D01*
X764877Y180700D01*
Y180774D01*
X764886Y180912D01*
X764905Y181051D01*
X764932Y181181D01*
X764979Y181301D01*
X765071Y181514D01*
X765192Y181699D01*
X765247Y181773D01*
X765303Y181847D01*
X765358Y181902D01*
X765404Y181948D01*
X765450Y181995D01*
X765478Y182023D01*
X765497Y182032D01*
X765506Y182041D01*
X763221D01*
Y182827D01*
X769622D01*
Y182097D01*
D02*
G37*
G36*
Y176528D02*
X769705Y176565D01*
X769770Y176584D01*
X769807Y176602D01*
X769816D01*
X769974Y176657D01*
X770103Y176713D01*
X770214Y176750D01*
X770288Y176787D01*
X770344Y176805D01*
X770381Y176824D01*
X770399Y176842D01*
X770408D01*
X770510Y176917D01*
X770584Y177000D01*
X770612Y177037D01*
X770631Y177065D01*
X770649Y177083D01*
Y177092D01*
X770677Y177157D01*
X770705Y177222D01*
X770732Y177360D01*
Y177416D01*
X770742Y177462D01*
Y177508D01*
X770732Y177656D01*
X770705Y177805D01*
X770686Y177860D01*
X770677Y177906D01*
X770668Y177943D01*
Y177953D01*
X771398Y177869D01*
X771435Y177768D01*
X771454Y177675D01*
X771472Y177592D01*
X771491Y177518D01*
Y177453D01*
X771500Y177407D01*
Y177370D01*
X771491Y177231D01*
X771472Y177111D01*
X771445Y177000D01*
X771408Y176907D01*
X771371Y176824D01*
X771343Y176769D01*
X771324Y176732D01*
X771315Y176722D01*
X771241Y176620D01*
X771148Y176537D01*
X771056Y176454D01*
X770963Y176380D01*
X770880Y176324D01*
X770816Y176278D01*
X770769Y176251D01*
X770751Y176241D01*
X770686Y176214D01*
X770621Y176177D01*
X770464Y176102D01*
X770288Y176029D01*
X770113Y175964D01*
X769955Y175899D01*
X769881Y175871D01*
X769816Y175844D01*
X769770Y175825D01*
X769733Y175806D01*
X769705Y175797D01*
X769696D01*
X764979Y174030D01*
Y174817D01*
X767689Y175816D01*
X767883Y175890D01*
X768068Y175945D01*
X768253Y176010D01*
X768410Y176056D01*
X768549Y176093D01*
X768605Y176112D01*
X768651Y176121D01*
X768688Y176130D01*
X768716Y176139D01*
X768734Y176149D01*
X768744D01*
X768531Y176204D01*
X768336Y176260D01*
X768152Y176315D01*
X767994Y176371D01*
X767865Y176417D01*
X767809Y176435D01*
X767763Y176454D01*
X767717Y176463D01*
X767689Y176472D01*
X767680Y176482D01*
X767670D01*
X764979Y177453D01*
Y178286D01*
X769622Y176528D01*
D02*
G37*
G36*
Y170081D02*
X767088D01*
X766893Y170071D01*
X766727Y170062D01*
X766579Y170044D01*
X766459Y170016D01*
X766366Y169988D01*
X766292Y169970D01*
X766255Y169960D01*
X766237Y169951D01*
X766126Y169896D01*
X766024Y169831D01*
X765941Y169757D01*
X765867Y169683D01*
X765811Y169618D01*
X765774Y169563D01*
X765746Y169526D01*
X765737Y169517D01*
X765672Y169396D01*
X765626Y169285D01*
X765598Y169174D01*
X765571Y169082D01*
X765561Y168989D01*
X765552Y168924D01*
Y168869D01*
X765561Y168702D01*
X765598Y168554D01*
X765635Y168434D01*
X765691Y168333D01*
X765737Y168249D01*
X765784Y168194D01*
X765821Y168157D01*
X765830Y168148D01*
X765941Y168064D01*
X766080Y167999D01*
X766218Y167953D01*
X766357Y167916D01*
X766487Y167898D01*
X766588Y167888D01*
X766625D01*
X766653D01*
X766672D01*
X766681D01*
X769622D01*
Y167102D01*
X766690D01*
X766449Y167112D01*
X766237Y167130D01*
X766061Y167158D01*
X765913Y167185D01*
X765793Y167213D01*
X765709Y167241D01*
X765663Y167260D01*
X765645Y167269D01*
X765515Y167343D01*
X765404Y167426D01*
X765312Y167518D01*
X765229Y167602D01*
X765164Y167685D01*
X765118Y167750D01*
X765090Y167796D01*
X765080Y167815D01*
X765016Y167963D01*
X764960Y168111D01*
X764923Y168259D01*
X764905Y168397D01*
X764886Y168517D01*
X764877Y168619D01*
Y168702D01*
X764886Y168851D01*
X764905Y168999D01*
X764932Y169137D01*
X764979Y169267D01*
X765080Y169507D01*
X765136Y169609D01*
X765192Y169702D01*
X765256Y169785D01*
X765312Y169868D01*
X765367Y169933D01*
X765414Y169979D01*
X765460Y170025D01*
X765487Y170053D01*
X765506Y170071D01*
X765515Y170081D01*
X763221D01*
Y170867D01*
X769622D01*
Y170081D01*
D02*
G37*
G36*
X767550Y166149D02*
X767744Y166131D01*
X767930Y166103D01*
X768096Y166066D01*
X768253Y166020D01*
X768401Y165974D01*
X768531Y165918D01*
X768651Y165863D01*
X768753Y165807D01*
X768845Y165752D01*
X768919Y165706D01*
X768984Y165659D01*
X769039Y165622D01*
X769076Y165594D01*
X769095Y165576D01*
X769104Y165567D01*
X769215Y165446D01*
X769308Y165326D01*
X769391Y165197D01*
X769465Y165058D01*
X769521Y164928D01*
X769576Y164790D01*
X769650Y164531D01*
X769668Y164410D01*
X769687Y164299D01*
X769705Y164198D01*
X769715Y164114D01*
X769724Y164050D01*
Y163948D01*
X769705Y163661D01*
X769659Y163402D01*
X769604Y163171D01*
X769567Y163078D01*
X769530Y162986D01*
X769493Y162903D01*
X769456Y162829D01*
X769428Y162773D01*
X769400Y162718D01*
X769373Y162681D01*
X769354Y162653D01*
X769336Y162635D01*
Y162625D01*
X769169Y162440D01*
X768993Y162292D01*
X768808Y162163D01*
X768633Y162070D01*
X768475Y161996D01*
X768401Y161969D01*
X768346Y161941D01*
X768290Y161922D01*
X768253Y161913D01*
X768235Y161904D01*
X768225D01*
X768124Y162718D01*
X768299Y162792D01*
X768447Y162875D01*
X768577Y162958D01*
X768679Y163032D01*
X768753Y163097D01*
X768808Y163153D01*
X768845Y163199D01*
X768855Y163208D01*
X768928Y163328D01*
X768984Y163449D01*
X769021Y163578D01*
X769049Y163689D01*
X769067Y163791D01*
X769076Y163874D01*
Y163948D01*
X769067Y164059D01*
X769058Y164161D01*
X769012Y164346D01*
X768947Y164512D01*
X768873Y164660D01*
X768808Y164771D01*
X768744Y164855D01*
X768697Y164910D01*
X768679Y164919D01*
Y164928D01*
X768512Y165058D01*
X768327Y165160D01*
X768124Y165234D01*
X767939Y165289D01*
X767772Y165317D01*
X767698Y165336D01*
X767633Y165345D01*
X767578D01*
X767541Y165354D01*
X767513D01*
X767504D01*
Y161885D01*
X767412Y161876D01*
X767347D01*
X767310D01*
X767301D01*
X767088Y161885D01*
X766893Y161904D01*
X766709Y161932D01*
X766533Y161969D01*
X766375Y162015D01*
X766227Y162061D01*
X766098Y162117D01*
X765978Y162172D01*
X765867Y162227D01*
X765774Y162283D01*
X765700Y162329D01*
X765635Y162375D01*
X765580Y162413D01*
X765543Y162440D01*
X765524Y162459D01*
X765515Y162468D01*
X765404Y162579D01*
X765303Y162699D01*
X765219Y162829D01*
X765145Y162958D01*
X765080Y163088D01*
X765034Y163208D01*
X764988Y163338D01*
X764960Y163449D01*
X764932Y163569D01*
X764914Y163671D01*
X764895Y163763D01*
X764886Y163837D01*
X764877Y163902D01*
Y163994D01*
X764886Y164170D01*
X764905Y164337D01*
X764932Y164494D01*
X764979Y164642D01*
X765025Y164780D01*
X765080Y164910D01*
X765136Y165030D01*
X765201Y165132D01*
X765256Y165234D01*
X765321Y165317D01*
X765377Y165391D01*
X765423Y165446D01*
X765469Y165493D01*
X765497Y165530D01*
X765515Y165548D01*
X765524Y165558D01*
X765654Y165659D01*
X765793Y165752D01*
X765932Y165835D01*
X766080Y165909D01*
X766237Y165964D01*
X766385Y166011D01*
X766681Y166085D01*
X766810Y166112D01*
X766940Y166131D01*
X767051Y166140D01*
X767153Y166149D01*
X767236Y166159D01*
X767291D01*
X767338D01*
X767347D01*
X767550Y166149D01*
D02*
G37*
G36*
X769622Y160128D02*
X764979D01*
Y160914D01*
X769622D01*
Y160128D01*
D02*
G37*
G36*
X764118D02*
X763221D01*
Y160914D01*
X764118D01*
Y160128D01*
D02*
G37*
G36*
X768494Y159175D02*
X768725Y159092D01*
X768910Y158990D01*
X769067Y158888D01*
X769197Y158796D01*
X769280Y158712D01*
X769336Y158657D01*
X769345Y158648D01*
X769354Y158639D01*
X769419Y158546D01*
X769474Y158444D01*
X769567Y158222D01*
X769631Y157991D01*
X769678Y157769D01*
X769696Y157667D01*
X769705Y157575D01*
X769715Y157482D01*
Y157408D01*
X769724Y157343D01*
Y157260D01*
X769715Y157057D01*
X769696Y156881D01*
X769668Y156714D01*
X769631Y156567D01*
X769594Y156446D01*
X769567Y156354D01*
X769548Y156298D01*
X769539Y156289D01*
Y156280D01*
X769456Y156123D01*
X769373Y155993D01*
X769280Y155882D01*
X769197Y155780D01*
X769123Y155706D01*
X769058Y155660D01*
X769021Y155623D01*
X769002Y155614D01*
X768873Y155540D01*
X768734Y155484D01*
X768614Y155438D01*
X768503Y155410D01*
X768401Y155392D01*
X768327Y155383D01*
X768281D01*
X768262D01*
X768115Y155392D01*
X767985Y155410D01*
X767874Y155447D01*
X767772Y155475D01*
X767689Y155512D01*
X767633Y155549D01*
X767596Y155568D01*
X767587Y155577D01*
X767495Y155651D01*
X767412Y155734D01*
X767338Y155817D01*
X767282Y155901D01*
X767236Y155984D01*
X767208Y156039D01*
X767190Y156076D01*
X767180Y156095D01*
X767153Y156159D01*
X767125Y156234D01*
X767060Y156409D01*
X766995Y156604D01*
X766940Y156798D01*
X766884Y156974D01*
X766866Y157057D01*
X766847Y157122D01*
X766829Y157177D01*
X766819Y157223D01*
X766810Y157251D01*
Y157260D01*
X766783Y157362D01*
X766755Y157455D01*
X766736Y157538D01*
X766709Y157612D01*
X766681Y157732D01*
X766653Y157825D01*
X766625Y157889D01*
X766616Y157926D01*
X766607Y157945D01*
Y157954D01*
X766570Y158028D01*
X766542Y158093D01*
X766505Y158148D01*
X766477Y158185D01*
X766449Y158222D01*
X766422Y158241D01*
X766412Y158250D01*
X766403Y158259D01*
X766311Y158315D01*
X766218Y158343D01*
X766181D01*
X766153Y158352D01*
X766135D01*
X766126D01*
X766043Y158343D01*
X765959Y158315D01*
X765885Y158278D01*
X765830Y158231D01*
X765774Y158194D01*
X765737Y158158D01*
X765719Y158130D01*
X765709Y158121D01*
X765645Y158019D01*
X765598Y157898D01*
X765571Y157769D01*
X765543Y157649D01*
X765534Y157528D01*
X765524Y157436D01*
Y157343D01*
X765534Y157186D01*
X765552Y157038D01*
X765589Y156918D01*
X765626Y156825D01*
X765663Y156742D01*
X765700Y156687D01*
X765719Y156650D01*
X765728Y156641D01*
X765811Y156548D01*
X765904Y156483D01*
X765996Y156428D01*
X766080Y156381D01*
X766163Y156354D01*
X766227Y156335D01*
X766264Y156326D01*
X766283D01*
X766181Y155558D01*
X766024Y155595D01*
X765885Y155632D01*
X765765Y155678D01*
X765654Y155725D01*
X765580Y155771D01*
X765515Y155808D01*
X765478Y155826D01*
X765469Y155836D01*
X765377Y155919D01*
X765293Y156011D01*
X765219Y156113D01*
X765155Y156215D01*
X765108Y156307D01*
X765071Y156381D01*
X765053Y156428D01*
X765043Y156437D01*
Y156446D01*
X764988Y156604D01*
X764951Y156770D01*
X764914Y156927D01*
X764895Y157075D01*
X764886Y157214D01*
X764877Y157316D01*
Y157538D01*
X764895Y157667D01*
X764905Y157778D01*
X764923Y157880D01*
X764942Y157963D01*
X764960Y158028D01*
X764969Y158065D01*
X764979Y158083D01*
X765016Y158194D01*
X765053Y158296D01*
X765090Y158379D01*
X765127Y158454D01*
X765155Y158509D01*
X765182Y158546D01*
X765192Y158574D01*
X765201Y158583D01*
X765266Y158676D01*
X765340Y158749D01*
X765423Y158814D01*
X765487Y158870D01*
X765552Y158916D01*
X765598Y158944D01*
X765635Y158962D01*
X765645Y158972D01*
X765746Y159018D01*
X765839Y159055D01*
X765941Y159073D01*
X766024Y159092D01*
X766107Y159101D01*
X766163Y159110D01*
X766200D01*
X766218D01*
X766348Y159101D01*
X766459Y159082D01*
X766570Y159055D01*
X766662Y159027D01*
X766736Y158999D01*
X766801Y158972D01*
X766838Y158953D01*
X766847Y158944D01*
X766949Y158870D01*
X767032Y158786D01*
X767106Y158703D01*
X767171Y158620D01*
X767217Y158546D01*
X767254Y158491D01*
X767273Y158454D01*
X767282Y158435D01*
X767310Y158370D01*
X767347Y158287D01*
X767412Y158102D01*
X767467Y157908D01*
X767532Y157704D01*
X767578Y157528D01*
X767606Y157445D01*
X767624Y157371D01*
X767643Y157316D01*
X767652Y157270D01*
X767661Y157242D01*
Y157232D01*
X767689Y157112D01*
X767717Y157010D01*
X767744Y156918D01*
X767772Y156835D01*
X767791Y156761D01*
X767818Y156696D01*
X767856Y156585D01*
X767883Y156511D01*
X767911Y156465D01*
X767920Y156437D01*
X767930Y156428D01*
X767985Y156344D01*
X768059Y156289D01*
X768124Y156243D01*
X768188Y156215D01*
X768253Y156196D01*
X768299Y156187D01*
X768336D01*
X768346D01*
X768457Y156196D01*
X768549Y156224D01*
X768642Y156271D01*
X768716Y156317D01*
X768781Y156372D01*
X768827Y156409D01*
X768855Y156446D01*
X768864Y156456D01*
X768938Y156567D01*
X768984Y156687D01*
X769021Y156825D01*
X769049Y156955D01*
X769067Y157075D01*
X769076Y157168D01*
Y157260D01*
X769067Y157455D01*
X769039Y157621D01*
X769002Y157760D01*
X768956Y157880D01*
X768910Y157973D01*
X768873Y158046D01*
X768845Y158083D01*
X768836Y158102D01*
X768734Y158204D01*
X768614Y158287D01*
X768494Y158343D01*
X768383Y158389D01*
X768281Y158426D01*
X768188Y158444D01*
X768133Y158463D01*
X768124D01*
X768115D01*
X768235Y159240D01*
X768494Y159175D01*
D02*
G37*
G36*
X767550Y154707D02*
X767744Y154689D01*
X767930Y154661D01*
X768096Y154624D01*
X768253Y154578D01*
X768401Y154532D01*
X768531Y154476D01*
X768651Y154420D01*
X768753Y154365D01*
X768845Y154309D01*
X768919Y154263D01*
X768984Y154217D01*
X769039Y154180D01*
X769076Y154152D01*
X769095Y154134D01*
X769104Y154124D01*
X769215Y154004D01*
X769308Y153884D01*
X769391Y153754D01*
X769465Y153616D01*
X769521Y153486D01*
X769576Y153348D01*
X769650Y153088D01*
X769668Y152968D01*
X769687Y152857D01*
X769705Y152755D01*
X769715Y152672D01*
X769724Y152608D01*
Y152506D01*
X769705Y152219D01*
X769659Y151960D01*
X769604Y151729D01*
X769567Y151636D01*
X769530Y151544D01*
X769493Y151461D01*
X769456Y151386D01*
X769428Y151331D01*
X769400Y151276D01*
X769373Y151239D01*
X769354Y151211D01*
X769336Y151192D01*
Y151183D01*
X769169Y150998D01*
X768993Y150850D01*
X768808Y150721D01*
X768633Y150628D01*
X768475Y150554D01*
X768401Y150526D01*
X768346Y150498D01*
X768290Y150480D01*
X768253Y150471D01*
X768235Y150461D01*
X768225D01*
X768124Y151276D01*
X768299Y151349D01*
X768447Y151433D01*
X768577Y151516D01*
X768679Y151590D01*
X768753Y151655D01*
X768808Y151710D01*
X768845Y151757D01*
X768855Y151766D01*
X768928Y151886D01*
X768984Y152006D01*
X769021Y152136D01*
X769049Y152247D01*
X769067Y152348D01*
X769076Y152432D01*
Y152506D01*
X769067Y152617D01*
X769058Y152718D01*
X769012Y152903D01*
X768947Y153070D01*
X768873Y153218D01*
X768808Y153329D01*
X768744Y153412D01*
X768697Y153468D01*
X768679Y153477D01*
Y153486D01*
X768512Y153616D01*
X768327Y153718D01*
X768124Y153791D01*
X767939Y153847D01*
X767772Y153875D01*
X767698Y153893D01*
X767633Y153902D01*
X767578D01*
X767541Y153912D01*
X767513D01*
X767504D01*
Y150443D01*
X767412Y150434D01*
X767347D01*
X767310D01*
X767301D01*
X767088Y150443D01*
X766893Y150461D01*
X766709Y150489D01*
X766533Y150526D01*
X766375Y150573D01*
X766227Y150619D01*
X766098Y150674D01*
X765978Y150730D01*
X765867Y150785D01*
X765774Y150841D01*
X765700Y150887D01*
X765635Y150933D01*
X765580Y150970D01*
X765543Y150998D01*
X765524Y151016D01*
X765515Y151026D01*
X765404Y151137D01*
X765303Y151257D01*
X765219Y151386D01*
X765145Y151516D01*
X765080Y151646D01*
X765034Y151766D01*
X764988Y151895D01*
X764960Y152006D01*
X764932Y152127D01*
X764914Y152228D01*
X764895Y152321D01*
X764886Y152395D01*
X764877Y152460D01*
Y152552D01*
X764886Y152728D01*
X764905Y152894D01*
X764932Y153051D01*
X764979Y153200D01*
X765025Y153338D01*
X765080Y153468D01*
X765136Y153588D01*
X765201Y153690D01*
X765256Y153791D01*
X765321Y153875D01*
X765377Y153949D01*
X765423Y154004D01*
X765469Y154051D01*
X765497Y154087D01*
X765515Y154106D01*
X765524Y154115D01*
X765654Y154217D01*
X765793Y154309D01*
X765932Y154393D01*
X766080Y154467D01*
X766237Y154522D01*
X766385Y154569D01*
X766681Y154642D01*
X766810Y154670D01*
X766940Y154689D01*
X767051Y154698D01*
X767153Y154707D01*
X767236Y154717D01*
X767291D01*
X767338D01*
X767347D01*
X767550Y154707D01*
D02*
G37*
G36*
X769622Y148686D02*
X767097D01*
X766940D01*
X766783Y148667D01*
X766653Y148649D01*
X766533Y148630D01*
X766422Y148602D01*
X766320Y148574D01*
X766227Y148538D01*
X766153Y148501D01*
X766089Y148473D01*
X766033Y148436D01*
X765987Y148408D01*
X765950Y148380D01*
X765904Y148343D01*
X765885Y148325D01*
X765774Y148186D01*
X765700Y148038D01*
X765645Y147890D01*
X765598Y147760D01*
X765580Y147640D01*
X765571Y147548D01*
X765561Y147511D01*
Y147465D01*
X765571Y147353D01*
X765580Y147242D01*
X765608Y147150D01*
X765635Y147076D01*
X765663Y147011D01*
X765682Y146956D01*
X765700Y146928D01*
X765709Y146919D01*
X765765Y146835D01*
X765830Y146762D01*
X765895Y146706D01*
X765950Y146660D01*
X766006Y146632D01*
X766052Y146604D01*
X766080Y146586D01*
X766089D01*
X766190Y146558D01*
X766301Y146530D01*
X766422Y146512D01*
X766542Y146502D01*
X766644Y146493D01*
X766727D01*
X766792D01*
X766801D01*
X766810D01*
X769622D01*
Y145707D01*
X766773D01*
X766579D01*
X766422Y145716D01*
X766292Y145726D01*
X766181D01*
X766107Y145735D01*
X766052Y145744D01*
X766015Y145753D01*
X766006D01*
X765885Y145781D01*
X765774Y145827D01*
X765682Y145864D01*
X765589Y145901D01*
X765524Y145948D01*
X765478Y145975D01*
X765441Y145994D01*
X765432Y146003D01*
X765340Y146077D01*
X765266Y146160D01*
X765192Y146244D01*
X765136Y146336D01*
X765090Y146410D01*
X765062Y146475D01*
X765043Y146512D01*
X765034Y146530D01*
X764979Y146660D01*
X764942Y146799D01*
X764914Y146928D01*
X764895Y147048D01*
X764886Y147150D01*
X764877Y147224D01*
Y147298D01*
X764886Y147474D01*
X764914Y147640D01*
X764951Y147788D01*
X764997Y147936D01*
X765053Y148066D01*
X765118Y148186D01*
X765192Y148297D01*
X765256Y148389D01*
X765330Y148482D01*
X765404Y148556D01*
X765469Y148621D01*
X765524Y148676D01*
X765571Y148713D01*
X765608Y148741D01*
X765635Y148759D01*
X765645Y148769D01*
X764979D01*
Y149472D01*
X769622D01*
Y148686D01*
D02*
G37*
%LPC*%
G36*
X768864Y222149D02*
X763980D01*
Y220669D01*
X763989Y220549D01*
Y220428D01*
X763998Y220318D01*
X764026Y220132D01*
X764045Y219985D01*
X764072Y219864D01*
X764100Y219781D01*
X764109Y219735D01*
X764118Y219716D01*
X764202Y219550D01*
X764303Y219392D01*
X764424Y219254D01*
X764544Y219133D01*
X764655Y219041D01*
X764747Y218967D01*
X764784Y218949D01*
X764812Y218930D01*
X764831Y218912D01*
X764840D01*
X764942Y218856D01*
X765062Y218800D01*
X765303Y218717D01*
X765561Y218662D01*
X765811Y218616D01*
X765922Y218606D01*
X766033Y218597D01*
X766126Y218588D01*
X766209D01*
X766283Y218579D01*
X766329D01*
X766366D01*
X766375D01*
X766635Y218588D01*
X766875Y218606D01*
X767088Y218634D01*
X767273Y218662D01*
X767347Y218680D01*
X767412Y218699D01*
X767476Y218717D01*
X767522Y218726D01*
X767559Y218736D01*
X767587Y218745D01*
X767606Y218754D01*
X767615D01*
X767791Y218819D01*
X767948Y218893D01*
X768087Y218976D01*
X768207Y219050D01*
X768299Y219115D01*
X768364Y219170D01*
X768401Y219208D01*
X768420Y219217D01*
X768494Y219309D01*
X768559Y219402D01*
X768614Y219494D01*
X768670Y219587D01*
X768707Y219670D01*
X768734Y219735D01*
X768744Y219781D01*
X768753Y219799D01*
X768790Y219938D01*
X768818Y220105D01*
X768836Y220271D01*
X768845Y220428D01*
X768855Y220567D01*
X768864Y220632D01*
Y222149D01*
D02*
G37*
G36*
X766856Y216062D02*
X766644Y216035D01*
X766449Y215979D01*
X766283Y215915D01*
X766153Y215841D01*
X766043Y215776D01*
X765959Y215711D01*
X765913Y215674D01*
X765895Y215655D01*
X765774Y215508D01*
X765682Y215359D01*
X765617Y215202D01*
X765571Y215054D01*
X765543Y214934D01*
X765534Y214832D01*
X765524Y214795D01*
Y214740D01*
X765534Y214629D01*
X765543Y214527D01*
X765598Y214333D01*
X765672Y214166D01*
X765756Y214028D01*
X765839Y213916D01*
X765913Y213833D01*
X765969Y213787D01*
X765978Y213769D01*
X765987D01*
X766107Y213685D01*
X766246Y213611D01*
X766385Y213565D01*
X766533Y213519D01*
X766653Y213491D01*
X766764Y213473D01*
X766801D01*
X766829Y213463D01*
X766847D01*
X766856D01*
Y216062D01*
D02*
G37*
G36*
X767310Y204703D02*
X767264D01*
X767236D01*
X767227D01*
X767069D01*
X766930Y204685D01*
X766801Y204666D01*
X766672Y204648D01*
X766561Y204620D01*
X766459Y204592D01*
X766357Y204556D01*
X766274Y204519D01*
X766200Y204491D01*
X766135Y204454D01*
X766080Y204426D01*
X766043Y204398D01*
X766006Y204380D01*
X765978Y204361D01*
X765969Y204343D01*
X765959D01*
X765885Y204269D01*
X765811Y204195D01*
X765709Y204047D01*
X765626Y203899D01*
X765580Y203751D01*
X765543Y203630D01*
X765534Y203529D01*
X765524Y203492D01*
Y203344D01*
X765543Y203251D01*
X765589Y203076D01*
X765663Y202918D01*
X765737Y202789D01*
X765821Y202678D01*
X765895Y202594D01*
X765941Y202548D01*
X765950Y202530D01*
X765959D01*
X766043Y202465D01*
X766135Y202400D01*
X766348Y202308D01*
X766561Y202243D01*
X766773Y202197D01*
X766958Y202169D01*
X767041Y202160D01*
X767115D01*
X767171Y202151D01*
X767217D01*
X767245D01*
X767254D01*
X767412D01*
X767569Y202169D01*
X767707Y202187D01*
X767828Y202206D01*
X767948Y202234D01*
X768059Y202271D01*
X768152Y202298D01*
X768235Y202336D01*
X768318Y202373D01*
X768383Y202400D01*
X768438Y202437D01*
X768475Y202465D01*
X768512Y202484D01*
X768540Y202502D01*
X768549Y202520D01*
X768559D01*
X768633Y202594D01*
X768697Y202668D01*
X768799Y202817D01*
X768873Y202974D01*
X768919Y203113D01*
X768956Y203242D01*
X768965Y203344D01*
X768975Y203381D01*
Y203436D01*
X768965Y203538D01*
X768956Y203630D01*
X768910Y203806D01*
X768845Y203963D01*
X768762Y204093D01*
X768688Y204204D01*
X768623Y204278D01*
X768577Y204324D01*
X768559Y204343D01*
X768475Y204408D01*
X768383Y204463D01*
X768170Y204556D01*
X767957Y204611D01*
X767735Y204657D01*
X767541Y204685D01*
X767449Y204694D01*
X767375D01*
X767310Y204703D01*
D02*
G37*
G36*
X766856Y194667D02*
X766644Y194640D01*
X766449Y194584D01*
X766283Y194519D01*
X766153Y194445D01*
X766043Y194380D01*
X765959Y194316D01*
X765913Y194279D01*
X765895Y194260D01*
X765774Y194112D01*
X765682Y193964D01*
X765617Y193807D01*
X765571Y193659D01*
X765543Y193539D01*
X765534Y193437D01*
X765524Y193400D01*
Y193344D01*
X765534Y193234D01*
X765543Y193132D01*
X765598Y192938D01*
X765672Y192771D01*
X765756Y192632D01*
X765839Y192521D01*
X765913Y192438D01*
X765969Y192392D01*
X765978Y192373D01*
X765987D01*
X766107Y192290D01*
X766246Y192216D01*
X766385Y192170D01*
X766533Y192123D01*
X766653Y192096D01*
X766764Y192077D01*
X766801D01*
X766829Y192068D01*
X766847D01*
X766856D01*
Y194667D01*
D02*
G37*
G36*
X767393Y189765D02*
X767347D01*
X767319D01*
X767310D01*
X767143D01*
X766986Y189746D01*
X766838Y189728D01*
X766709Y189709D01*
X766588Y189681D01*
X766477Y189654D01*
X766375Y189626D01*
X766283Y189589D01*
X766209Y189552D01*
X766144Y189524D01*
X766089Y189497D01*
X766043Y189469D01*
X766006Y189441D01*
X765978Y189432D01*
X765969Y189413D01*
X765959D01*
X765885Y189348D01*
X765811Y189275D01*
X765709Y189127D01*
X765626Y188979D01*
X765580Y188840D01*
X765543Y188719D01*
X765534Y188618D01*
X765524Y188581D01*
Y188534D01*
X765534Y188433D01*
X765543Y188340D01*
X765598Y188164D01*
X765663Y188007D01*
X765746Y187878D01*
X765830Y187776D01*
X765904Y187693D01*
X765959Y187646D01*
X765969Y187628D01*
X765978D01*
X766070Y187563D01*
X766163Y187508D01*
X766385Y187415D01*
X766616Y187350D01*
X766838Y187304D01*
X766949Y187286D01*
X767051Y187276D01*
X767143Y187267D01*
X767217D01*
X767282Y187258D01*
X767328D01*
X767365D01*
X767375D01*
X767532D01*
X767680Y187276D01*
X767809Y187295D01*
X767939Y187313D01*
X768050Y187341D01*
X768161Y187378D01*
X768253Y187406D01*
X768336Y187443D01*
X768410Y187480D01*
X768484Y187508D01*
X768531Y187545D01*
X768577Y187573D01*
X768614Y187591D01*
X768642Y187610D01*
X768651Y187628D01*
X768660D01*
X768734Y187693D01*
X768799Y187767D01*
X768901Y187915D01*
X768975Y188063D01*
X769021Y188201D01*
X769058Y188322D01*
X769067Y188424D01*
X769076Y188461D01*
Y188507D01*
X769067Y188599D01*
X769058Y188692D01*
X769012Y188858D01*
X768938Y189015D01*
X768855Y189145D01*
X768781Y189247D01*
X768707Y189330D01*
X768660Y189376D01*
X768642Y189385D01*
Y189395D01*
X768549Y189460D01*
X768457Y189515D01*
X768244Y189608D01*
X768022Y189672D01*
X767809Y189718D01*
X767615Y189746D01*
X767532Y189755D01*
X767458D01*
X767393Y189765D01*
D02*
G37*
G36*
X767412Y182106D02*
X767356D01*
X767310D01*
X767282D01*
X767273D01*
X767115D01*
X766977Y182087D01*
X766838Y182069D01*
X766709Y182050D01*
X766598Y182023D01*
X766487Y181985D01*
X766394Y181958D01*
X766301Y181921D01*
X766227Y181884D01*
X766163Y181856D01*
X766107Y181819D01*
X766061Y181791D01*
X766024Y181773D01*
X765996Y181754D01*
X765987Y181736D01*
X765978D01*
X765895Y181662D01*
X765830Y181588D01*
X765765Y181514D01*
X765719Y181440D01*
X765635Y181292D01*
X765580Y181153D01*
X765552Y181033D01*
X765534Y180931D01*
X765524Y180894D01*
Y180755D01*
X765543Y180663D01*
X765589Y180487D01*
X765663Y180339D01*
X765737Y180210D01*
X765821Y180108D01*
X765895Y180034D01*
X765941Y179988D01*
X765950Y179969D01*
X765959D01*
X766043Y179904D01*
X766144Y179849D01*
X766348Y179756D01*
X766579Y179692D01*
X766792Y179655D01*
X766986Y179627D01*
X767078Y179618D01*
X767153D01*
X767217Y179608D01*
X767264D01*
X767291D01*
X767301D01*
X767458D01*
X767615Y179627D01*
X767754Y179645D01*
X767883Y179664D01*
X768004Y179692D01*
X768115Y179728D01*
X768207Y179765D01*
X768299Y179793D01*
X768373Y179830D01*
X768447Y179867D01*
X768503Y179895D01*
X768549Y179932D01*
X768586Y179950D01*
X768614Y179969D01*
X768623Y179988D01*
X768633D01*
X768707Y180061D01*
X768781Y180136D01*
X768891Y180283D01*
X768965Y180431D01*
X769021Y180570D01*
X769049Y180691D01*
X769067Y180792D01*
X769076Y180829D01*
Y180876D01*
X769067Y180996D01*
X769049Y181097D01*
X769021Y181209D01*
X768984Y181301D01*
X768882Y181477D01*
X768771Y181615D01*
X768670Y181736D01*
X768568Y181819D01*
X768531Y181847D01*
X768503Y181865D01*
X768484Y181884D01*
X768475D01*
X768401Y181921D01*
X768318Y181958D01*
X768133Y182013D01*
X767930Y182050D01*
X767735Y182078D01*
X767559Y182097D01*
X767476D01*
X767412Y182106D01*
D02*
G37*
G36*
X766856Y165308D02*
X766644Y165280D01*
X766449Y165225D01*
X766283Y165160D01*
X766153Y165086D01*
X766043Y165021D01*
X765959Y164956D01*
X765913Y164919D01*
X765895Y164901D01*
X765774Y164753D01*
X765682Y164605D01*
X765617Y164447D01*
X765571Y164299D01*
X765543Y164179D01*
X765534Y164077D01*
X765524Y164041D01*
Y163985D01*
X765534Y163874D01*
X765543Y163772D01*
X765598Y163578D01*
X765672Y163411D01*
X765756Y163273D01*
X765839Y163162D01*
X765913Y163078D01*
X765969Y163032D01*
X765978Y163014D01*
X765987D01*
X766107Y162931D01*
X766246Y162856D01*
X766385Y162810D01*
X766533Y162764D01*
X766653Y162736D01*
X766764Y162718D01*
X766801D01*
X766829Y162708D01*
X766847D01*
X766856D01*
Y165308D01*
D02*
G37*
G36*
Y153866D02*
X766644Y153838D01*
X766449Y153782D01*
X766283Y153718D01*
X766153Y153644D01*
X766043Y153579D01*
X765959Y153514D01*
X765913Y153477D01*
X765895Y153458D01*
X765774Y153311D01*
X765682Y153163D01*
X765617Y153005D01*
X765571Y152857D01*
X765543Y152737D01*
X765534Y152635D01*
X765524Y152598D01*
Y152543D01*
X765534Y152432D01*
X765543Y152330D01*
X765598Y152136D01*
X765672Y151969D01*
X765756Y151830D01*
X765839Y151719D01*
X765913Y151636D01*
X765969Y151590D01*
X765978Y151572D01*
X765987D01*
X766107Y151488D01*
X766246Y151414D01*
X766385Y151368D01*
X766533Y151322D01*
X766653Y151294D01*
X766764Y151276D01*
X766801D01*
X766829Y151266D01*
X766847D01*
X766856D01*
Y153866D01*
D02*
G37*
%LPD*%
D88*
X713900Y311300D02*
Y315967D01*
X714100Y311500D02*
Y316167D01*
X714300Y311500D02*
Y316167D01*
X714500Y311700D02*
Y316367D01*
X714700Y311700D02*
Y316367D01*
X714900Y311900D02*
Y316567D01*
X715100Y312100D02*
Y316567D01*
X715300Y312100D02*
Y316767D01*
X715500Y312300D02*
Y316967D01*
X715900Y312500D02*
Y317167D01*
X716100Y312500D02*
Y317167D01*
X715700Y312300D02*
Y316967D01*
X716300Y312700D02*
Y317367D01*
X710700Y338700D02*
Y339167D01*
X710900Y338900D02*
Y339367D01*
X711100Y338900D02*
Y339367D01*
X711300Y338900D02*
Y339567D01*
X711500Y339100D02*
Y339767D01*
X711900Y339300D02*
Y340567D01*
X712100Y339500D02*
Y340767D01*
X712300Y339700D02*
Y340767D01*
X712500Y340100D02*
Y340767D01*
X711700Y339100D02*
Y339967D01*
X714500Y322900D02*
Y336767D01*
X714700Y323100D02*
Y336967D01*
X714900Y322900D02*
Y336967D01*
X715100Y322700D02*
Y337167D01*
X715300Y322500D02*
Y337367D01*
X715500Y322500D02*
Y337367D01*
X715700Y322300D02*
Y337567D01*
X715900Y322300D02*
Y337767D01*
X716100Y322100D02*
Y337767D01*
X716500Y312900D02*
Y317567D01*
X716700Y312900D02*
Y317567D01*
X716900Y313100D02*
Y317767D01*
X717100Y313100D02*
Y317767D01*
X717300Y313300D02*
Y317967D01*
X717500Y313300D02*
Y317967D01*
X717700Y313500D02*
Y318167D01*
X717900Y313700D02*
Y318367D01*
X718100Y313700D02*
Y318367D01*
X718500Y313900D02*
Y318567D01*
X718700Y314100D02*
Y318767D01*
X718300Y313900D02*
Y318567D01*
X718900Y314300D02*
Y318967D01*
X716300Y322100D02*
Y337967D01*
X716500Y322100D02*
Y337967D01*
X716700Y322100D02*
Y338167D01*
X716900Y321900D02*
Y338367D01*
X717100Y322100D02*
Y338367D01*
X717300Y322100D02*
Y338567D01*
X717500Y322100D02*
Y338767D01*
X717700Y322100D02*
Y338767D01*
X718100Y322300D02*
Y338967D01*
X717900Y322100D02*
Y338967D01*
X718300Y322300D02*
Y339167D01*
X718500Y322500D02*
Y339367D01*
X718700Y322500D02*
Y339367D01*
X718900Y322700D02*
Y339567D01*
X719100Y322900D02*
Y339567D01*
X719300Y323300D02*
Y339767D01*
X719700Y326100D02*
Y339967D01*
Y324100D02*
Y325167D01*
X719500Y323500D02*
Y339967D01*
X719900Y326100D02*
Y340167D01*
X710700Y309500D02*
Y314167D01*
X710900Y309500D02*
Y314167D01*
X711100Y309700D02*
Y314367D01*
X711300Y309700D02*
Y314367D01*
X711500Y309900D02*
Y314567D01*
X711700Y310100D02*
Y314767D01*
X711900Y310100D02*
Y314767D01*
X712100Y310300D02*
Y314967D01*
X712300Y310300D02*
Y314967D01*
X712500Y310500D02*
Y315167D01*
X712700Y310700D02*
Y315167D01*
X712900Y310700D02*
Y315367D01*
X713300Y310900D02*
Y315567D01*
X713500Y311100D02*
Y315767D01*
X713700Y311100D02*
Y315767D01*
X713100Y310900D02*
Y315567D01*
X710700Y318100D02*
Y334167D01*
X710900Y318300D02*
Y334167D01*
X711100Y318300D02*
Y334367D01*
X711500Y318900D02*
Y334767D01*
X711700Y321300D02*
Y334767D01*
Y319500D02*
Y320967D01*
X711300Y318700D02*
Y334567D01*
X715300Y284100D02*
Y298767D01*
X715500Y283900D02*
Y298967D01*
X715700Y283900D02*
Y298967D01*
X715900Y283700D02*
Y299167D01*
X716100Y283500D02*
Y299167D01*
X716300Y283500D02*
Y299167D01*
X716500Y283300D02*
Y299167D01*
X716700Y283100D02*
Y299367D01*
X716900Y283100D02*
Y299367D01*
X717300Y282900D02*
Y299167D01*
X717500Y282700D02*
Y299167D01*
X717100Y282900D02*
Y299367D01*
X717700Y282500D02*
Y299167D01*
X715900Y276100D02*
Y277167D01*
Y274700D02*
Y275567D01*
X716100Y276500D02*
Y277567D01*
Y274900D02*
Y275767D01*
X716300Y276900D02*
Y277967D01*
Y275100D02*
Y275967D01*
X716500Y277300D02*
Y278367D01*
Y275300D02*
Y276167D01*
X716700Y277500D02*
Y278367D01*
X716900Y277900D02*
Y278367D01*
Y275700D02*
Y276567D01*
X716700Y275500D02*
Y276367D01*
X717100Y275900D02*
Y276767D01*
X716300Y267900D02*
Y268967D01*
X716500Y267900D02*
Y268967D01*
X716700Y267700D02*
Y268767D01*
X716900Y267700D02*
Y268767D01*
X717100Y267500D02*
Y268567D01*
X717300Y267300D02*
Y268567D01*
X717500Y267300D02*
Y268367D01*
X717700Y267100D02*
Y268367D01*
X717900Y267100D02*
Y268167D01*
X718300Y266900D02*
Y267967D01*
X718500Y266700D02*
Y267967D01*
X718100Y266900D02*
Y268167D01*
X718700Y266700D02*
Y267767D01*
X717100Y273500D02*
Y273767D01*
X717300Y276100D02*
Y276767D01*
Y273300D02*
Y274767D01*
X717500Y276100D02*
Y276967D01*
Y273300D02*
Y275767D01*
X717700Y273100D02*
Y277167D01*
X717900Y274700D02*
Y277367D01*
Y273100D02*
Y274167D01*
X718100Y275700D02*
Y277567D01*
X718300Y276500D02*
Y277567D01*
Y273300D02*
Y274767D01*
X718100Y273100D02*
Y274567D01*
X718500Y273700D02*
Y275167D01*
X717900Y282500D02*
Y299167D01*
X718100Y282300D02*
Y298967D01*
X718300Y282300D02*
Y298967D01*
X718500Y282100D02*
Y298767D01*
X718700Y281900D02*
Y298567D01*
X718900Y281900D02*
Y298567D01*
X719100Y281700D02*
Y298167D01*
X719300Y281700D02*
Y297967D01*
X719500Y295700D02*
Y297567D01*
X719700Y296300D02*
Y296767D01*
Y281300D02*
Y295167D01*
X719500Y281500D02*
Y295367D01*
X719900Y281300D02*
Y294967D01*
X718700Y274100D02*
Y275567D01*
X718900Y274500D02*
Y275767D01*
X719100Y274700D02*
Y276167D01*
X719300Y275100D02*
Y276567D01*
X719500Y275500D02*
Y276767D01*
X719700Y275900D02*
Y276767D01*
X719900Y271900D02*
Y272367D01*
X720100Y271900D02*
Y272767D01*
X720300Y271700D02*
Y273167D01*
X720500Y271700D02*
Y273567D01*
X720700Y271500D02*
Y273967D01*
X719900Y276100D02*
Y276567D01*
X720900Y272900D02*
Y274367D01*
X718900Y266500D02*
Y267767D01*
X719100Y266500D02*
Y267567D01*
X719300Y266300D02*
Y267367D01*
X719500Y266300D02*
Y267367D01*
X719700Y266100D02*
Y267167D01*
X719900Y266100D02*
Y267167D01*
X720100Y265900D02*
Y267167D01*
X720300Y265900D02*
Y266967D01*
X720500Y265700D02*
Y266767D01*
X720700Y265700D02*
Y266767D01*
X720900Y265500D02*
Y266767D01*
X721100Y265500D02*
Y266567D01*
X721300Y265300D02*
Y266567D01*
X720100Y281100D02*
Y294967D01*
X720300Y281100D02*
Y294767D01*
X720500Y280900D02*
Y294767D01*
X720700Y280900D02*
Y294567D01*
X720900Y280700D02*
Y294567D01*
X721100Y280500D02*
Y294367D01*
X721300Y280500D02*
Y294167D01*
X721500Y280300D02*
Y294167D01*
X721700Y280300D02*
Y293967D01*
X722100Y280100D02*
Y293767D01*
X722300Y279900D02*
Y293567D01*
X721900Y280100D02*
Y293967D01*
X722500Y279900D02*
Y293567D01*
X720900Y271700D02*
Y272567D01*
X721100Y273300D02*
Y274767D01*
Y271900D02*
Y272767D01*
X721300Y273700D02*
Y275167D01*
Y272100D02*
Y272967D01*
X721500Y274100D02*
Y275567D01*
Y272300D02*
Y273167D01*
X721700Y274500D02*
Y275567D01*
X721900Y274900D02*
Y275567D01*
Y272700D02*
Y273567D01*
X722100Y272900D02*
Y273767D01*
X721700Y272500D02*
Y273367D01*
X722100Y275300D02*
Y275367D01*
X722300Y273100D02*
Y273967D01*
Y270700D02*
Y270767D01*
X722500Y273300D02*
Y274167D01*
Y270700D02*
Y271967D01*
X722700Y270500D02*
Y274367D01*
X722900Y270500D02*
Y274567D01*
X723100Y272100D02*
Y274767D01*
X723300Y273300D02*
Y274767D01*
Y270300D02*
Y271767D01*
X723500Y274300D02*
Y274767D01*
X723100Y270300D02*
Y271367D01*
X723500Y270500D02*
Y272167D01*
X722700Y279700D02*
Y293767D01*
X722900Y279500D02*
Y293967D01*
X723100Y279500D02*
Y294167D01*
X723300Y279300D02*
Y294367D01*
X723500Y279300D02*
Y294367D01*
X723700Y279100D02*
Y294567D01*
X723900Y279100D02*
Y294567D01*
X724100Y278900D02*
Y294567D01*
X724300Y278900D02*
Y294767D01*
X724700Y278700D02*
Y294767D01*
X724900Y278500D02*
Y294767D01*
X724500Y278700D02*
Y294767D01*
X725100Y278500D02*
Y294767D01*
X719100Y314300D02*
Y318967D01*
X719300Y314500D02*
Y319167D01*
X719500Y314500D02*
Y319167D01*
X719700Y314700D02*
Y319367D01*
X719900Y314700D02*
Y319367D01*
X720100Y314900D02*
Y319567D01*
X720300Y315100D02*
Y319767D01*
X720700Y315300D02*
Y319967D01*
X720900Y315300D02*
Y319967D01*
X721100Y315500D02*
Y320167D01*
X721300Y315500D02*
Y320367D01*
X720500Y315100D02*
Y319767D01*
X721500Y315700D02*
Y320367D01*
X719100Y304700D02*
Y309367D01*
X719300Y304900D02*
Y309567D01*
X719500Y304900D02*
Y309567D01*
X719700Y305100D02*
Y309767D01*
X719900Y305100D02*
Y309767D01*
X720100Y305300D02*
Y309967D01*
X720300Y305500D02*
Y310167D01*
X720500Y305500D02*
Y310167D01*
X720700Y305700D02*
Y310367D01*
X721100Y305900D02*
Y310567D01*
X721300Y306100D02*
Y310567D01*
X720900Y305700D02*
Y310367D01*
X721500Y306100D02*
Y310767D01*
X720100Y326300D02*
Y340167D01*
X720300Y326300D02*
Y340367D01*
X720500Y326500D02*
Y340367D01*
X720700Y326700D02*
Y340567D01*
X720900Y326700D02*
Y340767D01*
X721100Y326900D02*
Y340767D01*
X721300Y326900D02*
Y340967D01*
X721500Y327100D02*
Y340967D01*
X721700Y327100D02*
Y341167D01*
X721900Y306300D02*
Y310967D01*
X722100Y306500D02*
Y311167D01*
X721700Y306300D02*
Y310967D01*
X722300Y306500D02*
Y311167D01*
X722500Y306700D02*
Y311367D01*
X722700Y306900D02*
Y311367D01*
X722900Y306900D02*
Y311567D01*
X723100Y307100D02*
Y311767D01*
X723300Y307100D02*
Y311767D01*
X723500Y307300D02*
Y311967D01*
X723700Y307500D02*
Y311967D01*
X723900Y307500D02*
Y312167D01*
X724300Y307700D02*
Y312367D01*
X724500Y307900D02*
Y312567D01*
X724700Y307900D02*
Y312567D01*
X724100Y307700D02*
Y312367D01*
X724900Y308100D02*
Y312767D01*
X722900Y300500D02*
Y301967D01*
X723100Y300500D02*
Y302167D01*
X723300Y300300D02*
Y302167D01*
X723500Y300300D02*
Y302367D01*
X723700Y300100D02*
Y302367D01*
X723900Y300100D02*
Y302567D01*
X724100Y299900D02*
Y302767D01*
X724300Y299700D02*
Y302767D01*
X724700Y299500D02*
Y302967D01*
X725100Y299300D02*
Y303367D01*
X724900Y299500D02*
Y303167D01*
X724500Y299700D02*
Y302967D01*
X725300Y299300D02*
Y303367D01*
X725700Y318100D02*
Y322767D01*
Y308500D02*
Y313167D01*
Y298900D02*
Y303567D01*
X721700Y315900D02*
Y320567D01*
X721900Y315900D02*
Y320567D01*
X722100Y316100D02*
Y320767D01*
X722300Y316100D02*
Y320767D01*
X722500Y316300D02*
Y320967D01*
X722700Y316500D02*
Y321167D01*
X722900Y316500D02*
Y321167D01*
X723300Y316700D02*
Y321367D01*
X723500Y316900D02*
Y321567D01*
X723700Y316900D02*
Y321767D01*
X723900Y317100D02*
Y321767D01*
X723100Y316700D02*
Y321367D01*
X721700Y301300D02*
Y301367D01*
X721900Y301100D02*
Y301367D01*
X722300Y300900D02*
Y301567D01*
X722500Y300900D02*
Y301767D01*
X722700Y300700D02*
Y301967D01*
X722100Y301100D02*
Y301567D01*
X724100Y317300D02*
Y321967D01*
X724300Y317300D02*
Y321967D01*
X724500Y317500D02*
Y322167D01*
X724700Y317500D02*
Y322167D01*
X724900Y317700D02*
Y322367D01*
X725100Y317700D02*
Y322567D01*
Y308300D02*
Y312767D01*
X725300Y317900D02*
Y322567D01*
Y308300D02*
Y312967D01*
X725500Y318100D02*
Y322767D01*
Y308500D02*
Y313167D01*
Y299100D02*
Y303567D01*
X723700Y270900D02*
Y272567D01*
X723900Y271300D02*
Y272967D01*
X724100Y271700D02*
Y273367D01*
X724300Y272100D02*
Y273767D01*
X724500Y272500D02*
Y274167D01*
X724700Y272900D02*
Y274167D01*
X724900Y273100D02*
Y273967D01*
X725100Y273500D02*
Y273767D01*
X725300Y269300D02*
Y269967D01*
X725100Y269300D02*
Y269567D01*
X725500Y269100D02*
Y270367D01*
X725300Y278300D02*
Y294767D01*
X725500Y278300D02*
Y294567D01*
X725700Y278100D02*
Y294567D01*
X725900Y278100D02*
Y294567D01*
X726100Y277900D02*
Y294367D01*
X726300Y277900D02*
Y294367D01*
X726500Y277700D02*
Y294167D01*
X726700Y277700D02*
Y293967D01*
X726900Y277500D02*
Y293767D01*
X727300Y277300D02*
Y293167D01*
X727500Y291300D02*
Y292567D01*
X727100Y277500D02*
Y293567D01*
X727500Y277300D02*
Y290567D01*
X725700Y269100D02*
Y270967D01*
X725900Y269500D02*
Y271367D01*
X726100Y269900D02*
Y271767D01*
X726300Y270300D02*
Y272167D01*
X726500Y270900D02*
Y272367D01*
X726700Y271300D02*
Y272567D01*
X726900Y271700D02*
Y272767D01*
X727100Y271900D02*
Y272767D01*
Y268500D02*
Y268567D01*
X727300Y272100D02*
Y272767D01*
X727500Y268300D02*
Y269367D01*
X727300Y268300D02*
Y268967D01*
X727700Y268300D02*
Y269767D01*
Y277100D02*
Y290567D01*
X727900Y277100D02*
Y290367D01*
X728100Y276900D02*
Y290367D01*
X728300Y276900D02*
Y290167D01*
X728500Y276700D02*
Y290167D01*
X728700Y276700D02*
Y289967D01*
X728900Y276500D02*
Y289767D01*
X729100Y276500D02*
Y289767D01*
X729300Y276300D02*
Y289567D01*
X729700Y276300D02*
Y289367D01*
X729900Y276100D02*
Y289367D01*
X729500Y276300D02*
Y289567D01*
X730100Y276100D02*
Y289167D01*
X727500Y272100D02*
Y272767D01*
X727700Y272100D02*
Y272567D01*
X727900Y271900D02*
Y272567D01*
Y268900D02*
Y270167D01*
X728100Y271900D02*
Y272567D01*
Y269300D02*
Y270567D01*
X728300Y269900D02*
Y272367D01*
X728500Y270300D02*
Y272167D01*
X728700Y270700D02*
Y271967D01*
X729500Y267300D02*
Y267967D01*
X729700Y267300D02*
Y268567D01*
X729300Y267500D02*
Y267567D01*
X729900Y267100D02*
Y268967D01*
X730100Y267300D02*
Y269567D01*
X730300Y267300D02*
Y269967D01*
X730500Y268900D02*
Y270567D01*
Y267500D02*
Y268367D01*
X730700Y269300D02*
Y270967D01*
X730900Y269900D02*
Y271167D01*
Y267900D02*
Y268567D01*
X731100Y270300D02*
Y271167D01*
Y267900D02*
Y268767D01*
X731300Y270900D02*
Y270967D01*
Y268100D02*
Y268967D01*
X730700Y267700D02*
Y268567D01*
X731500Y268300D02*
Y269167D01*
X730300Y275900D02*
Y288967D01*
X730500Y275900D02*
Y289167D01*
X730700Y275700D02*
Y289367D01*
X730900Y275700D02*
Y289567D01*
X731100Y275500D02*
Y289567D01*
X731300Y275500D02*
Y289767D01*
X731500Y275500D02*
Y289967D01*
X731700Y275300D02*
Y289967D01*
X731900Y275300D02*
Y289967D01*
X732300Y275100D02*
Y290167D01*
X732500Y274900D02*
Y290167D01*
X732100Y275100D02*
Y290167D01*
X732700Y274900D02*
Y290167D01*
X731700Y268500D02*
Y269167D01*
Y266500D02*
Y266767D01*
X731900Y268700D02*
Y269367D01*
Y266300D02*
Y267167D01*
X732100Y268700D02*
Y269567D01*
Y266300D02*
Y267767D01*
X732300Y266500D02*
Y268167D01*
X732500Y266900D02*
Y268767D01*
X732300Y268900D02*
Y269767D01*
X732500Y269100D02*
Y269767D01*
X732700Y267500D02*
Y269967D01*
X732900Y267900D02*
Y270167D01*
X733100Y268500D02*
Y270167D01*
X733500Y269500D02*
Y270167D01*
X733300Y268900D02*
Y270167D01*
X733700Y269900D02*
Y269967D01*
X732900Y274900D02*
Y290167D01*
X733100Y274700D02*
Y290167D01*
X733300Y274700D02*
Y290167D01*
X733500Y274500D02*
Y289967D01*
X733700Y274500D02*
Y289967D01*
X733900Y274500D02*
Y289967D01*
X734100Y274300D02*
Y289767D01*
X734300Y274300D02*
Y289567D01*
X734500Y274100D02*
Y289567D01*
X734900Y274100D02*
Y288967D01*
X735100Y273900D02*
Y288767D01*
X734700Y274100D02*
Y289367D01*
X735300Y286700D02*
Y288367D01*
X734300Y265500D02*
Y266567D01*
X734500Y265500D02*
Y267167D01*
X734700Y265500D02*
Y267767D01*
X734900Y266100D02*
Y268367D01*
X735100Y266700D02*
Y268967D01*
X735300Y267100D02*
Y269367D01*
X735500Y267700D02*
Y269367D01*
X735700Y268300D02*
Y269367D01*
X735900Y268900D02*
Y269367D01*
X735300Y273900D02*
Y286167D01*
X735500Y273700D02*
Y285967D01*
X735700Y273700D02*
Y285967D01*
X735900Y273700D02*
Y285767D01*
X736100Y273500D02*
Y285767D01*
X736300Y273500D02*
Y285567D01*
X736500Y273300D02*
Y285367D01*
X736700Y273300D02*
Y285367D01*
X736900Y273300D02*
Y285167D01*
X737300Y273100D02*
Y284967D01*
X737500Y273100D02*
Y284967D01*
X737100Y273100D02*
Y285167D01*
X737700Y272900D02*
Y284767D01*
X736700Y265700D02*
Y266567D01*
X737100Y264900D02*
Y267767D01*
X737300Y264700D02*
Y267967D01*
X736900Y265300D02*
Y267367D01*
X737500Y265900D02*
Y268167D01*
X735300Y333100D02*
Y334767D01*
X737700Y266900D02*
Y268367D01*
X737900Y267300D02*
Y268567D01*
X738100Y267700D02*
Y268567D01*
X738300Y267900D02*
Y268767D01*
X738500Y267900D02*
Y268767D01*
X738900Y267900D02*
Y268567D01*
X739100Y267900D02*
Y268567D01*
X739300Y267500D02*
Y268567D01*
X739500Y266900D02*
Y268367D01*
X739700Y266700D02*
Y268167D01*
X739900Y266700D02*
Y267967D01*
X738700Y267900D02*
Y268767D01*
X740100Y266700D02*
Y267367D01*
X737900Y272900D02*
Y284767D01*
X738100Y272700D02*
Y284567D01*
X738300Y272700D02*
Y284567D01*
X738500Y272700D02*
Y284767D01*
X738700Y272500D02*
Y284967D01*
X738900Y272500D02*
Y285167D01*
X739100Y272500D02*
Y285367D01*
X739300Y272300D02*
Y285367D01*
X739500Y272300D02*
Y285567D01*
X739700Y272300D02*
Y285567D01*
X739900Y272100D02*
Y285567D01*
X740100Y272100D02*
Y285567D01*
X740300Y272100D02*
Y285567D01*
X738300Y291700D02*
Y291767D01*
X738500Y291700D02*
Y291967D01*
X738700Y291500D02*
Y291967D01*
X738900Y291300D02*
Y292167D01*
X739100Y291300D02*
Y292367D01*
X739300Y291100D02*
Y292367D01*
X739700Y290900D02*
Y292567D01*
X739900Y290700D02*
Y292767D01*
X740100Y290700D02*
Y292767D01*
X740300Y290500D02*
Y292967D01*
X739500Y291100D02*
Y292567D01*
X740500Y271900D02*
Y285767D01*
X740700Y290300D02*
Y293167D01*
Y271900D02*
Y285567D01*
X740900Y290100D02*
Y293367D01*
Y271900D02*
Y285567D01*
X741100Y290100D02*
Y293367D01*
Y271700D02*
Y285567D01*
X741300Y289900D02*
Y293567D01*
X741500Y289900D02*
Y293767D01*
Y271700D02*
Y285567D01*
X741700Y289700D02*
Y293767D01*
X741300Y271700D02*
Y285567D01*
X740500Y290500D02*
Y293167D01*
X741700Y271500D02*
Y285367D01*
X741900Y289700D02*
Y293967D01*
Y271500D02*
Y285367D01*
X742100Y289500D02*
Y293967D01*
Y271500D02*
Y285167D01*
X742300Y289500D02*
Y294167D01*
Y271300D02*
Y284967D01*
X742500Y289700D02*
Y294167D01*
Y271300D02*
Y284767D01*
X742700Y289700D02*
Y294367D01*
Y271300D02*
Y284567D01*
X742900Y271100D02*
Y284367D01*
Y289900D02*
Y294567D01*
X741500Y265900D02*
Y267567D01*
X741700Y263700D02*
Y267567D01*
X741900Y263300D02*
Y267567D01*
X742100Y263300D02*
Y266567D01*
X742500Y265700D02*
Y266367D01*
Y263100D02*
Y264367D01*
Y257700D02*
Y258767D01*
X742700Y265700D02*
Y266367D01*
Y263300D02*
Y264567D01*
X742900Y265700D02*
Y266367D01*
X742700Y257700D02*
Y258567D01*
X742900Y263500D02*
Y264967D01*
Y257500D02*
Y258567D01*
X743100Y289900D02*
Y294567D01*
Y282100D02*
Y283967D01*
Y271100D02*
Y281567D01*
Y265700D02*
Y266167D01*
Y263900D02*
Y265367D01*
Y257500D02*
Y258567D01*
X743300Y290100D02*
Y294767D01*
Y271100D02*
Y281567D01*
Y264100D02*
Y266167D01*
X743500Y290100D02*
Y294767D01*
Y270900D02*
Y281367D01*
X744300Y257100D02*
Y258167D01*
X744500Y257100D02*
Y258167D01*
X744700Y262700D02*
Y263167D01*
Y257100D02*
Y258167D01*
X744900Y262700D02*
Y263167D01*
Y257100D02*
Y258167D01*
X745100Y262700D02*
Y263167D01*
Y257100D02*
Y257967D01*
X745300Y262500D02*
Y263167D01*
Y256900D02*
Y257967D01*
X745500Y262500D02*
Y263167D01*
Y256900D02*
Y257967D01*
X745700Y262500D02*
Y262967D01*
Y256900D02*
Y257967D01*
X745900Y262500D02*
Y263567D01*
Y256900D02*
Y257767D01*
X746100Y262500D02*
Y264567D01*
Y256700D02*
Y257767D01*
X746300Y262300D02*
Y265567D01*
Y256700D02*
Y257767D01*
X746500Y262300D02*
Y266367D01*
Y256700D02*
Y257767D01*
X746700Y263300D02*
Y266367D01*
Y262300D02*
Y262967D01*
Y256700D02*
Y257567D01*
X746900Y264300D02*
Y266367D01*
Y262300D02*
Y262767D01*
Y256700D02*
Y257567D01*
X747100Y265500D02*
Y266367D01*
Y262300D02*
Y262767D01*
Y256500D02*
Y257567D01*
X747300Y262100D02*
Y262767D01*
Y256500D02*
Y257567D01*
X747500Y262100D02*
Y262767D01*
Y256500D02*
Y257567D01*
X751900Y268900D02*
Y276567D01*
X752100Y268900D02*
Y276567D01*
X752300Y268700D02*
Y276367D01*
X752500Y268700D02*
Y276167D01*
X748700Y256300D02*
Y257167D01*
X748900Y256100D02*
Y257167D01*
X749100Y261900D02*
Y262967D01*
Y256100D02*
Y257167D01*
X749300Y261900D02*
Y264167D01*
Y256100D02*
Y257167D01*
X749500Y261900D02*
Y265367D01*
Y256100D02*
Y256967D01*
X749700Y261900D02*
Y265967D01*
Y256100D02*
Y256967D01*
X749900Y263100D02*
Y265967D01*
Y255900D02*
Y256967D01*
X750100Y264300D02*
Y265967D01*
Y255900D02*
Y256967D01*
X750300Y265500D02*
Y265767D01*
Y255900D02*
Y256967D01*
X750500Y255900D02*
Y256967D01*
X751500Y262300D02*
Y263967D01*
X751700Y261900D02*
Y264367D01*
X751900Y261700D02*
Y264767D01*
X752100Y261500D02*
Y264967D01*
X752300Y261500D02*
Y265167D01*
X752500Y264300D02*
Y265167D01*
X752700Y264700D02*
Y265367D01*
X752900Y268700D02*
Y275967D01*
Y264700D02*
Y265367D01*
X753100Y268700D02*
Y275967D01*
Y264900D02*
Y265367D01*
X753300Y268700D02*
Y275767D01*
Y264900D02*
Y265367D01*
X753500Y268700D02*
Y275767D01*
Y264900D02*
Y265367D01*
X753700Y268500D02*
Y275567D01*
Y264700D02*
Y265367D01*
X753900Y268500D02*
Y275367D01*
Y264700D02*
Y265367D01*
X754100Y268500D02*
Y275367D01*
Y264300D02*
Y265167D01*
X754300Y282700D02*
Y284767D01*
X742500Y327900D02*
Y332567D01*
X742700Y328100D02*
Y332767D01*
Y318500D02*
Y323167D01*
X742900Y328100D02*
Y332767D01*
Y318500D02*
Y323167D01*
X742500Y318300D02*
Y322967D01*
X747900Y331100D02*
Y335767D01*
X748100Y331100D02*
Y335767D01*
X748300Y331300D02*
Y335967D01*
Y321700D02*
Y326367D01*
X748500Y331300D02*
Y336167D01*
Y321700D02*
Y326367D01*
X748100Y321500D02*
Y326167D01*
X705900Y274300D02*
Y275567D01*
X706100Y274100D02*
Y275367D01*
X706300Y274100D02*
Y275167D01*
X706500Y273900D02*
Y275167D01*
X706700Y273700D02*
Y274967D01*
X706900Y273700D02*
Y274767D01*
X707100Y273500D02*
Y274767D01*
X707300Y273300D02*
Y274567D01*
X707500Y273300D02*
Y274367D01*
X707900Y272900D02*
Y274167D01*
X708100Y272900D02*
Y273967D01*
X707700Y273100D02*
Y274367D01*
X708300Y272700D02*
Y273967D01*
X706500Y284700D02*
Y285367D01*
X706700Y284500D02*
Y285167D01*
X706900Y284300D02*
Y284967D01*
X707100Y284100D02*
Y284967D01*
Y280100D02*
Y280967D01*
X707300Y284100D02*
Y284767D01*
X707500Y284100D02*
Y284567D01*
Y279500D02*
Y281967D01*
X707700Y284300D02*
Y284367D01*
X707300Y279700D02*
Y281567D01*
X707700Y279300D02*
Y282167D01*
X705100Y283500D02*
Y285167D01*
Y281300D02*
Y281967D01*
X705300Y284300D02*
Y285567D01*
Y283300D02*
Y283967D01*
Y281100D02*
Y281767D01*
X705500Y284700D02*
Y285767D01*
Y283100D02*
Y283767D01*
Y281300D02*
Y281567D01*
X705700Y284900D02*
Y285967D01*
Y283100D02*
Y283767D01*
X705900Y285100D02*
Y285767D01*
X706100Y284900D02*
Y285567D01*
Y282900D02*
Y283367D01*
X706300Y284700D02*
Y285567D01*
Y283100D02*
Y283167D01*
X705900Y282900D02*
Y283567D01*
X705100Y291700D02*
Y303567D01*
X705300Y291500D02*
Y303567D01*
X705500Y291300D02*
Y303367D01*
X705700Y291100D02*
Y303367D01*
X705900Y291100D02*
Y303167D01*
X706100Y290900D02*
Y303167D01*
X706300Y290700D02*
Y302967D01*
X706500Y290500D02*
Y302767D01*
X706700Y290300D02*
Y302767D01*
X707100Y290100D02*
Y302967D01*
X707300Y289900D02*
Y303167D01*
X707500Y289700D02*
Y303367D01*
X706900Y290100D02*
Y302767D01*
X705300Y274700D02*
Y275967D01*
X705500Y274500D02*
Y275767D01*
X705700Y274500D02*
Y275567D01*
X705100Y274900D02*
Y276167D01*
X706300Y318300D02*
Y330767D01*
X706500Y318500D02*
Y330767D01*
X706700Y318500D02*
Y330967D01*
X706900Y318500D02*
Y331167D01*
X707100Y318300D02*
Y331367D01*
X707300Y318100D02*
Y331567D01*
X707500Y317900D02*
Y331567D01*
X707700Y317900D02*
Y331767D01*
X707900Y317700D02*
Y331967D01*
X708300Y317500D02*
Y332367D01*
X708500Y317500D02*
Y332367D01*
X708100Y317700D02*
Y332167D01*
X708700Y317500D02*
Y332567D01*
X706900Y340300D02*
Y340767D01*
Y336300D02*
Y337567D01*
X707100Y340100D02*
Y340967D01*
Y336100D02*
Y337367D01*
X707300Y339700D02*
Y340967D01*
Y335900D02*
Y336967D01*
X707500Y339500D02*
Y340767D01*
Y336100D02*
Y336767D01*
X707700Y339300D02*
Y340367D01*
X707900Y338900D02*
Y340167D01*
X708100Y338700D02*
Y339967D01*
X707700Y336300D02*
Y336567D01*
X708300Y338500D02*
Y339567D01*
X707300Y309700D02*
Y312167D01*
X707500Y309500D02*
Y312167D01*
X707700Y309300D02*
Y312367D01*
X707900Y309300D02*
Y312367D01*
X708100Y309100D02*
Y312567D01*
X708300Y309100D02*
Y312767D01*
X708500Y308900D02*
Y312767D01*
X708700Y308900D02*
Y312967D01*
X709100Y308700D02*
Y313167D01*
X709300Y308700D02*
Y313367D01*
X709500Y308700D02*
Y313367D01*
X708900Y308700D02*
Y312967D01*
X709700Y308900D02*
Y313567D01*
X708500Y338100D02*
Y339367D01*
X708700Y337900D02*
Y339167D01*
X708900Y337700D02*
Y338767D01*
X709100Y337300D02*
Y338567D01*
X709300Y337500D02*
Y338367D01*
X709500Y339500D02*
Y340167D01*
Y337700D02*
Y337967D01*
X709700Y339100D02*
Y340567D01*
X709900Y338900D02*
Y340767D01*
X710100Y338900D02*
Y340967D01*
X710300Y338700D02*
Y339567D01*
X709700Y337700D02*
Y337767D01*
X710500Y338700D02*
Y339367D01*
X708900Y317500D02*
Y332767D01*
X709100Y317500D02*
Y332967D01*
X709300Y317500D02*
Y333167D01*
X709500Y317500D02*
Y333167D01*
X709700Y317500D02*
Y333367D01*
X709900Y317700D02*
Y333567D01*
Y308900D02*
Y313567D01*
X710100Y317700D02*
Y333567D01*
Y309100D02*
Y313767D01*
X710300Y317700D02*
Y333767D01*
X710500Y317900D02*
Y333967D01*
X710300Y309300D02*
Y313767D01*
X710500Y309300D02*
Y313967D01*
X705100Y317700D02*
Y329767D01*
X705300Y317700D02*
Y329767D01*
X705700Y317900D02*
Y330167D01*
X705900Y318100D02*
Y330367D01*
X706100Y318100D02*
Y330567D01*
X705500Y317900D02*
Y329967D01*
X710300Y340100D02*
Y341167D01*
X705100Y338500D02*
Y339367D01*
X705300Y338300D02*
Y339567D01*
X705500Y338100D02*
Y339767D01*
X705700Y337900D02*
Y339967D01*
X705900Y339300D02*
Y339967D01*
Y337500D02*
Y338767D01*
X706100Y339500D02*
Y340167D01*
Y337300D02*
Y338567D01*
X706300Y339700D02*
Y340167D01*
X706500Y339700D02*
Y339967D01*
Y336900D02*
Y338167D01*
X706700Y336500D02*
Y337767D01*
X706300Y337100D02*
Y338367D01*
X711900Y321500D02*
Y334967D01*
X712100Y321700D02*
Y335167D01*
X712300Y321700D02*
Y335167D01*
X712500Y321900D02*
Y335367D01*
X712700Y321900D02*
Y335567D01*
X712900Y322100D02*
Y335767D01*
X713100Y322100D02*
Y335767D01*
X713500Y322500D02*
Y336167D01*
X713700Y322500D02*
Y336167D01*
X713900Y322700D02*
Y336367D01*
X714100Y322700D02*
Y336567D01*
X713300Y322300D02*
Y335967D01*
X714300Y322900D02*
Y336567D01*
X705300Y310700D02*
Y310967D01*
X705500Y310700D02*
Y310967D01*
X705700Y310500D02*
Y311167D01*
X705900Y310500D02*
Y311367D01*
X706100Y310300D02*
Y311367D01*
X706300Y310100D02*
Y311567D01*
X706700Y309900D02*
Y311767D01*
X706900Y309900D02*
Y311967D01*
X707100Y309700D02*
Y311967D01*
X706500Y310100D02*
Y311567D01*
X716500Y304300D02*
Y307967D01*
X716700Y304100D02*
Y307967D01*
X716900Y304100D02*
Y308167D01*
X717100Y303900D02*
Y308167D01*
X717300Y303900D02*
Y308367D01*
X717500Y303700D02*
Y308367D01*
X717700Y303900D02*
Y308567D01*
X717900Y304100D02*
Y308767D01*
X718100Y304100D02*
Y308767D01*
X718500Y304300D02*
Y308967D01*
X718700Y304500D02*
Y309167D01*
X718300Y304300D02*
Y308967D01*
X718900Y304700D02*
Y309167D01*
X713500Y306100D02*
Y306167D01*
X713700Y305900D02*
Y306167D01*
X713900Y305900D02*
Y306367D01*
X714100Y305700D02*
Y306567D01*
X714300Y305500D02*
Y306567D01*
X714500Y305500D02*
Y306767D01*
X714700Y305300D02*
Y306767D01*
X714900Y305300D02*
Y306967D01*
X715100Y305100D02*
Y306967D01*
X715300Y305100D02*
Y307167D01*
X715500Y304900D02*
Y307367D01*
X715900Y304700D02*
Y307567D01*
X716100Y304500D02*
Y307567D01*
X716300Y304500D02*
Y307767D01*
X715700Y304700D02*
Y307367D01*
X731900Y295500D02*
Y297567D01*
X732100Y295300D02*
Y297767D01*
X732300Y295100D02*
Y297767D01*
X732500Y295100D02*
Y297967D01*
X732700Y294900D02*
Y297967D01*
X732900Y294900D02*
Y298167D01*
X733100Y294700D02*
Y298367D01*
X733300Y294700D02*
Y298367D01*
X733500Y294500D02*
Y298567D01*
X733900Y294300D02*
Y298767D01*
X734100Y294300D02*
Y298967D01*
X733700Y294300D02*
Y298567D01*
X734300Y294500D02*
Y298967D01*
X732300Y302700D02*
Y326567D01*
X732500Y302900D02*
Y326767D01*
X732700Y303100D02*
Y326967D01*
X732900Y303100D02*
Y326967D01*
X733100Y303300D02*
Y327167D01*
X733300Y303300D02*
Y327167D01*
X733500Y303500D02*
Y327367D01*
X733700Y303500D02*
Y327567D01*
X733900Y303700D02*
Y327567D01*
X734300Y323100D02*
Y327767D01*
X734500Y323300D02*
Y327967D01*
X734100Y322900D02*
Y327767D01*
X734700Y323500D02*
Y327967D01*
X734500Y294500D02*
Y299167D01*
X734700Y294700D02*
Y299167D01*
X734900Y294900D02*
Y299367D01*
X735100Y294900D02*
Y299367D01*
X735300Y295100D02*
Y299567D01*
X735500Y295100D02*
Y299767D01*
X735700Y295300D02*
Y299767D01*
X735900Y295300D02*
Y299967D01*
X736100Y295500D02*
Y299967D01*
X736500Y295700D02*
Y300367D01*
X736700Y295900D02*
Y300367D01*
X736300Y295700D02*
Y300167D01*
X736900Y295900D02*
Y300567D01*
X734900Y323500D02*
Y328167D01*
X735100Y323700D02*
Y328367D01*
X735300Y323700D02*
Y328367D01*
X735500Y323900D02*
Y328567D01*
X735700Y323900D02*
Y328567D01*
X735900Y324100D02*
Y328767D01*
X736100Y324300D02*
Y328967D01*
X736300Y324300D02*
Y328967D01*
X736700Y324500D02*
Y329167D01*
X736900Y324700D02*
Y329367D01*
X737100Y324700D02*
Y329367D01*
X736500Y324500D02*
Y329167D01*
X737300Y324900D02*
Y329567D01*
X737100Y296100D02*
Y300567D01*
X737300Y296100D02*
Y300767D01*
X737500Y296300D02*
Y300767D01*
X737700Y296500D02*
Y300967D01*
X737900Y296500D02*
Y301167D01*
X738100Y296700D02*
Y301167D01*
X738300Y296700D02*
Y301367D01*
X738500Y296900D02*
Y301367D01*
X738700Y297100D02*
Y301567D01*
X739100Y297300D02*
Y301767D01*
X739300Y297300D02*
Y301967D01*
X738900Y297100D02*
Y301767D01*
X739500Y297500D02*
Y301967D01*
X737500Y325100D02*
Y329767D01*
X737700Y325100D02*
Y329767D01*
X737900Y325300D02*
Y329967D01*
X738100Y325300D02*
Y329967D01*
X738300Y325500D02*
Y330167D01*
Y306300D02*
Y320567D01*
X738500Y325500D02*
Y330167D01*
Y306500D02*
Y320567D01*
X738700Y325700D02*
Y330367D01*
X738900Y325900D02*
Y330567D01*
X738700Y306500D02*
Y320767D01*
X738900Y306700D02*
Y320967D01*
X739100Y325900D02*
Y330567D01*
Y306700D02*
Y320967D01*
X739300Y326100D02*
Y330767D01*
Y306900D02*
Y321167D01*
X739500Y326100D02*
Y330767D01*
Y306900D02*
Y321167D01*
X739700Y326300D02*
Y330967D01*
Y307100D02*
Y321367D01*
X739900Y326500D02*
Y331167D01*
X740100Y326500D02*
Y331167D01*
Y307300D02*
Y321567D01*
X739900Y307300D02*
Y321367D01*
X740300Y326700D02*
Y331367D01*
X739700Y297500D02*
Y302167D01*
X739900Y297700D02*
Y302167D01*
X740100Y297900D02*
Y302367D01*
X740300Y297900D02*
Y302567D01*
X740500Y298100D02*
Y302567D01*
X740700Y298100D02*
Y302767D01*
X740900Y298300D02*
Y302767D01*
X741100Y298300D02*
Y302967D01*
X741300Y298500D02*
Y303167D01*
X741700Y298700D02*
Y303367D01*
X741900Y298900D02*
Y303367D01*
X741500Y298700D02*
Y303167D01*
X742100Y298900D02*
Y303567D01*
X740300Y307500D02*
Y321767D01*
X740500Y326700D02*
Y331367D01*
Y307500D02*
Y321767D01*
X740700Y326900D02*
Y331567D01*
Y307700D02*
Y321967D01*
X740900Y326900D02*
Y331567D01*
Y307900D02*
Y321967D01*
X741100Y327100D02*
Y331767D01*
X741300Y327300D02*
Y331967D01*
Y308100D02*
Y322367D01*
X741500Y327300D02*
Y331967D01*
X741100Y307900D02*
Y322167D01*
X741500Y308100D02*
Y322367D01*
X741700Y327500D02*
Y332167D01*
Y308300D02*
Y322567D01*
X741900Y327500D02*
Y332167D01*
Y308300D02*
Y322567D01*
X742100Y327700D02*
Y332367D01*
Y308500D02*
Y322767D01*
X742300Y327700D02*
Y332567D01*
Y308700D02*
Y322767D01*
Y299100D02*
Y303567D01*
X742500Y299100D02*
Y303767D01*
X742700Y299300D02*
Y303967D01*
X742900Y299500D02*
Y303967D01*
X730100Y301500D02*
Y325367D01*
X730300Y301700D02*
Y325567D01*
X730500Y301700D02*
Y325567D01*
X730700Y301900D02*
Y325767D01*
X730900Y301900D02*
Y325767D01*
X731100Y302100D02*
Y325967D01*
X731300Y302300D02*
Y326167D01*
X731700Y302500D02*
Y326367D01*
X731900Y302500D02*
Y326367D01*
X732100Y302700D02*
Y326567D01*
X731500Y302300D02*
Y326167D01*
X730100Y296500D02*
Y296567D01*
X730300Y296300D02*
Y296567D01*
X730500Y296300D02*
Y296767D01*
X730700Y296100D02*
Y296967D01*
X730900Y296100D02*
Y296967D01*
X731300Y295700D02*
Y297167D01*
X731500Y295700D02*
Y297367D01*
X731700Y295500D02*
Y297567D01*
X731100Y295900D02*
Y297167D01*
X743500Y264500D02*
Y266167D01*
X743700Y290300D02*
Y294967D01*
Y270900D02*
Y281367D01*
X743900Y290500D02*
Y294967D01*
Y270900D02*
Y281167D01*
Y265100D02*
Y266567D01*
X744100Y290500D02*
Y295167D01*
Y270700D02*
Y281167D01*
Y265500D02*
Y266767D01*
X744300Y290700D02*
Y295367D01*
Y270700D02*
Y280967D01*
Y265900D02*
Y266967D01*
X743700Y264900D02*
Y266167D01*
X744500Y290700D02*
Y295367D01*
Y270700D02*
Y280767D01*
Y266100D02*
Y266967D01*
X744700Y290900D02*
Y295567D01*
Y270700D02*
Y280767D01*
Y266500D02*
Y266767D01*
X744900Y290900D02*
Y295567D01*
Y270500D02*
Y280567D01*
Y266700D02*
Y266767D01*
X745100Y291100D02*
Y295767D01*
Y270500D02*
Y280567D01*
X745300Y291300D02*
Y295967D01*
Y270500D02*
Y280367D01*
X746700Y292100D02*
Y296767D01*
Y286900D02*
Y287167D01*
Y270100D02*
Y280567D01*
X746900Y292100D02*
Y296767D01*
Y286700D02*
Y287167D01*
Y270100D02*
Y280767D01*
X747100Y292300D02*
Y296967D01*
Y286700D02*
Y287367D01*
Y269900D02*
Y280767D01*
X747300Y292300D02*
Y296967D01*
Y286500D02*
Y287367D01*
Y269900D02*
Y280967D01*
X747500Y292500D02*
Y297167D01*
X745500Y291300D02*
Y295967D01*
Y270300D02*
Y280367D01*
X745700Y291500D02*
Y296167D01*
Y270300D02*
Y280167D01*
X745900Y291500D02*
Y296167D01*
Y270300D02*
Y279967D01*
X746100Y291700D02*
Y296367D01*
Y270300D02*
Y279967D01*
X746300Y291900D02*
Y296367D01*
Y270100D02*
Y280167D01*
X746500Y291900D02*
Y296567D01*
Y286900D02*
Y286967D01*
Y270100D02*
Y280367D01*
X747500Y286300D02*
Y287567D01*
Y269900D02*
Y280967D01*
X747700Y292700D02*
Y297167D01*
Y286300D02*
Y287767D01*
Y269700D02*
Y280967D01*
X747900Y292700D02*
Y297367D01*
Y286100D02*
Y287767D01*
Y269700D02*
Y280967D01*
X748100Y292900D02*
Y297567D01*
Y286100D02*
Y287967D01*
Y269700D02*
Y281167D01*
X748300Y292900D02*
Y297567D01*
Y285900D02*
Y287967D01*
Y269700D02*
Y281167D01*
X748500Y293100D02*
Y297767D01*
Y285700D02*
Y288167D01*
Y269700D02*
Y281167D01*
X748700Y293100D02*
Y297767D01*
Y285700D02*
Y288167D01*
Y269500D02*
Y281167D01*
X748900Y293300D02*
Y297967D01*
Y285500D02*
Y288367D01*
Y269500D02*
Y280967D01*
X749100Y293500D02*
Y297967D01*
Y285500D02*
Y288567D01*
Y269500D02*
Y280967D01*
X749300Y303100D02*
Y307767D01*
Y293500D02*
Y298167D01*
Y285300D02*
Y288567D01*
Y269500D02*
Y280967D01*
X749500Y303300D02*
Y307767D01*
Y293700D02*
Y298367D01*
Y285300D02*
Y288767D01*
Y269300D02*
Y280967D01*
X749700Y303300D02*
Y307967D01*
Y293700D02*
Y298367D01*
Y285100D02*
Y288767D01*
Y269300D02*
Y280767D01*
X749900Y303500D02*
Y308167D01*
Y293900D02*
Y298567D01*
Y284900D02*
Y288967D01*
Y269300D02*
Y280767D01*
X750100Y303500D02*
Y308167D01*
Y294100D02*
Y298567D01*
Y284900D02*
Y289167D01*
Y269300D02*
Y280567D01*
X750300Y303700D02*
Y308367D01*
Y294100D02*
Y298767D01*
Y284700D02*
Y289167D01*
Y269100D02*
Y280367D01*
X750500Y303900D02*
Y308367D01*
Y294300D02*
Y298967D01*
X752700Y268700D02*
Y276167D01*
X754300Y300900D02*
Y302767D01*
Y291900D02*
Y293767D01*
X754500Y300500D02*
Y303167D01*
Y291500D02*
Y294167D01*
X754700Y300100D02*
Y303567D01*
Y291100D02*
Y294567D01*
X754900Y299900D02*
Y303767D01*
Y290900D02*
Y294767D01*
X755100Y299700D02*
Y303967D01*
Y290700D02*
Y294967D01*
X755300Y299700D02*
Y303967D01*
Y290700D02*
Y294967D01*
X746900Y301700D02*
Y306367D01*
X747100Y301900D02*
Y306367D01*
X747300Y301900D02*
Y306567D01*
X747500Y302100D02*
Y306767D01*
X747700Y302100D02*
Y306767D01*
X747900Y302300D02*
Y306967D01*
X748100Y302500D02*
Y306967D01*
X748300Y302500D02*
Y307167D01*
X748700Y302700D02*
Y307367D01*
X748900Y302900D02*
Y307567D01*
X749100Y303100D02*
Y307567D01*
X748500Y302700D02*
Y307367D01*
X754300Y255300D02*
Y256167D01*
X754500Y255300D02*
Y256167D01*
X754700Y262300D02*
Y264567D01*
Y255100D02*
Y256167D01*
X754900Y262700D02*
Y264167D01*
Y255100D02*
Y256167D01*
X755100Y255100D02*
Y256167D01*
X755300Y255100D02*
Y256167D01*
X756700Y260700D02*
Y263767D01*
X756900Y260700D02*
Y264767D01*
X757100Y260700D02*
Y264767D01*
X757300Y263300D02*
Y264767D01*
X757900Y261700D02*
Y262967D01*
X754300Y268500D02*
Y275167D01*
Y261700D02*
Y265167D01*
X754500Y282300D02*
Y285167D01*
Y268500D02*
Y275167D01*
Y261900D02*
Y264967D01*
X754700Y282100D02*
Y285367D01*
Y268500D02*
Y274967D01*
X754900Y281900D02*
Y285567D01*
Y268500D02*
Y274967D01*
X755100Y281700D02*
Y285767D01*
Y268500D02*
Y274767D01*
X755300Y281500D02*
Y285967D01*
Y268500D02*
Y274567D01*
X755500Y299500D02*
Y304167D01*
Y290500D02*
Y295167D01*
X755700Y299500D02*
Y304167D01*
Y290500D02*
Y295167D01*
X755900Y299300D02*
Y304367D01*
Y290300D02*
Y295367D01*
X756100Y299300D02*
Y304367D01*
Y290300D02*
Y295367D01*
X756300Y299300D02*
Y304367D01*
Y290300D02*
Y295367D01*
X756500Y299100D02*
Y304567D01*
Y290100D02*
Y295567D01*
X759900Y269300D02*
Y306567D01*
X755100Y308700D02*
Y312967D01*
X755300Y308700D02*
Y312967D01*
X755500Y308500D02*
Y313167D01*
X755700Y308500D02*
Y313367D01*
X755900Y308300D02*
Y313367D01*
X756100Y308300D02*
Y313367D01*
X756300Y308300D02*
Y313367D01*
X756500Y308100D02*
Y313567D01*
X764700Y314100D02*
Y314567D01*
X764900Y313700D02*
Y314567D01*
X765100Y313500D02*
Y314567D01*
X765300Y313500D02*
Y314567D01*
X765500Y313300D02*
Y314567D01*
X755500Y281500D02*
Y286167D01*
Y268500D02*
Y274567D01*
X755700Y281300D02*
Y286167D01*
Y268500D02*
Y274367D01*
X755900Y281300D02*
Y286367D01*
Y268500D02*
Y274367D01*
X756100Y281100D02*
Y286367D01*
Y268500D02*
Y274167D01*
X756300Y281100D02*
Y286367D01*
Y268500D02*
Y274167D01*
X756500Y281100D02*
Y286367D01*
Y268500D02*
Y273967D01*
X756700Y268500D02*
Y273967D01*
Y254900D02*
Y255967D01*
X756900Y254900D02*
Y255767D01*
X757100Y254900D02*
Y255767D01*
X757300Y254900D02*
Y255767D01*
X757500Y254900D02*
Y255767D01*
X757700Y254700D02*
Y255767D01*
X757900Y254700D02*
Y255767D01*
X758100Y254700D02*
Y255767D01*
X758300Y254700D02*
Y255767D01*
X758500Y254700D02*
Y255767D01*
X758700Y254700D02*
Y255567D01*
X758900Y254700D02*
Y255567D01*
X759100Y260500D02*
Y262767D01*
X766300Y302100D02*
Y303167D01*
X766500Y304300D02*
Y304767D01*
Y301900D02*
Y303367D01*
X766700Y304100D02*
Y304767D01*
Y301900D02*
Y303567D01*
X766900Y304100D02*
Y304767D01*
Y303300D02*
Y303767D01*
Y301900D02*
Y302967D01*
X767100Y303700D02*
Y304767D01*
Y301900D02*
Y302967D01*
X767300Y304100D02*
Y304767D01*
Y302100D02*
Y303167D01*
X767500Y304100D02*
Y304767D01*
X765100Y303500D02*
Y305367D01*
X765300Y303300D02*
Y305367D01*
X765500Y303300D02*
Y305567D01*
X765700Y304100D02*
Y305367D01*
X765900Y304900D02*
Y304967D01*
X766700Y311900D02*
Y312567D01*
X766900Y311900D02*
Y312567D01*
X767100Y312100D02*
Y312567D01*
X767300Y312100D02*
Y312567D01*
X767500Y312100D02*
Y312567D01*
X767700Y312100D02*
Y312567D01*
Y310500D02*
Y311167D01*
X767900Y310500D02*
Y311567D01*
X763700Y331100D02*
Y332167D01*
X763900Y330900D02*
Y332167D01*
X763500Y331300D02*
Y332167D01*
X756300Y335300D02*
Y340567D01*
X756500Y335300D02*
Y340567D01*
X756100Y335300D02*
Y340567D01*
Y326300D02*
Y331567D01*
X756300Y326300D02*
Y331567D01*
X756500Y326300D02*
Y331567D01*
X762900Y331500D02*
Y331767D01*
X763100Y331300D02*
Y331967D01*
X763300Y331300D02*
Y331967D01*
X764100Y330900D02*
Y332367D01*
X764300Y330900D02*
Y332367D01*
X764500Y331100D02*
Y332367D01*
X764700Y331100D02*
Y332567D01*
X764900Y331300D02*
Y332567D01*
X765100Y331300D02*
Y332767D01*
X765300Y331500D02*
Y332767D01*
X765500Y331700D02*
Y332967D01*
X765700Y331900D02*
Y332967D01*
X765900Y332100D02*
Y333167D01*
X766900Y333100D02*
Y333767D01*
X767100Y333300D02*
Y333967D01*
Y331900D02*
Y332367D01*
X767300Y333500D02*
Y333967D01*
Y331700D02*
Y332767D01*
X767500Y333700D02*
Y334167D01*
Y331700D02*
Y332767D01*
X767700Y333700D02*
Y334167D01*
Y331900D02*
Y332967D01*
X767900Y333900D02*
Y334367D01*
Y331900D02*
Y332967D01*
Y331300D02*
Y331567D01*
X769100Y331300D02*
Y331367D01*
X756100Y317300D02*
Y322367D01*
X756300Y317300D02*
Y322367D01*
X756500Y317300D02*
Y322567D01*
X764500Y323700D02*
Y323967D01*
X764700Y323300D02*
Y324167D01*
X764900Y322900D02*
Y324167D01*
Y321900D02*
Y321967D01*
X765100Y321700D02*
Y324167D01*
X765300Y321700D02*
Y323967D01*
Y320700D02*
Y321167D01*
X765500Y321500D02*
Y323567D01*
X765900Y320100D02*
Y323167D01*
X765700Y320300D02*
Y323367D01*
X765500Y320300D02*
Y321167D01*
X767100Y293300D02*
Y293567D01*
Y287300D02*
Y287567D01*
Y282700D02*
Y286967D01*
X767300Y294900D02*
Y295767D01*
Y293300D02*
Y293567D01*
Y287300D02*
Y287567D01*
Y286500D02*
Y286967D01*
X767500Y294900D02*
Y295967D01*
Y293300D02*
Y293567D01*
Y287300D02*
Y287567D01*
Y286700D02*
Y286967D01*
X767700Y294900D02*
Y295967D01*
Y293300D02*
Y293767D01*
X767500Y302500D02*
Y303367D01*
X767700Y304300D02*
Y304967D01*
Y302700D02*
Y303567D01*
X767900Y304300D02*
Y305167D01*
Y303100D02*
Y303767D01*
X768100Y303500D02*
Y303967D01*
X768300Y303700D02*
Y304767D01*
X768500Y304100D02*
Y304767D01*
X768700Y304300D02*
Y304767D01*
X768900Y304300D02*
Y304967D01*
X772500Y304300D02*
Y305367D01*
Y296500D02*
Y297367D01*
Y293900D02*
Y295367D01*
X767700Y288300D02*
Y288567D01*
Y286100D02*
Y287567D01*
X767900Y294900D02*
Y295967D01*
Y293500D02*
Y293767D01*
Y288100D02*
Y288567D01*
Y284700D02*
Y287567D01*
X768100Y294900D02*
Y295967D01*
Y293500D02*
Y293967D01*
Y288100D02*
Y288567D01*
Y286900D02*
Y287567D01*
Y285100D02*
Y286567D01*
X768300Y295100D02*
Y296167D01*
Y293700D02*
Y294167D01*
X768900Y305700D02*
Y306367D01*
X769100Y313100D02*
Y313367D01*
Y312300D02*
Y312767D01*
Y311300D02*
Y311367D01*
Y307300D02*
Y307567D01*
Y305900D02*
Y306767D01*
X769300Y312300D02*
Y313367D01*
Y311300D02*
Y311567D01*
Y307300D02*
Y307767D01*
Y306100D02*
Y306967D01*
X769500Y312300D02*
Y313367D01*
Y311300D02*
Y311567D01*
Y306100D02*
Y307767D01*
X770500Y322300D02*
Y323167D01*
X770700Y322500D02*
Y322967D01*
X770900Y323900D02*
Y324167D01*
Y322700D02*
Y323367D01*
X771100Y323900D02*
Y324367D01*
Y321500D02*
Y323367D01*
X783500Y291300D02*
Y298767D01*
X783700Y292700D02*
Y300767D01*
X783900Y293900D02*
Y303167D01*
X784100Y295100D02*
Y307167D01*
X784300Y296700D02*
Y324567D01*
X784500Y298300D02*
Y323167D01*
X784700Y300300D02*
Y321167D01*
X770300Y304700D02*
Y304967D01*
Y303500D02*
Y304167D01*
Y294900D02*
Y298367D01*
Y287900D02*
Y288367D01*
X770500Y307100D02*
Y308367D01*
Y305500D02*
Y305967D01*
Y304900D02*
Y304967D01*
Y303900D02*
Y304167D01*
Y295100D02*
Y298767D01*
Y288100D02*
Y288167D01*
X770700Y307300D02*
Y308367D01*
Y295500D02*
Y299167D01*
Y287500D02*
Y287767D01*
X773900Y303100D02*
Y303967D01*
Y297700D02*
Y297967D01*
Y294300D02*
Y294767D01*
Y284700D02*
Y287967D01*
X774100Y312100D02*
Y312767D01*
Y305100D02*
Y305767D01*
Y303500D02*
Y304367D01*
Y285100D02*
Y287967D01*
X774300Y312100D02*
Y312767D01*
Y303700D02*
Y305567D01*
Y286100D02*
Y287967D01*
X774500Y312100D02*
Y312767D01*
Y304100D02*
Y305567D01*
X774700Y312100D02*
Y312767D01*
Y304300D02*
Y305567D01*
X774900Y312100D02*
Y312767D01*
Y304900D02*
Y305567D01*
X775100Y312100D02*
Y312767D01*
X775300Y312100D02*
Y312767D01*
X775500Y312100D02*
Y312767D01*
X775700Y312100D02*
Y312767D01*
X775900Y312100D02*
Y312767D01*
X776100Y312100D02*
Y312767D01*
X776300Y312100D02*
Y312767D01*
X776500Y312100D02*
Y312767D01*
X776700Y312100D02*
Y312767D01*
X775100Y264100D02*
Y266567D01*
X775300Y264500D02*
Y266967D01*
X775500Y264900D02*
Y267367D01*
X775700Y265500D02*
Y267967D01*
X775900Y265900D02*
Y268367D01*
X776100Y266300D02*
Y268967D01*
X776300Y266900D02*
Y269367D01*
X776500Y267300D02*
Y269967D01*
X776700Y267700D02*
Y270367D01*
X776900Y268300D02*
Y270967D01*
X777100Y268700D02*
Y271567D01*
X777300Y269300D02*
Y271967D01*
X777500Y269700D02*
Y272567D01*
X777700Y270300D02*
Y273167D01*
X777900Y270700D02*
Y273767D01*
X778100Y271300D02*
Y274367D01*
X778300Y271900D02*
Y274967D01*
X778500Y272500D02*
Y275567D01*
X778700Y305100D02*
Y305767D01*
Y272900D02*
Y276167D01*
X778900Y304700D02*
Y306167D01*
Y273500D02*
Y276767D01*
X779100Y304500D02*
Y306367D01*
Y274100D02*
Y277367D01*
X779300Y305900D02*
Y306567D01*
Y304300D02*
Y304967D01*
X780700Y309900D02*
Y310367D01*
Y308100D02*
Y308567D01*
Y306300D02*
Y306767D01*
Y304100D02*
Y304567D01*
Y279300D02*
Y283167D01*
X780900Y311300D02*
Y312367D01*
Y307900D02*
Y308367D01*
Y306300D02*
Y306767D01*
Y304100D02*
Y304567D01*
Y279900D02*
Y283967D01*
X781100Y312100D02*
Y313567D01*
Y311300D02*
Y311767D01*
Y307900D02*
Y308367D01*
Y315500D02*
Y315967D01*
Y306300D02*
Y306767D01*
Y304100D02*
Y304567D01*
Y280700D02*
Y284767D01*
X781300Y315500D02*
Y315967D01*
Y312300D02*
Y313167D01*
Y311500D02*
Y311767D01*
Y307900D02*
Y308367D01*
Y306300D02*
Y306767D01*
Y304100D02*
Y304567D01*
Y281300D02*
Y285567D01*
X781500Y315500D02*
Y315967D01*
Y311500D02*
Y311767D01*
Y307900D02*
Y308367D01*
X781900Y315500D02*
Y315967D01*
Y313500D02*
Y313967D01*
Y311500D02*
Y311967D01*
Y304300D02*
Y304767D01*
Y283700D02*
Y288367D01*
X782100Y315500D02*
Y315967D01*
Y313500D02*
Y313767D01*
Y311700D02*
Y312167D01*
Y309900D02*
Y310367D01*
Y308100D02*
Y308567D01*
Y306100D02*
Y306567D01*
Y304300D02*
Y304767D01*
Y284500D02*
Y289567D01*
X782300Y315500D02*
Y315967D01*
Y313300D02*
Y313767D01*
Y311900D02*
Y312367D01*
X770100Y313700D02*
Y315167D01*
Y313100D02*
Y313367D01*
Y312300D02*
Y312767D01*
Y311300D02*
Y311567D01*
X770300Y317100D02*
Y317567D01*
Y315700D02*
Y316367D01*
Y313700D02*
Y315167D01*
Y313100D02*
Y313367D01*
Y312300D02*
Y312567D01*
Y311300D02*
Y311567D01*
X770500Y320300D02*
Y321767D01*
Y317300D02*
Y317767D01*
Y315700D02*
Y316167D01*
Y255300D02*
Y257167D01*
X770700Y286700D02*
Y286767D01*
Y284300D02*
Y285567D01*
Y255700D02*
Y257567D01*
X770900Y286900D02*
Y287167D01*
Y284500D02*
Y285767D01*
Y256100D02*
Y257967D01*
X771100Y287100D02*
Y287367D01*
Y284900D02*
Y285967D01*
Y256300D02*
Y258367D01*
X771300Y287300D02*
Y287567D01*
Y285300D02*
Y286167D01*
Y256700D02*
Y258767D01*
X770900Y315900D02*
Y316367D01*
Y314100D02*
Y315167D01*
Y312300D02*
Y313567D01*
Y311100D02*
Y311367D01*
X771100Y317700D02*
Y318367D01*
Y316100D02*
Y316567D01*
Y314300D02*
Y315167D01*
Y313700D02*
Y313767D01*
Y312300D02*
Y313367D01*
Y310900D02*
Y311167D01*
X771300Y321900D02*
Y322967D01*
Y317900D02*
Y318367D01*
Y316300D02*
Y316567D01*
X770900Y307700D02*
Y308167D01*
Y295700D02*
Y299367D01*
Y287700D02*
Y287967D01*
X771100Y305100D02*
Y305367D01*
Y303500D02*
Y304367D01*
Y295700D02*
Y299367D01*
Y287900D02*
Y288367D01*
X771300Y303300D02*
Y305367D01*
Y297900D02*
Y298967D01*
Y295900D02*
Y297167D01*
Y288300D02*
Y288567D01*
X771500Y310700D02*
Y310967D01*
Y303300D02*
Y305767D01*
X770500Y313900D02*
Y315167D01*
Y313100D02*
Y313367D01*
Y312300D02*
Y312567D01*
Y311300D02*
Y311567D01*
X770700Y320300D02*
Y322167D01*
Y317500D02*
Y318367D01*
Y315700D02*
Y316167D01*
Y314100D02*
Y315167D01*
Y313100D02*
Y313567D01*
Y312300D02*
Y312567D01*
Y311100D02*
Y311367D01*
X770900Y320700D02*
Y322167D01*
Y317500D02*
Y318367D01*
X771300Y323700D02*
Y324567D01*
Y314500D02*
Y315567D01*
Y313700D02*
Y313967D01*
Y312300D02*
Y313167D01*
X771500Y323700D02*
Y324767D01*
Y322300D02*
Y322767D01*
Y321300D02*
Y321767D01*
Y316300D02*
Y316967D01*
Y314500D02*
Y315167D01*
Y313700D02*
Y314167D01*
Y312300D02*
Y313167D01*
X771300Y310900D02*
Y311167D01*
X771500Y295900D02*
Y296967D01*
X771700Y310700D02*
Y310967D01*
Y304700D02*
Y305967D01*
Y303300D02*
Y304167D01*
Y296100D02*
Y296967D01*
X771900Y312100D02*
Y312967D01*
Y310500D02*
Y310967D01*
Y304900D02*
Y306167D01*
Y303500D02*
Y304167D01*
Y296100D02*
Y297167D01*
X772100Y312100D02*
Y312967D01*
Y310500D02*
Y310767D01*
Y305700D02*
Y306367D01*
X771500Y288500D02*
Y288567D01*
Y287500D02*
Y287767D01*
Y285500D02*
Y286367D01*
Y257100D02*
Y259167D01*
X771700Y287700D02*
Y287967D01*
Y285500D02*
Y286167D01*
Y257500D02*
Y259367D01*
X771900Y287900D02*
Y288167D01*
Y285500D02*
Y286167D01*
Y257700D02*
Y259767D01*
X772100Y289300D02*
Y289367D01*
Y288100D02*
Y288567D01*
Y284700D02*
Y285967D01*
X770900Y325100D02*
Y325767D01*
X771100Y325300D02*
Y325967D01*
X771300Y325500D02*
Y326167D01*
X771500Y325700D02*
Y326367D01*
X771700Y325700D02*
Y326567D01*
X772300Y326300D02*
Y327167D01*
Y320900D02*
Y323367D01*
X782700Y315500D02*
Y315967D01*
Y312300D02*
Y313367D01*
Y308700D02*
Y309767D01*
Y304900D02*
Y305967D01*
Y287300D02*
Y292767D01*
X782900Y288300D02*
Y294167D01*
X783100Y289300D02*
Y295567D01*
X783300Y290300D02*
Y296967D01*
X783500Y322500D02*
Y329967D01*
X783700Y320700D02*
Y328767D01*
X783900Y318300D02*
Y327567D01*
X772100Y314100D02*
Y315367D01*
Y304900D02*
Y305367D01*
Y303700D02*
Y304367D01*
Y296300D02*
Y297167D01*
X772300Y314300D02*
Y315767D01*
Y312100D02*
Y312767D01*
Y310500D02*
Y310967D01*
Y305700D02*
Y306567D01*
Y304900D02*
Y305367D01*
Y304100D02*
Y304367D01*
Y296300D02*
Y297367D01*
X772500Y314700D02*
Y315967D01*
Y312100D02*
Y312767D01*
Y310500D02*
Y310967D01*
X772100Y258100D02*
Y260167D01*
X772300Y289300D02*
Y289567D01*
Y288300D02*
Y288767D01*
Y284700D02*
Y285967D01*
Y258500D02*
Y260567D01*
X772500Y288500D02*
Y289967D01*
Y284700D02*
Y286167D01*
Y258900D02*
Y260967D01*
X772700Y288700D02*
Y290167D01*
Y284700D02*
Y286367D01*
X772900Y293300D02*
Y294967D01*
Y289100D02*
Y290167D01*
Y284900D02*
Y286767D01*
X771700Y323700D02*
Y324967D01*
Y322500D02*
Y322967D01*
Y321300D02*
Y321967D01*
Y316500D02*
Y317367D01*
Y313700D02*
Y315167D01*
Y312300D02*
Y313167D01*
X771900Y325900D02*
Y326767D01*
Y323700D02*
Y324967D01*
Y321700D02*
Y322967D01*
Y316700D02*
Y317367D01*
Y313700D02*
Y315167D01*
X772100Y326100D02*
Y326967D01*
Y321300D02*
Y323167D01*
X772500Y326300D02*
Y327167D01*
Y322100D02*
Y323567D01*
Y321100D02*
Y321767D01*
Y305700D02*
Y306767D01*
X772700Y326500D02*
Y327367D01*
Y322700D02*
Y323567D01*
Y321100D02*
Y321767D01*
Y315100D02*
Y315967D01*
Y310700D02*
Y312767D01*
X772900Y326700D02*
Y327567D01*
Y323100D02*
Y323767D01*
Y321300D02*
Y322167D01*
Y315300D02*
Y315767D01*
Y310700D02*
Y312767D01*
X773100Y326900D02*
Y327767D01*
Y323300D02*
Y323967D01*
X772700Y304500D02*
Y306967D01*
Y293500D02*
Y297567D01*
X772900Y306100D02*
Y306967D01*
Y304700D02*
Y305767D01*
Y296700D02*
Y297767D01*
X773100Y306500D02*
Y306967D01*
Y304900D02*
Y305567D01*
X773300Y306700D02*
Y306967D01*
Y305100D02*
Y305567D01*
X779900Y309900D02*
Y310167D01*
X781900Y310100D02*
Y310567D01*
Y307900D02*
Y308367D01*
Y306100D02*
Y306567D01*
X773100Y296900D02*
Y297767D01*
Y293300D02*
Y294367D01*
Y289300D02*
Y290567D01*
Y284900D02*
Y287367D01*
X773300Y302900D02*
Y303367D01*
Y297100D02*
Y297967D01*
Y293300D02*
Y294167D01*
Y289500D02*
Y290567D01*
Y286700D02*
Y287767D01*
Y284900D02*
Y285967D01*
X773500Y302900D02*
Y303567D01*
Y297300D02*
Y297967D01*
Y293500D02*
Y294367D01*
X773100Y321500D02*
Y322367D01*
Y310700D02*
Y312767D01*
X773300Y326900D02*
Y327967D01*
Y323500D02*
Y324167D01*
Y321500D02*
Y322367D01*
Y312100D02*
Y312767D01*
Y310900D02*
Y311167D01*
X773500Y327100D02*
Y328167D01*
Y323700D02*
Y324367D01*
Y321700D02*
Y322367D01*
X773700Y327300D02*
Y328367D01*
Y323700D02*
Y324567D01*
Y321500D02*
Y322367D01*
X768500Y322900D02*
Y323767D01*
X768700Y323100D02*
Y323767D01*
X768900Y322300D02*
Y323967D01*
X769100Y322500D02*
Y324167D01*
X769300Y322500D02*
Y324367D01*
X769500Y323900D02*
Y324567D01*
X769900Y324300D02*
Y324967D01*
X770100Y324500D02*
Y325167D01*
X770300Y324700D02*
Y325367D01*
X770500Y324700D02*
Y325567D01*
X769700Y324100D02*
Y324767D01*
X770700Y324900D02*
Y325567D01*
X768100Y334100D02*
Y334367D01*
Y331100D02*
Y332767D01*
X768300Y331100D02*
Y333167D01*
X768500Y331300D02*
Y333367D01*
X768700Y331500D02*
Y333767D01*
X768900Y331700D02*
Y334167D01*
X769100Y332100D02*
Y334567D01*
X769300Y332300D02*
Y334967D01*
X769500Y333700D02*
Y335567D01*
Y332300D02*
Y333367D01*
Y330700D02*
Y331567D01*
X769300Y330900D02*
Y331567D01*
X769700Y330700D02*
Y333367D01*
Y334100D02*
Y335967D01*
X769900Y334500D02*
Y336367D01*
Y330900D02*
Y333567D01*
X770100Y334700D02*
Y336767D01*
Y331100D02*
Y333567D01*
X770300Y334900D02*
Y336967D01*
Y331100D02*
Y333767D01*
X770500Y335100D02*
Y337367D01*
Y331300D02*
Y333767D01*
X770700Y331500D02*
Y333967D01*
Y335300D02*
Y337767D01*
X766300Y332500D02*
Y333367D01*
X766500Y332700D02*
Y333567D01*
X766700Y332900D02*
Y333767D01*
X766100Y332300D02*
Y333367D01*
X770900Y335500D02*
Y337967D01*
Y333500D02*
Y334167D01*
Y331700D02*
Y332967D01*
X771100Y335700D02*
Y338167D01*
Y333700D02*
Y334367D01*
Y331900D02*
Y332967D01*
X771300Y335900D02*
Y337767D01*
Y333700D02*
Y334567D01*
X771500Y336100D02*
Y337367D01*
Y333900D02*
Y334567D01*
Y332500D02*
Y333167D01*
X771300Y332300D02*
Y333167D01*
X771700Y336300D02*
Y336767D01*
Y333900D02*
Y334767D01*
Y332500D02*
Y333367D01*
X771900Y334100D02*
Y334767D01*
Y332700D02*
Y333367D01*
X772100Y334300D02*
Y334367D01*
Y332700D02*
Y333367D01*
X772500Y332900D02*
Y333767D01*
X772700Y332700D02*
Y333767D01*
X772300Y332700D02*
Y333367D01*
X772900Y332500D02*
Y333767D01*
X766100Y320100D02*
Y323167D01*
X766300Y320100D02*
Y323567D01*
X766500Y320700D02*
Y325967D01*
X766700Y321100D02*
Y326167D01*
X766900Y323100D02*
Y325967D01*
Y321300D02*
Y322367D01*
X767100Y323700D02*
Y325767D01*
Y321700D02*
Y322567D01*
X767300Y324300D02*
Y325567D01*
X767500Y324900D02*
Y325567D01*
Y322100D02*
Y322767D01*
X767700Y322300D02*
Y322967D01*
X767300Y321900D02*
Y322567D01*
X779300Y274700D02*
Y277967D01*
X779500Y306100D02*
Y306567D01*
Y304300D02*
Y304767D01*
Y275300D02*
Y278767D01*
X779700Y306100D02*
Y306567D01*
Y304100D02*
Y304567D01*
Y275900D02*
Y279367D01*
X779900Y306300D02*
Y306767D01*
Y304100D02*
Y304567D01*
Y276500D02*
Y280167D01*
X780100Y308900D02*
Y309367D01*
Y306300D02*
Y306767D01*
Y304100D02*
Y304567D01*
X743700Y299900D02*
Y304567D01*
X743900Y300100D02*
Y304567D01*
X744100Y300100D02*
Y304767D01*
X744300Y300300D02*
Y304767D01*
X744500Y300300D02*
Y304967D01*
X744700Y300500D02*
Y304967D01*
X744900Y300500D02*
Y305167D01*
X745100Y300700D02*
Y305367D01*
X745300Y300900D02*
Y305367D01*
X745500Y300900D02*
Y305567D01*
X745700Y301100D02*
Y305567D01*
X745900Y301100D02*
Y305767D01*
X746100Y301300D02*
Y305967D01*
X746300Y301300D02*
Y305967D01*
X746500Y301500D02*
Y306167D01*
X746700Y311100D02*
Y315767D01*
Y301700D02*
Y306167D01*
X746900Y311300D02*
Y315967D01*
X747100Y311300D02*
Y315967D01*
X747300Y311500D02*
Y316167D01*
X747500Y311700D02*
Y316167D01*
X747700Y311700D02*
Y316367D01*
X747900Y311900D02*
Y316367D01*
X748100Y311900D02*
Y316567D01*
X748300Y312100D02*
Y316767D01*
X748500Y312100D02*
Y316767D01*
X748700Y312300D02*
Y316967D01*
X748900Y312500D02*
Y316967D01*
X749100Y312500D02*
Y317167D01*
X749300Y312700D02*
Y317167D01*
X749500Y312700D02*
Y317367D01*
X749700Y312900D02*
Y317567D01*
X749900Y313100D02*
Y317567D01*
X750100Y313100D02*
Y317767D01*
X750300Y313300D02*
Y317767D01*
X750500Y313300D02*
Y317967D01*
X784100Y314300D02*
Y326167D01*
X784900Y302700D02*
Y318967D01*
X785100Y306100D02*
Y315567D01*
X780900Y337100D02*
Y341167D01*
X781700Y333700D02*
Y338367D01*
X782500Y329700D02*
Y334967D01*
X783300Y324300D02*
Y330967D01*
X743100Y299500D02*
Y304167D01*
X743300Y299700D02*
Y304167D01*
X743500Y299700D02*
Y304367D01*
X744300Y328900D02*
Y333567D01*
Y319300D02*
Y323967D01*
X744500Y329100D02*
Y333767D01*
Y319500D02*
Y324167D01*
X744700Y329100D02*
Y333967D01*
Y319500D02*
Y324167D01*
X744900Y329300D02*
Y333967D01*
Y319700D02*
Y324367D01*
X745100Y329300D02*
Y334167D01*
Y319700D02*
Y324367D01*
X745300Y329500D02*
Y334167D01*
Y319900D02*
Y324567D01*
X745500Y329700D02*
Y334367D01*
Y320100D02*
Y324767D01*
X745700Y329700D02*
Y334367D01*
Y320100D02*
Y324767D01*
X745900Y329900D02*
Y334567D01*
Y320300D02*
Y324967D01*
X746100Y329900D02*
Y334767D01*
Y320300D02*
Y324967D01*
X746300Y330100D02*
Y334767D01*
Y320500D02*
Y325167D01*
X746500Y330300D02*
Y334967D01*
Y320500D02*
Y325367D01*
X746700Y330300D02*
Y334967D01*
Y320700D02*
Y325367D01*
X743100Y337700D02*
Y339167D01*
X746900Y330500D02*
Y335167D01*
Y320900D02*
Y325567D01*
X747100Y330500D02*
Y335367D01*
Y320900D02*
Y325567D01*
X747300Y330700D02*
Y335367D01*
Y321100D02*
Y325767D01*
X747500Y330700D02*
Y335567D01*
Y321100D02*
Y325767D01*
X747700Y330900D02*
Y335567D01*
Y321300D02*
Y325967D01*
X747900Y321300D02*
Y326167D01*
X743100Y328300D02*
Y332967D01*
Y318700D02*
Y323367D01*
X743300Y328300D02*
Y332967D01*
Y318700D02*
Y323367D01*
X743500Y328500D02*
Y333167D01*
Y318900D02*
Y323567D01*
X743700Y328500D02*
Y333367D01*
Y318900D02*
Y323567D01*
X743900Y328700D02*
Y333367D01*
Y319100D02*
Y323767D01*
X744100Y328900D02*
Y333567D01*
Y319300D02*
Y323967D01*
X748700Y331500D02*
Y336167D01*
X748900Y331500D02*
Y336367D01*
X749100Y331700D02*
Y336367D01*
X749300Y331900D02*
Y336567D01*
X749500Y331900D02*
Y336767D01*
X749700Y332100D02*
Y336767D01*
X749900Y332100D02*
Y336967D01*
X750100Y332300D02*
Y336967D01*
Y322700D02*
Y327367D01*
X750300Y332300D02*
Y337167D01*
X750500Y332500D02*
Y337167D01*
X750300Y322700D02*
Y327367D01*
X750500Y322900D02*
Y327567D01*
X748700Y321900D02*
Y326567D01*
X749100Y322100D02*
Y326767D01*
X749300Y322100D02*
Y326967D01*
X749700Y322500D02*
Y327167D01*
X749900Y322500D02*
Y327167D01*
X749500Y322300D02*
Y326967D01*
X748900Y321900D02*
Y326567D01*
X750500Y284700D02*
Y289367D01*
Y269100D02*
Y280167D01*
X750700Y269100D02*
Y279967D01*
X750900Y269100D02*
Y279567D01*
X751100Y277700D02*
Y279167D01*
Y269100D02*
Y276967D01*
X751300Y268900D02*
Y276967D01*
X751500Y268900D02*
Y276767D01*
X751700Y268900D02*
Y276767D01*
X754300Y309900D02*
Y311767D01*
X754500Y309500D02*
Y312167D01*
X754700Y309100D02*
Y312567D01*
X754900Y308900D02*
Y312767D01*
X757700Y261500D02*
Y262567D01*
X758900Y260700D02*
Y260967D01*
X761100Y261300D02*
Y261767D01*
X761300Y260900D02*
Y262167D01*
X761500Y260700D02*
Y262367D01*
X761700Y260500D02*
Y262567D01*
X761900Y260300D02*
Y262567D01*
X762100Y261700D02*
Y262567D01*
Y260300D02*
Y260967D01*
X762300Y261700D02*
Y262567D01*
Y260300D02*
Y260767D01*
X762500Y261700D02*
Y262567D01*
Y260300D02*
Y260767D01*
X758100Y261900D02*
Y263167D01*
X758300Y262300D02*
Y263367D01*
X758500Y262500D02*
Y263767D01*
X758700Y262700D02*
Y263967D01*
X758900Y263100D02*
Y264167D01*
X759100Y263300D02*
Y264567D01*
X759300Y260500D02*
Y264567D01*
X759500Y260700D02*
Y264567D01*
X759700Y262100D02*
Y264567D01*
X759900Y264100D02*
Y264567D01*
X762500Y271500D02*
Y286567D01*
X762700Y271700D02*
Y285767D01*
X762900Y272100D02*
Y284967D01*
X759100Y254700D02*
Y255567D01*
X759300Y254700D02*
Y255567D01*
X759500Y254700D02*
Y255567D01*
X759700Y254500D02*
Y255567D01*
X759900Y254500D02*
Y255567D01*
X760100Y254500D02*
Y255567D01*
X760300Y254500D02*
Y255567D01*
X760500Y254500D02*
Y255367D01*
X760700Y254500D02*
Y255367D01*
X760900Y254500D02*
Y255367D01*
X761100Y263500D02*
Y263767D01*
Y254500D02*
Y255367D01*
X761300Y263500D02*
Y263967D01*
Y254500D02*
Y255367D01*
X761500Y263500D02*
Y264167D01*
Y254500D02*
Y255367D01*
X761700Y263500D02*
Y264167D01*
Y254500D02*
Y255367D01*
X761900Y263700D02*
Y264367D01*
Y254500D02*
Y255367D01*
X762100Y263900D02*
Y264367D01*
Y254300D02*
Y255367D01*
X762300Y263900D02*
Y264367D01*
Y254300D02*
Y255367D01*
X762500Y263900D02*
Y264367D01*
Y254300D02*
Y255367D01*
X762700Y261900D02*
Y262767D01*
Y260300D02*
Y260767D01*
X762900Y261900D02*
Y262767D01*
Y260300D02*
Y260767D01*
X763100Y261900D02*
Y262767D01*
Y260300D02*
Y260767D01*
X763300Y261900D02*
Y262767D01*
Y260300D02*
Y260967D01*
X763500Y260300D02*
Y261167D01*
X763700Y260500D02*
Y260967D01*
X763900Y262300D02*
Y263967D01*
Y260700D02*
Y260967D01*
X764100Y262500D02*
Y263767D01*
X762700Y263900D02*
Y264367D01*
Y254300D02*
Y255367D01*
X762900Y263900D02*
Y264367D01*
Y254300D02*
Y255367D01*
X763100Y263900D02*
Y264367D01*
Y254300D02*
Y255167D01*
X763300Y263700D02*
Y264367D01*
Y254300D02*
Y255167D01*
X763500Y262100D02*
Y264167D01*
Y254300D02*
Y255167D01*
X763700Y273700D02*
Y281567D01*
Y262100D02*
Y264167D01*
Y254300D02*
Y255167D01*
X760100Y269500D02*
Y302567D01*
X760300Y269500D02*
Y299967D01*
X760500Y269700D02*
Y297767D01*
X760700Y269900D02*
Y295967D01*
X760900Y269900D02*
Y294567D01*
X761100Y270100D02*
Y293167D01*
X761300Y270300D02*
Y291967D01*
X761500Y270500D02*
Y290767D01*
X761700Y270700D02*
Y289767D01*
X761900Y270900D02*
Y288967D01*
X762100Y271100D02*
Y288167D01*
X762300Y271300D02*
Y287367D01*
X766100Y302300D02*
Y302967D01*
X768300Y311700D02*
Y313567D01*
X768500Y320500D02*
Y321167D01*
Y315500D02*
Y315767D01*
Y311900D02*
Y315167D01*
X768700Y315700D02*
Y315967D01*
Y312100D02*
Y314967D01*
X768900Y320300D02*
Y321767D01*
Y315900D02*
Y316167D01*
Y314300D02*
Y314967D01*
Y313100D02*
Y313967D01*
X769100Y320500D02*
Y321967D01*
Y315900D02*
Y316367D01*
Y314500D02*
Y314967D01*
X769300Y315900D02*
Y316567D01*
Y313900D02*
Y314967D01*
X769500Y315900D02*
Y316767D01*
Y314100D02*
Y315167D01*
X769100Y313700D02*
Y313967D01*
X769700Y320900D02*
Y320967D01*
Y316500D02*
Y316967D01*
Y314100D02*
Y316167D01*
Y312300D02*
Y313367D01*
Y311300D02*
Y311567D01*
X769900Y320500D02*
Y321167D01*
Y316900D02*
Y317167D01*
Y314300D02*
Y316167D01*
Y312300D02*
Y313367D01*
Y311300D02*
Y311567D01*
X770100Y320300D02*
Y321167D01*
Y317100D02*
Y317367D01*
Y315500D02*
Y316167D01*
X767900Y322500D02*
Y323167D01*
Y321300D02*
Y321767D01*
X768100Y322700D02*
Y323367D01*
Y321300D02*
Y321967D01*
X768300Y322900D02*
Y323567D01*
Y321700D02*
Y322167D01*
X768500Y321500D02*
Y322167D01*
X768700Y320300D02*
Y322367D01*
X769300Y320900D02*
Y322167D01*
X769500Y321100D02*
Y323567D01*
X769700Y321500D02*
Y323567D01*
X769900Y323100D02*
Y323567D01*
Y321700D02*
Y322567D01*
X770100Y321700D02*
Y322767D01*
X770300Y320300D02*
Y323367D01*
X770100Y323100D02*
Y323567D01*
X755100Y335900D02*
Y339967D01*
Y326900D02*
Y330967D01*
X755300Y335700D02*
Y340167D01*
Y326700D02*
Y331167D01*
X755500Y335500D02*
Y340167D01*
Y326500D02*
Y331167D01*
X755700Y335500D02*
Y340367D01*
Y326500D02*
Y331367D01*
Y317500D02*
Y322367D01*
X755900Y335500D02*
Y340367D01*
Y326500D02*
Y331367D01*
X755500Y317500D02*
Y322167D01*
X755900Y317300D02*
Y322367D01*
X754500Y336500D02*
Y339367D01*
X754700Y336300D02*
Y339567D01*
X754900Y336100D02*
Y339767D01*
X754300Y336900D02*
Y338967D01*
Y327900D02*
Y329967D01*
Y318900D02*
Y320767D01*
X754500Y327500D02*
Y330367D01*
Y318500D02*
Y321167D01*
X754700Y327300D02*
Y330567D01*
Y318100D02*
Y321567D01*
X754900Y327100D02*
Y330767D01*
X755100Y317700D02*
Y321967D01*
X755300Y317700D02*
Y321967D01*
X754900Y317900D02*
Y321767D01*
X773500Y312100D02*
Y312767D01*
Y305100D02*
Y305767D01*
Y289700D02*
Y290567D01*
Y287500D02*
Y287967D01*
Y284700D02*
Y286167D01*
X773700Y312100D02*
Y312767D01*
Y305100D02*
Y305967D01*
Y302900D02*
Y303567D01*
Y297500D02*
Y297967D01*
Y293900D02*
Y294567D01*
Y289900D02*
Y290367D01*
Y287700D02*
Y287967D01*
Y284500D02*
Y286767D01*
X773900Y312100D02*
Y312767D01*
Y305100D02*
Y305767D01*
Y327300D02*
Y328567D01*
Y323900D02*
Y324767D01*
Y320900D02*
Y322567D01*
X774100Y327500D02*
Y328767D01*
Y324100D02*
Y324967D01*
Y322300D02*
Y323567D01*
Y320700D02*
Y321967D01*
X774300Y327700D02*
Y328967D01*
Y324300D02*
Y325167D01*
Y322300D02*
Y323567D01*
Y320700D02*
Y321967D01*
X774500Y331500D02*
Y333767D01*
Y327700D02*
Y328967D01*
Y324300D02*
Y325167D01*
Y322300D02*
Y323367D01*
Y320900D02*
Y321767D01*
X774700Y331700D02*
Y333967D01*
Y327900D02*
Y328967D01*
Y324500D02*
Y325167D01*
X774900Y332100D02*
Y333967D01*
X773100Y332300D02*
Y333367D01*
X773300Y332500D02*
Y333367D01*
X773500Y332500D02*
Y333367D01*
X773700Y332700D02*
Y333567D01*
X773900Y332900D02*
Y333567D01*
Y331500D02*
Y331967D01*
X774100Y332900D02*
Y333567D01*
Y331500D02*
Y332167D01*
X774300Y331500D02*
Y332367D01*
Y332900D02*
Y333767D01*
X767700Y282900D02*
Y285567D01*
Y254300D02*
Y255167D01*
X767900Y283100D02*
Y284367D01*
Y254300D02*
Y255167D01*
X768100Y283300D02*
Y284567D01*
Y254300D02*
Y255167D01*
X768300Y285300D02*
Y285767D01*
Y283300D02*
Y284767D01*
Y254300D02*
Y255167D01*
X768500Y283500D02*
Y285167D01*
Y254300D02*
Y255167D01*
X768700Y254300D02*
Y255167D01*
X768900Y283900D02*
Y286367D01*
X768300Y287900D02*
Y288367D01*
Y287100D02*
Y287567D01*
Y286100D02*
Y286567D01*
X768500Y295100D02*
Y296167D01*
Y293700D02*
Y294367D01*
Y287900D02*
Y288367D01*
Y285500D02*
Y287567D01*
X768700Y295100D02*
Y296167D01*
Y293900D02*
Y294767D01*
Y283700D02*
Y288367D01*
X768900Y302900D02*
Y303367D01*
Y294300D02*
Y296367D01*
Y286700D02*
Y288367D01*
Y254300D02*
Y255167D01*
X769100Y284100D02*
Y286767D01*
Y254300D02*
Y255167D01*
X769300Y286500D02*
Y286767D01*
Y285700D02*
Y286167D01*
Y284500D02*
Y284967D01*
Y254300D02*
Y255167D01*
X769500Y286100D02*
Y286767D01*
Y284700D02*
Y284767D01*
Y254300D02*
Y255567D01*
X769700Y286300D02*
Y286967D01*
Y284500D02*
Y285367D01*
Y254300D02*
Y255967D01*
X769100Y304300D02*
Y305167D01*
Y302700D02*
Y303567D01*
Y294300D02*
Y296367D01*
Y287100D02*
Y288367D01*
X769300Y302700D02*
Y304767D01*
Y294500D02*
Y296367D01*
Y287300D02*
Y288367D01*
X769500Y302500D02*
Y304767D01*
Y294500D02*
Y296567D01*
Y287900D02*
Y288367D01*
X769700Y304100D02*
Y305167D01*
Y302500D02*
Y303767D01*
Y294500D02*
Y296567D01*
Y306300D02*
Y307967D01*
Y287900D02*
Y288367D01*
X769900Y306500D02*
Y307967D01*
Y304500D02*
Y305967D01*
Y302700D02*
Y303567D01*
Y294700D02*
Y297167D01*
Y287900D02*
Y288367D01*
X770100Y306700D02*
Y308167D01*
Y304500D02*
Y305967D01*
Y303100D02*
Y303767D01*
Y294900D02*
Y297767D01*
Y287900D02*
Y288367D01*
X770300Y306900D02*
Y308167D01*
Y305300D02*
Y305967D01*
X769900Y286500D02*
Y286967D01*
Y284300D02*
Y285767D01*
Y254300D02*
Y256167D01*
X770100Y286700D02*
Y287167D01*
Y284100D02*
Y285967D01*
Y254700D02*
Y256567D01*
X770300Y286900D02*
Y287367D01*
Y286100D02*
Y286367D01*
Y284100D02*
Y285367D01*
Y254900D02*
Y256967D01*
X770500Y287100D02*
Y287567D01*
Y286300D02*
Y286567D01*
Y284100D02*
Y285367D01*
X768100Y304300D02*
Y305567D01*
X768300Y310700D02*
Y311167D01*
Y307100D02*
Y307167D01*
Y305100D02*
Y305767D01*
X768500Y310900D02*
Y311167D01*
Y307100D02*
Y307367D01*
Y305300D02*
Y305967D01*
X768700Y311100D02*
Y311167D01*
Y307100D02*
Y307367D01*
Y305500D02*
Y306167D01*
X768900Y312300D02*
Y312767D01*
Y311100D02*
Y311367D01*
Y307100D02*
Y307567D01*
X763100Y272500D02*
Y284167D01*
X763300Y272900D02*
Y283367D01*
X763500Y273100D02*
Y282567D01*
X764700Y284700D02*
Y285567D01*
X764900Y284500D02*
Y285767D01*
X765100Y284300D02*
Y285767D01*
X765300Y285500D02*
Y285767D01*
X765500Y295100D02*
Y295367D01*
X765700Y294900D02*
Y295367D01*
Y287500D02*
Y287967D01*
X765900Y294900D02*
Y295367D01*
Y287300D02*
Y288167D01*
X766100Y294900D02*
Y295367D01*
X763900Y274100D02*
Y280567D01*
Y254300D02*
Y255167D01*
X764100Y274900D02*
Y279367D01*
Y254300D02*
Y255167D01*
X764300Y276100D02*
Y277567D01*
Y254300D02*
Y255167D01*
X764500Y254300D02*
Y255167D01*
X764700Y254300D02*
Y255167D01*
X764900Y254300D02*
Y255167D01*
X765100Y254300D02*
Y255167D01*
X765300Y284300D02*
Y285167D01*
Y254300D02*
Y255167D01*
X765500Y284300D02*
Y285167D01*
X764300Y262900D02*
Y263567D01*
X772700Y259300D02*
Y261367D01*
X772900Y259700D02*
Y261767D01*
X773100Y260100D02*
Y262167D01*
X773300Y260500D02*
Y262567D01*
X773500Y260900D02*
Y262967D01*
X773700Y261100D02*
Y263367D01*
X773900Y261500D02*
Y263767D01*
X774100Y262100D02*
Y264367D01*
X774300Y262500D02*
Y264767D01*
X774500Y262900D02*
Y265167D01*
X774700Y263300D02*
Y265567D01*
X774900Y263700D02*
Y266167D01*
X765700Y313300D02*
Y314567D01*
X765900Y313500D02*
Y314567D01*
X766100Y313700D02*
Y314767D01*
Y312500D02*
Y312767D01*
X766300Y313900D02*
Y314967D01*
Y312500D02*
Y312967D01*
X766500Y314300D02*
Y315167D01*
Y312700D02*
Y313367D01*
X766700Y314300D02*
Y315367D01*
Y313100D02*
Y313567D01*
X766900Y313300D02*
Y315567D01*
X767100Y313700D02*
Y315567D01*
X767300Y315500D02*
Y315767D01*
X765500Y254300D02*
Y255167D01*
X765700Y284300D02*
Y284967D01*
Y254300D02*
Y255167D01*
X765900Y284500D02*
Y285167D01*
Y283300D02*
Y283567D01*
Y254300D02*
Y255167D01*
X766100Y284500D02*
Y285167D01*
Y282900D02*
Y283767D01*
Y254300D02*
Y255167D01*
X766300Y284700D02*
Y285167D01*
Y282700D02*
Y283967D01*
Y254300D02*
Y255167D01*
X766500Y284700D02*
Y285367D01*
X766100Y287300D02*
Y288167D01*
X766300Y294900D02*
Y295567D01*
Y287300D02*
Y288167D01*
X766500Y294700D02*
Y295567D01*
Y293500D02*
Y293567D01*
Y287300D02*
Y288167D01*
X766700Y294900D02*
Y295567D01*
Y293300D02*
Y293567D01*
Y287300D02*
Y287767D01*
X766900Y294900D02*
Y295767D01*
Y293300D02*
Y293567D01*
Y287300D02*
Y287567D01*
X767100Y294900D02*
Y295767D01*
X766500Y282700D02*
Y284167D01*
Y254300D02*
Y255167D01*
X766700Y284900D02*
Y285567D01*
Y282700D02*
Y284367D01*
Y254300D02*
Y255167D01*
X766900Y282700D02*
Y285967D01*
Y254300D02*
Y255167D01*
X767100Y254300D02*
Y255167D01*
X767300Y282700D02*
Y286167D01*
Y254300D02*
Y255167D01*
X767500Y285900D02*
Y286167D01*
Y282900D02*
Y285567D01*
Y254300D02*
Y255167D01*
X767300Y313900D02*
Y314967D01*
Y312900D02*
Y313367D01*
X767500Y315700D02*
Y315767D01*
Y314100D02*
Y314967D01*
Y312900D02*
Y313367D01*
X767700Y314100D02*
Y314967D01*
Y312900D02*
Y313367D01*
X767900Y314100D02*
Y315167D01*
Y312100D02*
Y313367D01*
X768100Y314100D02*
Y315367D01*
Y310500D02*
Y313567D01*
X768300Y320700D02*
Y320967D01*
Y314100D02*
Y315567D01*
X776900Y312100D02*
Y312767D01*
X777100Y312100D02*
Y312767D01*
X777300Y312300D02*
Y312967D01*
X777500Y312500D02*
Y313167D01*
X777700Y312700D02*
Y313167D01*
X778700Y315500D02*
Y315767D01*
Y312300D02*
Y312967D01*
Y308100D02*
Y310167D01*
X778900Y315500D02*
Y315967D01*
Y311900D02*
Y313367D01*
Y308100D02*
Y310167D01*
X779100Y315500D02*
Y315967D01*
Y311700D02*
Y313567D01*
Y308100D02*
Y310167D01*
X779300Y313300D02*
Y313767D01*
Y311500D02*
Y312167D01*
Y309700D02*
Y310167D01*
X779500Y313500D02*
Y313967D01*
Y311500D02*
Y311967D01*
Y309900D02*
Y310167D01*
X779700Y313500D02*
Y313967D01*
Y311500D02*
Y311967D01*
Y309900D02*
Y310167D01*
X779900Y315500D02*
Y315967D01*
Y313500D02*
Y313967D01*
Y311300D02*
Y311967D01*
X780100Y315500D02*
Y315967D01*
Y313500D02*
Y313967D01*
X780300Y315500D02*
Y315967D01*
Y313500D02*
Y313967D01*
X780500Y315500D02*
Y315967D01*
Y313500D02*
Y313967D01*
X780700Y315500D02*
Y315967D01*
Y313300D02*
Y313767D01*
X780900Y315500D02*
Y315967D01*
X781100Y336300D02*
Y340567D01*
X781300Y335500D02*
Y339767D01*
X781500Y334700D02*
Y339167D01*
X780900Y313100D02*
Y313767D01*
X780100Y311300D02*
Y311967D01*
Y309900D02*
Y310167D01*
Y277300D02*
Y280767D01*
X780300Y311300D02*
Y311967D01*
Y308500D02*
Y310367D01*
Y306300D02*
Y306767D01*
Y304100D02*
Y304567D01*
Y277900D02*
Y281567D01*
X780500Y311300D02*
Y311967D01*
Y309500D02*
Y310367D01*
Y308100D02*
Y309167D01*
Y306300D02*
Y306767D01*
Y304100D02*
Y304567D01*
Y278500D02*
Y282367D01*
X780700Y311300D02*
Y311967D01*
X781500Y306300D02*
Y306767D01*
Y304100D02*
Y304567D01*
Y282100D02*
Y286567D01*
X781700Y315500D02*
Y315967D01*
Y311500D02*
Y311967D01*
Y310100D02*
Y310567D01*
Y307900D02*
Y308367D01*
Y306300D02*
Y306767D01*
Y304100D02*
Y304567D01*
Y282900D02*
Y287567D01*
X781900Y332700D02*
Y337567D01*
X782100Y331700D02*
Y336767D01*
X782300Y330700D02*
Y335767D01*
Y309300D02*
Y310367D01*
Y308100D02*
Y308967D01*
Y305700D02*
Y306367D01*
Y304300D02*
Y304967D01*
Y285500D02*
Y290567D01*
X782500Y315500D02*
Y315967D01*
Y311900D02*
Y313567D01*
Y308300D02*
Y310167D01*
Y304500D02*
Y306167D01*
Y286300D02*
Y291767D01*
X782700Y328500D02*
Y333967D01*
X782900Y327100D02*
Y333167D01*
X783100Y325700D02*
Y331967D01*
X774900Y327900D02*
Y328967D01*
X775100Y332300D02*
Y333967D01*
Y328100D02*
Y328967D01*
X775300Y332700D02*
Y333967D01*
Y328300D02*
Y328967D01*
X775500Y333300D02*
Y333567D01*
Y328300D02*
Y328967D01*
X779300Y315500D02*
Y316367D01*
X779500Y315500D02*
Y316967D01*
X779700Y315500D02*
Y316967D01*
X687700Y321900D02*
Y322567D01*
Y318700D02*
Y321167D01*
X687900Y318700D02*
Y322567D01*
X688100Y320100D02*
Y322567D01*
Y318700D02*
Y319367D01*
X688300Y320500D02*
Y322367D01*
Y318700D02*
Y319367D01*
X688500Y320900D02*
Y322167D01*
Y318700D02*
Y319367D01*
X688900Y318900D02*
Y319567D01*
X689100Y318900D02*
Y319767D01*
X688700Y318700D02*
Y319367D01*
X689300Y319100D02*
Y319967D01*
X689500Y319300D02*
Y320967D01*
X689700Y322100D02*
Y322967D01*
Y319700D02*
Y321167D01*
X689900Y322100D02*
Y322967D01*
Y319900D02*
Y321167D01*
X690100Y321900D02*
Y322767D01*
X690300Y321900D02*
Y322567D01*
X690700Y321700D02*
Y322367D01*
X690900Y321700D02*
Y322367D01*
X691100Y321900D02*
Y322367D01*
X691300Y321900D02*
Y322367D01*
X690500Y321900D02*
Y322367D01*
X691500Y321900D02*
Y322367D01*
X690300Y324900D02*
Y325567D01*
X690500Y324900D02*
Y325567D01*
X690700Y324700D02*
Y325567D01*
X690900Y324700D02*
Y325567D01*
X691100Y324500D02*
Y325367D01*
X691300Y324300D02*
Y325167D01*
X691500Y324100D02*
Y325167D01*
X691700Y323900D02*
Y324967D01*
Y322100D02*
Y322567D01*
X692100Y322300D02*
Y324567D01*
X692300Y322700D02*
Y324167D01*
X691900Y322100D02*
Y324767D01*
X692500Y323300D02*
Y323567D01*
X690700Y307500D02*
Y314167D01*
X690900Y307300D02*
Y314367D01*
X691100Y306900D02*
Y314567D01*
X691300Y306700D02*
Y314967D01*
X691500Y306500D02*
Y315167D01*
X691700Y306100D02*
Y315367D01*
X691900Y305900D02*
Y315767D01*
X692100Y305500D02*
Y315967D01*
X692300Y305300D02*
Y316167D01*
X692700Y304700D02*
Y316767D01*
X692900Y304500D02*
Y316967D01*
X692500Y305100D02*
Y316567D01*
X693100Y304300D02*
Y317167D01*
X688500Y323900D02*
Y324167D01*
X688700Y323300D02*
Y324767D01*
X688900Y322900D02*
Y324967D01*
X689100Y322700D02*
Y325167D01*
X689300Y324500D02*
Y325367D01*
Y322500D02*
Y323567D01*
X689500Y324700D02*
Y325567D01*
X689700Y324900D02*
Y325567D01*
X689900Y324900D02*
Y325567D01*
X690100Y324900D02*
Y325567D01*
X689500Y322300D02*
Y323367D01*
X688700Y310700D02*
Y311167D01*
X688900Y310300D02*
Y311567D01*
X689100Y309900D02*
Y311767D01*
X689300Y309700D02*
Y312167D01*
X689500Y309300D02*
Y312367D01*
X689700Y309100D02*
Y312567D01*
X690100Y308500D02*
Y313167D01*
X690300Y308100D02*
Y313567D01*
X690500Y307900D02*
Y313767D01*
X689900Y308700D02*
Y312967D01*
X691100Y326700D02*
Y327167D01*
X691300Y326300D02*
Y327567D01*
X691700Y325900D02*
Y327967D01*
X691900Y327300D02*
Y328367D01*
Y325900D02*
Y326767D01*
X691500Y326100D02*
Y327767D01*
X692100Y285700D02*
Y286967D01*
X692300Y285500D02*
Y286767D01*
X692500Y285300D02*
Y286567D01*
X692700Y285100D02*
Y286367D01*
X692900Y284900D02*
Y286167D01*
X693100Y284700D02*
Y285967D01*
X693300Y284500D02*
Y285767D01*
X693500Y284300D02*
Y285567D01*
X693700Y284100D02*
Y285367D01*
X694100Y283700D02*
Y285167D01*
X694300Y283500D02*
Y284967D01*
X693900Y283900D02*
Y285167D01*
X694500Y283300D02*
Y284767D01*
X694700Y283300D02*
Y284567D01*
X694900Y283100D02*
Y284367D01*
X695100Y282900D02*
Y284167D01*
X695300Y282700D02*
Y283967D01*
X695500Y282500D02*
Y283767D01*
X695700Y282300D02*
Y283567D01*
X695900Y282100D02*
Y283367D01*
X696100Y281900D02*
Y283167D01*
X696300Y281700D02*
Y283167D01*
X696700Y281500D02*
Y282767D01*
X696900Y281300D02*
Y282567D01*
X696500Y281700D02*
Y282967D01*
X697100Y281100D02*
Y282367D01*
X695700Y290500D02*
Y291567D01*
X695900Y290700D02*
Y291767D01*
X696100Y290900D02*
Y291967D01*
X696300Y291100D02*
Y292167D01*
X696500Y291300D02*
Y292367D01*
X696700Y291500D02*
Y292767D01*
X696900Y291900D02*
Y292967D01*
X697100Y292100D02*
Y293167D01*
X697300Y292300D02*
Y292967D01*
X697900Y288100D02*
Y289367D01*
X698100Y288500D02*
Y289567D01*
X697500Y292500D02*
Y292767D01*
X698300Y288700D02*
Y289767D01*
X693700Y290900D02*
Y291167D01*
X693900Y290700D02*
Y291367D01*
X694100Y290500D02*
Y291167D01*
X694300Y290300D02*
Y290967D01*
X694500Y290100D02*
Y290767D01*
X694700Y289900D02*
Y290767D01*
X695100Y289500D02*
Y290967D01*
X695300Y289300D02*
Y291167D01*
X695500Y290300D02*
Y291367D01*
X694900Y289700D02*
Y290767D01*
X697300Y280900D02*
Y282167D01*
X697500Y280700D02*
Y281967D01*
X697700Y280500D02*
Y281767D01*
X697900Y280500D02*
Y281767D01*
X698100Y280300D02*
Y281567D01*
X698300Y280100D02*
Y281367D01*
X698500Y279900D02*
Y281167D01*
X698700Y279700D02*
Y280967D01*
X698900Y279500D02*
Y280767D01*
X699300Y279300D02*
Y280567D01*
X699500Y279100D02*
Y280367D01*
X699100Y279500D02*
Y280767D01*
X699700Y278900D02*
Y280167D01*
X698500Y288700D02*
Y289967D01*
X698700Y288700D02*
Y290167D01*
X698900Y288500D02*
Y290367D01*
X699100Y289700D02*
Y290567D01*
Y288300D02*
Y288967D01*
X699300Y289900D02*
Y290767D01*
Y288100D02*
Y288767D01*
X699500Y290100D02*
Y290967D01*
X699700Y290100D02*
Y290767D01*
Y287900D02*
Y288367D01*
X699900Y289900D02*
Y290767D01*
X699500Y287900D02*
Y288567D01*
X699900Y288100D02*
Y288367D01*
X695700Y288900D02*
Y289767D01*
X695900Y289100D02*
Y289567D01*
X696100Y289300D02*
Y289367D01*
X695500Y289100D02*
Y289967D01*
X699900Y278700D02*
Y279967D01*
X700100Y278700D02*
Y279967D01*
X700300Y278500D02*
Y279767D01*
X700500Y278300D02*
Y279567D01*
X700700Y278100D02*
Y279367D01*
X700900Y277900D02*
Y279167D01*
X701100Y277900D02*
Y279167D01*
X701300Y277700D02*
Y278967D01*
X701500Y277500D02*
Y278767D01*
X701900Y277300D02*
Y278367D01*
X702100Y277100D02*
Y278367D01*
X701700Y277300D02*
Y278567D01*
X702300Y276900D02*
Y278167D01*
X700100Y289700D02*
Y290567D01*
Y285100D02*
Y285367D01*
X700300Y289500D02*
Y290367D01*
Y284900D02*
Y285567D01*
X700500Y289300D02*
Y290167D01*
Y284900D02*
Y285767D01*
X700700Y289300D02*
Y289967D01*
X700900Y289100D02*
Y289767D01*
Y285100D02*
Y286367D01*
X700700Y284900D02*
Y286167D01*
X701100Y285300D02*
Y286567D01*
Y288900D02*
Y289567D01*
X701300Y289100D02*
Y289567D01*
Y285700D02*
Y286767D01*
X701500Y289300D02*
Y289367D01*
Y285900D02*
Y286967D01*
X701700Y286100D02*
Y287367D01*
X701900Y286300D02*
Y287567D01*
X702100Y286500D02*
Y287767D01*
X702300Y286900D02*
Y287967D01*
X702700Y287300D02*
Y288367D01*
X702900Y287300D02*
Y288167D01*
X702500Y287100D02*
Y288367D01*
X703100Y287100D02*
Y287967D01*
X702500Y276700D02*
Y277967D01*
X702700Y276700D02*
Y277767D01*
X702900Y276500D02*
Y277767D01*
X703100Y276300D02*
Y277567D01*
X703300Y276100D02*
Y277367D01*
X703500Y276100D02*
Y277167D01*
X703900Y275700D02*
Y276967D01*
X704100Y275500D02*
Y276767D01*
X704300Y275500D02*
Y276567D01*
X704500Y275300D02*
Y276567D01*
X704700Y275100D02*
Y276367D01*
X703700Y275900D02*
Y277167D01*
X704900Y275100D02*
Y276167D01*
X696900Y287900D02*
Y288167D01*
X697100Y287700D02*
Y288367D01*
X697300Y287500D02*
Y288567D01*
X697500Y287300D02*
Y288767D01*
X697700Y287100D02*
Y288967D01*
X697900Y286900D02*
Y287767D01*
X698100Y286900D02*
Y287567D01*
X698300Y286700D02*
Y287367D01*
X698700Y286300D02*
Y286967D01*
X698900Y286500D02*
Y286967D01*
X699100Y286700D02*
Y286767D01*
X698500Y286500D02*
Y287167D01*
X703300Y287100D02*
Y287767D01*
Y282700D02*
Y282767D01*
X703500Y286900D02*
Y287767D01*
Y282500D02*
Y283167D01*
X703700Y286700D02*
Y287567D01*
Y282300D02*
Y283367D01*
X703900Y286500D02*
Y287367D01*
X704100Y286300D02*
Y287167D01*
Y282100D02*
Y283967D01*
X704300Y286500D02*
Y286967D01*
Y283100D02*
Y284167D01*
X703900Y282100D02*
Y283567D01*
X704300Y281900D02*
Y282567D01*
X692100Y327500D02*
Y328567D01*
Y325700D02*
Y326567D01*
X692300Y325700D02*
Y326367D01*
X692500Y327900D02*
Y328967D01*
Y325700D02*
Y326367D01*
X692700Y328100D02*
Y329167D01*
Y325700D02*
Y326367D01*
X692900Y328100D02*
Y329167D01*
Y325900D02*
Y326567D01*
X693100Y327900D02*
Y328967D01*
Y325900D02*
Y326767D01*
X693300Y327700D02*
Y328767D01*
Y326100D02*
Y326967D01*
X692300Y327700D02*
Y328767D01*
X693500Y310900D02*
Y317767D01*
X693300Y310900D02*
Y317567D01*
X693700Y311100D02*
Y317967D01*
X693500Y327500D02*
Y328567D01*
Y326300D02*
Y327167D01*
X693700Y326500D02*
Y328367D01*
X693900Y326700D02*
Y328167D01*
Y311100D02*
Y318167D01*
X694100Y326900D02*
Y327967D01*
Y311300D02*
Y318567D01*
X694300Y326700D02*
Y327767D01*
Y311300D02*
Y318767D01*
X694500Y326500D02*
Y327567D01*
X694700Y311500D02*
Y319167D01*
X694500Y311500D02*
Y318967D01*
X694900Y311700D02*
Y319367D01*
X694700Y326300D02*
Y327367D01*
X694900Y326100D02*
Y327167D01*
X695100Y325900D02*
Y326967D01*
Y311900D02*
Y319767D01*
X695300Y325900D02*
Y326767D01*
Y311900D02*
Y319967D01*
X695500Y326100D02*
Y326567D01*
Y312100D02*
Y320167D01*
X695700Y326300D02*
Y326367D01*
X695900Y312300D02*
Y320567D01*
X696100Y312300D02*
Y320767D01*
X695700Y312100D02*
Y320367D01*
X696300Y312500D02*
Y320967D01*
X696500Y312700D02*
Y321367D01*
X696700Y312700D02*
Y321567D01*
X696900Y312900D02*
Y321767D01*
X697100Y312900D02*
Y321967D01*
X697300Y313100D02*
Y322167D01*
X697500Y313300D02*
Y322367D01*
X697700Y313300D02*
Y322567D01*
X697900Y313500D02*
Y322767D01*
X698100Y313500D02*
Y322967D01*
X698500Y313700D02*
Y323367D01*
X698700Y313900D02*
Y323567D01*
X698300Y313700D02*
Y323167D01*
X698900Y314100D02*
Y323767D01*
X673100Y309500D02*
Y312167D01*
X673300Y309300D02*
Y312567D01*
X673500Y308900D02*
Y312967D01*
X673700Y311100D02*
Y313167D01*
X673900Y311500D02*
Y313567D01*
X674100Y311700D02*
Y313967D01*
X674300Y312100D02*
Y314167D01*
X674500Y312500D02*
Y314567D01*
X674700Y312700D02*
Y314767D01*
X675100Y313500D02*
Y315367D01*
X675300Y313700D02*
Y315767D01*
X674900Y313100D02*
Y315167D01*
X675500Y314100D02*
Y315967D01*
X675700Y314300D02*
Y316367D01*
X675900Y314700D02*
Y316567D01*
X676100Y314900D02*
Y316967D01*
X676300Y315300D02*
Y317167D01*
X676500Y315500D02*
Y317567D01*
X676700Y315900D02*
Y317767D01*
X676900Y316100D02*
Y318167D01*
X677100Y316500D02*
Y318367D01*
X677300Y316700D02*
Y318767D01*
X677700Y317300D02*
Y319167D01*
X677900Y317700D02*
Y319567D01*
X677500Y317100D02*
Y318967D01*
X678100Y317900D02*
Y319767D01*
X678300Y318100D02*
Y319967D01*
X678500Y318500D02*
Y320367D01*
X678700Y318700D02*
Y320567D01*
X678900Y319100D02*
Y320967D01*
X679100Y319300D02*
Y321167D01*
X679300Y319500D02*
Y321367D01*
X679500Y319900D02*
Y321767D01*
X679700Y320100D02*
Y321967D01*
X679900Y320500D02*
Y322167D01*
X680300Y320900D02*
Y322767D01*
X680500Y321100D02*
Y322967D01*
X680100Y320700D02*
Y322567D01*
X680700Y321500D02*
Y323367D01*
X680900Y321700D02*
Y323567D01*
X681100Y321900D02*
Y323767D01*
X681300Y322300D02*
Y323967D01*
X681500Y322500D02*
Y324367D01*
X681700Y322700D02*
Y324567D01*
X681900Y323100D02*
Y324767D01*
X682100Y323300D02*
Y324967D01*
X682300Y323500D02*
Y325367D01*
X682500Y323700D02*
Y325567D01*
X682900Y324300D02*
Y325967D01*
X683100Y324500D02*
Y326167D01*
X682700Y324100D02*
Y325767D01*
X683300Y324700D02*
Y326567D01*
X683500Y325100D02*
Y326767D01*
X683700Y325300D02*
Y326967D01*
X683900Y325500D02*
Y327167D01*
X684100Y325700D02*
Y327367D01*
X684300Y325900D02*
Y327767D01*
X684500Y326300D02*
Y327967D01*
X684700Y326500D02*
Y328167D01*
X684900Y326700D02*
Y328367D01*
X685100Y326900D02*
Y328567D01*
X685300Y327100D02*
Y328767D01*
X685500Y327300D02*
Y328967D01*
X685700Y327700D02*
Y329167D01*
X685900Y327900D02*
Y329567D01*
X684100Y313100D02*
Y313767D01*
X684300Y315100D02*
Y316367D01*
Y313100D02*
Y313567D01*
X684500Y315700D02*
Y315967D01*
Y313100D02*
Y313767D01*
X684700Y313100D02*
Y313767D01*
X684900Y313300D02*
Y313967D01*
X685100Y313300D02*
Y314167D01*
X685300Y315100D02*
Y315367D01*
X685500Y313700D02*
Y315567D01*
X685700Y313900D02*
Y315767D01*
X685300Y313500D02*
Y314567D01*
X685900Y314300D02*
Y315567D01*
X686100Y320500D02*
Y321567D01*
X686300Y320500D02*
Y321967D01*
X686500Y320700D02*
Y322167D01*
X686700Y320900D02*
Y322367D01*
X686900Y321700D02*
Y322567D01*
X687100Y321900D02*
Y322567D01*
X687300Y322100D02*
Y322567D01*
Y319300D02*
Y320367D01*
X687500Y318900D02*
Y320767D01*
Y322100D02*
Y322567D01*
X685300Y318100D02*
Y318967D01*
X685500Y317900D02*
Y318767D01*
X685700Y317700D02*
Y318767D01*
X685900Y317500D02*
Y318567D01*
X686100Y317500D02*
Y318367D01*
X686300Y317300D02*
Y318167D01*
X686500Y317100D02*
Y317967D01*
X686700Y316900D02*
Y317967D01*
X686900Y316700D02*
Y317767D01*
X687100Y316700D02*
Y317567D01*
X687300Y316500D02*
Y317367D01*
X687500Y316700D02*
Y317167D01*
X687700Y316900D02*
Y317167D01*
X681900Y314700D02*
Y315967D01*
X682100Y314900D02*
Y316167D01*
X682300Y314900D02*
Y316567D01*
X682500Y315900D02*
Y316567D01*
Y315100D02*
Y315167D01*
X682700Y316100D02*
Y316767D01*
X682900Y316300D02*
Y316967D01*
X683100Y316300D02*
Y316967D01*
Y313700D02*
Y314367D01*
X683300Y316300D02*
Y316967D01*
Y313500D02*
Y314967D01*
X683500Y316300D02*
Y316967D01*
X683700Y313300D02*
Y316967D01*
X683900Y313100D02*
Y316767D01*
X684100Y314700D02*
Y316567D01*
X683500Y313300D02*
Y315367D01*
Y318100D02*
Y318167D01*
X683700Y317900D02*
Y318567D01*
X683900Y317900D02*
Y318767D01*
X684100Y318100D02*
Y318967D01*
X684500Y318500D02*
Y319567D01*
X684700Y318500D02*
Y319767D01*
X684900Y318300D02*
Y319967D01*
X685100Y318300D02*
Y320167D01*
X685500Y319700D02*
Y320167D01*
X685700Y320100D02*
Y320167D01*
X685300Y319500D02*
Y320367D01*
X684300Y318300D02*
Y319167D01*
X672500Y310500D02*
Y311367D01*
X672700Y310100D02*
Y311567D01*
X672900Y309900D02*
Y311967D01*
X672300Y310900D02*
Y310967D01*
X687100Y329100D02*
Y330767D01*
X687300Y329500D02*
Y330967D01*
X687500Y329700D02*
Y331167D01*
X687700Y329900D02*
Y331367D01*
X687900Y330100D02*
Y331767D01*
X688100Y330300D02*
Y331967D01*
X688300Y330500D02*
Y332167D01*
X688500Y330700D02*
Y332367D01*
X688700Y330900D02*
Y332567D01*
X689100Y331300D02*
Y332967D01*
X689300Y331500D02*
Y333167D01*
X688900Y331100D02*
Y332767D01*
X689500Y331700D02*
Y333367D01*
X689700Y331900D02*
Y333567D01*
X689900Y332100D02*
Y333767D01*
X690100Y332300D02*
Y333967D01*
X690300Y332500D02*
Y334167D01*
X690500Y332700D02*
Y334367D01*
X690700Y332900D02*
Y334567D01*
X690900Y333100D02*
Y334767D01*
X691100Y333300D02*
Y334967D01*
X691300Y333500D02*
Y335167D01*
X691700Y333900D02*
Y335567D01*
X691900Y334100D02*
Y335767D01*
X691500Y333700D02*
Y335367D01*
X692100Y334300D02*
Y335767D01*
X692300Y334500D02*
Y335967D01*
X692500Y334700D02*
Y336167D01*
X692700Y334900D02*
Y336367D01*
X692900Y335100D02*
Y336567D01*
X693100Y335300D02*
Y336767D01*
X693300Y335500D02*
Y336967D01*
X693500Y335700D02*
Y337167D01*
X693700Y335900D02*
Y337367D01*
X693900Y336100D02*
Y337567D01*
X694300Y336500D02*
Y337967D01*
X694500Y336700D02*
Y338167D01*
X694100Y336300D02*
Y337767D01*
X694700Y336900D02*
Y338167D01*
X694900Y336900D02*
Y338367D01*
X695100Y337100D02*
Y338567D01*
X695300Y337300D02*
Y338767D01*
X695500Y337500D02*
Y338967D01*
X695700Y337700D02*
Y339167D01*
X695900Y337900D02*
Y339367D01*
X696100Y338100D02*
Y339567D01*
X696300Y338300D02*
Y339567D01*
X696500Y338500D02*
Y339767D01*
X696900Y338700D02*
Y340167D01*
X697100Y338900D02*
Y340367D01*
X696700Y338500D02*
Y339967D01*
X697300Y339100D02*
Y340567D01*
X695500Y330900D02*
Y331767D01*
X695700Y331100D02*
Y331967D01*
Y329500D02*
Y329567D01*
X695900Y331300D02*
Y332167D01*
Y329300D02*
Y329767D01*
X696100Y331100D02*
Y332167D01*
Y329100D02*
Y329767D01*
X696300Y330900D02*
Y331967D01*
Y329300D02*
Y329967D01*
X696500Y330700D02*
Y331767D01*
X696700Y329700D02*
Y331567D01*
X696500Y329500D02*
Y330167D01*
X696900Y329900D02*
Y331367D01*
X697100Y330100D02*
Y331167D01*
X697300Y329900D02*
Y330967D01*
X697500Y329700D02*
Y330767D01*
X697700Y332100D02*
Y333567D01*
Y329500D02*
Y330567D01*
X697900Y331700D02*
Y333967D01*
Y329300D02*
Y330367D01*
X698100Y331500D02*
Y334167D01*
Y329100D02*
Y330167D01*
X698500Y328900D02*
Y329767D01*
X698700Y329100D02*
Y329567D01*
X698300Y328900D02*
Y329967D01*
X698900Y329300D02*
Y329367D01*
X698300Y331300D02*
Y332567D01*
X698500Y331100D02*
Y332167D01*
X698700Y330900D02*
Y331967D01*
X698900Y330900D02*
Y331567D01*
X699100Y330700D02*
Y331367D01*
X699300Y330700D02*
Y331367D01*
X699500Y330700D02*
Y331167D01*
X699700Y330500D02*
Y331167D01*
X700100Y330500D02*
Y331167D01*
X700300Y330700D02*
Y331167D01*
X700500Y330700D02*
Y331367D01*
X699900Y330500D02*
Y331167D01*
X700700Y330900D02*
Y331567D01*
X698300Y333500D02*
Y334167D01*
X698500Y333700D02*
Y334367D01*
X698700Y333700D02*
Y334367D01*
X698900Y333900D02*
Y334567D01*
X699300Y333900D02*
Y334567D01*
X699500Y333700D02*
Y334567D01*
X699700Y333700D02*
Y334367D01*
X699900Y333500D02*
Y334367D01*
X699100Y333900D02*
Y334567D01*
X694300Y330300D02*
Y330567D01*
X694500Y330100D02*
Y330767D01*
X694900Y330300D02*
Y331167D01*
X695100Y330500D02*
Y331367D01*
X695300Y330700D02*
Y331567D01*
X694700Y330100D02*
Y330967D01*
X686100Y328100D02*
Y329767D01*
X686500Y328500D02*
Y330167D01*
X686700Y328700D02*
Y330367D01*
X686900Y328900D02*
Y330567D01*
X686300Y328300D02*
Y329967D01*
X697500Y339300D02*
Y340567D01*
X697700Y339500D02*
Y340767D01*
X697900Y339700D02*
Y340967D01*
X698100Y339700D02*
Y341167D01*
X698300Y339900D02*
Y341367D01*
X699100Y313900D02*
Y324167D01*
X699300Y313700D02*
Y324367D01*
X699500Y313500D02*
Y324567D01*
X699700Y313300D02*
Y324767D01*
X699900Y313300D02*
Y324967D01*
X700100Y313100D02*
Y325167D01*
X700300Y313100D02*
Y325367D01*
X700500Y313100D02*
Y325567D01*
X700700Y312900D02*
Y325767D01*
X701100Y312900D02*
Y325967D01*
X701300Y312900D02*
Y326167D01*
X700900Y312900D02*
Y325767D01*
X701500Y312900D02*
Y326367D01*
X699100Y297300D02*
Y307567D01*
X699300Y297100D02*
Y307767D01*
X699500Y296900D02*
Y307767D01*
X699700Y296700D02*
Y307967D01*
X699900Y296500D02*
Y308167D01*
X700100Y296300D02*
Y308167D01*
X700300Y296100D02*
Y308367D01*
X700500Y295900D02*
Y308367D01*
X700700Y295700D02*
Y308367D01*
X701100Y295300D02*
Y308367D01*
X701300Y295100D02*
Y308367D01*
X700900Y295500D02*
Y308367D01*
X701500Y294900D02*
Y308367D01*
X700100Y333300D02*
Y334367D01*
X700300Y333100D02*
Y334167D01*
X700500Y332700D02*
Y333967D01*
X700700Y332300D02*
Y333767D01*
X700900Y335900D02*
Y335967D01*
Y330900D02*
Y333567D01*
X701100Y335900D02*
Y336167D01*
Y331100D02*
Y333367D01*
X701300Y335900D02*
Y336367D01*
X701500Y335700D02*
Y336367D01*
X701300Y331300D02*
Y332967D01*
X701500Y331700D02*
Y332567D01*
X701700Y312900D02*
Y326567D01*
X701900Y313100D02*
Y326767D01*
X702100Y313100D02*
Y326967D01*
X702300Y313100D02*
Y327167D01*
X702500Y313300D02*
Y327367D01*
X702700Y313300D02*
Y327567D01*
X703100Y313700D02*
Y327967D01*
X703300Y313900D02*
Y328167D01*
X703500Y314100D02*
Y328367D01*
X703700Y314500D02*
Y328367D01*
X703900Y316900D02*
Y328567D01*
X702900Y313500D02*
Y327767D01*
X703900Y314900D02*
Y316367D01*
X701700Y294700D02*
Y308367D01*
X701900Y294500D02*
Y308367D01*
X702100Y294300D02*
Y308167D01*
X702300Y294100D02*
Y308167D01*
X702500Y293900D02*
Y308167D01*
X702700Y293900D02*
Y307967D01*
X702900Y293700D02*
Y307767D01*
X703100Y293500D02*
Y307567D01*
X703300Y293300D02*
Y307367D01*
X703500Y293100D02*
Y307167D01*
X703700Y292900D02*
Y306767D01*
X703900Y292700D02*
Y304367D01*
Y305300D02*
Y306167D01*
X701700Y335700D02*
Y336167D01*
X701900Y335500D02*
Y336167D01*
X702100Y335500D02*
Y336167D01*
X702300Y335500D02*
Y335967D01*
X702500Y335300D02*
Y335967D01*
X702700Y335300D02*
Y335767D01*
X702900Y337300D02*
Y337767D01*
X703300Y335100D02*
Y337967D01*
X703500Y334900D02*
Y338167D01*
X703700Y334500D02*
Y337167D01*
X703900Y334300D02*
Y335967D01*
Y338300D02*
Y338567D01*
X704100Y338100D02*
Y338767D01*
X704300Y338100D02*
Y338767D01*
X702900Y335100D02*
Y335767D01*
X703100Y335100D02*
Y337767D01*
X704700Y292100D02*
Y303967D01*
X704900Y291900D02*
Y303767D01*
X704100Y334100D02*
Y335367D01*
Y317100D02*
Y328767D01*
X704300Y333900D02*
Y334967D01*
Y317100D02*
Y328967D01*
X704500Y338100D02*
Y338967D01*
Y333700D02*
Y334767D01*
Y317300D02*
Y329167D01*
X704700Y338300D02*
Y339167D01*
Y333900D02*
Y334567D01*
Y317300D02*
Y329367D01*
X704900Y334100D02*
Y334367D01*
Y317500D02*
Y329567D01*
Y338500D02*
Y339367D01*
X704100Y292500D02*
Y304167D01*
X704300Y292300D02*
Y304167D01*
X704500Y292300D02*
Y303967D01*
Y286700D02*
Y286967D01*
Y283300D02*
Y284367D01*
X704700Y283500D02*
Y284767D01*
Y281500D02*
Y282367D01*
X704900Y283500D02*
Y284967D01*
X704500Y281700D02*
Y282367D01*
X704900Y281500D02*
Y282167D01*
X711700Y276700D02*
Y277367D01*
X711900Y276500D02*
Y277167D01*
X712100Y276500D02*
Y277167D01*
X712300Y276500D02*
Y276967D01*
X712500Y276500D02*
Y276967D01*
X712900Y276500D02*
Y277167D01*
X713100Y276500D02*
Y277367D01*
X713300Y276700D02*
Y277567D01*
X712700Y276500D02*
Y277167D01*
X713500Y276900D02*
Y277767D01*
X707900Y280900D02*
Y282367D01*
X708100Y281300D02*
Y282567D01*
X708300Y281700D02*
Y282767D01*
X708500Y281900D02*
Y282767D01*
X708700Y282100D02*
Y282967D01*
X708900Y282300D02*
Y282967D01*
X709100Y282300D02*
Y282967D01*
X709300Y282500D02*
Y282967D01*
X709500Y282500D02*
Y282967D01*
X709700Y282300D02*
Y282967D01*
X709900Y282300D02*
Y282767D01*
X707700Y289500D02*
Y303567D01*
X707900Y289300D02*
Y303567D01*
X708100Y289300D02*
Y303567D01*
X708300Y289100D02*
Y303767D01*
X708500Y288900D02*
Y303767D01*
X708700Y288700D02*
Y303767D01*
X708900Y288500D02*
Y303767D01*
X709100Y288500D02*
Y303767D01*
X709300Y288300D02*
Y303767D01*
X709700Y287900D02*
Y303767D01*
X709900Y287900D02*
Y303567D01*
X709500Y288100D02*
Y303767D01*
X710100Y287700D02*
Y303567D01*
X708500Y272500D02*
Y273767D01*
X708700Y272500D02*
Y273567D01*
X708900Y272300D02*
Y273567D01*
X709100Y272100D02*
Y273367D01*
X709300Y272100D02*
Y273167D01*
X709500Y271900D02*
Y273167D01*
X709700Y271700D02*
Y272967D01*
X709900Y271700D02*
Y272767D01*
X710100Y271500D02*
Y272767D01*
X710500Y271300D02*
Y272367D01*
X710700Y271100D02*
Y272367D01*
X710300Y271500D02*
Y272567D01*
X710900Y271100D02*
Y272167D01*
X710300Y287500D02*
Y303567D01*
X710500Y287500D02*
Y303367D01*
X710700Y287300D02*
Y303167D01*
X710900Y287100D02*
Y303167D01*
X711100Y286900D02*
Y302967D01*
X711300Y286900D02*
Y302567D01*
X711500Y286700D02*
Y302367D01*
X711700Y300300D02*
Y301767D01*
Y286500D02*
Y299767D01*
X712100Y286300D02*
Y299567D01*
X712300Y286100D02*
Y299367D01*
X711900Y286300D02*
Y299767D01*
X712500Y285900D02*
Y299367D01*
X710100Y281900D02*
Y282567D01*
Y280900D02*
Y281167D01*
X710300Y280900D02*
Y282567D01*
X710500Y280700D02*
Y282367D01*
X710700Y280900D02*
Y281967D01*
X710900Y277700D02*
Y278767D01*
X711100Y277300D02*
Y279167D01*
X711300Y277100D02*
Y279567D01*
X711500Y276900D02*
Y279767D01*
X711900Y278900D02*
Y280167D01*
X712100Y279300D02*
Y280367D01*
X711700Y278500D02*
Y279967D01*
X712300Y279500D02*
Y280367D01*
X711100Y270900D02*
Y272167D01*
X711300Y270900D02*
Y271967D01*
X711500Y270700D02*
Y271767D01*
X711700Y270500D02*
Y271767D01*
X711900Y270500D02*
Y271567D01*
X712100Y270300D02*
Y271567D01*
X712300Y270100D02*
Y271367D01*
X712500Y270100D02*
Y271167D01*
X712700Y269900D02*
Y271167D01*
X713100Y269700D02*
Y270967D01*
X713300Y269700D02*
Y270767D01*
X712900Y269900D02*
Y270967D01*
X713500Y269500D02*
Y270567D01*
X712500Y279700D02*
Y280567D01*
X712700Y279900D02*
Y280567D01*
X712900Y279900D02*
Y280567D01*
X713100Y279900D02*
Y280567D01*
X713300Y279900D02*
Y280567D01*
X713500Y279900D02*
Y280567D01*
X713700Y279700D02*
Y280367D01*
Y276900D02*
Y278167D01*
X713900Y279300D02*
Y280167D01*
Y277100D02*
Y278767D01*
X714100Y277500D02*
Y280167D01*
X714300Y277900D02*
Y279767D01*
X714500Y278300D02*
Y279567D01*
X712700Y285900D02*
Y299167D01*
X712900Y285700D02*
Y299167D01*
X713100Y285500D02*
Y298967D01*
X713300Y285500D02*
Y298967D01*
X713500Y285300D02*
Y298767D01*
X713700Y285100D02*
Y298567D01*
X713900Y285100D02*
Y298567D01*
X714100Y284900D02*
Y298367D01*
X714300Y284700D02*
Y298367D01*
X714700Y284500D02*
Y298167D01*
X714900Y284300D02*
Y298367D01*
X714500Y284700D02*
Y298167D01*
X715100Y284300D02*
Y298567D01*
X707900Y279300D02*
Y279967D01*
X708100Y279100D02*
Y279767D01*
X708500Y279100D02*
Y279567D01*
X708700Y279100D02*
Y279567D01*
X708900Y279100D02*
Y279767D01*
X709100Y279100D02*
Y279767D01*
X709300Y279300D02*
Y279967D01*
X709700Y279500D02*
Y279767D01*
X709500Y279300D02*
Y279967D01*
X708300Y279100D02*
Y279567D01*
X713700Y269300D02*
Y270567D01*
X713900Y269300D02*
Y270367D01*
X714100Y269100D02*
Y270367D01*
X714300Y269100D02*
Y270167D01*
X714500Y268900D02*
Y269967D01*
X714700Y268900D02*
Y269967D01*
X714900Y268700D02*
Y269767D01*
X715100Y268500D02*
Y269767D01*
X715300Y268500D02*
Y269567D01*
X715700Y268300D02*
Y269367D01*
X715900Y268100D02*
Y269367D01*
X715500Y268300D02*
Y269567D01*
X716100Y268100D02*
Y269167D01*
X714700Y274900D02*
Y275167D01*
X714900Y274700D02*
Y275567D01*
X715100Y274700D02*
Y275967D01*
X715500Y274500D02*
Y276567D01*
X715700Y275900D02*
Y276967D01*
X715300Y274500D02*
Y276167D01*
X715700Y274500D02*
Y275367D01*
X674900Y306700D02*
Y308567D01*
X675100Y306300D02*
Y308167D01*
X675300Y306100D02*
Y307967D01*
X675500Y305700D02*
Y307567D01*
X675700Y305500D02*
Y307367D01*
X675900Y305100D02*
Y306967D01*
X676100Y304900D02*
Y306567D01*
X676300Y304500D02*
Y306367D01*
X676500Y304300D02*
Y305967D01*
X676900Y303700D02*
Y305367D01*
X677100Y303300D02*
Y305167D01*
X676700Y303900D02*
Y305767D01*
X677300Y303100D02*
Y304767D01*
X677500Y302900D02*
Y304567D01*
X677700Y302500D02*
Y304167D01*
X677900Y302300D02*
Y303967D01*
X678100Y301900D02*
Y303567D01*
X678300Y301700D02*
Y303367D01*
X678500Y301300D02*
Y303167D01*
X678700Y301100D02*
Y302767D01*
X678900Y300900D02*
Y302567D01*
X679100Y300500D02*
Y302167D01*
X679500Y300100D02*
Y301767D01*
X679700Y299700D02*
Y301367D01*
X679300Y300300D02*
Y301967D01*
X679900Y299500D02*
Y301167D01*
X680100Y299300D02*
Y300767D01*
X680300Y298900D02*
Y300567D01*
X680500Y298700D02*
Y300367D01*
X680700Y298500D02*
Y299967D01*
X680900Y298100D02*
Y299767D01*
X681100Y297900D02*
Y299567D01*
X681300Y297700D02*
Y299167D01*
X681700Y297100D02*
Y298767D01*
X681900Y296900D02*
Y298567D01*
X682100Y296700D02*
Y298167D01*
X682300Y296500D02*
Y297967D01*
X681500Y297500D02*
Y298967D01*
X682500Y296100D02*
Y297767D01*
X688100Y296700D02*
Y297367D01*
X688300Y296500D02*
Y297167D01*
X688500Y296300D02*
Y296967D01*
X688700Y296300D02*
Y296767D01*
X688900Y296100D02*
Y296767D01*
X689100Y296100D02*
Y296567D01*
X689300Y296100D02*
Y296767D01*
X689700Y296300D02*
Y296767D01*
X689900Y296300D02*
Y296967D01*
X689500Y296100D02*
Y296767D01*
X690100Y296300D02*
Y297167D01*
X682700Y305300D02*
Y306367D01*
X682900Y305700D02*
Y306567D01*
X683100Y305900D02*
Y306767D01*
X683300Y306100D02*
Y306967D01*
X683500Y306300D02*
Y307367D01*
X683700Y306500D02*
Y307567D01*
X683900Y306100D02*
Y307767D01*
Y304700D02*
Y305367D01*
X684100Y305900D02*
Y308167D01*
Y304700D02*
Y305367D01*
X684300Y307300D02*
Y308367D01*
X684500Y307700D02*
Y308167D01*
Y304900D02*
Y306367D01*
X684300Y304700D02*
Y306767D01*
X684700Y304900D02*
Y306167D01*
X684900Y304900D02*
Y305767D01*
X685100Y304900D02*
Y305767D01*
X685300Y305100D02*
Y305767D01*
X685500Y305100D02*
Y305767D01*
X685700Y305100D02*
Y305767D01*
Y302300D02*
Y303167D01*
X685900Y305100D02*
Y305967D01*
X686100Y305300D02*
Y305767D01*
Y302700D02*
Y303367D01*
X686300Y305300D02*
Y305367D01*
X685900Y302500D02*
Y303167D01*
X686300Y302900D02*
Y303567D01*
X685900Y299300D02*
Y300167D01*
X686100Y301300D02*
Y301967D01*
Y299300D02*
Y300367D01*
X686300Y301300D02*
Y301967D01*
Y299500D02*
Y300367D01*
X686500Y301500D02*
Y301967D01*
X686700Y301500D02*
Y301967D01*
Y299900D02*
Y300767D01*
X686900Y301500D02*
Y301967D01*
Y299900D02*
Y300967D01*
X687100Y301500D02*
Y301967D01*
X686500Y299700D02*
Y300567D01*
X687100Y300100D02*
Y300967D01*
X686500Y302900D02*
Y303767D01*
X686700Y303100D02*
Y303767D01*
X686900Y303300D02*
Y303967D01*
X687100Y303500D02*
Y304167D01*
X687300Y303500D02*
Y304167D01*
Y301500D02*
Y301967D01*
Y300300D02*
Y301167D01*
X687500Y300500D02*
Y302167D01*
X687700Y300500D02*
Y302167D01*
X687500Y303700D02*
Y303767D01*
X687900Y300700D02*
Y302167D01*
X681700Y304900D02*
Y304967D01*
X681900Y304500D02*
Y305167D01*
X682100Y304300D02*
Y305567D01*
X682300Y304300D02*
Y305767D01*
X682500Y304300D02*
Y305967D01*
X682700Y304300D02*
Y304967D01*
X682900Y304300D02*
Y305167D01*
X683300Y304500D02*
Y305167D01*
X683500Y304500D02*
Y305367D01*
X683700Y304700D02*
Y305367D01*
X683100Y304500D02*
Y305167D01*
X684100Y301500D02*
Y301767D01*
X684300Y301300D02*
Y301967D01*
X684500Y301100D02*
Y302167D01*
X684700Y301100D02*
Y302367D01*
X684900Y301300D02*
Y302367D01*
X685100Y301300D02*
Y302567D01*
X685300Y301300D02*
Y302767D01*
X685500Y302100D02*
Y302967D01*
Y301300D02*
Y301767D01*
X685700Y301300D02*
Y301767D01*
Y299500D02*
Y299967D01*
X685900Y301300D02*
Y301967D01*
X685500Y299700D02*
Y299767D01*
X688100Y300900D02*
Y302167D01*
X688300Y301100D02*
Y302167D01*
Y297900D02*
Y298967D01*
X688500Y301300D02*
Y302167D01*
Y298100D02*
Y299167D01*
X688700Y301300D02*
Y302167D01*
Y298300D02*
Y299367D01*
X688900Y301500D02*
Y302167D01*
Y298500D02*
Y299567D01*
X689100Y301700D02*
Y301767D01*
X689300Y298900D02*
Y299767D01*
X689100Y298700D02*
Y299767D01*
X689500Y298900D02*
Y299967D01*
X689700Y299100D02*
Y300167D01*
X689900Y299300D02*
Y300367D01*
X690100Y299500D02*
Y300567D01*
X690300Y299500D02*
Y300367D01*
Y296500D02*
Y297167D01*
X690500Y299300D02*
Y300167D01*
Y296500D02*
Y297567D01*
X690700Y298900D02*
Y299767D01*
X690900Y296900D02*
Y299567D01*
X691100Y297100D02*
Y299367D01*
X691300Y297500D02*
Y299167D01*
X690700Y296700D02*
Y297767D01*
X691500Y297900D02*
Y298567D01*
X687300Y297500D02*
Y298167D01*
X687500Y297300D02*
Y298367D01*
X687900Y296900D02*
Y298567D01*
X688100Y297700D02*
Y298767D01*
X687700Y297100D02*
Y298367D01*
X687100Y297700D02*
Y297967D01*
X693300Y304100D02*
Y310567D01*
X693500Y303700D02*
Y310367D01*
X693700Y303500D02*
Y310367D01*
X693900Y303300D02*
Y310167D01*
X694100Y302900D02*
Y309967D01*
X694300Y302700D02*
Y309967D01*
X694500Y302500D02*
Y309767D01*
X694700Y302300D02*
Y309767D01*
X694900Y302100D02*
Y309567D01*
X695100Y301700D02*
Y309367D01*
X695300Y301500D02*
Y309367D01*
X695500Y301300D02*
Y309167D01*
X695900Y300900D02*
Y308967D01*
X696100Y300500D02*
Y308967D01*
X696300Y300300D02*
Y308767D01*
X695700Y301100D02*
Y309167D01*
X696500Y300100D02*
Y308567D01*
X696700Y299900D02*
Y308567D01*
X696900Y299700D02*
Y308367D01*
X697100Y299500D02*
Y308367D01*
X697300Y299300D02*
Y308167D01*
X697500Y299100D02*
Y307967D01*
X697700Y298700D02*
Y307967D01*
X697900Y298500D02*
Y307767D01*
X698100Y298300D02*
Y307767D01*
X698500Y297900D02*
Y307567D01*
X698700Y297700D02*
Y307367D01*
X698300Y298100D02*
Y307567D01*
X698900Y297500D02*
Y307367D01*
X673700Y308500D02*
Y310567D01*
X673900Y308300D02*
Y310167D01*
X674300Y307700D02*
Y309567D01*
X674500Y307300D02*
Y309167D01*
X674700Y306900D02*
Y308967D01*
X674100Y307900D02*
Y309967D01*
X684300Y293900D02*
Y295567D01*
X684500Y293700D02*
Y295167D01*
X684700Y293500D02*
Y294967D01*
X684900Y293300D02*
Y294767D01*
X685100Y293100D02*
Y294567D01*
X685300Y292900D02*
Y294367D01*
X685500Y292500D02*
Y293967D01*
X685700Y292300D02*
Y293767D01*
X685900Y292100D02*
Y293567D01*
X686300Y291700D02*
Y293167D01*
X686500Y291500D02*
Y292967D01*
X686100Y291900D02*
Y293367D01*
X686700Y291300D02*
Y292767D01*
X686900Y291100D02*
Y292367D01*
X687100Y290700D02*
Y292167D01*
X687300Y290500D02*
Y291967D01*
X687500Y290300D02*
Y291767D01*
X687700Y290100D02*
Y291567D01*
X687900Y289900D02*
Y291367D01*
X688100Y289700D02*
Y291167D01*
X688300Y289500D02*
Y290967D01*
X688500Y289300D02*
Y290767D01*
X688900Y288900D02*
Y290167D01*
X689100Y288700D02*
Y289967D01*
X688700Y289100D02*
Y290567D01*
X689300Y288500D02*
Y289767D01*
X689500Y288300D02*
Y289567D01*
X689700Y288100D02*
Y289367D01*
X689900Y287900D02*
Y289167D01*
X690100Y287700D02*
Y288967D01*
X690300Y287500D02*
Y288767D01*
X690500Y287300D02*
Y288567D01*
X690700Y287100D02*
Y288367D01*
X690900Y286900D02*
Y288167D01*
X691100Y286700D02*
Y287967D01*
X691500Y286300D02*
Y287567D01*
X691700Y286100D02*
Y287367D01*
X691300Y286500D02*
Y287767D01*
X691900Y285900D02*
Y287167D01*
X682700Y295900D02*
Y297367D01*
X682900Y295700D02*
Y297167D01*
X683100Y295500D02*
Y296967D01*
X683300Y295100D02*
Y296767D01*
X683700Y294700D02*
Y296167D01*
X683900Y294500D02*
Y295967D01*
X684100Y294300D02*
Y295767D01*
X683500Y294900D02*
Y296367D01*
X721900Y327300D02*
Y341167D01*
X722100Y327500D02*
Y341367D01*
X727500Y328700D02*
Y329967D01*
X722300Y264900D02*
Y265967D01*
X722500Y264900D02*
Y265967D01*
X722700Y264700D02*
Y265767D01*
X722900Y264700D02*
Y265767D01*
X723100Y264500D02*
Y265567D01*
X723300Y264500D02*
Y265567D01*
X723500Y264300D02*
Y265367D01*
X723700Y264300D02*
Y265367D01*
X723900Y264100D02*
Y265167D01*
X724300Y264100D02*
Y265167D01*
X724500Y263900D02*
Y264967D01*
X724100Y264100D02*
Y265167D01*
X724700Y263900D02*
Y264967D01*
X724900Y263700D02*
Y264767D01*
X725100Y263700D02*
Y264767D01*
X725300Y263500D02*
Y264567D01*
X725500Y263500D02*
Y264567D01*
X725700Y263300D02*
Y264367D01*
X725900Y263300D02*
Y264367D01*
X726100Y263300D02*
Y264367D01*
X726300Y263100D02*
Y264167D01*
X726500Y263100D02*
Y264167D01*
X726900Y262900D02*
Y263967D01*
X727100Y262900D02*
Y263767D01*
X726700Y262900D02*
Y263967D01*
X727300Y262700D02*
Y263767D01*
X727500Y262700D02*
Y263767D01*
X727700Y262500D02*
Y263567D01*
X727900Y262500D02*
Y263567D01*
X728100Y262500D02*
Y263367D01*
X728300Y262300D02*
Y263367D01*
X728500Y262300D02*
Y263367D01*
X728700Y262100D02*
Y263167D01*
X728900Y262100D02*
Y263167D01*
X729100Y262100D02*
Y262967D01*
X729500Y261900D02*
Y262967D01*
X729700Y261700D02*
Y262767D01*
X729300Y261900D02*
Y262967D01*
X729900Y261700D02*
Y262767D01*
X731500Y261100D02*
Y262167D01*
X731700Y261100D02*
Y261967D01*
X731900Y260900D02*
Y261967D01*
X732100Y260900D02*
Y261967D01*
X732300Y260900D02*
Y261767D01*
X732500Y260700D02*
Y261767D01*
X732700Y260700D02*
Y261767D01*
X732900Y260500D02*
Y261567D01*
X733100Y260500D02*
Y261567D01*
X733300Y260500D02*
Y261567D01*
X733500Y260300D02*
Y261367D01*
X733700Y260300D02*
Y261367D01*
X733900Y260300D02*
Y261367D01*
X734100Y260100D02*
Y261167D01*
X734300Y260100D02*
Y261167D01*
X734500Y260100D02*
Y261167D01*
X734700Y259900D02*
Y260967D01*
X734900Y259900D02*
Y260967D01*
X735100Y259900D02*
Y260967D01*
X735300Y259700D02*
Y260767D01*
X735500Y259700D02*
Y260767D01*
X735700Y259700D02*
Y260767D01*
X735900Y259500D02*
Y260567D01*
X736100Y259500D02*
Y260567D01*
X736300Y259500D02*
Y260567D01*
X736500Y259300D02*
Y260367D01*
X736700Y259300D02*
Y260367D01*
X736900Y259300D02*
Y260367D01*
X752500Y261300D02*
Y262167D01*
X752700Y261300D02*
Y261967D01*
X752900Y261300D02*
Y261767D01*
X753100Y261300D02*
Y261767D01*
X753300Y261300D02*
Y261767D01*
X753500Y261300D02*
Y261767D01*
X753700Y261300D02*
Y261967D01*
X753900Y261500D02*
Y262167D01*
X756500Y260700D02*
Y261967D01*
X757300Y260900D02*
Y261967D01*
X757500Y261100D02*
Y262367D01*
X734100Y265700D02*
Y265967D01*
X737500Y264700D02*
Y265567D01*
X737700Y264500D02*
Y265167D01*
X737900Y264500D02*
Y264967D01*
X738100Y264500D02*
Y264967D01*
X738300Y264500D02*
Y264967D01*
X738500Y264500D02*
Y264967D01*
X738700Y264500D02*
Y265167D01*
X738900Y264700D02*
Y265367D01*
X739100Y264700D02*
Y265567D01*
Y258500D02*
Y259567D01*
X739300Y264900D02*
Y265567D01*
X739500Y265100D02*
Y265567D01*
Y258500D02*
Y259567D01*
X739300Y258500D02*
Y259567D01*
X740300Y258300D02*
Y259167D01*
X740500Y258100D02*
Y259167D01*
X740700Y258100D02*
Y259167D01*
X740900Y258100D02*
Y259167D01*
X741100Y258100D02*
Y258967D01*
X741300Y257900D02*
Y258967D01*
X741500Y257900D02*
Y258967D01*
X741700Y257900D02*
Y258967D01*
X741900Y257900D02*
Y258767D01*
X742100Y257700D02*
Y258767D01*
X742300Y265900D02*
Y266367D01*
Y263300D02*
Y263967D01*
Y257700D02*
Y258767D01*
X737100Y259100D02*
Y260167D01*
X737300Y259100D02*
Y260167D01*
X737500Y259100D02*
Y260167D01*
X737700Y259100D02*
Y259967D01*
X737900Y258900D02*
Y259967D01*
X738300Y258900D02*
Y259767D01*
X738500Y258700D02*
Y259767D01*
X738700Y258700D02*
Y259767D01*
X738900Y258700D02*
Y259767D01*
X738100Y258900D02*
Y259967D01*
X751900Y255700D02*
Y256567D01*
X752100Y255500D02*
Y256567D01*
X752300Y255500D02*
Y256567D01*
X752500Y255500D02*
Y256567D01*
X752700Y255500D02*
Y256567D01*
X752900Y255500D02*
Y256367D01*
X753100Y255500D02*
Y256367D01*
X753300Y255300D02*
Y256367D01*
X753500Y255300D02*
Y256367D01*
X753700Y255300D02*
Y256367D01*
X753900Y255300D02*
Y256367D01*
X754100Y261500D02*
Y262767D01*
Y255300D02*
Y256167D01*
X730100Y261700D02*
Y262567D01*
X730300Y261500D02*
Y262567D01*
X730500Y261500D02*
Y262567D01*
X730700Y261500D02*
Y262367D01*
X730900Y261300D02*
Y262367D01*
X731100Y261300D02*
Y262367D01*
X731300Y261100D02*
Y262167D01*
X721700Y265100D02*
Y266367D01*
X721900Y265100D02*
Y266167D01*
X722100Y265100D02*
Y266167D01*
X721500Y265300D02*
Y266367D01*
X750700Y255900D02*
Y256767D01*
X750900Y255900D02*
Y256767D01*
X751100Y255700D02*
Y256767D01*
X751300Y255700D02*
Y256767D01*
X751500Y255700D02*
Y256767D01*
X751700Y255700D02*
Y256567D01*
X747700Y256500D02*
Y257367D01*
X747900Y256300D02*
Y257367D01*
X748100Y256300D02*
Y257367D01*
X748300Y256300D02*
Y257367D01*
X748500Y256300D02*
Y257367D01*
X743300Y257500D02*
Y258367D01*
X743500Y257300D02*
Y258367D01*
X743700Y257300D02*
Y258367D01*
X743900Y257300D02*
Y258367D01*
X744100Y257300D02*
Y258167D01*
X739700Y258500D02*
Y259367D01*
X739900Y258300D02*
Y259367D01*
X740100Y258300D02*
Y259367D01*
X755500Y255100D02*
Y255967D01*
X755700Y255100D02*
Y255967D01*
X755900Y255100D02*
Y255967D01*
X756100Y254900D02*
Y255967D01*
X756300Y254900D02*
Y255967D01*
X756500Y254900D02*
Y255967D01*
X713300Y344500D02*
Y345167D01*
Y340500D02*
Y342967D01*
X713500Y344700D02*
Y345367D01*
Y340500D02*
Y342967D01*
X713700Y344300D02*
Y345367D01*
Y340500D02*
Y343167D01*
X713900Y344100D02*
Y345367D01*
Y342700D02*
Y343367D01*
Y340700D02*
Y341567D01*
X714100Y343700D02*
Y345167D01*
Y342900D02*
Y343367D01*
X714300Y342900D02*
Y344767D01*
X714500Y343100D02*
Y344567D01*
X714700Y345700D02*
Y345967D01*
Y342900D02*
Y344167D01*
X714900Y345500D02*
Y346167D01*
Y342500D02*
Y343967D01*
X715100Y345700D02*
Y346367D01*
Y342300D02*
Y343567D01*
X715300Y345700D02*
Y346367D01*
Y341900D02*
Y343167D01*
X715500Y345900D02*
Y346567D01*
Y341700D02*
Y342967D01*
X715700Y345900D02*
Y346567D01*
Y341900D02*
Y342567D01*
X715900Y346100D02*
Y346767D01*
Y344500D02*
Y344767D01*
Y341900D02*
Y342367D01*
X716100Y346300D02*
Y346967D01*
Y344300D02*
Y344767D01*
X716300Y346300D02*
Y346967D01*
Y344300D02*
Y344967D01*
X716500Y346500D02*
Y347167D01*
Y344500D02*
Y345167D01*
Y342700D02*
Y342967D01*
X716700Y346100D02*
Y347167D01*
Y344500D02*
Y345167D01*
Y342500D02*
Y343167D01*
X716900Y345900D02*
Y347167D01*
Y344700D02*
Y345367D01*
Y342500D02*
Y343167D01*
X717100Y344700D02*
Y346967D01*
Y342700D02*
Y343367D01*
X717300Y344900D02*
Y346567D01*
Y342700D02*
Y343567D01*
X717500Y344700D02*
Y346167D01*
Y342900D02*
Y343567D01*
X717700Y344500D02*
Y345967D01*
Y343100D02*
Y343767D01*
X717900Y344100D02*
Y345567D01*
Y343100D02*
Y343767D01*
X718100Y343300D02*
Y345167D01*
X718300Y343300D02*
Y344767D01*
X718500Y343500D02*
Y344567D01*
X718700Y343700D02*
Y344167D01*
X718900Y343700D02*
Y343767D01*
X711500Y343300D02*
Y343567D01*
X711700Y342900D02*
Y343967D01*
X711900Y342500D02*
Y344167D01*
X712100Y342500D02*
Y344367D01*
X712300Y342300D02*
Y344567D01*
X712500Y343900D02*
Y344567D01*
Y342300D02*
Y342967D01*
X712700Y344100D02*
Y344767D01*
Y342300D02*
Y342767D01*
X712900Y344300D02*
Y344967D01*
X713100Y344300D02*
Y344967D01*
X712900Y342300D02*
Y342767D01*
X713100Y341500D02*
Y342967D01*
X723900Y326700D02*
Y342367D01*
X724100Y326700D02*
Y342367D01*
X724300Y326700D02*
Y342567D01*
X724500Y326500D02*
Y342567D01*
X724700Y326500D02*
Y342767D01*
X724900Y326500D02*
Y342767D01*
X725100Y326500D02*
Y342967D01*
X725300Y326700D02*
Y342967D01*
X725500Y326700D02*
Y343167D01*
X725700Y326700D02*
Y343167D01*
X729100Y357900D02*
Y359167D01*
X729300Y358100D02*
Y359167D01*
X729500Y358100D02*
Y359167D01*
X729700Y358300D02*
Y359367D01*
X729900Y358300D02*
Y359367D01*
X730100Y358300D02*
Y359367D01*
X730300Y358500D02*
Y359567D01*
X730500Y358500D02*
Y359567D01*
X730700Y358500D02*
Y359567D01*
X731100Y358700D02*
Y359767D01*
X731300Y358900D02*
Y359967D01*
X730900Y358700D02*
Y359767D01*
X731500Y358900D02*
Y359967D01*
X729300Y350700D02*
Y352567D01*
Y348900D02*
Y349567D01*
Y331700D02*
Y344967D01*
X729500Y349100D02*
Y352167D01*
Y331700D02*
Y344967D01*
X729700Y349100D02*
Y351567D01*
Y331900D02*
Y345167D01*
X729900Y349300D02*
Y351167D01*
X730100Y349500D02*
Y350567D01*
Y332100D02*
Y345367D01*
X729900Y331900D02*
Y345167D01*
X730300Y332300D02*
Y345367D01*
X730500Y332300D02*
Y345567D01*
X730700Y331900D02*
Y345567D01*
X730900Y331900D02*
Y345767D01*
X731100Y331700D02*
Y345767D01*
X731300Y331500D02*
Y345767D01*
X731500Y331500D02*
Y345967D01*
X731700Y353100D02*
Y353767D01*
Y331300D02*
Y345967D01*
X731900Y353100D02*
Y354167D01*
X732100Y353100D02*
Y354367D01*
Y351700D02*
Y352167D01*
X731900Y331300D02*
Y346167D01*
X732100Y331300D02*
Y346167D01*
X731700Y358900D02*
Y359967D01*
X731900Y359100D02*
Y360167D01*
X732100Y359100D02*
Y360167D01*
X732300Y359100D02*
Y360167D01*
X732500Y359300D02*
Y360367D01*
X732700Y359300D02*
Y360367D01*
X732900Y359300D02*
Y360367D01*
X733300Y359500D02*
Y360567D01*
X733500Y359500D02*
Y360567D01*
X733700Y359700D02*
Y360767D01*
X733900Y359700D02*
Y360767D01*
X733100Y359500D02*
Y360567D01*
X734100Y359700D02*
Y360767D01*
X732300Y353700D02*
Y354567D01*
Y351100D02*
Y352367D01*
Y331300D02*
Y346367D01*
X732500Y354100D02*
Y354567D01*
Y350700D02*
Y352367D01*
X732700Y354100D02*
Y354767D01*
Y350300D02*
Y352567D01*
X732900Y352100D02*
Y352567D01*
Y350300D02*
Y351567D01*
X732700Y331100D02*
Y346367D01*
X732500Y331100D02*
Y346367D01*
X732900Y331300D02*
Y346567D01*
X733100Y354300D02*
Y354767D01*
Y352100D02*
Y352767D01*
Y350900D02*
Y351367D01*
Y331300D02*
Y346567D01*
X733300Y354300D02*
Y354767D01*
Y352300D02*
Y352767D01*
Y350700D02*
Y351367D01*
Y331300D02*
Y346767D01*
X733500Y350700D02*
Y351167D01*
X732900Y354300D02*
Y354767D01*
X734300Y352900D02*
Y354367D01*
Y350900D02*
Y351767D01*
Y331700D02*
Y347167D01*
X733500Y354300D02*
Y354767D01*
X733700Y354100D02*
Y354767D01*
Y350700D02*
Y351167D01*
Y331300D02*
Y346767D01*
X733900Y353900D02*
Y354767D01*
Y350700D02*
Y351367D01*
X734100Y353500D02*
Y354567D01*
Y350700D02*
Y351367D01*
X733900Y331500D02*
Y346967D01*
X733500Y331300D02*
Y346767D01*
X734100Y331500D02*
Y346967D01*
X734500Y359900D02*
Y360967D01*
Y350900D02*
Y354167D01*
Y331900D02*
Y347167D01*
X734700Y359900D02*
Y360967D01*
Y351100D02*
Y353967D01*
Y332100D02*
Y347167D01*
X734900Y360100D02*
Y361167D01*
Y351300D02*
Y353767D01*
Y332300D02*
Y347367D01*
X734300Y359900D02*
Y360967D01*
X735900Y353100D02*
Y355167D01*
Y335500D02*
Y347767D01*
Y360300D02*
Y361367D01*
X736100Y360500D02*
Y361567D01*
Y352500D02*
Y354367D01*
X736300Y360500D02*
Y361567D01*
Y351900D02*
Y353967D01*
Y335700D02*
Y347767D01*
X736500Y360500D02*
Y361567D01*
Y351700D02*
Y353167D01*
X736100Y335700D02*
Y347767D01*
X736500Y335900D02*
Y347967D01*
X735100Y360100D02*
Y361167D01*
Y351500D02*
Y353167D01*
Y332500D02*
Y347367D01*
X735300Y360100D02*
Y361167D01*
Y354900D02*
Y355567D01*
Y335100D02*
Y347567D01*
X735500Y360300D02*
Y361367D01*
Y354300D02*
Y355767D01*
X735700Y360300D02*
Y361367D01*
Y353700D02*
Y355767D01*
Y335300D02*
Y347567D01*
X735500Y335300D02*
Y347567D01*
X736700Y360700D02*
Y361767D01*
Y351700D02*
Y353767D01*
X736900Y360700D02*
Y361767D01*
Y351900D02*
Y354567D01*
Y336100D02*
Y348167D01*
X737100Y360700D02*
Y361767D01*
Y352100D02*
Y355367D01*
X736700Y335900D02*
Y347967D01*
X737100Y336300D02*
Y348167D01*
X737300Y360900D02*
Y361767D01*
Y352900D02*
Y356167D01*
X737500Y360900D02*
Y361967D01*
Y353700D02*
Y356367D01*
Y336500D02*
Y348367D01*
X737700Y360900D02*
Y361967D01*
Y354700D02*
Y356367D01*
X737300Y336300D02*
Y348167D01*
X737700Y336500D02*
Y348367D01*
X737900Y360900D02*
Y361967D01*
Y355100D02*
Y356367D01*
X738100Y361100D02*
Y362167D01*
Y354500D02*
Y356367D01*
Y336700D02*
Y348567D01*
X738300Y361100D02*
Y362167D01*
Y353900D02*
Y355967D01*
X737900Y336700D02*
Y348367D01*
X738300Y336700D02*
Y348567D01*
X738500Y361100D02*
Y362167D01*
Y353300D02*
Y355367D01*
X738700Y361300D02*
Y362167D01*
Y352700D02*
Y354767D01*
Y336300D02*
Y348767D01*
X738900Y361300D02*
Y362367D01*
Y352500D02*
Y354167D01*
X738500Y336500D02*
Y348567D01*
X738900Y336300D02*
Y348767D01*
X739100Y361300D02*
Y362367D01*
Y352500D02*
Y353367D01*
X739300Y361300D02*
Y362367D01*
Y356300D02*
Y356967D01*
Y352700D02*
Y352767D01*
Y336100D02*
Y348967D01*
X739500Y361500D02*
Y362567D01*
Y355500D02*
Y356967D01*
X739100Y336100D02*
Y348767D01*
X739500Y335900D02*
Y348967D01*
X739700Y361500D02*
Y362567D01*
Y354900D02*
Y356967D01*
Y335900D02*
Y348967D01*
X739900Y361500D02*
Y362567D01*
Y354100D02*
Y356967D01*
X740100Y361700D02*
Y362567D01*
Y353500D02*
Y356167D01*
X739900Y335900D02*
Y349167D01*
X740100Y335700D02*
Y349167D01*
X740300Y361700D02*
Y362767D01*
Y352900D02*
Y355567D01*
Y335700D02*
Y349167D01*
X740500Y361700D02*
Y362767D01*
Y353100D02*
Y354767D01*
X740700Y361700D02*
Y362767D01*
Y353100D02*
Y354167D01*
Y335700D02*
Y349367D01*
X740900Y353100D02*
Y353367D01*
X740500Y335700D02*
Y349367D01*
X740900Y335700D02*
Y349367D01*
Y361900D02*
Y362967D01*
X741100Y361900D02*
Y362967D01*
Y335900D02*
Y349567D01*
X741300Y361900D02*
Y362967D01*
Y355100D02*
Y356767D01*
X741500Y361900D02*
Y362967D01*
Y354500D02*
Y357167D01*
X741300Y335900D02*
Y349567D01*
X741500Y335900D02*
Y349567D01*
X741700Y362100D02*
Y363167D01*
Y354300D02*
Y357367D01*
Y336100D02*
Y349767D01*
X741900Y362100D02*
Y363167D01*
Y354100D02*
Y357567D01*
X742100Y362100D02*
Y363167D01*
Y356900D02*
Y357567D01*
Y353900D02*
Y355367D01*
Y352500D02*
Y353167D01*
X741900Y336100D02*
Y349767D01*
X742100Y336300D02*
Y349767D01*
X742300Y362100D02*
Y363167D01*
Y357100D02*
Y357767D01*
Y353700D02*
Y354767D01*
Y352500D02*
Y353167D01*
X742500Y362300D02*
Y363367D01*
Y357300D02*
Y357767D01*
Y353700D02*
Y354367D01*
Y352500D02*
Y353167D01*
X742300Y336500D02*
Y349967D01*
X742500Y336700D02*
Y349967D01*
X742700Y362300D02*
Y363367D01*
Y357300D02*
Y357767D01*
Y352500D02*
Y354167D01*
Y336900D02*
Y349967D01*
X742900Y357300D02*
Y357767D01*
Y352700D02*
Y354167D01*
Y337300D02*
Y350167D01*
Y362300D02*
Y363367D01*
X743100Y362500D02*
Y363367D01*
Y357300D02*
Y357767D01*
X743300Y362500D02*
Y363567D01*
X743700Y362500D02*
Y363567D01*
X743900Y362700D02*
Y363567D01*
X744100Y362700D02*
Y363767D01*
X744300Y362700D02*
Y363767D01*
X743500Y362500D02*
Y363567D01*
X744500Y362700D02*
Y363767D01*
X744300Y354100D02*
Y356967D01*
Y340300D02*
Y350567D01*
X744500Y354300D02*
Y356567D01*
Y340500D02*
Y350567D01*
X744700Y340500D02*
Y350567D01*
X744900Y340700D02*
Y350567D01*
X745100Y340700D02*
Y350767D01*
X745700Y341100D02*
Y350967D01*
X745900Y341300D02*
Y350967D01*
X745500Y341100D02*
Y350767D01*
X745300Y340900D02*
Y350767D01*
X746100Y341300D02*
Y350967D01*
X745500Y355500D02*
Y356367D01*
X745700Y363100D02*
Y363967D01*
Y357300D02*
Y358367D01*
X746300Y355900D02*
Y356567D01*
Y354900D02*
Y355567D01*
X746500Y363100D02*
Y364167D01*
Y358100D02*
Y358767D01*
Y356100D02*
Y356567D01*
Y354700D02*
Y355367D01*
Y340900D02*
Y351167D01*
X746700Y363300D02*
Y364367D01*
Y358100D02*
Y358767D01*
Y356100D02*
Y356567D01*
Y354700D02*
Y355167D01*
Y340700D02*
Y351167D01*
X746300Y341100D02*
Y350967D01*
X746900Y363300D02*
Y364367D01*
Y358100D02*
Y358767D01*
Y356100D02*
Y356567D01*
Y354700D02*
Y355167D01*
Y340700D02*
Y351167D01*
X747100Y363300D02*
Y364367D01*
Y358100D02*
Y358767D01*
Y354700D02*
Y355167D01*
X747300Y363300D02*
Y364367D01*
Y358100D02*
Y358767D01*
Y354700D02*
Y355167D01*
Y340500D02*
Y351367D01*
X747100Y340500D02*
Y351167D01*
X747500Y363500D02*
Y364367D01*
Y357900D02*
Y358567D01*
Y354700D02*
Y355167D01*
Y340300D02*
Y351367D01*
X747700Y363500D02*
Y364567D01*
Y357500D02*
Y358567D01*
Y354700D02*
Y355367D01*
Y340300D02*
Y351367D01*
X747900Y363500D02*
Y364567D01*
Y356700D02*
Y358367D01*
Y354900D02*
Y355767D01*
Y340300D02*
Y351367D01*
X748100Y363500D02*
Y364567D01*
X748300Y363500D02*
Y364567D01*
Y355100D02*
Y357967D01*
Y340300D02*
Y351567D01*
X748500Y363700D02*
Y364567D01*
Y355300D02*
Y357567D01*
Y340300D02*
Y351567D01*
X748700Y363700D02*
Y364767D01*
X748900Y363700D02*
Y364767D01*
X749100Y363700D02*
Y364767D01*
X749300Y363700D02*
Y364767D01*
X749500Y363900D02*
Y364767D01*
X749700Y363900D02*
Y364967D01*
X749900Y363900D02*
Y364967D01*
X750300Y363900D02*
Y364967D01*
X750500Y363900D02*
Y364967D01*
X750100Y363900D02*
Y364967D01*
X750700Y364100D02*
Y364967D01*
X708700Y341100D02*
Y341967D01*
X708900Y341100D02*
Y342167D01*
X709100Y341300D02*
Y342367D01*
X709300Y341300D02*
Y342567D01*
X709500Y341900D02*
Y342767D01*
X709700Y342100D02*
Y342767D01*
X709900Y342300D02*
Y342767D01*
X710100Y342300D02*
Y342967D01*
X710500Y342100D02*
Y342767D01*
Y340300D02*
Y341567D01*
X710900Y340900D02*
Y342767D01*
X711100Y341100D02*
Y342567D01*
X711300Y341300D02*
Y342367D01*
X710700Y340500D02*
Y342767D01*
X710300Y342300D02*
Y342967D01*
X708300Y347300D02*
Y348567D01*
X708500Y347500D02*
Y348767D01*
X708700Y347500D02*
Y348767D01*
X708900Y347700D02*
Y348967D01*
X709100Y347900D02*
Y349167D01*
X709300Y347900D02*
Y349167D01*
X709500Y348100D02*
Y349367D01*
X709700Y348300D02*
Y349367D01*
X709900Y348300D02*
Y349567D01*
X710300Y348700D02*
Y349767D01*
X710500Y348700D02*
Y349967D01*
X710100Y348500D02*
Y349767D01*
X710700Y348900D02*
Y350167D01*
X710900Y348900D02*
Y350167D01*
X711100Y349100D02*
Y350367D01*
X711300Y349300D02*
Y350367D01*
X711500Y349300D02*
Y350567D01*
X711700Y349500D02*
Y350767D01*
X711900Y349500D02*
Y350767D01*
X712100Y349700D02*
Y350967D01*
X712300Y349900D02*
Y350967D01*
X712500Y349900D02*
Y351167D01*
X712900Y350100D02*
Y351367D01*
X713100Y350300D02*
Y351567D01*
X712700Y350100D02*
Y351167D01*
X713300Y350500D02*
Y351567D01*
X713500Y350500D02*
Y351767D01*
X713700Y350700D02*
Y351767D01*
X713900Y350700D02*
Y351967D01*
X714100Y350900D02*
Y351967D01*
X714300Y350900D02*
Y352167D01*
X714500Y351100D02*
Y352367D01*
X714700Y351300D02*
Y352367D01*
X714900Y351300D02*
Y352567D01*
X715100Y351500D02*
Y352567D01*
X715500Y351700D02*
Y352767D01*
X715700Y351700D02*
Y352967D01*
X715300Y351500D02*
Y352767D01*
X715900Y351900D02*
Y352967D01*
X716100Y351900D02*
Y353167D01*
X716300Y352100D02*
Y353167D01*
X716500Y352100D02*
Y353367D01*
X716700Y352300D02*
Y353567D01*
X716900Y352500D02*
Y353567D01*
X717100Y352500D02*
Y353767D01*
X717300Y352700D02*
Y353767D01*
X717500Y352700D02*
Y353967D01*
X717700Y352900D02*
Y353967D01*
X718100Y353100D02*
Y354167D01*
X718300Y353100D02*
Y354367D01*
X717900Y352900D02*
Y354167D01*
X718500Y353300D02*
Y354367D01*
X718700Y353300D02*
Y354567D01*
X718900Y353500D02*
Y354567D01*
X719100Y353500D02*
Y354767D01*
X719300Y353700D02*
Y354767D01*
X719500Y353700D02*
Y354967D01*
X719700Y353900D02*
Y354967D01*
X719900Y353900D02*
Y355167D01*
X720100Y354100D02*
Y355167D01*
X720300Y354100D02*
Y355367D01*
X720700Y354300D02*
Y355567D01*
X720900Y354500D02*
Y355567D01*
X720500Y354300D02*
Y355367D01*
X721100Y354500D02*
Y355567D01*
X719300Y345900D02*
Y346567D01*
X719500Y345700D02*
Y346367D01*
X719700Y348700D02*
Y348767D01*
Y345500D02*
Y346167D01*
X719900Y347700D02*
Y348967D01*
X720100Y346700D02*
Y348967D01*
Y345100D02*
Y345767D01*
X720300Y344900D02*
Y349167D01*
X720500Y344700D02*
Y348567D01*
X720700Y344700D02*
Y347567D01*
X720900Y344900D02*
Y346567D01*
X719900Y345300D02*
Y345967D01*
X721100Y344900D02*
Y345567D01*
X717500Y347700D02*
Y347767D01*
X717700Y347500D02*
Y347767D01*
X717900Y347300D02*
Y347967D01*
X718100Y347100D02*
Y347767D01*
X718300Y346900D02*
Y347567D01*
X718700Y346500D02*
Y347167D01*
X718900Y346300D02*
Y346967D01*
X719100Y346100D02*
Y346767D01*
X718500Y346700D02*
Y347367D01*
X705100Y345100D02*
Y346367D01*
X705300Y345300D02*
Y346567D01*
X705500Y345500D02*
Y346767D01*
X705700Y345500D02*
Y346767D01*
X705900Y345700D02*
Y346967D01*
X706100Y345900D02*
Y347167D01*
X706300Y345900D02*
Y347367D01*
X706500Y346100D02*
Y347367D01*
X706700Y346300D02*
Y347567D01*
X706900Y346300D02*
Y347567D01*
X707100Y346500D02*
Y347767D01*
X707300Y346700D02*
Y347967D01*
X707700Y346900D02*
Y348167D01*
X707900Y347100D02*
Y348367D01*
X708100Y347100D02*
Y348367D01*
X707500Y346700D02*
Y347967D01*
X758900Y358100D02*
Y358767D01*
X759100Y358100D02*
Y358767D01*
X759300Y358100D02*
Y358767D01*
X759500Y358100D02*
Y358767D01*
X759700Y358100D02*
Y358767D01*
X759900Y359100D02*
Y360367D01*
Y358300D02*
Y358767D01*
X760100Y356500D02*
Y360567D01*
X760300Y356500D02*
Y360567D01*
X761500Y359300D02*
Y359767D01*
X761700Y359100D02*
Y360167D01*
X760500Y356500D02*
Y360567D01*
X761900Y359100D02*
Y360367D01*
X760900Y365500D02*
Y366367D01*
X761100Y365500D02*
Y366367D01*
X761300Y365500D02*
Y366367D01*
X761500Y365500D02*
Y366567D01*
X761700Y365500D02*
Y366567D01*
X761900Y365500D02*
Y366567D01*
X762100Y365500D02*
Y366567D01*
X762300Y365500D02*
Y366567D01*
X762500Y365500D02*
Y366567D01*
X762900Y365500D02*
Y366567D01*
X763100Y365500D02*
Y366567D01*
X762700Y365500D02*
Y366567D01*
X763300Y365500D02*
Y366567D01*
X762100Y359300D02*
Y360367D01*
X762300Y359700D02*
Y360567D01*
X762500Y360100D02*
Y360567D01*
X762700Y360100D02*
Y360567D01*
X762900Y360100D02*
Y360767D01*
X763100Y360100D02*
Y360767D01*
X763300Y360100D02*
Y360567D01*
X763500Y359900D02*
Y360567D01*
X763700Y359300D02*
Y360567D01*
X763900Y356700D02*
Y360367D01*
X764100Y356900D02*
Y360167D01*
X764300Y357300D02*
Y359967D01*
X764500Y357700D02*
Y359567D01*
X762300Y334500D02*
Y349567D01*
X762500Y335300D02*
Y349367D01*
X762700Y336100D02*
Y349167D01*
X762900Y336900D02*
Y348767D01*
X763100Y337700D02*
Y348367D01*
X763300Y338700D02*
Y347967D01*
X763500Y339500D02*
Y347567D01*
X763700Y340500D02*
Y347167D01*
X763900Y341700D02*
Y346367D01*
X764100Y343500D02*
Y345167D01*
X756100Y356100D02*
Y359767D01*
Y347100D02*
Y352367D01*
X756300Y347300D02*
Y352367D01*
X756500Y347500D02*
Y352367D01*
X763500Y365700D02*
Y366567D01*
X763700Y365700D02*
Y366567D01*
X763900Y365700D02*
Y366567D01*
X764100Y365700D02*
Y366567D01*
X764300Y365700D02*
Y366567D01*
X764500Y365700D02*
Y366767D01*
X764700Y365700D02*
Y366767D01*
X764900Y365700D02*
Y366767D01*
X765100Y365700D02*
Y366767D01*
X765500Y365700D02*
Y366767D01*
X765700Y365700D02*
Y366767D01*
X765300Y365700D02*
Y366767D01*
X765900Y365700D02*
Y366767D01*
X756100Y364900D02*
Y365967D01*
X756300Y364900D02*
Y365967D01*
X756500Y364900D02*
Y365967D01*
X756700Y364900D02*
Y365967D01*
X756900Y364900D02*
Y365967D01*
X757100Y365100D02*
Y365967D01*
X757300Y365100D02*
Y365967D01*
X757700Y365100D02*
Y366167D01*
X757900Y365100D02*
Y366167D01*
X758100Y365100D02*
Y366167D01*
X757500Y365100D02*
Y366167D01*
X759900Y317100D02*
Y351567D01*
X760100Y320700D02*
Y351367D01*
X760300Y323300D02*
Y351367D01*
X760500Y325100D02*
Y351167D01*
X760700Y326700D02*
Y350967D01*
X760900Y328100D02*
Y350967D01*
X761100Y329300D02*
Y350767D01*
X761300Y330300D02*
Y350567D01*
X761700Y332300D02*
Y350167D01*
X761900Y333100D02*
Y349967D01*
X762100Y333900D02*
Y349767D01*
X761500Y331300D02*
Y350367D01*
X767500Y365700D02*
Y366767D01*
X767700Y365700D02*
Y366767D01*
X767900Y365700D02*
Y366767D01*
X768100Y365700D02*
Y366767D01*
X768300Y365700D02*
Y366767D01*
X768500Y365700D02*
Y366767D01*
X768700Y365700D02*
Y366767D01*
X768900Y365700D02*
Y366767D01*
X769100Y365700D02*
Y366767D01*
X769500Y365300D02*
Y366767D01*
X769700Y365100D02*
Y366767D01*
X769300Y365700D02*
Y366767D01*
X769900Y364700D02*
Y366767D01*
X760700Y356500D02*
Y358967D01*
X760900Y356500D02*
Y356567D01*
X761500Y357500D02*
Y357767D01*
X761700Y357100D02*
Y357767D01*
X761900Y356900D02*
Y357767D01*
X762100Y356900D02*
Y357767D01*
X762300Y356700D02*
Y357367D01*
X762700Y356500D02*
Y357167D01*
X762900Y356500D02*
Y356967D01*
X763100Y356500D02*
Y356967D01*
X763300Y356500D02*
Y357167D01*
X763500Y356500D02*
Y357167D01*
X763700Y356700D02*
Y357567D01*
X762500Y356700D02*
Y357167D01*
X770100Y364300D02*
Y366367D01*
X770300Y363900D02*
Y365967D01*
X770500Y363700D02*
Y365567D01*
X770700Y363300D02*
Y365367D01*
X770900Y362900D02*
Y364967D01*
X771100Y362500D02*
Y364567D01*
X771300Y362100D02*
Y364367D01*
X771700Y361500D02*
Y363567D01*
X771900Y361100D02*
Y363167D01*
X772100Y360700D02*
Y362767D01*
X772300Y360300D02*
Y362567D01*
X771500Y361900D02*
Y363967D01*
X772500Y359900D02*
Y362167D01*
X772700Y359500D02*
Y361767D01*
X772900Y359100D02*
Y361367D01*
X773100Y358700D02*
Y360967D01*
X773300Y358300D02*
Y360567D01*
X773500Y357900D02*
Y360167D01*
X773700Y357500D02*
Y359767D01*
X773900Y357100D02*
Y359367D01*
X774300Y356100D02*
Y358567D01*
X774500Y355700D02*
Y358167D01*
X774100Y356700D02*
Y358967D01*
X774700Y355300D02*
Y357767D01*
X766100Y365700D02*
Y366767D01*
X766300Y365700D02*
Y366767D01*
X766500Y365700D02*
Y366767D01*
X766900Y365700D02*
Y366767D01*
X767100Y365700D02*
Y366767D01*
X767300Y365700D02*
Y366767D01*
X766700Y365700D02*
Y366767D01*
X774900Y354900D02*
Y357367D01*
X775100Y354500D02*
Y356967D01*
X775300Y353900D02*
Y356567D01*
X775500Y353500D02*
Y355967D01*
X775700Y353100D02*
Y355567D01*
X775900Y352500D02*
Y355167D01*
X776100Y352100D02*
Y354767D01*
X776300Y351500D02*
Y354167D01*
X776500Y351100D02*
Y353767D01*
X776900Y349900D02*
Y352767D01*
X777100Y349500D02*
Y352367D01*
X776700Y350500D02*
Y353367D01*
X777300Y348900D02*
Y351767D01*
X777500Y348500D02*
Y351367D01*
X777700Y347900D02*
Y350767D01*
X777900Y347300D02*
Y350167D01*
X778100Y346700D02*
Y349767D01*
X778300Y346100D02*
Y349167D01*
X778500Y345500D02*
Y348767D01*
X778700Y344900D02*
Y348167D01*
X778900Y344300D02*
Y347567D01*
X779100Y343700D02*
Y346967D01*
X779500Y342300D02*
Y345767D01*
X779700Y341700D02*
Y345167D01*
X779300Y342900D02*
Y346367D01*
X779900Y340900D02*
Y344567D01*
X759100Y269100D02*
Y351767D01*
X759300Y269100D02*
Y351767D01*
X759500Y269100D02*
Y351767D01*
X756700Y281100D02*
Y352367D01*
X756900Y268500D02*
Y352367D01*
X757100Y268500D02*
Y352367D01*
X757500Y268700D02*
Y352367D01*
X757700Y268700D02*
Y352167D01*
X757900Y268700D02*
Y352167D01*
X758300Y268700D02*
Y352167D01*
X758500Y268900D02*
Y351967D01*
X758700Y268900D02*
Y351967D01*
X757300Y268700D02*
Y352367D01*
X758100Y268700D02*
Y352167D01*
X758900Y268900D02*
Y351967D01*
X759700Y269300D02*
Y351567D01*
X743100Y352900D02*
Y354167D01*
X743300Y353500D02*
Y354167D01*
X743500Y356900D02*
Y357567D01*
Y353700D02*
Y354167D01*
X743700Y356500D02*
Y357567D01*
Y353700D02*
Y354367D01*
X743900Y355700D02*
Y357367D01*
Y353700D02*
Y354767D01*
X744100Y353900D02*
Y357167D01*
X743300Y357100D02*
Y357767D01*
X743100Y339700D02*
Y350167D01*
X743300Y339700D02*
Y350167D01*
X743500Y339900D02*
Y350167D01*
X743700Y339900D02*
Y350367D01*
X744100Y340300D02*
Y350367D01*
X743900Y340100D02*
Y350367D01*
X748100Y354900D02*
Y358167D01*
Y340300D02*
Y351367D01*
X748700Y355900D02*
Y356967D01*
Y340300D02*
Y351567D01*
X748900Y340300D02*
Y351567D01*
X749100Y340300D02*
Y351767D01*
X749300Y358100D02*
Y359167D01*
Y340500D02*
Y351767D01*
X749500Y356900D02*
Y359167D01*
Y340500D02*
Y351767D01*
X749700Y340500D02*
Y351767D01*
X749900Y355100D02*
Y357967D01*
Y340700D02*
Y351767D01*
X749700Y355700D02*
Y359167D01*
X745300Y362900D02*
Y363967D01*
Y357300D02*
Y357567D01*
X745500Y362900D02*
Y363967D01*
Y357300D02*
Y357967D01*
X745700Y354500D02*
Y356367D01*
X745900Y363100D02*
Y364167D01*
Y357300D02*
Y358567D01*
Y354300D02*
Y356367D01*
X746100Y363100D02*
Y364167D01*
Y357900D02*
Y358567D01*
Y354500D02*
Y356567D01*
X746300Y363100D02*
Y364167D01*
Y358100D02*
Y358567D01*
X744700Y362700D02*
Y363767D01*
X744900Y362900D02*
Y363967D01*
X745100Y362900D02*
Y363967D01*
X744700Y354700D02*
Y356167D01*
X750900Y364100D02*
Y365167D01*
X751100Y364100D02*
Y365167D01*
X751300Y364100D02*
Y365167D01*
X751500Y364100D02*
Y365167D01*
X751700Y364300D02*
Y365167D01*
X751900Y364300D02*
Y365167D01*
X752100Y364300D02*
Y365367D01*
X752300Y364300D02*
Y365367D01*
X752500Y364300D02*
Y365367D01*
X752900Y364500D02*
Y365367D01*
X753100Y364500D02*
Y365367D01*
X752700Y364300D02*
Y365367D01*
X753300Y364500D02*
Y365567D01*
X750100Y355100D02*
Y356767D01*
Y340900D02*
Y351967D01*
X750300Y355100D02*
Y356967D01*
Y341100D02*
Y351967D01*
X750500Y355300D02*
Y357367D01*
Y341300D02*
Y351967D01*
X750700Y355700D02*
Y357767D01*
Y341500D02*
Y351967D01*
X750900Y356100D02*
Y358367D01*
Y341900D02*
Y351967D01*
X751100Y344300D02*
Y352167D01*
Y342500D02*
Y343567D01*
Y356700D02*
Y358767D01*
X751300Y357300D02*
Y359367D01*
Y344300D02*
Y352167D01*
X751500Y357700D02*
Y359567D01*
Y344500D02*
Y352167D01*
X751700Y344700D02*
Y352167D01*
X751900Y357500D02*
Y359567D01*
X752100Y356300D02*
Y359567D01*
Y344900D02*
Y352167D01*
X751900Y344700D02*
Y352167D01*
X751700Y358300D02*
Y359567D01*
X752300Y355500D02*
Y359167D01*
Y344900D02*
Y352367D01*
X752500Y355500D02*
Y357767D01*
Y345100D02*
Y352367D01*
X752700Y355500D02*
Y356567D01*
Y345300D02*
Y352367D01*
X752900Y345300D02*
Y352367D01*
X753100Y345500D02*
Y352367D01*
X753300Y345500D02*
Y352367D01*
X753500Y357100D02*
Y358967D01*
X753700Y345700D02*
Y352367D01*
X753500Y345700D02*
Y352367D01*
X753900Y345900D02*
Y352367D01*
X753500Y364500D02*
Y365567D01*
X753700Y364500D02*
Y365567D01*
X753900Y364500D02*
Y365567D01*
X754100Y364500D02*
Y365567D01*
X754300Y364700D02*
Y365567D01*
X754500Y364700D02*
Y365767D01*
X754700Y364700D02*
Y365767D01*
X754900Y364700D02*
Y365767D01*
X755100Y364700D02*
Y365767D01*
X755300Y364700D02*
Y365767D01*
X755500Y364900D02*
Y365767D01*
X755700Y364900D02*
Y365767D01*
X755900Y364900D02*
Y365967D01*
X753700Y356700D02*
Y359367D01*
X753900Y356500D02*
Y359567D01*
X754100Y356300D02*
Y359767D01*
Y346100D02*
Y352367D01*
X754300Y359100D02*
Y359767D01*
Y356300D02*
Y357167D01*
X754500Y359300D02*
Y359967D01*
Y356100D02*
Y356767D01*
Y346300D02*
Y352567D01*
X754700Y359500D02*
Y359967D01*
Y355900D02*
Y356567D01*
X754300Y346100D02*
Y352567D01*
X754700Y346300D02*
Y352567D01*
X754900Y359500D02*
Y359967D01*
Y355900D02*
Y356367D01*
X755100Y359500D02*
Y359967D01*
Y355900D02*
Y356367D01*
Y346500D02*
Y352567D01*
X755300Y359500D02*
Y359967D01*
Y355900D02*
Y356367D01*
X754900Y346500D02*
Y352567D01*
X755300Y346700D02*
Y352567D01*
X755500Y359300D02*
Y359967D01*
Y355900D02*
Y356367D01*
Y346900D02*
Y352567D01*
X755700Y359100D02*
Y359967D01*
Y355900D02*
Y356567D01*
Y346900D02*
Y352567D01*
X755900Y358700D02*
Y359767D01*
Y356100D02*
Y356767D01*
Y347100D02*
Y352367D01*
X756300Y356300D02*
Y359567D01*
X756500Y356500D02*
Y359367D01*
X756700Y356700D02*
Y358967D01*
X756900Y357100D02*
Y358367D01*
X757700Y357500D02*
Y360367D01*
X757900Y356300D02*
Y360367D01*
X758100Y356300D02*
Y360367D01*
X758500Y358100D02*
Y358567D01*
Y356300D02*
Y357567D01*
X758300Y356300D02*
Y360167D01*
X758700Y358100D02*
Y358567D01*
X757500Y360100D02*
Y360167D01*
X758300Y365100D02*
Y366167D01*
X758500Y365100D02*
Y366167D01*
X758700Y365100D02*
Y366167D01*
X758900Y365300D02*
Y366167D01*
X759100Y365300D02*
Y366167D01*
X759300Y365300D02*
Y366367D01*
X759500Y365300D02*
Y366367D01*
X759700Y365300D02*
Y366367D01*
X759900Y365300D02*
Y366367D01*
X760300Y365300D02*
Y366367D01*
X760500Y365300D02*
Y366367D01*
X760100Y365300D02*
Y366367D01*
X760700Y365300D02*
Y366367D01*
X780100Y340300D02*
Y343967D01*
X780300Y339500D02*
Y343167D01*
X780500Y338700D02*
Y342567D01*
X780700Y337900D02*
Y341967D01*
X698500Y340100D02*
Y341567D01*
X698700Y340300D02*
Y341567D01*
X698900Y340500D02*
Y341767D01*
X699100Y340700D02*
Y341967D01*
X699500Y340900D02*
Y342367D01*
X699700Y341100D02*
Y342367D01*
X699300Y340700D02*
Y342167D01*
X699900Y341300D02*
Y342567D01*
X700100Y341500D02*
Y342767D01*
X700300Y341500D02*
Y342967D01*
X700500Y341700D02*
Y343167D01*
X700700Y341900D02*
Y343167D01*
X700900Y342100D02*
Y343367D01*
X701100Y342100D02*
Y343567D01*
X701300Y342300D02*
Y343767D01*
X701500Y342500D02*
Y343767D01*
X701700Y342700D02*
Y343967D01*
X702100Y342900D02*
Y344367D01*
X702300Y343100D02*
Y344367D01*
X701900Y342900D02*
Y344167D01*
X702500Y343300D02*
Y344567D01*
X702700Y343500D02*
Y344767D01*
X702900Y343500D02*
Y344967D01*
X703100Y343700D02*
Y344967D01*
X703300Y343900D02*
Y345167D01*
X703500Y344100D02*
Y345367D01*
X703700Y344100D02*
Y345367D01*
X703900Y344300D02*
Y345567D01*
X704100Y344500D02*
Y345767D01*
X704300Y344500D02*
Y345967D01*
X704500Y344700D02*
Y345967D01*
X704700Y344900D02*
Y346167D01*
X704900Y345100D02*
Y346367D01*
X721100Y349100D02*
Y349567D01*
X721300Y348700D02*
Y349767D01*
X721500Y348300D02*
Y349767D01*
X721700Y347900D02*
Y349567D01*
X721900Y347500D02*
Y349167D01*
X722300Y346900D02*
Y348367D01*
X722500Y346500D02*
Y347967D01*
X722100Y347100D02*
Y348767D01*
X722700Y350100D02*
Y350367D01*
X721300Y354700D02*
Y355767D01*
X721500Y354700D02*
Y355767D01*
X721700Y354900D02*
Y355967D01*
X721900Y354900D02*
Y355967D01*
X722100Y354900D02*
Y356167D01*
X722300Y355100D02*
Y356167D01*
X722500Y355100D02*
Y356367D01*
X722700Y355300D02*
Y356367D01*
X722900Y355300D02*
Y356567D01*
X723300Y355500D02*
Y356767D01*
X723500Y355700D02*
Y356767D01*
X723100Y355500D02*
Y356567D01*
X723700Y355700D02*
Y356767D01*
X722700Y346100D02*
Y347567D01*
X722900Y349700D02*
Y350567D01*
Y345900D02*
Y347167D01*
X723100Y349300D02*
Y350567D01*
Y346100D02*
Y346767D01*
X723300Y348900D02*
Y349967D01*
Y346100D02*
Y346367D01*
X723500Y348500D02*
Y349567D01*
X723700Y348100D02*
Y349167D01*
X724100Y347300D02*
Y348367D01*
X724300Y346900D02*
Y348167D01*
X723900Y347700D02*
Y348767D01*
X724500Y346700D02*
Y350367D01*
X723900Y355900D02*
Y356967D01*
X724100Y355900D02*
Y356967D01*
X724300Y355900D02*
Y357167D01*
X724500Y356100D02*
Y357167D01*
X724700Y356100D02*
Y357367D01*
X724900Y356300D02*
Y357367D01*
X725100Y356300D02*
Y357367D01*
X725300Y356500D02*
Y357567D01*
X725500Y356500D02*
Y357567D01*
X725900Y356700D02*
Y357767D01*
X726100Y356700D02*
Y357967D01*
X725700Y356500D02*
Y357767D01*
X726300Y356900D02*
Y357967D01*
X724700Y346700D02*
Y351367D01*
X724900Y346900D02*
Y351367D01*
X725100Y347300D02*
Y351567D01*
X725300Y349700D02*
Y351567D01*
X725500Y350100D02*
Y351367D01*
X725700Y349700D02*
Y350967D01*
X726100Y348900D02*
Y350167D01*
X726500Y351700D02*
Y352167D01*
X726700Y351100D02*
Y352167D01*
X726900Y350700D02*
Y352167D01*
X727100Y350300D02*
Y351767D01*
X725900Y349300D02*
Y350567D01*
X727300Y349900D02*
Y351367D01*
X722300Y327500D02*
Y341567D01*
X722500Y327700D02*
Y341567D01*
X722700Y327500D02*
Y341767D01*
X722900Y327300D02*
Y341767D01*
X723300Y326900D02*
Y341967D01*
X723500Y326900D02*
Y342167D01*
X723700Y326700D02*
Y342167D01*
X723100Y327100D02*
Y341967D01*
X725900Y326700D02*
Y343367D01*
X726100Y326900D02*
Y343367D01*
X726300Y326900D02*
Y343567D01*
X726500Y327100D02*
Y343567D01*
X726700Y327300D02*
Y343767D01*
X726900Y327500D02*
Y343767D01*
X727100Y327700D02*
Y343967D01*
X727300Y328100D02*
Y343967D01*
X727500Y330500D02*
Y344167D01*
X727700Y330700D02*
Y344167D01*
X727900Y330900D02*
Y344367D01*
X728100Y330900D02*
Y344367D01*
X726300Y348300D02*
Y349767D01*
X726500Y347900D02*
Y349367D01*
X726700Y347900D02*
Y348967D01*
X726900Y347900D02*
Y348567D01*
X727100Y348100D02*
Y348167D01*
X727500Y349500D02*
Y350967D01*
X727700Y349100D02*
Y350367D01*
X727900Y348900D02*
Y349967D01*
X728100Y348900D02*
Y349567D01*
X728300Y348700D02*
Y349367D01*
X726500Y356900D02*
Y357967D01*
X726700Y357100D02*
Y358167D01*
X726900Y357100D02*
Y358167D01*
X727100Y357100D02*
Y358367D01*
X727300Y357300D02*
Y358367D01*
X727500Y357300D02*
Y358367D01*
X727700Y357500D02*
Y358567D01*
X727900Y357500D02*
Y358567D01*
X728100Y357500D02*
Y358767D01*
X728500Y357700D02*
Y358767D01*
X728700Y357900D02*
Y358967D01*
X728300Y357700D02*
Y358767D01*
X728900Y357900D02*
Y358967D01*
X728300Y331100D02*
Y344567D01*
X728500Y352500D02*
Y352967D01*
Y348700D02*
Y349367D01*
Y331100D02*
Y344567D01*
X728700Y352100D02*
Y353167D01*
Y348700D02*
Y349367D01*
Y331300D02*
Y344767D01*
X728900Y351700D02*
Y353167D01*
Y348700D02*
Y349367D01*
X729100Y351100D02*
Y352967D01*
Y348900D02*
Y349367D01*
X728900Y331500D02*
Y344767D01*
X729100Y331500D02*
Y344967D01*
M02*
