G04*
G04 #@! TF.GenerationSoftware,Altium Limited,Altium Designer,22.0.2 (36)*
G04*
G04 Layer_Color=2752767*
%FSLAX25Y25*%
%MOIN*%
G70*
G04*
G04 #@! TF.SameCoordinates,57F28D8D-3986-4FB2-A301-66B114CCE67D*
G04*
G04*
G04 #@! TF.FilePolarity,Positive*
G04*
G01*
G75*
%ADD10C,0.01000*%
%ADD11C,0.00200*%
%ADD12C,0.00267*%
%ADD13C,0.00133*%
D10*
X412000Y394500D02*
G03*
X401500Y383500I250J-10750D01*
G01*
X401497Y109712D02*
G03*
X412497Y99212I10750J250D01*
G01*
X776500Y99212D02*
G03*
X787000Y110212I-250J10750D01*
G01*
Y384000D02*
G03*
X776000Y394500I-10750J-250D01*
G01*
X664500D02*
X776000D01*
X412000D02*
X598000Y394500D01*
X664500Y369000D02*
Y394500D01*
X598000Y369000D02*
X664500D01*
X598000D02*
Y394500D01*
X787000Y110240D02*
Y384000D01*
X401497Y109712D02*
Y383496D01*
X412497Y99212D02*
X776126Y99212D01*
D11*
X531956Y366200D02*
Y367800D01*
X533556D01*
Y366200D01*
X531956D01*
X509200D02*
Y367800D01*
X510800D01*
Y366200D01*
X509200D01*
X503662Y364232D02*
X502862Y365832D01*
X504462D01*
X503662Y364232D01*
X539095D02*
X538295Y365832D01*
X539895D01*
X539095Y364232D01*
X513000Y128200D02*
X513400Y128600D01*
X513800D01*
X513400Y129000D01*
X513800Y129400D01*
X513400D01*
X513000Y129800D01*
X512600Y129400D01*
X512200D01*
X512600Y129000D01*
X512200Y128600D01*
X512600D01*
X513000Y128200D01*
X503000D02*
X503400Y128600D01*
X503800D01*
X503400Y129000D01*
X503800Y129400D01*
X503400D01*
X503000Y129800D01*
X502600Y129400D01*
X502200D01*
X502600Y129000D01*
X502200Y128600D01*
X502600D01*
X503000Y128200D01*
X493000D02*
X493400Y128600D01*
X493800D01*
X493400Y129000D01*
X493800Y129400D01*
X493400D01*
X493000Y129800D01*
X492600Y129400D01*
X492200D01*
X492600Y129000D01*
X492200Y128600D01*
X492600D01*
X493000Y128200D01*
X483000D02*
X483400Y128600D01*
X483800D01*
X483400Y129000D01*
X483800Y129400D01*
X483400D01*
X483000Y129800D01*
X482600Y129400D01*
X482200D01*
X482600Y129000D01*
X482200Y128600D01*
X482600D01*
X483000Y128200D01*
X407500Y311200D02*
X407900Y311600D01*
X408300D01*
X407900Y312000D01*
X408300Y312400D01*
X407900D01*
X407500Y312800D01*
X407100Y312400D01*
X406700D01*
X407100Y312000D01*
X406700Y311600D01*
X407100D01*
X407500Y311200D01*
Y301200D02*
X407900Y301600D01*
X408300D01*
X407900Y302000D01*
X408300Y302400D01*
X407900D01*
X407500Y302800D01*
X407100Y302400D01*
X406700D01*
X407100Y302000D01*
X406700Y301600D01*
X407100D01*
X407500Y301200D01*
Y291200D02*
X407900Y291600D01*
X408300D01*
X407900Y292000D01*
X408300Y292400D01*
X407900D01*
X407500Y292800D01*
X407100Y292400D01*
X406700D01*
X407100Y292000D01*
X406700Y291600D01*
X407100D01*
X407500Y291200D01*
Y281200D02*
X407900Y281600D01*
X408300D01*
X407900Y282000D01*
X408300Y282400D01*
X407900D01*
X407500Y282800D01*
X407100Y282400D01*
X406700D01*
X407100Y282000D01*
X406700Y281600D01*
X407100D01*
X407500Y281200D01*
Y271200D02*
X407900Y271600D01*
X408300D01*
X407900Y272000D01*
X408300Y272400D01*
X407900D01*
X407500Y272800D01*
X407100Y272400D01*
X406700D01*
X407100Y272000D01*
X406700Y271600D01*
X407100D01*
X407500Y271200D01*
Y261200D02*
X407900Y261600D01*
X408300D01*
X407900Y262000D01*
X408300Y262400D01*
X407900D01*
X407500Y262800D01*
X407100Y262400D01*
X406700D01*
X407100Y262000D01*
X406700Y261600D01*
X407100D01*
X407500Y261200D01*
Y251200D02*
X407900Y251600D01*
X408300D01*
X407900Y252000D01*
X408300Y252400D01*
X407900D01*
X407500Y252800D01*
X407100Y252400D01*
X406700D01*
X407100Y252000D01*
X406700Y251600D01*
X407100D01*
X407500Y251200D01*
Y241200D02*
X407900Y241600D01*
X408300D01*
X407900Y242000D01*
X408300Y242400D01*
X407900D01*
X407500Y242800D01*
X407100Y242400D01*
X406700D01*
X407100Y242000D01*
X406700Y241600D01*
X407100D01*
X407500Y241200D01*
Y231200D02*
X407900Y231600D01*
X408300D01*
X407900Y232000D01*
X408300Y232400D01*
X407900D01*
X407500Y232800D01*
X407100Y232400D01*
X406700D01*
X407100Y232000D01*
X406700Y231600D01*
X407100D01*
X407500Y231200D01*
Y221200D02*
X407900Y221600D01*
X408300D01*
X407900Y222000D01*
X408300Y222400D01*
X407900D01*
X407500Y222800D01*
X407100Y222400D01*
X406700D01*
X407100Y222000D01*
X406700Y221600D01*
X407100D01*
X407500Y221200D01*
Y211200D02*
X407900Y211600D01*
X408300D01*
X407900Y212000D01*
X408300Y212400D01*
X407900D01*
X407500Y212800D01*
X407100Y212400D01*
X406700D01*
X407100Y212000D01*
X406700Y211600D01*
X407100D01*
X407500Y211200D01*
Y201200D02*
X407900Y201600D01*
X408300D01*
X407900Y202000D01*
X408300Y202400D01*
X407900D01*
X407500Y202800D01*
X407100Y202400D01*
X406700D01*
X407100Y202000D01*
X406700Y201600D01*
X407100D01*
X407500Y201200D01*
X668700Y141200D02*
X669100Y142000D01*
X668700Y142800D01*
X669500Y142400D01*
X670300Y142800D01*
X669900Y142000D01*
X670300Y141200D01*
X669500Y141600D01*
X668700Y141200D01*
Y149074D02*
X669100Y149874D01*
X668700Y150674D01*
X669500Y150274D01*
X670300Y150674D01*
X669900Y149874D01*
X670300Y149074D01*
X669500Y149474D01*
X668700Y149074D01*
X632700Y152637D02*
X633100Y153437D01*
X632700Y154237D01*
X633500Y153837D01*
X634300Y154237D01*
X633900Y153437D01*
X634300Y152637D01*
X633500Y153037D01*
X632700Y152637D01*
Y144763D02*
X633100Y145563D01*
X632700Y146363D01*
X633500Y145963D01*
X634300Y146363D01*
X633900Y145563D01*
X634300Y144763D01*
X633500Y145163D01*
X632700Y144763D01*
X500500Y314200D02*
X500900Y314600D01*
X501300D01*
X500900Y315000D01*
X501300Y315400D01*
X500900D01*
X500500Y315800D01*
X500100Y315400D01*
X499700D01*
X500100Y315000D01*
X499700Y314600D01*
X500100D01*
X500500Y314200D01*
X510500D02*
X510900Y314600D01*
X511300D01*
X510900Y315000D01*
X511300Y315400D01*
X510900D01*
X510500Y315800D01*
X510100Y315400D01*
X509700D01*
X510100Y315000D01*
X509700Y314600D01*
X510100D01*
X510500Y314200D01*
X520500D02*
X520900Y314600D01*
X521300D01*
X520900Y315000D01*
X521300Y315400D01*
X520900D01*
X520500Y315800D01*
X520100Y315400D01*
X519700D01*
X520100Y315000D01*
X519700Y314600D01*
X520100D01*
X520500Y314200D01*
X600101Y154508D02*
Y154108D01*
X600901D01*
Y154508D01*
X601300D01*
Y155308D01*
X600901D01*
Y155708D01*
X600101D01*
Y155308D01*
X599700D01*
Y154508D01*
X600101D01*
X618605Y142699D02*
Y142299D01*
X619405D01*
Y142699D01*
X619805D01*
Y143499D01*
X619405D01*
Y143899D01*
X618605D01*
Y143499D01*
X618205D01*
Y142699D01*
X618605D01*
X600100Y130100D02*
Y129700D01*
X600900D01*
Y130100D01*
X601300D01*
Y130900D01*
X600900D01*
Y131300D01*
X600100D01*
Y130900D01*
X599700D01*
Y130100D01*
X600100D01*
X666704Y112700D02*
X667104D01*
X667504Y113100D01*
X667904Y112700D01*
X668304D01*
Y113100D01*
X667904Y113500D01*
X668304Y113900D01*
Y114300D01*
X667904D01*
X667504Y113900D01*
X667104Y114300D01*
X666704D01*
Y113900D01*
X667104Y113500D01*
X666704Y113100D01*
Y112700D01*
X629696D02*
X630096D01*
X630496Y113100D01*
X630896Y112700D01*
X631296D01*
Y113100D01*
X630896Y113500D01*
X631296Y113900D01*
Y114300D01*
X630896D01*
X630496Y113900D01*
X630096Y114300D01*
X629696D01*
Y113900D01*
X630096Y113500D01*
X629696Y113100D01*
Y112700D01*
X648200D02*
X648600D01*
X649000Y113100D01*
X649400Y112700D01*
X649800D01*
Y113100D01*
X649400Y113500D01*
X649800Y113900D01*
Y114300D01*
X649400D01*
X649000Y113900D01*
X648600Y114300D01*
X648200D01*
Y113900D01*
X648600Y113500D01*
X648200Y113100D01*
Y112700D01*
X534098Y284700D02*
X534498Y285100D01*
X534898D01*
X534498Y285500D01*
X534898Y285900D01*
X534498D01*
X534098Y286300D01*
X533698Y285900D01*
X533298D01*
X533698Y285500D01*
X533298Y285100D01*
X533698D01*
X534098Y284700D01*
X544098D02*
X544498Y285100D01*
X544898D01*
X544498Y285500D01*
X544898Y285900D01*
X544498D01*
X544098Y286300D01*
X543698Y285900D01*
X543298D01*
X543698Y285500D01*
X543298Y285100D01*
X543698D01*
X544098Y284700D01*
X554098D02*
X554498Y285100D01*
X554898D01*
X554498Y285500D01*
X554898Y285900D01*
X554498D01*
X554098Y286300D01*
X553698Y285900D01*
X553298D01*
X553698Y285500D01*
X553298Y285100D01*
X553698D01*
X554098Y284700D01*
X564098D02*
X564498Y285100D01*
X564898D01*
X564498Y285500D01*
X564898Y285900D01*
X564498D01*
X564098Y286300D01*
X563698Y285900D01*
X563298D01*
X563698Y285500D01*
X563298Y285100D01*
X563698D01*
X564098Y284700D01*
X510000D02*
X510400Y285100D01*
X510800D01*
X510400Y285500D01*
X510800Y285900D01*
X510400D01*
X510000Y286300D01*
X509600Y285900D01*
X509200D01*
X509600Y285500D01*
X509200Y285100D01*
X509600D01*
X510000Y284700D01*
X500000D02*
X500400Y285100D01*
X500800D01*
X500400Y285500D01*
X500800Y285900D01*
X500400D01*
X500000Y286300D01*
X499600Y285900D01*
X499200D01*
X499600Y285500D01*
X499200Y285100D01*
X499600D01*
X500000Y284700D01*
X490000D02*
X490400Y285100D01*
X490800D01*
X490400Y285500D01*
X490800Y285900D01*
X490400D01*
X490000Y286300D01*
X489600Y285900D01*
X489200D01*
X489600Y285500D01*
X489200Y285100D01*
X489600D01*
X490000Y284700D01*
X480000D02*
X480400Y285100D01*
X480800D01*
X480400Y285500D01*
X480800Y285900D01*
X480400D01*
X480000Y286300D01*
X479600Y285900D01*
X479200D01*
X479600Y285500D01*
X479200Y285100D01*
X479600D01*
X480000Y284700D01*
X578200Y376000D02*
X579000Y376800D01*
X579800Y376000D01*
X579000Y375200D01*
X578200Y376000D01*
X559200Y250200D02*
Y251800D01*
X560800D01*
Y250200D01*
X559200D01*
X559600Y250600D02*
Y251400D01*
X560400D01*
Y250600D01*
X559600D01*
X555700Y250200D02*
Y251800D01*
X557300D01*
Y250200D01*
X555700D01*
X556100Y250600D02*
Y251400D01*
X556900D01*
Y250600D01*
X556100D01*
X559200Y253200D02*
Y254800D01*
X560800D01*
Y253200D01*
X559200D01*
X559600Y253600D02*
Y254400D01*
X560400D01*
Y253600D01*
X559600D01*
X555700Y253200D02*
Y254800D01*
X557300D01*
Y253200D01*
X555700D01*
X556100Y253600D02*
Y254400D01*
X556900D01*
Y253600D01*
X556100D01*
X517700Y205000D02*
X518500Y205800D01*
X519300Y205000D01*
X518500Y204200D01*
X517700Y205000D01*
X556200Y205500D02*
X557000Y206300D01*
X557800Y205500D01*
X557000Y204700D01*
X556200Y205500D01*
X564200Y190000D02*
X565000Y190800D01*
X565800Y190000D01*
X565000Y189200D01*
X564200Y190000D01*
X532200D02*
X533000Y190800D01*
X533800Y190000D01*
X533000Y189200D01*
X532200Y190000D01*
X565700Y163500D02*
X566500Y164300D01*
X567300Y163500D01*
X566500Y162700D01*
X565700Y163500D01*
X533200Y163000D02*
X534000Y163800D01*
X534800Y163000D01*
X534000Y162200D01*
X533200Y163000D01*
X546700Y113000D02*
X547500Y113800D01*
X548300Y113000D01*
X547500Y112200D01*
X546700Y113000D01*
X541200Y112500D02*
X542000Y113300D01*
X542800Y112500D01*
X542000Y111700D01*
X541200Y112500D01*
X475200Y142000D02*
X476000Y142800D01*
X476800Y142000D01*
X476000Y141200D01*
X475200Y142000D01*
X456472Y212228D02*
X457272Y213028D01*
X458072Y212228D01*
X457272Y211428D01*
X456472Y212228D01*
X511200Y201500D02*
X512000Y202300D01*
X512800Y201500D01*
X512000Y200700D01*
X511200Y201500D01*
X525700Y220500D02*
X526500Y221300D01*
X527300Y220500D01*
X526500Y219700D01*
X525700Y220500D01*
X524428Y240728D02*
X525228Y241528D01*
X526028Y240728D01*
X525228Y239928D01*
X524428Y240728D01*
X509700Y268000D02*
X510500Y268800D01*
X511300Y268000D01*
X510500Y267200D01*
X509700Y268000D01*
X463200Y267000D02*
X464000Y267800D01*
X464800Y267000D01*
X464000Y266200D01*
X463200Y267000D01*
X500700Y326500D02*
X501500Y327300D01*
X502300Y326500D01*
X501500Y325700D01*
X500700Y326500D01*
X534700Y325000D02*
X535500Y325800D01*
X536300Y325000D01*
X535500Y324200D01*
X534700Y325000D01*
X445900Y225000D02*
X446700Y225800D01*
X447500Y225000D01*
X446700Y224200D01*
X445900Y225000D01*
Y221000D02*
X446700Y221800D01*
X447500Y221000D01*
X446700Y220200D01*
X445900Y221000D01*
X445200Y234000D02*
X446000Y234800D01*
X446800Y234000D01*
X446000Y233200D01*
X445200Y234000D01*
X459700Y230000D02*
X460500Y230800D01*
X461300Y230000D01*
X460500Y229200D01*
X459700Y230000D01*
X444700Y229500D02*
X445500Y230300D01*
X446300Y229500D01*
X445500Y228700D01*
X444700Y229500D01*
X668800Y305500D02*
X669600Y306300D01*
X670400Y305500D01*
X669600Y304700D01*
X668800Y305500D01*
X672200Y322000D02*
X673000Y322800D01*
X673800Y322000D01*
X673000Y321200D01*
X672200Y322000D01*
X639200Y230500D02*
X640000Y231300D01*
X640800Y230500D01*
X640000Y229700D01*
X639200Y230500D01*
X578200Y290000D02*
X579000Y290800D01*
X579800Y290000D01*
X579000Y289200D01*
X578200Y290000D01*
X608700Y230500D02*
X609500Y231300D01*
X610300Y230500D01*
X609500Y229700D01*
X608700Y230500D01*
X487700Y137500D02*
X488500Y138300D01*
X489300Y137500D01*
X488500Y136700D01*
X487700Y137500D01*
X544700Y242000D02*
X545500Y242800D01*
X546300Y242000D01*
X545500Y241200D01*
X544700Y242000D01*
X543200Y252500D02*
X544000Y253300D01*
X544800Y252500D01*
X544000Y251700D01*
X543200Y252500D01*
X534700Y331500D02*
X535500Y332300D01*
X536300Y331500D01*
X535500Y330700D01*
X534700Y331500D01*
X555700Y365500D02*
X556500Y366300D01*
X557300Y365500D01*
X556500Y364700D01*
X555700Y365500D01*
X512700Y354500D02*
X513500Y355300D01*
X514300Y354500D01*
X513500Y353700D01*
X512700Y354500D01*
X557200Y305500D02*
X558000Y306300D01*
X558800Y305500D01*
X558000Y304700D01*
X557200Y305500D01*
X629145Y334416D02*
X629945Y335216D01*
X630745Y334416D01*
X629945Y333616D01*
X629145Y334416D01*
X633645D02*
X634445Y335216D01*
X635245Y334416D01*
X634445Y333616D01*
X633645Y334416D01*
X624645D02*
X625445Y335216D01*
X626245Y334416D01*
X625445Y333616D01*
X624645Y334416D01*
X629200Y331000D02*
X630000Y331800D01*
X630800Y331000D01*
X630000Y330200D01*
X629200Y331000D01*
X624700D02*
X625500Y331800D01*
X626300Y331000D01*
X625500Y330200D01*
X624700Y331000D01*
X633700D02*
X634500Y331800D01*
X635300Y331000D01*
X634500Y330200D01*
X633700Y331000D01*
Y338000D02*
X634500Y338800D01*
X635300Y338000D01*
X634500Y337200D01*
X633700Y338000D01*
X624700D02*
X625500Y338800D01*
X626300Y338000D01*
X625500Y337200D01*
X624700Y338000D01*
X629200D02*
X630000Y338800D01*
X630800Y338000D01*
X630000Y337200D01*
X629200Y338000D01*
X589700Y352600D02*
X590500Y353400D01*
X591300Y352600D01*
X590500Y351800D01*
X589700Y352600D01*
X576200Y335500D02*
X577000Y336300D01*
X577800Y335500D01*
X577000Y334700D01*
X576200Y335500D01*
X580200D02*
X581000Y336300D01*
X581800Y335500D01*
X581000Y334700D01*
X580200Y335500D01*
Y331500D02*
X581000Y332300D01*
X581800Y331500D01*
X581000Y330700D01*
X580200Y331500D01*
X576200D02*
X577000Y332300D01*
X577800Y331500D01*
X577000Y330700D01*
X576200Y331500D01*
X591159Y316459D02*
X591959Y317259D01*
X592759Y316459D01*
X591959Y315659D01*
X591159Y316459D01*
X584700Y315000D02*
X585500Y315800D01*
X586300Y315000D01*
X585500Y314200D01*
X584700Y315000D01*
X566700Y246500D02*
X567500Y247300D01*
X568300Y246500D01*
X567500Y245700D01*
X566700Y246500D01*
Y251000D02*
X567500Y251800D01*
X568300Y251000D01*
X567500Y250200D01*
X566700Y251000D01*
X572200Y246500D02*
X573000Y247300D01*
X573800Y246500D01*
X573000Y245700D01*
X572200Y246500D01*
Y251000D02*
X573000Y251800D01*
X573800Y251000D01*
X573000Y250200D01*
X572200Y251000D01*
X577700Y246500D02*
X578500Y247300D01*
X579300Y246500D01*
X578500Y245700D01*
X577700Y246500D01*
Y251000D02*
X578500Y251800D01*
X579300Y251000D01*
X578500Y250200D01*
X577700Y251000D01*
X612200Y209000D02*
X613000Y209800D01*
X613800Y209000D01*
X613000Y208200D01*
X612200Y209000D01*
X599700Y223500D02*
X600500Y224300D01*
X601300Y223500D01*
X600500Y222700D01*
X599700Y223500D01*
X577700Y224000D02*
X578500Y224800D01*
X579300Y224000D01*
X578500Y223200D01*
X577700Y224000D01*
X584200Y194000D02*
X585000Y194800D01*
X585800Y194000D01*
X585000Y193200D01*
X584200Y194000D01*
X555700Y199500D02*
X556500Y200300D01*
X557300Y199500D01*
X556500Y198700D01*
X555700Y199500D01*
X564700Y184000D02*
X565500Y184800D01*
X566300Y184000D01*
X565500Y183200D01*
X564700Y184000D01*
X576200Y170000D02*
X577000Y170800D01*
X577800Y170000D01*
X577000Y169200D01*
X576200Y170000D01*
X564200Y157000D02*
X565000Y157800D01*
X565800Y157000D01*
X565000Y156200D01*
X564200Y157000D01*
X549700Y145000D02*
X550500Y145800D01*
X551300Y145000D01*
X550500Y144200D01*
X549700Y145000D01*
X516200Y146000D02*
X517000Y146800D01*
X517800Y146000D01*
X517000Y145200D01*
X516200Y146000D01*
X532700Y157000D02*
X533500Y157800D01*
X534300Y157000D01*
X533500Y156200D01*
X532700Y157000D01*
X516200Y169500D02*
X517000Y170300D01*
X517800Y169500D01*
X517000Y168700D01*
X516200Y169500D01*
X532700Y184000D02*
X533500Y184800D01*
X534300Y184000D01*
X533500Y183200D01*
X532700Y184000D01*
X530700Y247000D02*
X531500Y247800D01*
X532300Y247000D01*
X531500Y246200D01*
X530700Y247000D01*
X520700Y241000D02*
X521500Y241800D01*
X522300Y241000D01*
X521500Y240200D01*
X520700Y241000D01*
X538700Y239500D02*
X539500Y240300D01*
X540300Y239500D01*
X539500Y238700D01*
X538700Y239500D01*
X542700Y234000D02*
X543500Y234800D01*
X544300Y234000D01*
X543500Y233200D01*
X542700Y234000D01*
X531200Y220000D02*
X532000Y220800D01*
X532800Y220000D01*
X532000Y219200D01*
X531200Y220000D01*
X534700Y216000D02*
X535500Y216800D01*
X536300Y216000D01*
X535500Y215200D01*
X534700Y216000D01*
X524972Y216728D02*
X525772Y217528D01*
X526572Y216728D01*
X525772Y215928D01*
X524972Y216728D01*
X503700Y197500D02*
X504500Y198300D01*
X505300Y197500D01*
X504500Y196700D01*
X503700Y197500D01*
X503200Y204500D02*
X504000Y205300D01*
X504800Y204500D01*
X504000Y203700D01*
X503200Y204500D01*
X508700Y264500D02*
X509500Y265300D01*
X510300Y264500D01*
X509500Y263700D01*
X508700Y264500D01*
X506200Y270500D02*
X507000Y271300D01*
X507800Y270500D01*
X507000Y269700D01*
X506200Y270500D01*
X481700Y274500D02*
X482500Y275300D01*
X483300Y274500D01*
X482500Y273700D01*
X481700Y274500D01*
X477700D02*
X478500Y275300D01*
X479300Y274500D01*
X478500Y273700D01*
X477700Y274500D01*
X582700Y376000D02*
X583500Y376800D01*
X584300Y376000D01*
X583500Y375200D01*
X582700Y376000D01*
X574200D02*
X575000Y376800D01*
X575800Y376000D01*
X575000Y375200D01*
X574200Y376000D01*
X582700Y380000D02*
X583500Y380800D01*
X584300Y380000D01*
X583500Y379200D01*
X582700Y380000D01*
X578200D02*
X579000Y380800D01*
X579800Y380000D01*
X579000Y379200D01*
X578200Y380000D01*
X574200D02*
X575000Y380800D01*
X575800Y380000D01*
X575000Y379200D01*
X574200Y380000D01*
X658356Y275047D02*
X659156Y275847D01*
X659956Y275047D01*
X659156Y274247D01*
X658356Y275047D01*
X654106D02*
X654906Y275847D01*
X655706Y275047D01*
X654906Y274247D01*
X654106Y275047D01*
X649856D02*
X650656Y275847D01*
X651456Y275047D01*
X650656Y274247D01*
X649856Y275047D01*
X658270Y278676D02*
X659070Y279476D01*
X659870Y278676D01*
X659070Y277876D01*
X658270Y278676D01*
X654020D02*
X654820Y279476D01*
X655620Y278676D01*
X654820Y277876D01*
X654020Y278676D01*
X649770D02*
X650570Y279476D01*
X651370Y278676D01*
X650570Y277876D01*
X649770Y278676D01*
X649700Y282500D02*
X650500Y283300D01*
X651300Y282500D01*
X650500Y281700D01*
X649700Y282500D01*
X653950D02*
X654750Y283300D01*
X655550Y282500D01*
X654750Y281700D01*
X653950Y282500D01*
X658200D02*
X659000Y283300D01*
X659800Y282500D01*
X659000Y281700D01*
X658200Y282500D01*
X485572Y266076D02*
X486372Y266876D01*
X487172Y266076D01*
X486372Y265276D01*
X485572Y266076D01*
X483086Y262613D02*
X483886Y263413D01*
X484687Y262613D01*
X483886Y261813D01*
X483086Y262613D01*
X487700Y263000D02*
X488500Y263800D01*
X489300Y263000D01*
X488500Y262200D01*
X487700Y263000D01*
X670700Y349000D02*
X671500Y349800D01*
X672300Y349000D01*
X671500Y348200D01*
X670700Y349000D01*
Y358000D02*
X671500Y358800D01*
X672300Y358000D01*
X671500Y357200D01*
X670700Y358000D01*
X492700Y264000D02*
X493500Y264800D01*
X494300Y264000D01*
X493500Y263200D01*
X492700Y264000D01*
X606700Y209000D02*
X607500Y209800D01*
X608300Y209000D01*
X607500Y208200D01*
X606700Y209000D01*
X463200Y233000D02*
X464000Y233800D01*
X464800Y233000D01*
X464000Y232200D01*
X463200Y233000D01*
X516200Y366500D02*
X517000Y367300D01*
X517800Y366500D01*
X517000Y365700D01*
X516200Y366500D01*
X521563Y366363D02*
X522363Y367163D01*
X523163Y366363D01*
X522363Y365563D01*
X521563Y366363D01*
X569200Y135500D02*
X570000Y136300D01*
X570800Y135500D01*
X570000Y134700D01*
X569200Y135500D01*
X566389Y323000D02*
X567189Y323800D01*
X567989Y323000D01*
X567189Y322200D01*
X566389Y323000D01*
X570389D02*
X571189Y323800D01*
X571989Y323000D01*
X571189Y322200D01*
X570389Y323000D01*
X561889Y330500D02*
X562689Y331300D01*
X563489Y330500D01*
X562689Y329700D01*
X561889Y330500D01*
X563889Y327500D02*
X564689Y328300D01*
X565489Y327500D01*
X564689Y326700D01*
X563889Y327500D01*
X570200Y263000D02*
X571000Y263800D01*
X571800Y263000D01*
X571000Y262200D01*
X570200Y263000D01*
X573200Y265000D02*
X574000Y265800D01*
X574800Y265000D01*
X574000Y264200D01*
X573200Y265000D01*
X565700Y256500D02*
X566500Y257300D01*
X567300Y256500D01*
X566500Y255700D01*
X565700Y256500D01*
Y260500D02*
X566500Y261300D01*
X567300Y260500D01*
X566500Y259700D01*
X565700Y260500D01*
X574688Y285488D02*
X575488Y286288D01*
X576288Y285488D01*
X575488Y284688D01*
X574688Y285488D01*
X546700Y327000D02*
X547500Y327800D01*
X548300Y327000D01*
X547500Y326200D01*
X546700Y327000D01*
X499200Y219500D02*
X500000Y220300D01*
X500800Y219500D01*
X500000Y218700D01*
X499200Y219500D01*
X495700D02*
X496500Y220300D01*
X497300Y219500D01*
X496500Y218700D01*
X495700Y219500D01*
X627700Y198000D02*
X628500Y198800D01*
X629300Y198000D01*
X628500Y197200D01*
X627700Y198000D01*
X633200Y205500D02*
X634000Y206300D01*
X634800Y205500D01*
X634000Y204700D01*
X633200Y205500D01*
X615459Y192740D02*
X616259Y193541D01*
X617060Y192740D01*
X616259Y191940D01*
X615459Y192740D01*
X626700Y258000D02*
X627500Y258800D01*
X628300Y258000D01*
X627500Y257200D01*
X626700Y258000D01*
Y254500D02*
X627500Y255300D01*
X628300Y254500D01*
X627500Y253700D01*
X626700Y254500D01*
X632200Y258000D02*
X633000Y258800D01*
X633800Y258000D01*
X633000Y257200D01*
X632200Y258000D01*
Y254500D02*
X633000Y255300D01*
X633800Y254500D01*
X633000Y253700D01*
X632200Y254500D01*
X641700D02*
X642500Y255300D01*
X643300Y254500D01*
X642500Y253700D01*
X641700Y254500D01*
X621248Y226952D02*
X622048Y227752D01*
X622848Y226952D01*
X622048Y226152D01*
X621248Y226952D01*
X627200Y232500D02*
X628000Y233300D01*
X628800Y232500D01*
X628000Y231700D01*
X627200Y232500D01*
X631700D02*
X632500Y233300D01*
X633300Y232500D01*
X632500Y231700D01*
X631700Y232500D01*
X635200Y230500D02*
X636000Y231300D01*
X636800Y230500D01*
X636000Y229700D01*
X635200Y230500D01*
X655200Y202500D02*
X656000Y203300D01*
X656800Y202500D01*
X656000Y201700D01*
X655200Y202500D01*
Y199000D02*
X656000Y199800D01*
X656800Y199000D01*
X656000Y198200D01*
X655200Y199000D01*
Y195500D02*
X656000Y196300D01*
X656800Y195500D01*
X656000Y194700D01*
X655200Y195500D01*
X651200D02*
X652000Y196300D01*
X652800Y195500D01*
X652000Y194700D01*
X651200Y195500D01*
Y199000D02*
X652000Y199800D01*
X652800Y199000D01*
X652000Y198200D01*
X651200Y199000D01*
Y202500D02*
X652000Y203300D01*
X652800Y202500D01*
X652000Y201700D01*
X651200Y202500D01*
X659700Y162500D02*
X660500Y163300D01*
X661300Y162500D01*
X660500Y161700D01*
X659700Y162500D01*
X655700D02*
X656500Y163300D01*
X657300Y162500D01*
X656500Y161700D01*
X655700Y162500D01*
X659700Y165500D02*
X660500Y166300D01*
X661300Y165500D01*
X660500Y164700D01*
X659700Y165500D01*
X655700D02*
X656500Y166300D01*
X657300Y165500D01*
X656500Y164700D01*
X655700Y165500D01*
X623200Y164799D02*
X624000Y165599D01*
X624800Y164799D01*
X624000Y163999D01*
X623200Y164799D01*
Y161699D02*
X624000Y162499D01*
X624800Y161699D01*
X624000Y160899D01*
X623200Y161699D01*
Y174100D02*
X624000Y174900D01*
X624800Y174100D01*
X624000Y173300D01*
X623200Y174100D01*
Y167900D02*
X624000Y168700D01*
X624800Y167900D01*
X624000Y167100D01*
X623200Y167900D01*
Y171000D02*
X624000Y171800D01*
X624800Y171000D01*
X624000Y170200D01*
X623200Y171000D01*
X619700Y161699D02*
X620500Y162499D01*
X621300Y161699D01*
X620500Y160899D01*
X619700Y161699D01*
X625700Y179500D02*
X626500Y180300D01*
X627300Y179500D01*
X626500Y178700D01*
X625700Y179500D01*
X628700Y181000D02*
X629500Y181800D01*
X630300Y181000D01*
X629500Y180200D01*
X628700Y181000D01*
Y184500D02*
X629500Y185300D01*
X630300Y184500D01*
X629500Y183700D01*
X628700Y184500D01*
Y187500D02*
X629500Y188300D01*
X630300Y187500D01*
X629500Y186700D01*
X628700Y187500D01*
X535700Y125500D02*
X536500Y126300D01*
X537300Y125500D01*
X536500Y124700D01*
X535700Y125500D01*
X530700D02*
X531500Y126300D01*
X532300Y125500D01*
X531500Y124700D01*
X530700Y125500D01*
X496200Y183500D02*
X497000Y184300D01*
X497800Y183500D01*
X497000Y182700D01*
X496200Y183500D01*
X491700D02*
X492500Y184300D01*
X493300Y183500D01*
X492500Y182700D01*
X491700Y183500D01*
D12*
X539895Y381370D02*
G03*
X539895Y381370I-800J0D01*
G01*
X504462D02*
G03*
X504462Y381370I-800J0D01*
G01*
X775985Y382701D02*
G03*
X775985Y382701I-800J0D01*
G01*
X775911Y111012D02*
G03*
X775911Y111012I-800J0D01*
G01*
X414166Y111044D02*
G03*
X414166Y111044I-800J0D01*
G01*
X414168Y382673D02*
G03*
X414168Y382673I-800J0D01*
G01*
D13*
X775585Y382701D02*
G03*
X775585Y382701I-400J0D01*
G01*
X775511Y111012D02*
G03*
X775511Y111012I-400J0D01*
G01*
X413766Y111044D02*
G03*
X413766Y111044I-400J0D01*
G01*
X413768Y382673D02*
G03*
X413768Y382673I-400J0D01*
G01*
M02*
