G04*
G04 #@! TF.GenerationSoftware,Altium Limited,Altium Designer,22.0.2 (36)*
G04*
G04 Layer_Physical_Order=2*
G04 Layer_Color=12105816*
%FSLAX25Y25*%
%MOIN*%
G70*
G04*
G04 #@! TF.SameCoordinates,7F160BED-0690-4144-9330-6DFC8CD618BD*
G04*
G04*
G04 #@! TF.FilePolarity,Positive*
G04*
G01*
G75*
%ADD65C,0.02953*%
%ADD66O,0.04724X0.07874*%
%ADD67O,0.04724X0.09055*%
%ADD68C,0.06693*%
%ADD69R,0.06693X0.06693*%
%ADD70R,0.06693X0.06693*%
%ADD71C,0.05906*%
%ADD72R,0.05906X0.05906*%
%ADD73O,0.17717X0.07874*%
%ADD74O,0.07874X0.17717*%
%ADD75C,0.07874*%
%ADD76C,0.15748*%
%ADD82C,0.02400*%
%ADD83C,0.01800*%
G36*
X777930Y393358D02*
X779170Y393057D01*
X780360Y392596D01*
X781479Y391984D01*
X782509Y391231D01*
X783432Y390350D01*
X784232Y389356D01*
X784896Y388266D01*
X785411Y387099D01*
X785770Y385875D01*
X785966Y384614D01*
X785981Y383988D01*
Y110212D01*
X785983Y110201D01*
X785981Y110189D01*
X785996Y109551D01*
X785858Y108282D01*
X785557Y107043D01*
X785096Y105853D01*
X784484Y104733D01*
X783731Y103703D01*
X782850Y102780D01*
X781856Y101980D01*
X780766Y101317D01*
X779599Y100801D01*
X778375Y100442D01*
X777114Y100246D01*
X776488Y100232D01*
X776126D01*
X412497Y100232D01*
X412485Y100230D01*
X412473Y100232D01*
X411835Y100217D01*
X410567Y100354D01*
X409327Y100655D01*
X408137Y101116D01*
X407017Y101728D01*
X405987Y102481D01*
X405064Y103362D01*
X404264Y104356D01*
X403601Y105446D01*
X403085Y106613D01*
X402727Y107837D01*
X402531Y109098D01*
X402516Y109724D01*
X402520Y383500D01*
X402517Y383512D01*
X402519Y383524D01*
X402504Y384161D01*
X402641Y385430D01*
X402943Y386670D01*
X403404Y387860D01*
X404016Y388979D01*
X404769Y390009D01*
X405650Y390932D01*
X406644Y391732D01*
X407734Y392396D01*
X408901Y392911D01*
X410125Y393270D01*
X411386Y393466D01*
X412012Y393480D01*
X596980Y393480D01*
Y369000D01*
X597058Y368610D01*
X597279Y368279D01*
X597610Y368058D01*
X598000Y367981D01*
X664500D01*
X664890Y368058D01*
X665221Y368279D01*
X665442Y368610D01*
X665520Y369000D01*
Y393480D01*
X776000D01*
X776012Y393483D01*
X776024Y393481D01*
X776661Y393496D01*
X777930Y393358D01*
D02*
G37*
%LPC*%
G36*
X579358Y381800D02*
X578642D01*
X577980Y381526D01*
X577474Y381020D01*
X577262Y380508D01*
X576738D01*
X576526Y381020D01*
X576020Y381526D01*
X575358Y381800D01*
X574642D01*
X573980Y381526D01*
X573474Y381020D01*
X573200Y380358D01*
Y379642D01*
X573474Y378980D01*
X573980Y378474D01*
X574492Y378262D01*
Y377738D01*
X573980Y377526D01*
X573474Y377020D01*
X573200Y376358D01*
Y375642D01*
X573474Y374980D01*
X573980Y374474D01*
X574642Y374200D01*
X575358D01*
X576020Y374474D01*
X576526Y374980D01*
X576738Y375492D01*
X577262D01*
X577474Y374980D01*
X577980Y374474D01*
X578642Y374200D01*
X579358D01*
X580020Y374474D01*
X580526Y374980D01*
X580800Y375642D01*
Y376358D01*
X580526Y377020D01*
X580020Y377526D01*
X579508Y377738D01*
Y378262D01*
X580020Y378474D01*
X580526Y378980D01*
X580800Y379642D01*
Y380358D01*
X580526Y381020D01*
X580020Y381526D01*
X579358Y381800D01*
D02*
G37*
G36*
X776020Y391175D02*
X774350D01*
X772713Y390849D01*
X771171Y390210D01*
X769783Y389283D01*
X768603Y388103D01*
X767675Y386715D01*
X767037Y385172D01*
X766711Y383535D01*
Y381866D01*
X767037Y380229D01*
X767675Y378687D01*
X768603Y377299D01*
X769783Y376118D01*
X771171Y375191D01*
X772713Y374552D01*
X774350Y374227D01*
X776020D01*
X777657Y374552D01*
X779199Y375191D01*
X780587Y376118D01*
X781767Y377299D01*
X782695Y378687D01*
X783333Y380229D01*
X783659Y381866D01*
Y383535D01*
X783333Y385172D01*
X782695Y386715D01*
X781767Y388103D01*
X780587Y389283D01*
X779199Y390210D01*
X777657Y390849D01*
X776020Y391175D01*
D02*
G37*
G36*
X583858Y381800D02*
X583142D01*
X582480Y381526D01*
X581974Y381020D01*
X581700Y380358D01*
Y379642D01*
X581974Y378980D01*
X582480Y378474D01*
X582992Y378262D01*
Y377738D01*
X582480Y377526D01*
X581974Y377020D01*
X581700Y376358D01*
Y375642D01*
X581974Y374980D01*
X582480Y374474D01*
X583142Y374200D01*
X583858D01*
X584520Y374474D01*
X585026Y374980D01*
X585300Y375642D01*
Y376358D01*
X585026Y377020D01*
X584520Y377526D01*
X584008Y377738D01*
Y378262D01*
X584520Y378474D01*
X585026Y378980D01*
X585300Y379642D01*
Y380358D01*
X585026Y381020D01*
X584520Y381526D01*
X583858Y381800D01*
D02*
G37*
G36*
X414203Y391147D02*
X412534D01*
X410896Y390821D01*
X409354Y390183D01*
X407966Y389255D01*
X406786Y388075D01*
X405859Y386687D01*
X405220Y385145D01*
X404894Y383508D01*
Y381838D01*
X405220Y380201D01*
X405859Y378659D01*
X406786Y377271D01*
X407966Y376091D01*
X409354Y375163D01*
X410896Y374525D01*
X412534Y374199D01*
X414203D01*
X415840Y374525D01*
X417382Y375163D01*
X418770Y376091D01*
X419950Y377271D01*
X420878Y378659D01*
X421517Y380201D01*
X421842Y381838D01*
Y383508D01*
X421517Y385145D01*
X420878Y386687D01*
X419950Y388075D01*
X418770Y389255D01*
X417382Y390183D01*
X415840Y390821D01*
X414203Y391147D01*
D02*
G37*
G36*
X533169Y369076D02*
X532343D01*
X531580Y368760D01*
X530996Y368176D01*
X530680Y367413D01*
Y366587D01*
X530996Y365824D01*
X531580Y365240D01*
X532343Y364924D01*
X533169D01*
X533932Y365240D01*
X534516Y365824D01*
X534832Y366587D01*
Y367413D01*
X534516Y368176D01*
X533932Y368760D01*
X533169Y369076D01*
D02*
G37*
G36*
X510413D02*
X509587D01*
X508824Y368760D01*
X508240Y368176D01*
X507924Y367413D01*
Y366587D01*
X508240Y365824D01*
X508824Y365240D01*
X509587Y364924D01*
X510413D01*
X511176Y365240D01*
X511760Y365824D01*
X512076Y366587D01*
Y367413D01*
X511760Y368176D01*
X511176Y368760D01*
X510413Y369076D01*
D02*
G37*
G36*
X517358Y368300D02*
X516642D01*
X515980Y368026D01*
X515474Y367520D01*
X515200Y366858D01*
Y366142D01*
X515474Y365480D01*
X515980Y364974D01*
X516642Y364700D01*
X517358D01*
X518020Y364974D01*
X518526Y365480D01*
X518800Y366142D01*
Y366858D01*
X518526Y367520D01*
X518020Y368026D01*
X517358Y368300D01*
D02*
G37*
G36*
X522721Y368163D02*
X522005D01*
X521343Y367889D01*
X520837Y367382D01*
X520563Y366721D01*
Y366005D01*
X520837Y365343D01*
X521343Y364837D01*
X522005Y364563D01*
X522721D01*
X523382Y364837D01*
X523889Y365343D01*
X524163Y366005D01*
Y366721D01*
X523889Y367382D01*
X523382Y367889D01*
X522721Y368163D01*
D02*
G37*
G36*
X671858Y359800D02*
X671142D01*
X670480Y359526D01*
X669974Y359020D01*
X669700Y358358D01*
Y357642D01*
X669974Y356980D01*
X670480Y356474D01*
X671142Y356200D01*
X671858D01*
X672520Y356474D01*
X673026Y356980D01*
X673300Y357642D01*
Y358358D01*
X673026Y359020D01*
X672520Y359526D01*
X671858Y359800D01*
D02*
G37*
G36*
X590858Y354400D02*
X590142D01*
X589480Y354126D01*
X588974Y353620D01*
X588700Y352958D01*
Y352242D01*
X588974Y351580D01*
X589480Y351074D01*
X590142Y350800D01*
X590858D01*
X591520Y351074D01*
X592026Y351580D01*
X592300Y352242D01*
Y352958D01*
X592026Y353620D01*
X591520Y354126D01*
X590858Y354400D01*
D02*
G37*
G36*
X671858Y350800D02*
X671142D01*
X670480Y350526D01*
X669974Y350020D01*
X669700Y349358D01*
Y348642D01*
X669974Y347980D01*
X670480Y347474D01*
X671142Y347200D01*
X671858D01*
X672520Y347474D01*
X673026Y347980D01*
X673300Y348642D01*
Y349358D01*
X673026Y350020D01*
X672520Y350526D01*
X671858Y350800D01*
D02*
G37*
G36*
X501858Y328300D02*
X501142D01*
X500480Y328026D01*
X499974Y327520D01*
X499700Y326858D01*
Y326142D01*
X499974Y325480D01*
X500480Y324974D01*
X501142Y324700D01*
X501858D01*
X502520Y324974D01*
X503026Y325480D01*
X503300Y326142D01*
Y326858D01*
X503026Y327520D01*
X502520Y328026D01*
X501858Y328300D01*
D02*
G37*
G36*
X535858Y326800D02*
X535142D01*
X534480Y326526D01*
X533974Y326020D01*
X533700Y325358D01*
Y324642D01*
X533974Y323980D01*
X534480Y323474D01*
X535142Y323200D01*
X535858D01*
X536520Y323474D01*
X537026Y323980D01*
X537300Y324642D01*
Y325358D01*
X537026Y326020D01*
X536520Y326526D01*
X535858Y326800D01*
D02*
G37*
G36*
X524446Y318947D02*
X516553D01*
Y311053D01*
X524446D01*
Y318947D01*
D02*
G37*
G36*
X511020D02*
X509980D01*
X508977Y318677D01*
X508077Y318158D01*
X507342Y317423D01*
X506822Y316523D01*
X506554Y315520D01*
Y314480D01*
X506822Y313477D01*
X507342Y312577D01*
X508077Y311842D01*
X508977Y311322D01*
X509980Y311053D01*
X511020D01*
X512023Y311322D01*
X512923Y311842D01*
X513658Y312577D01*
X514178Y313477D01*
X514446Y314480D01*
Y315520D01*
X514178Y316523D01*
X513658Y317423D01*
X512923Y318158D01*
X512023Y318677D01*
X511020Y318947D01*
D02*
G37*
G36*
X411447Y315947D02*
X403553D01*
Y308053D01*
X411447D01*
Y315947D01*
D02*
G37*
G36*
X408020Y305946D02*
X406980D01*
X405977Y305678D01*
X405077Y305158D01*
X404342Y304423D01*
X403823Y303523D01*
X403553Y302520D01*
Y301480D01*
X403823Y300477D01*
X404342Y299577D01*
X405077Y298842D01*
X405977Y298323D01*
X406980Y298054D01*
X408020D01*
X409023Y298323D01*
X409923Y298842D01*
X410658Y299577D01*
X411177Y300477D01*
X411447Y301480D01*
Y302520D01*
X411177Y303523D01*
X410658Y304423D01*
X409923Y305158D01*
X409023Y305678D01*
X408020Y305946D01*
D02*
G37*
G36*
Y295947D02*
X406980D01*
X405977Y295677D01*
X405077Y295158D01*
X404342Y294423D01*
X403823Y293523D01*
X403553Y292520D01*
Y291480D01*
X403823Y290477D01*
X404342Y289577D01*
X405077Y288842D01*
X405977Y288322D01*
X406980Y288053D01*
X408020D01*
X409023Y288322D01*
X409923Y288842D01*
X410658Y289577D01*
X411177Y290477D01*
X411447Y291480D01*
Y292520D01*
X411177Y293523D01*
X410658Y294423D01*
X409923Y295158D01*
X409023Y295677D01*
X408020Y295947D01*
D02*
G37*
G36*
X564618Y289446D02*
X563579D01*
X562575Y289177D01*
X561675Y288658D01*
X560941Y287923D01*
X560421Y287023D01*
X560152Y286020D01*
Y284980D01*
X560421Y283977D01*
X560941Y283077D01*
X561675Y282342D01*
X562575Y281822D01*
X563579Y281554D01*
X564618D01*
X565622Y281822D01*
X566522Y282342D01*
X567256Y283077D01*
X567776Y283977D01*
X568045Y284980D01*
Y286020D01*
X567776Y287023D01*
X567256Y287923D01*
X566522Y288658D01*
X565622Y289177D01*
X564618Y289446D01*
D02*
G37*
G36*
X544618D02*
X543579D01*
X542575Y289177D01*
X541675Y288658D01*
X540941Y287923D01*
X540421Y287023D01*
X540152Y286020D01*
Y284980D01*
X540421Y283977D01*
X540941Y283077D01*
X541675Y282342D01*
X542575Y281822D01*
X543579Y281554D01*
X544618D01*
X545622Y281822D01*
X546522Y282342D01*
X547256Y283077D01*
X547776Y283977D01*
X548045Y284980D01*
Y286020D01*
X547776Y287023D01*
X547256Y287923D01*
X546522Y288658D01*
X545622Y289177D01*
X544618Y289446D01*
D02*
G37*
G36*
X538045D02*
X530152D01*
Y281554D01*
X538045D01*
Y289446D01*
D02*
G37*
G36*
X510520D02*
X509480D01*
X508477Y289177D01*
X507577Y288658D01*
X506842Y287923D01*
X506322Y287023D01*
X506053Y286020D01*
Y284980D01*
X506322Y283977D01*
X506842Y283077D01*
X507577Y282342D01*
X508477Y281822D01*
X509480Y281554D01*
X510520D01*
X511523Y281822D01*
X512423Y282342D01*
X513158Y283077D01*
X513678Y283977D01*
X513946Y284980D01*
Y286020D01*
X513678Y287023D01*
X513158Y287923D01*
X512423Y288658D01*
X511523Y289177D01*
X510520Y289446D01*
D02*
G37*
G36*
X500520D02*
X499480D01*
X498477Y289177D01*
X497577Y288658D01*
X496842Y287923D01*
X496322Y287023D01*
X496054Y286020D01*
Y284980D01*
X496322Y283977D01*
X496842Y283077D01*
X497577Y282342D01*
X498477Y281822D01*
X499480Y281554D01*
X500520D01*
X501523Y281822D01*
X502423Y282342D01*
X503158Y283077D01*
X503678Y283977D01*
X503946Y284980D01*
Y286020D01*
X503678Y287023D01*
X503158Y287923D01*
X502423Y288658D01*
X501523Y289177D01*
X500520Y289446D01*
D02*
G37*
G36*
X490520D02*
X489480D01*
X488477Y289177D01*
X487577Y288658D01*
X486842Y287923D01*
X486322Y287023D01*
X486054Y286020D01*
Y284980D01*
X486322Y283977D01*
X486842Y283077D01*
X487577Y282342D01*
X488477Y281822D01*
X489480Y281554D01*
X490520D01*
X491523Y281822D01*
X492423Y282342D01*
X493158Y283077D01*
X493678Y283977D01*
X493947Y284980D01*
Y286020D01*
X493678Y287023D01*
X493158Y287923D01*
X492423Y288658D01*
X491523Y289177D01*
X490520Y289446D01*
D02*
G37*
G36*
X408020Y285946D02*
X406980D01*
X405977Y285678D01*
X405077Y285158D01*
X404342Y284423D01*
X403823Y283523D01*
X403553Y282520D01*
Y281480D01*
X403823Y280477D01*
X404342Y279577D01*
X405077Y278842D01*
X405977Y278323D01*
X406980Y278053D01*
X408020D01*
X409023Y278323D01*
X409923Y278842D01*
X410658Y279577D01*
X411177Y280477D01*
X411447Y281480D01*
Y282520D01*
X411177Y283523D01*
X410658Y284423D01*
X409923Y285158D01*
X409023Y285678D01*
X408020Y285946D01*
D02*
G37*
G36*
X659358Y284300D02*
X658642D01*
X657980Y284026D01*
X657474Y283520D01*
X657200Y282858D01*
Y282142D01*
X657474Y281480D01*
X657980Y280974D01*
X658294Y280844D01*
Y280303D01*
X658050Y280202D01*
X657544Y279696D01*
X657270Y279034D01*
Y278318D01*
X657544Y277657D01*
X658050Y277150D01*
X658138Y277114D01*
Y276573D01*
X658137Y276573D01*
X657630Y276066D01*
X657356Y275405D01*
Y274689D01*
X657630Y274027D01*
X658137Y273521D01*
X658798Y273247D01*
X659515D01*
X660176Y273521D01*
X660682Y274027D01*
X660956Y274689D01*
Y275405D01*
X660682Y276066D01*
X660176Y276573D01*
X660089Y276609D01*
Y277150D01*
X660090Y277150D01*
X660596Y277657D01*
X660870Y278318D01*
Y279034D01*
X660596Y279696D01*
X660090Y280202D01*
X659776Y280332D01*
Y280873D01*
X660020Y280974D01*
X660526Y281480D01*
X660800Y282142D01*
Y282858D01*
X660526Y283520D01*
X660020Y284026D01*
X659358Y284300D01*
D02*
G37*
G36*
X655108D02*
X654392D01*
X653730Y284026D01*
X653224Y283520D01*
X652950Y282858D01*
Y282142D01*
X653224Y281480D01*
X653730Y280974D01*
X654044Y280844D01*
Y280303D01*
X653800Y280202D01*
X653294Y279696D01*
X653020Y279034D01*
Y278318D01*
X653294Y277657D01*
X653800Y277150D01*
X653888Y277114D01*
Y276573D01*
X653887Y276573D01*
X653380Y276066D01*
X653106Y275405D01*
Y274689D01*
X653380Y274027D01*
X653887Y273521D01*
X654548Y273247D01*
X655265D01*
X655926Y273521D01*
X656432Y274027D01*
X656706Y274689D01*
Y275405D01*
X656432Y276066D01*
X655926Y276573D01*
X655839Y276609D01*
Y277150D01*
X655840Y277150D01*
X656346Y277657D01*
X656620Y278318D01*
Y279034D01*
X656346Y279696D01*
X655840Y280202D01*
X655526Y280332D01*
Y280873D01*
X655770Y280974D01*
X656276Y281480D01*
X656550Y282142D01*
Y282858D01*
X656276Y283520D01*
X655770Y284026D01*
X655108Y284300D01*
D02*
G37*
G36*
X650858D02*
X650142D01*
X649480Y284026D01*
X648974Y283520D01*
X648700Y282858D01*
Y282142D01*
X648974Y281480D01*
X649480Y280974D01*
X649794Y280844D01*
Y280303D01*
X649550Y280202D01*
X649044Y279696D01*
X648770Y279034D01*
Y278318D01*
X649044Y277657D01*
X649550Y277150D01*
X649638Y277114D01*
Y276573D01*
X649637Y276573D01*
X649130Y276066D01*
X648856Y275405D01*
Y274689D01*
X649130Y274027D01*
X649637Y273521D01*
X650298Y273247D01*
X651015D01*
X651676Y273521D01*
X652182Y274027D01*
X652456Y274689D01*
Y275405D01*
X652182Y276066D01*
X651676Y276573D01*
X651589Y276609D01*
Y277150D01*
X651590Y277150D01*
X652096Y277657D01*
X652370Y278318D01*
Y279034D01*
X652096Y279696D01*
X651590Y280202D01*
X651276Y280332D01*
Y280873D01*
X651520Y280974D01*
X652026Y281480D01*
X652300Y282142D01*
Y282858D01*
X652026Y283520D01*
X651520Y284026D01*
X650858Y284300D01*
D02*
G37*
G36*
X408020Y275946D02*
X406980D01*
X405977Y275677D01*
X405077Y275158D01*
X404342Y274423D01*
X403823Y273523D01*
X403553Y272520D01*
Y271480D01*
X403823Y270477D01*
X404342Y269577D01*
X405077Y268842D01*
X405977Y268322D01*
X406980Y268054D01*
X408020D01*
X409023Y268322D01*
X409923Y268842D01*
X410658Y269577D01*
X411177Y270477D01*
X411447Y271480D01*
Y272520D01*
X411177Y273523D01*
X410658Y274423D01*
X409923Y275158D01*
X409023Y275677D01*
X408020Y275946D01*
D02*
G37*
G36*
X510858Y269800D02*
X510142D01*
X509480Y269526D01*
X508974Y269020D01*
X508700Y268358D01*
Y267642D01*
X508974Y266980D01*
X509480Y266474D01*
X510142Y266200D01*
X510858D01*
X511520Y266474D01*
X512026Y266980D01*
X512300Y267642D01*
Y268358D01*
X512026Y269020D01*
X511520Y269526D01*
X510858Y269800D01*
D02*
G37*
G36*
X464358Y268800D02*
X463642D01*
X462980Y268526D01*
X462474Y268020D01*
X462200Y267358D01*
Y266642D01*
X462474Y265980D01*
X462980Y265474D01*
X463642Y265200D01*
X464358D01*
X465020Y265474D01*
X465526Y265980D01*
X465800Y266642D01*
Y267358D01*
X465526Y268020D01*
X465020Y268526D01*
X464358Y268800D01*
D02*
G37*
G36*
X493858Y265800D02*
X493142D01*
X492480Y265526D01*
X491974Y265020D01*
X491700Y264358D01*
Y263642D01*
X491974Y262980D01*
X492480Y262474D01*
X493142Y262200D01*
X493858D01*
X494520Y262474D01*
X495026Y262980D01*
X495300Y263642D01*
Y264358D01*
X495026Y265020D01*
X494520Y265526D01*
X493858Y265800D01*
D02*
G37*
G36*
X486730Y267876D02*
X486014D01*
X485353Y267602D01*
X484846Y267096D01*
X484572Y266434D01*
Y265718D01*
X484846Y265057D01*
X485353Y264550D01*
X486014Y264276D01*
X486577D01*
X486857Y263909D01*
X486889Y263814D01*
X486700Y263358D01*
Y262642D01*
X486974Y261980D01*
X487480Y261474D01*
X488142Y261200D01*
X488858D01*
X489520Y261474D01*
X490026Y261980D01*
X490300Y262642D01*
Y263358D01*
X490026Y264020D01*
X489520Y264526D01*
X488858Y264800D01*
X488295D01*
X488016Y265167D01*
X487983Y265262D01*
X488172Y265718D01*
Y266434D01*
X487898Y267096D01*
X487392Y267602D01*
X486730Y267876D01*
D02*
G37*
G36*
X484245Y264413D02*
X483529D01*
X482867Y264139D01*
X482361Y263633D01*
X482087Y262971D01*
Y262255D01*
X482361Y261594D01*
X482867Y261087D01*
X483529Y260813D01*
X484245D01*
X484906Y261087D01*
X485413Y261594D01*
X485686Y262255D01*
Y262971D01*
X485413Y263633D01*
X484906Y264139D01*
X484245Y264413D01*
D02*
G37*
G36*
X408020Y265947D02*
X406980D01*
X405977Y265677D01*
X405077Y265158D01*
X404342Y264423D01*
X403823Y263523D01*
X403553Y262520D01*
Y261480D01*
X403823Y260477D01*
X404342Y259577D01*
X405077Y258842D01*
X405977Y258323D01*
X406980Y258053D01*
X408020D01*
X409023Y258323D01*
X409923Y258842D01*
X410658Y259577D01*
X411177Y260477D01*
X411447Y261480D01*
Y262520D01*
X411177Y263523D01*
X410658Y264423D01*
X409923Y265158D01*
X409023Y265677D01*
X408020Y265947D01*
D02*
G37*
G36*
X642858Y256300D02*
X642142D01*
X641480Y256026D01*
X640974Y255520D01*
X640700Y254858D01*
Y254142D01*
X640974Y253480D01*
X641480Y252974D01*
X642142Y252700D01*
X642858D01*
X643520Y252974D01*
X644026Y253480D01*
X644300Y254142D01*
Y254858D01*
X644026Y255520D01*
X643520Y256026D01*
X642858Y256300D01*
D02*
G37*
G36*
X560298Y255500D02*
X559702D01*
X559150Y255272D01*
X558728Y254850D01*
X558500Y254298D01*
Y253702D01*
X558728Y253150D01*
X559091Y252788D01*
X559124Y252500D01*
X559091Y252212D01*
X558728Y251850D01*
X558500Y251298D01*
Y250702D01*
X558728Y250150D01*
X559150Y249728D01*
X559702Y249500D01*
X560298D01*
X560850Y249728D01*
X561272Y250150D01*
X561500Y250702D01*
Y251298D01*
X561272Y251850D01*
X560909Y252212D01*
X560876Y252500D01*
X560909Y252788D01*
X561272Y253150D01*
X561500Y253702D01*
Y254298D01*
X561272Y254850D01*
X560850Y255272D01*
X560298Y255500D01*
D02*
G37*
G36*
X556798D02*
X556202D01*
X555650Y255272D01*
X555228Y254850D01*
X555000Y254298D01*
Y253702D01*
X555228Y253150D01*
X555591Y252788D01*
X555624Y252500D01*
X555591Y252212D01*
X555228Y251850D01*
X555000Y251298D01*
Y250702D01*
X555228Y250150D01*
X555650Y249728D01*
X556202Y249500D01*
X556798D01*
X557350Y249728D01*
X557772Y250150D01*
X558000Y250702D01*
Y251298D01*
X557772Y251850D01*
X557409Y252212D01*
X557376Y252500D01*
X557409Y252788D01*
X557772Y253150D01*
X558000Y253702D01*
Y254298D01*
X557772Y254850D01*
X557350Y255272D01*
X556798Y255500D01*
D02*
G37*
G36*
X408020Y255946D02*
X406980D01*
X405977Y255678D01*
X405077Y255158D01*
X404342Y254423D01*
X403823Y253523D01*
X403553Y252520D01*
Y251480D01*
X403823Y250477D01*
X404342Y249577D01*
X405077Y248842D01*
X405977Y248323D01*
X406980Y248054D01*
X408020D01*
X409023Y248323D01*
X409923Y248842D01*
X410658Y249577D01*
X411177Y250477D01*
X411447Y251480D01*
Y252520D01*
X411177Y253523D01*
X410658Y254423D01*
X409923Y255158D01*
X409023Y255678D01*
X408020Y255946D01*
D02*
G37*
G36*
X525587Y242528D02*
X524870D01*
X524209Y242254D01*
X523702Y241748D01*
X523428Y241087D01*
Y240370D01*
X523702Y239709D01*
X524209Y239202D01*
X524870Y238928D01*
X525587D01*
X526248Y239202D01*
X526754Y239709D01*
X527028Y240370D01*
Y241087D01*
X526754Y241748D01*
X526248Y242254D01*
X525587Y242528D01*
D02*
G37*
G36*
X408020Y245947D02*
X406980D01*
X405977Y245677D01*
X405077Y245158D01*
X404342Y244423D01*
X403823Y243523D01*
X403553Y242520D01*
Y241480D01*
X403823Y240477D01*
X404342Y239577D01*
X405077Y238842D01*
X405977Y238322D01*
X406980Y238053D01*
X408020D01*
X409023Y238322D01*
X409923Y238842D01*
X410658Y239577D01*
X411177Y240477D01*
X411447Y241480D01*
Y242520D01*
X411177Y243523D01*
X410658Y244423D01*
X409923Y245158D01*
X409023Y245677D01*
X408020Y245947D01*
D02*
G37*
G36*
X446358Y235800D02*
X445642D01*
X444980Y235526D01*
X444474Y235020D01*
X444200Y234358D01*
Y233642D01*
X444474Y232980D01*
X444980Y232474D01*
X445642Y232200D01*
X446358D01*
X447020Y232474D01*
X447526Y232980D01*
X447800Y233642D01*
Y234358D01*
X447526Y235020D01*
X447020Y235526D01*
X446358Y235800D01*
D02*
G37*
G36*
X464358Y234800D02*
X463642D01*
X462980Y234526D01*
X462474Y234020D01*
X462200Y233358D01*
Y232642D01*
X462474Y231980D01*
X462980Y231474D01*
X463642Y231200D01*
X464358D01*
X465020Y231474D01*
X465526Y231980D01*
X465800Y232642D01*
Y233358D01*
X465526Y234020D01*
X465020Y234526D01*
X464358Y234800D01*
D02*
G37*
G36*
X460858Y231800D02*
X460142D01*
X459480Y231526D01*
X458974Y231020D01*
X458700Y230358D01*
Y229642D01*
X458974Y228980D01*
X459480Y228474D01*
X460142Y228200D01*
X460858D01*
X461520Y228474D01*
X462026Y228980D01*
X462300Y229642D01*
Y230358D01*
X462026Y231020D01*
X461520Y231526D01*
X460858Y231800D01*
D02*
G37*
G36*
X408020Y235946D02*
X406980D01*
X405977Y235678D01*
X405077Y235158D01*
X404342Y234423D01*
X403823Y233523D01*
X403553Y232520D01*
Y231480D01*
X403823Y230477D01*
X404342Y229577D01*
X405077Y228842D01*
X405977Y228323D01*
X406980Y228053D01*
X408020D01*
X409023Y228323D01*
X409923Y228842D01*
X410658Y229577D01*
X411177Y230477D01*
X411447Y231480D01*
Y232520D01*
X411177Y233523D01*
X410658Y234423D01*
X409923Y235158D01*
X409023Y235678D01*
X408020Y235946D01*
D02*
G37*
G36*
X445858Y231300D02*
X445142D01*
X444480Y231026D01*
X443974Y230520D01*
X443700Y229858D01*
Y229142D01*
X443974Y228480D01*
X444480Y227974D01*
X445142Y227700D01*
X445858D01*
X446520Y227974D01*
X447026Y228480D01*
X447300Y229142D01*
Y229858D01*
X447026Y230520D01*
X446520Y231026D01*
X445858Y231300D01*
D02*
G37*
G36*
X622406Y228752D02*
X621690D01*
X621028Y228478D01*
X620522Y227972D01*
X620248Y227310D01*
Y226594D01*
X620522Y225933D01*
X621028Y225427D01*
X621690Y225152D01*
X622406D01*
X623067Y225427D01*
X623573Y225933D01*
X623848Y226594D01*
Y227310D01*
X623573Y227972D01*
X623067Y228478D01*
X622406Y228752D01*
D02*
G37*
G36*
X500358Y221300D02*
X499642D01*
X498980Y221026D01*
X498540Y220585D01*
X498250Y220548D01*
X497960Y220585D01*
X497520Y221026D01*
X496858Y221300D01*
X496142D01*
X495480Y221026D01*
X494974Y220520D01*
X494700Y219858D01*
Y219142D01*
X494974Y218480D01*
X495480Y217974D01*
X496142Y217700D01*
X496858D01*
X497520Y217974D01*
X497960Y218414D01*
X498250Y218452D01*
X498540Y218414D01*
X498980Y217974D01*
X499642Y217700D01*
X500358D01*
X501020Y217974D01*
X501526Y218480D01*
X501800Y219142D01*
Y219858D01*
X501526Y220520D01*
X501020Y221026D01*
X500358Y221300D01*
D02*
G37*
G36*
X526858Y222300D02*
X526142D01*
X525480Y222026D01*
X524974Y221520D01*
X524700Y220858D01*
Y220142D01*
X524974Y219480D01*
X525480Y218974D01*
X526142Y218700D01*
X526858D01*
X527520Y218974D01*
X528026Y219480D01*
X528300Y220142D01*
Y220858D01*
X528026Y221520D01*
X527520Y222026D01*
X526858Y222300D01*
D02*
G37*
G36*
X408020Y225946D02*
X406980D01*
X405977Y225677D01*
X405077Y225158D01*
X404342Y224423D01*
X403823Y223523D01*
X403553Y222520D01*
Y221480D01*
X403823Y220477D01*
X404342Y219577D01*
X405077Y218842D01*
X405977Y218322D01*
X406980Y218054D01*
X408020D01*
X409023Y218322D01*
X409923Y218842D01*
X410658Y219577D01*
X411177Y220477D01*
X411447Y221480D01*
Y222520D01*
X411177Y223523D01*
X410658Y224423D01*
X409923Y225158D01*
X409023Y225677D01*
X408020Y225946D01*
D02*
G37*
G36*
X457630Y214028D02*
X456914D01*
X456252Y213754D01*
X455746Y213248D01*
X455472Y212586D01*
Y211870D01*
X455746Y211209D01*
X456252Y210702D01*
X456914Y210428D01*
X457630D01*
X458291Y210702D01*
X458798Y211209D01*
X459072Y211870D01*
Y212586D01*
X458798Y213248D01*
X458291Y213754D01*
X457630Y214028D01*
D02*
G37*
G36*
X408020Y215947D02*
X406980D01*
X405977Y215677D01*
X405077Y215158D01*
X404342Y214423D01*
X403823Y213523D01*
X403553Y212520D01*
Y211480D01*
X403823Y210477D01*
X404342Y209577D01*
X405077Y208842D01*
X405977Y208323D01*
X406980Y208053D01*
X408020D01*
X409023Y208323D01*
X409923Y208842D01*
X410658Y209577D01*
X411177Y210477D01*
X411447Y211480D01*
Y212520D01*
X411177Y213523D01*
X410658Y214423D01*
X409923Y215158D01*
X409023Y215677D01*
X408020Y215947D01*
D02*
G37*
G36*
X607858Y210800D02*
X607142D01*
X606480Y210526D01*
X605974Y210020D01*
X605700Y209358D01*
Y208642D01*
X605974Y207980D01*
X606480Y207474D01*
X607142Y207200D01*
X607858D01*
X608520Y207474D01*
X609026Y207980D01*
X609300Y208642D01*
Y209358D01*
X609026Y210020D01*
X608520Y210526D01*
X607858Y210800D01*
D02*
G37*
G36*
X557358Y207300D02*
X556642D01*
X555980Y207026D01*
X555474Y206520D01*
X555200Y205858D01*
Y205142D01*
X555474Y204480D01*
X555980Y203974D01*
X556642Y203700D01*
X557358D01*
X558020Y203974D01*
X558526Y204480D01*
X558800Y205142D01*
Y205858D01*
X558526Y206520D01*
X558020Y207026D01*
X557358Y207300D01*
D02*
G37*
G36*
X518858Y206800D02*
X518142D01*
X517480Y206526D01*
X516974Y206020D01*
X516700Y205358D01*
Y204642D01*
X516974Y203980D01*
X517480Y203474D01*
X518142Y203200D01*
X518858D01*
X519520Y203474D01*
X520026Y203980D01*
X520300Y204642D01*
Y205358D01*
X520026Y206020D01*
X519520Y206526D01*
X518858Y206800D01*
D02*
G37*
G36*
X656358Y204300D02*
X655642D01*
X654980Y204026D01*
X654474Y203520D01*
X654262Y203008D01*
X653738D01*
X653526Y203520D01*
X653020Y204026D01*
X652358Y204300D01*
X651642D01*
X650980Y204026D01*
X650474Y203520D01*
X650200Y202858D01*
Y202142D01*
X650474Y201480D01*
X650914Y201040D01*
X650952Y200750D01*
X650914Y200460D01*
X650474Y200020D01*
X650200Y199358D01*
Y198642D01*
X650474Y197980D01*
X650914Y197540D01*
X650952Y197250D01*
X650914Y196960D01*
X650474Y196520D01*
X650200Y195858D01*
Y195142D01*
X650474Y194480D01*
X650980Y193974D01*
X651642Y193700D01*
X652358D01*
X653020Y193974D01*
X653526Y194480D01*
X653738Y194992D01*
X654262D01*
X654474Y194480D01*
X654980Y193974D01*
X655642Y193700D01*
X656358D01*
X657020Y193974D01*
X657526Y194480D01*
X657800Y195142D01*
Y195858D01*
X657526Y196520D01*
X657086Y196960D01*
X657048Y197250D01*
X657086Y197540D01*
X657526Y197980D01*
X657800Y198642D01*
Y199358D01*
X657526Y200020D01*
X657086Y200460D01*
X657048Y200750D01*
X657086Y201040D01*
X657526Y201480D01*
X657800Y202142D01*
Y202858D01*
X657526Y203520D01*
X657020Y204026D01*
X656358Y204300D01*
D02*
G37*
G36*
X512358Y203300D02*
X511642D01*
X510980Y203026D01*
X510474Y202520D01*
X510200Y201858D01*
Y201142D01*
X510474Y200480D01*
X510980Y199974D01*
X511642Y199700D01*
X512358D01*
X513020Y199974D01*
X513526Y200480D01*
X513800Y201142D01*
Y201858D01*
X513526Y202520D01*
X513020Y203026D01*
X512358Y203300D01*
D02*
G37*
G36*
X565358Y191800D02*
X564642D01*
X563980Y191526D01*
X563474Y191020D01*
X563200Y190358D01*
Y189642D01*
X563474Y188980D01*
X563980Y188474D01*
X564642Y188200D01*
X565358D01*
X566020Y188474D01*
X566526Y188980D01*
X566800Y189642D01*
Y190358D01*
X566526Y191020D01*
X566020Y191526D01*
X565358Y191800D01*
D02*
G37*
G36*
X533358D02*
X532642D01*
X531980Y191526D01*
X531474Y191020D01*
X531200Y190358D01*
Y189642D01*
X531474Y188980D01*
X531980Y188474D01*
X532642Y188200D01*
X533358D01*
X534020Y188474D01*
X534526Y188980D01*
X534800Y189642D01*
Y190358D01*
X534526Y191020D01*
X534020Y191526D01*
X533358Y191800D01*
D02*
G37*
G36*
X497358Y185300D02*
X496642D01*
X495980Y185026D01*
X495474Y184520D01*
X495200Y183858D01*
Y183142D01*
X495474Y182480D01*
X495980Y181974D01*
X496642Y181700D01*
X497358D01*
X498020Y181974D01*
X498526Y182480D01*
X498800Y183142D01*
Y183858D01*
X498526Y184520D01*
X498020Y185026D01*
X497358Y185300D01*
D02*
G37*
G36*
X492858D02*
X492142D01*
X491480Y185026D01*
X490974Y184520D01*
X490700Y183858D01*
Y183142D01*
X490974Y182480D01*
X491480Y181974D01*
X492142Y181700D01*
X492858D01*
X493520Y181974D01*
X494026Y182480D01*
X494300Y183142D01*
Y183858D01*
X494026Y184520D01*
X493520Y185026D01*
X492858Y185300D01*
D02*
G37*
G36*
X566858Y165300D02*
X566142D01*
X565480Y165026D01*
X564974Y164520D01*
X564700Y163858D01*
Y163142D01*
X564974Y162480D01*
X565480Y161974D01*
X566142Y161700D01*
X566858D01*
X567520Y161974D01*
X568026Y162480D01*
X568300Y163142D01*
Y163858D01*
X568026Y164520D01*
X567520Y165026D01*
X566858Y165300D01*
D02*
G37*
G36*
X534358Y164800D02*
X533642D01*
X532980Y164526D01*
X532474Y164020D01*
X532200Y163358D01*
Y162642D01*
X532474Y161980D01*
X532980Y161474D01*
X533642Y161200D01*
X534358D01*
X535020Y161474D01*
X535526Y161980D01*
X535800Y162642D01*
Y163358D01*
X535526Y164020D01*
X535020Y164526D01*
X534358Y164800D01*
D02*
G37*
G36*
X605422Y159485D02*
X595579D01*
X594395Y159329D01*
X593291Y158871D01*
X592343Y158144D01*
X591616Y157196D01*
X591159Y156093D01*
X591003Y154908D01*
X591159Y153724D01*
X591616Y152620D01*
X592343Y151673D01*
X593291Y150945D01*
X594395Y150488D01*
X595579Y150332D01*
X605422D01*
X606606Y150488D01*
X607710Y150945D01*
X608658Y151673D01*
X609385Y152620D01*
X609842Y153724D01*
X609998Y154908D01*
X609842Y156093D01*
X609385Y157196D01*
X608658Y158144D01*
X607710Y158871D01*
X606606Y159329D01*
X605422Y159485D01*
D02*
G37*
G36*
X633968Y156990D02*
X633032D01*
X632129Y156748D01*
X631319Y156280D01*
X630657Y155619D01*
X630189Y154808D01*
X629947Y153905D01*
Y152969D01*
X630189Y152066D01*
X630657Y151256D01*
X631319Y150594D01*
X632129Y150126D01*
X633032Y149884D01*
X633968D01*
X634871Y150126D01*
X635681Y150594D01*
X636343Y151256D01*
X636811Y152066D01*
X637053Y152969D01*
Y153905D01*
X636811Y154808D01*
X636343Y155619D01*
X635681Y156280D01*
X634871Y156748D01*
X633968Y156990D01*
D02*
G37*
G36*
X673053Y153427D02*
X665947D01*
Y146321D01*
X673053D01*
Y153427D01*
D02*
G37*
G36*
X476358Y143800D02*
X475642D01*
X474980Y143526D01*
X474474Y143020D01*
X474200Y142358D01*
Y141642D01*
X474474Y140980D01*
X474980Y140474D01*
X475642Y140200D01*
X476358D01*
X477020Y140474D01*
X477526Y140980D01*
X477800Y141642D01*
Y142358D01*
X477526Y143020D01*
X477020Y143526D01*
X476358Y143800D01*
D02*
G37*
G36*
X570358Y137300D02*
X569642D01*
X568980Y137026D01*
X568474Y136520D01*
X568200Y135858D01*
Y135142D01*
X568474Y134480D01*
X568980Y133974D01*
X569642Y133700D01*
X570358D01*
X571020Y133974D01*
X571526Y134480D01*
X571800Y135142D01*
Y135858D01*
X571526Y136520D01*
X571020Y137026D01*
X570358Y137300D01*
D02*
G37*
G36*
X619005Y152596D02*
X617821Y152440D01*
X616717Y151983D01*
X615769Y151256D01*
X615042Y150308D01*
X614585Y149205D01*
X614429Y148020D01*
Y138178D01*
X614585Y136993D01*
X615042Y135889D01*
X615769Y134942D01*
X616717Y134214D01*
X617821Y133757D01*
X619005Y133601D01*
X620189Y133757D01*
X621293Y134214D01*
X622241Y134942D01*
X622968Y135889D01*
X623425Y136993D01*
X623581Y138178D01*
Y148020D01*
X623425Y149205D01*
X622968Y150308D01*
X622241Y151256D01*
X621293Y151983D01*
X620189Y152440D01*
X619005Y152596D01*
D02*
G37*
G36*
X503520Y132947D02*
X502480D01*
X501477Y132677D01*
X500577Y132158D01*
X499842Y131423D01*
X499323Y130523D01*
X499053Y129520D01*
Y128480D01*
X499323Y127477D01*
X499842Y126577D01*
X500577Y125842D01*
X501477Y125322D01*
X502480Y125054D01*
X503520D01*
X504523Y125322D01*
X505423Y125842D01*
X506158Y126577D01*
X506677Y127477D01*
X506947Y128480D01*
Y129520D01*
X506677Y130523D01*
X506158Y131423D01*
X505423Y132158D01*
X504523Y132677D01*
X503520Y132947D01*
D02*
G37*
G36*
X493520D02*
X492480D01*
X491477Y132677D01*
X490577Y132158D01*
X489842Y131423D01*
X489323Y130523D01*
X489053Y129520D01*
Y128480D01*
X489323Y127477D01*
X489842Y126577D01*
X490577Y125842D01*
X491477Y125322D01*
X492480Y125054D01*
X493520D01*
X494523Y125322D01*
X495423Y125842D01*
X496158Y126577D01*
X496677Y127477D01*
X496946Y128480D01*
Y129520D01*
X496677Y130523D01*
X496158Y131423D01*
X495423Y132158D01*
X494523Y132677D01*
X493520Y132947D01*
D02*
G37*
G36*
X486946D02*
X479053D01*
Y125054D01*
X486946D01*
Y132947D01*
D02*
G37*
G36*
X536858Y127300D02*
X536142D01*
X535480Y127026D01*
X534974Y126520D01*
X534700Y125858D01*
Y125142D01*
X534974Y124480D01*
X535480Y123974D01*
X536142Y123700D01*
X536858D01*
X537520Y123974D01*
X538026Y124480D01*
X538300Y125142D01*
Y125858D01*
X538026Y126520D01*
X537520Y127026D01*
X536858Y127300D01*
D02*
G37*
G36*
X531858D02*
X531142D01*
X530480Y127026D01*
X529974Y126520D01*
X529700Y125858D01*
Y125142D01*
X529974Y124480D01*
X530480Y123974D01*
X531142Y123700D01*
X531858D01*
X532520Y123974D01*
X533026Y124480D01*
X533300Y125142D01*
Y125858D01*
X533026Y126520D01*
X532520Y127026D01*
X531858Y127300D01*
D02*
G37*
G36*
X547858Y114800D02*
X547142D01*
X546480Y114526D01*
X545974Y114020D01*
X545700Y113358D01*
Y112642D01*
X545974Y111980D01*
X546480Y111474D01*
X547142Y111200D01*
X547858D01*
X548520Y111474D01*
X549026Y111980D01*
X549300Y112642D01*
Y113358D01*
X549026Y114020D01*
X548520Y114526D01*
X547858Y114800D01*
D02*
G37*
G36*
X542358Y114300D02*
X541642D01*
X540980Y114026D01*
X540474Y113520D01*
X540200Y112858D01*
Y112142D01*
X540474Y111480D01*
X540980Y110974D01*
X541642Y110700D01*
X542358D01*
X543020Y110974D01*
X543526Y111480D01*
X543800Y112142D01*
Y112858D01*
X543526Y113520D01*
X543020Y114026D01*
X542358Y114300D01*
D02*
G37*
G36*
X668101Y118037D02*
X666907D01*
X665753Y117728D01*
X664718Y117130D01*
X663873Y116286D01*
X663276Y115251D01*
X662967Y114097D01*
Y112903D01*
X663276Y111749D01*
X663873Y110714D01*
X664718Y109870D01*
X665753Y109272D01*
X666907Y108963D01*
X668101D01*
X669255Y109272D01*
X670290Y109870D01*
X671135Y110714D01*
X671732Y111749D01*
X672041Y112903D01*
Y114097D01*
X671732Y115251D01*
X671135Y116286D01*
X670290Y117130D01*
X669255Y117728D01*
X668101Y118037D01*
D02*
G37*
G36*
X649597D02*
X648403D01*
X647249Y117728D01*
X646214Y117130D01*
X645369Y116286D01*
X644772Y115251D01*
X644463Y114097D01*
Y112903D01*
X644772Y111749D01*
X645369Y110714D01*
X646214Y109870D01*
X647249Y109272D01*
X648403Y108963D01*
X649597D01*
X650751Y109272D01*
X651786Y109870D01*
X652631Y110714D01*
X653228Y111749D01*
X653537Y112903D01*
Y114097D01*
X653228Y115251D01*
X652631Y116286D01*
X651786Y117130D01*
X650751Y117728D01*
X649597Y118037D01*
D02*
G37*
G36*
X631093D02*
X629899D01*
X628745Y117728D01*
X627710Y117130D01*
X626865Y116286D01*
X626268Y115251D01*
X625959Y114097D01*
Y112903D01*
X626268Y111749D01*
X626865Y110714D01*
X627710Y109870D01*
X628745Y109272D01*
X629899Y108963D01*
X631093D01*
X632247Y109272D01*
X633282Y109870D01*
X634127Y110714D01*
X634724Y111749D01*
X635033Y112903D01*
Y114097D01*
X634724Y115251D01*
X634127Y116286D01*
X633282Y117130D01*
X632247Y117728D01*
X631093Y118037D01*
D02*
G37*
G36*
X414200Y119518D02*
X412531D01*
X410894Y119192D01*
X409352Y118553D01*
X407964Y117626D01*
X406784Y116445D01*
X405856Y115058D01*
X405217Y113515D01*
X404892Y111878D01*
Y110209D01*
X405217Y108572D01*
X405856Y107030D01*
X406784Y105642D01*
X407964Y104461D01*
X409352Y103534D01*
X410894Y102895D01*
X412531Y102569D01*
X414200D01*
X415838Y102895D01*
X417380Y103534D01*
X418768Y104461D01*
X419948Y105642D01*
X420875Y107030D01*
X421514Y108572D01*
X421840Y110209D01*
Y111878D01*
X421514Y113515D01*
X420875Y115058D01*
X419948Y116445D01*
X418768Y117626D01*
X417380Y118553D01*
X415838Y119192D01*
X414200Y119518D01*
D02*
G37*
G36*
X775946Y119486D02*
X774276D01*
X772639Y119160D01*
X771097Y118522D01*
X769709Y117594D01*
X768529Y116414D01*
X767601Y115026D01*
X766962Y113484D01*
X766637Y111847D01*
Y110178D01*
X766962Y108540D01*
X767601Y106998D01*
X768529Y105610D01*
X769709Y104430D01*
X771097Y103503D01*
X772639Y102864D01*
X774276Y102538D01*
X775946D01*
X777583Y102864D01*
X779125Y103503D01*
X780513Y104430D01*
X781693Y105610D01*
X782620Y106998D01*
X783259Y108540D01*
X783585Y110178D01*
Y111847D01*
X783259Y113484D01*
X782620Y115026D01*
X781693Y116414D01*
X780513Y117594D01*
X779125Y118522D01*
X777583Y119160D01*
X775946Y119486D01*
D02*
G37*
%LPD*%
D65*
X532756Y367000D02*
D03*
X510000D02*
D03*
D66*
X539095Y381370D02*
D03*
X503662Y381370D02*
D03*
D67*
X503662Y365032D02*
D03*
X539095Y365032D02*
D03*
D68*
X513000Y129000D02*
D03*
X503000D02*
D03*
X493000D02*
D03*
X407500Y302000D02*
D03*
Y292000D02*
D03*
Y282000D02*
D03*
Y272000D02*
D03*
Y262000D02*
D03*
Y252000D02*
D03*
Y242000D02*
D03*
Y232000D02*
D03*
Y222000D02*
D03*
Y212000D02*
D03*
Y202000D02*
D03*
X500500Y315000D02*
D03*
X510500D02*
D03*
X544098Y285500D02*
D03*
X554098D02*
D03*
X564098D02*
D03*
X510000D02*
D03*
X500000D02*
D03*
X490000D02*
D03*
D69*
X483000Y129000D02*
D03*
X520500Y315000D02*
D03*
X534098Y285500D02*
D03*
X480000D02*
D03*
D70*
X407500Y312000D02*
D03*
D71*
X669500Y142000D02*
D03*
X633500Y153437D02*
D03*
Y145563D02*
D03*
D72*
X669500Y149874D02*
D03*
D73*
X600500Y154908D02*
D03*
X600500Y130500D02*
D03*
D74*
X619005Y143099D02*
D03*
D75*
X667504Y113500D02*
D03*
X630496D02*
D03*
X649000D02*
D03*
D76*
X775185Y382701D02*
D03*
X775111Y111012D02*
D03*
X413366Y111044D02*
D03*
X413368Y382673D02*
D03*
D82*
X579000Y376000D02*
D03*
X518500Y205000D02*
D03*
X557000Y205500D02*
D03*
X565000Y190000D02*
D03*
X533000D02*
D03*
X566500Y163500D02*
D03*
X534000Y163000D02*
D03*
X547500Y113000D02*
D03*
X542000Y112500D02*
D03*
X476000Y142000D02*
D03*
X457272Y212228D02*
D03*
X512000Y201500D02*
D03*
X526500Y220500D02*
D03*
X525228Y240728D02*
D03*
X510500Y268000D02*
D03*
X464000Y267000D02*
D03*
X501500Y326500D02*
D03*
X535500Y325000D02*
D03*
X446700Y225000D02*
D03*
Y221000D02*
D03*
X446000Y234000D02*
D03*
X460500Y230000D02*
D03*
X445500Y229500D02*
D03*
X669600Y305500D02*
D03*
X673000Y322000D02*
D03*
X640000Y230500D02*
D03*
X579000Y290000D02*
D03*
X609500Y230500D02*
D03*
X488500Y137500D02*
D03*
X545500Y242000D02*
D03*
X544000Y252500D02*
D03*
X535500Y331500D02*
D03*
X556500Y365500D02*
D03*
X513500Y354500D02*
D03*
X558000Y305500D02*
D03*
X629945Y334416D02*
D03*
X634445D02*
D03*
X625445D02*
D03*
X630000Y331000D02*
D03*
X625500D02*
D03*
X634500D02*
D03*
Y338000D02*
D03*
X625500D02*
D03*
X630000D02*
D03*
X590500Y352600D02*
D03*
X577000Y335500D02*
D03*
X581000D02*
D03*
Y331500D02*
D03*
X577000D02*
D03*
X591959Y316459D02*
D03*
X585500Y315000D02*
D03*
X567500Y246500D02*
D03*
Y251000D02*
D03*
X573000Y246500D02*
D03*
Y251000D02*
D03*
X578500Y246500D02*
D03*
Y251000D02*
D03*
X613000Y209000D02*
D03*
X600500Y223500D02*
D03*
X578500Y224000D02*
D03*
X585000Y194000D02*
D03*
X556500Y199500D02*
D03*
X565500Y184000D02*
D03*
X577000Y170000D02*
D03*
X565000Y157000D02*
D03*
X550500Y145000D02*
D03*
X517000Y146000D02*
D03*
X533500Y157000D02*
D03*
X517000Y169500D02*
D03*
X533500Y184000D02*
D03*
X531500Y247000D02*
D03*
X521500Y241000D02*
D03*
X539500Y239500D02*
D03*
X543500Y234000D02*
D03*
X532000Y220000D02*
D03*
X535500Y216000D02*
D03*
X525772Y216728D02*
D03*
X504500Y197500D02*
D03*
X504000Y204500D02*
D03*
X509500Y264500D02*
D03*
X507000Y270500D02*
D03*
X482500Y274500D02*
D03*
X478500D02*
D03*
X583500Y376000D02*
D03*
X575000D02*
D03*
X583500Y380000D02*
D03*
X579000D02*
D03*
X575000D02*
D03*
X659156Y275047D02*
D03*
X654906D02*
D03*
X650656D02*
D03*
X659070Y278676D02*
D03*
X654820D02*
D03*
X650570D02*
D03*
X650500Y282500D02*
D03*
X654750D02*
D03*
X659000D02*
D03*
X486372Y266076D02*
D03*
X483886Y262613D02*
D03*
X488500Y263000D02*
D03*
X671500Y349000D02*
D03*
Y358000D02*
D03*
X493500Y264000D02*
D03*
X607500Y209000D02*
D03*
X464000Y233000D02*
D03*
X517000Y366500D02*
D03*
X522363Y366363D02*
D03*
X570000Y135500D02*
D03*
X567189Y323000D02*
D03*
X571189D02*
D03*
X562689Y330500D02*
D03*
X564689Y327500D02*
D03*
X571000Y263000D02*
D03*
X574000Y265000D02*
D03*
X566500Y256500D02*
D03*
Y260500D02*
D03*
X575488Y285488D02*
D03*
X547500Y327000D02*
D03*
X500000Y219500D02*
D03*
X496500D02*
D03*
X628500Y198000D02*
D03*
X634000Y205500D02*
D03*
X616259Y192740D02*
D03*
X627500Y258000D02*
D03*
Y254500D02*
D03*
X633000Y258000D02*
D03*
Y254500D02*
D03*
X642500D02*
D03*
X622048Y226952D02*
D03*
X628000Y232500D02*
D03*
X632500D02*
D03*
X636000Y230500D02*
D03*
X656000Y202500D02*
D03*
Y199000D02*
D03*
Y195500D02*
D03*
X652000D02*
D03*
Y199000D02*
D03*
Y202500D02*
D03*
X660500Y162500D02*
D03*
X656500D02*
D03*
X660500Y165500D02*
D03*
X656500D02*
D03*
X624000Y164799D02*
D03*
Y161699D02*
D03*
Y174100D02*
D03*
Y167900D02*
D03*
Y171000D02*
D03*
X620500Y161699D02*
D03*
X626500Y179500D02*
D03*
X629500Y181000D02*
D03*
Y184500D02*
D03*
Y187500D02*
D03*
X536500Y125500D02*
D03*
X531500D02*
D03*
X497000Y183500D02*
D03*
X492500D02*
D03*
D83*
X560000Y251000D02*
D03*
X556500D02*
D03*
X560000Y254000D02*
D03*
X556500D02*
D03*
M02*
