G04*
G04 #@! TF.GenerationSoftware,Altium Limited,Altium Designer,22.0.2 (36)*
G04*
G04 Layer_Color=8421504*
%FSLAX25Y25*%
%MOIN*%
G70*
G04*
G04 #@! TF.SameCoordinates,7F160BED-0690-4144-9330-6DFC8CD618BD*
G04*
G04*
G04 #@! TF.FilePolarity,Positive*
G04*
G01*
G75*
%ADD21R,0.01181X0.04528*%
%ADD22R,0.01180X0.04520*%
%ADD23R,0.03000X0.03000*%
%ADD24R,0.03347X0.02953*%
%ADD25R,0.03940X0.02760*%
%ADD26R,0.02953X0.03347*%
%ADD27R,0.01968X0.01968*%
%ADD28R,0.01968X0.01968*%
%ADD29R,0.13776X0.05538*%
%ADD30R,0.08661X0.06890*%
%ADD31R,0.05512X0.06496*%
%ADD32R,0.21654X0.08465*%
%ADD33R,0.02756X0.05118*%
%ADD34R,0.04724X0.05118*%
%ADD35R,0.08465X0.21654*%
%ADD36R,0.03500X0.05000*%
%ADD37R,0.05000X0.03500*%
%ADD38R,0.02760X0.03940*%
%ADD39R,0.07087X0.04331*%
%ADD40O,0.08000X0.02400*%
%ADD41O,0.03150X0.00984*%
%ADD42R,0.00984X0.09646*%
%ADD43R,0.03150X0.03937*%
G04:AMPARAMS|DCode=44|XSize=39.37mil|YSize=31.5mil|CornerRadius=0mil|HoleSize=0mil|Usage=FLASHONLY|Rotation=90.000|XOffset=0mil|YOffset=0mil|HoleType=Round|Shape=Octagon|*
%AMOCTAGOND44*
4,1,8,0.00787,0.01968,-0.00787,0.01968,-0.01575,0.01181,-0.01575,-0.01181,-0.00787,-0.01968,0.00787,-0.01968,0.01575,-0.01181,0.01575,0.01181,0.00787,0.01968,0.0*
%
%ADD44OCTAGOND44*%

%ADD45R,0.04331X0.07087*%
%ADD46R,0.03543X0.03347*%
%ADD47R,0.04724X0.05512*%
%ADD48R,0.08268X0.12598*%
%ADD49R,0.08268X0.03543*%
%ADD50R,0.05512X0.04724*%
%ADD51R,0.12598X0.08268*%
%ADD52R,0.03543X0.08268*%
%ADD53R,0.03937X0.03150*%
G04:AMPARAMS|DCode=54|XSize=39.37mil|YSize=31.5mil|CornerRadius=0mil|HoleSize=0mil|Usage=FLASHONLY|Rotation=0.000|XOffset=0mil|YOffset=0mil|HoleType=Round|Shape=Octagon|*
%AMOCTAGOND54*
4,1,8,0.01968,-0.00787,0.01968,0.00787,0.01181,0.01575,-0.01181,0.01575,-0.01968,0.00787,-0.01968,-0.00787,-0.01181,-0.01575,0.01181,-0.01575,0.01968,-0.00787,0.0*
%
%ADD54OCTAGOND54*%

%ADD55R,0.03347X0.03543*%
%ADD56R,0.11024X0.05512*%
%ADD57R,0.05512X0.09843*%
%ADD58R,0.11024X0.11024*%
%ADD59R,0.01181X0.04724*%
%ADD60R,0.04724X0.01181*%
%ADD61R,0.04724X0.05118*%
%ADD62O,0.02362X0.08661*%
G36*
X624784Y172354D02*
X626457D01*
Y162709D01*
X624784D01*
Y161331D01*
X623799D01*
Y162709D01*
X622815D01*
Y161331D01*
X621831D01*
Y162709D01*
X620157D01*
Y172354D01*
X621831D01*
Y173732D01*
X622815D01*
Y172354D01*
X623799D01*
Y173732D01*
X624784D01*
Y172354D01*
D02*
G37*
D21*
X534568Y361888D02*
D03*
X533387D02*
D03*
X531418Y361898D02*
D03*
X530237D02*
D03*
X526299Y361880D02*
D03*
X524332Y361889D02*
D03*
X522363Y361882D02*
D03*
X520395Y361888D02*
D03*
X518426Y361882D02*
D03*
X514489D02*
D03*
X512521Y361882D02*
D03*
X511339D02*
D03*
X509371Y361882D02*
D03*
X508190D02*
D03*
D22*
X528268Y361882D02*
D03*
X516457Y361882D02*
D03*
D23*
X575000Y103000D02*
D03*
Y109000D02*
D03*
X558000Y103000D02*
D03*
Y109000D02*
D03*
X536433Y108407D02*
D03*
Y102407D02*
D03*
X531100Y108407D02*
D03*
Y102407D02*
D03*
D24*
X569500Y108854D02*
D03*
Y103146D02*
D03*
X563500Y108854D02*
D03*
Y103146D02*
D03*
X547500Y102553D02*
D03*
Y108261D02*
D03*
X542167Y102553D02*
D03*
Y108261D02*
D03*
X530500Y325646D02*
D03*
Y331354D02*
D03*
X633000Y227000D02*
D03*
Y221291D02*
D03*
X626964Y221244D02*
D03*
Y226952D02*
D03*
X614333Y214146D02*
D03*
Y219854D02*
D03*
X608500Y219854D02*
D03*
Y214146D02*
D03*
X612000Y175854D02*
D03*
Y170146D02*
D03*
X591541Y311266D02*
D03*
Y305558D02*
D03*
X585500Y311209D02*
D03*
Y305500D02*
D03*
D25*
X522640Y198770D02*
D03*
X540360D02*
D03*
Y207230D02*
D03*
X522640D02*
D03*
X522570Y151250D02*
D03*
X540290D02*
D03*
Y142790D02*
D03*
X522570D02*
D03*
X554070Y178250D02*
D03*
X571790D02*
D03*
Y169790D02*
D03*
X554070D02*
D03*
X521715Y178250D02*
D03*
X539435D02*
D03*
Y169790D02*
D03*
X521715D02*
D03*
X554070Y142790D02*
D03*
X571790D02*
D03*
Y151250D02*
D03*
X554070D02*
D03*
D26*
X546146Y205500D02*
D03*
X551854D02*
D03*
X546146Y199500D02*
D03*
X551854D02*
D03*
X540146Y246500D02*
D03*
X545854D02*
D03*
X644291Y230500D02*
D03*
X650000D02*
D03*
X639046Y205500D02*
D03*
X644754D02*
D03*
X665646Y163500D02*
D03*
X671354D02*
D03*
X617500Y178000D02*
D03*
X623209D02*
D03*
X579291Y198500D02*
D03*
X585000D02*
D03*
X523146Y157000D02*
D03*
X528854D02*
D03*
X523146Y163000D02*
D03*
X528854D02*
D03*
X522291Y184000D02*
D03*
X527999D02*
D03*
X522291Y190000D02*
D03*
X527999D02*
D03*
X557646Y294500D02*
D03*
X563354D02*
D03*
X557646Y300500D02*
D03*
X563354D02*
D03*
X560354Y184000D02*
D03*
X554646D02*
D03*
X560354Y190000D02*
D03*
X554646D02*
D03*
X560354Y157000D02*
D03*
X554646D02*
D03*
X560354Y163000D02*
D03*
X554646D02*
D03*
X488354Y142000D02*
D03*
X482646D02*
D03*
D27*
X674847Y361000D02*
D03*
X671500D02*
D03*
X674673Y353000D02*
D03*
X671327D02*
D03*
X528772Y244000D02*
D03*
X525228D02*
D03*
X453728Y221000D02*
D03*
X457272D02*
D03*
X453703Y224960D02*
D03*
X457247D02*
D03*
X535457Y219500D02*
D03*
X539000D02*
D03*
X535772Y239500D02*
D03*
X532228D02*
D03*
D28*
X671500Y325827D02*
D03*
Y329173D02*
D03*
X590500Y341327D02*
D03*
Y344673D02*
D03*
X508500Y197728D02*
D03*
Y201272D02*
D03*
X522500Y216728D02*
D03*
Y220272D02*
D03*
X504000Y270772D02*
D03*
Y267228D02*
D03*
X478500Y270772D02*
D03*
Y267228D02*
D03*
X482694Y270813D02*
D03*
Y267269D02*
D03*
D29*
X655000Y267797D02*
D03*
Y253203D02*
D03*
D30*
X669055Y240500D02*
D03*
X650945D02*
D03*
D31*
X630488Y248500D02*
D03*
X641512D02*
D03*
X630488Y239000D02*
D03*
X641512D02*
D03*
X663476Y171500D02*
D03*
X674500D02*
D03*
X634888Y198000D02*
D03*
X645912D02*
D03*
D32*
X665500Y227874D02*
D03*
Y212126D02*
D03*
D33*
X648240Y213276D02*
D03*
X644500D02*
D03*
X640760D02*
D03*
Y222724D02*
D03*
X644500D02*
D03*
X648240D02*
D03*
D34*
X671134Y180000D02*
D03*
X662866D02*
D03*
X671134Y187500D02*
D03*
X662866D02*
D03*
D35*
X637126Y179000D02*
D03*
X652874D02*
D03*
D36*
X618260Y185000D02*
D03*
X625740D02*
D03*
D37*
X611500Y185260D02*
D03*
Y192740D02*
D03*
D38*
X539770Y269860D02*
D03*
Y252140D02*
D03*
X548230D02*
D03*
Y269860D02*
D03*
D39*
X558500Y270878D02*
D03*
Y259500D02*
D03*
D40*
X600500Y204500D02*
D03*
Y209500D02*
D03*
Y214500D02*
D03*
Y219500D02*
D03*
X578500D02*
D03*
Y214500D02*
D03*
Y209500D02*
D03*
Y204500D02*
D03*
D41*
X617500Y171468D02*
D03*
Y169500D02*
D03*
Y167532D02*
D03*
Y165563D02*
D03*
Y163594D02*
D03*
X629114D02*
D03*
Y165563D02*
D03*
Y167532D02*
D03*
Y169500D02*
D03*
Y171468D02*
D03*
D42*
X623307Y167532D02*
D03*
D43*
X547500Y332488D02*
D03*
X579000Y294488D02*
D03*
D44*
X547500Y343512D02*
D03*
X579000Y305512D02*
D03*
D45*
X556811Y315500D02*
D03*
X568189D02*
D03*
D46*
X562551Y323500D02*
D03*
X556449D02*
D03*
D47*
X565307Y368000D02*
D03*
X578693D02*
D03*
X569693Y330500D02*
D03*
X556307D02*
D03*
D48*
X556034Y349476D02*
D03*
D49*
X578475Y358531D02*
D03*
Y349476D02*
D03*
Y340421D02*
D03*
D50*
X574000Y257996D02*
D03*
Y271382D02*
D03*
X609500Y236307D02*
D03*
Y249693D02*
D03*
D51*
X592476Y271655D02*
D03*
D52*
X601532Y249214D02*
D03*
X592476D02*
D03*
X583421D02*
D03*
D53*
X575488Y280000D02*
D03*
D54*
X586512D02*
D03*
D55*
X566500Y265138D02*
D03*
Y271241D02*
D03*
D56*
X661988Y321220D02*
D03*
Y313346D02*
D03*
Y305472D02*
D03*
X600571D02*
D03*
Y313346D02*
D03*
Y321220D02*
D03*
Y329095D02*
D03*
Y336968D02*
D03*
Y344842D02*
D03*
Y352717D02*
D03*
Y360591D02*
D03*
X661988D02*
D03*
Y352717D02*
D03*
Y344842D02*
D03*
Y336968D02*
D03*
Y329094D02*
D03*
D57*
X619468Y300945D02*
D03*
X611594D02*
D03*
X627342D02*
D03*
X635216D02*
D03*
X643090D02*
D03*
X650964D02*
D03*
D58*
X630000Y335000D02*
D03*
D59*
X508122Y212724D02*
D03*
X506153D02*
D03*
X504185D02*
D03*
X502216D02*
D03*
X500248D02*
D03*
X498279D02*
D03*
X496311D02*
D03*
X494343D02*
D03*
X492374D02*
D03*
X490406D02*
D03*
X488437D02*
D03*
X486469D02*
D03*
X484500D02*
D03*
X482531D02*
D03*
X480563D02*
D03*
X478594D02*
D03*
Y258000D02*
D03*
X480563D02*
D03*
X482531D02*
D03*
X484500D02*
D03*
X486469D02*
D03*
X488437D02*
D03*
X490406D02*
D03*
X492374D02*
D03*
X494343D02*
D03*
X496311D02*
D03*
X498279D02*
D03*
X500248D02*
D03*
X502216D02*
D03*
X504185D02*
D03*
X506153D02*
D03*
X508122D02*
D03*
D60*
X470720Y220598D02*
D03*
Y222567D02*
D03*
Y224535D02*
D03*
Y226504D02*
D03*
Y228472D02*
D03*
Y230441D02*
D03*
Y232410D02*
D03*
Y234378D02*
D03*
Y236347D02*
D03*
Y238315D02*
D03*
Y240283D02*
D03*
Y242252D02*
D03*
Y244220D02*
D03*
Y246189D02*
D03*
Y248158D02*
D03*
Y250126D02*
D03*
X515996D02*
D03*
Y248158D02*
D03*
Y246189D02*
D03*
Y244220D02*
D03*
Y242252D02*
D03*
Y240283D02*
D03*
Y238315D02*
D03*
Y236347D02*
D03*
Y234378D02*
D03*
Y232410D02*
D03*
Y230441D02*
D03*
Y228472D02*
D03*
Y226504D02*
D03*
Y224535D02*
D03*
Y222567D02*
D03*
Y220598D02*
D03*
D61*
X538846Y225866D02*
D03*
Y234134D02*
D03*
X532154D02*
D03*
Y225866D02*
D03*
D62*
X508500Y326602D02*
D03*
X513500D02*
D03*
X518500D02*
D03*
X523500D02*
D03*
X508500Y347500D02*
D03*
X513500D02*
D03*
X518500D02*
D03*
X523500D02*
D03*
M02*
