G04*
G04 #@! TF.GenerationSoftware,Altium Limited,Altium Designer,22.0.2 (36)*
G04*
G04 Layer_Physical_Order=3*
G04 Layer_Color=2441676*
%FSLAX25Y25*%
%MOIN*%
G70*
G04*
G04 #@! TF.SameCoordinates,7F160BED-0690-4144-9330-6DFC8CD618BD*
G04*
G04*
G04 #@! TF.FilePolarity,Positive*
G04*
G01*
G75*
%ADD65C,0.02953*%
%ADD66O,0.04724X0.07874*%
%ADD67O,0.04724X0.09055*%
%ADD68C,0.06693*%
%ADD69R,0.06693X0.06693*%
%ADD70R,0.06693X0.06693*%
%ADD71C,0.05906*%
%ADD72R,0.05906X0.05906*%
%ADD73O,0.17717X0.07874*%
%ADD74O,0.07874X0.17717*%
%ADD75C,0.07874*%
%ADD76C,0.15748*%
%ADD82C,0.02400*%
%ADD83C,0.01800*%
%ADD84C,0.08000*%
%ADD85R,0.13000X0.27000*%
%ADD86R,0.14000X0.20000*%
G36*
X777930Y393358D02*
X779170Y393057D01*
X780360Y392596D01*
X781479Y391984D01*
X782509Y391231D01*
X783432Y390350D01*
X784232Y389356D01*
X784896Y388266D01*
X785411Y387099D01*
X785770Y385875D01*
X785966Y384614D01*
X785981Y383988D01*
Y110212D01*
X785983Y110201D01*
X785981Y110189D01*
X785996Y109551D01*
X785858Y108282D01*
X785557Y107043D01*
X785096Y105853D01*
X784484Y104733D01*
X783731Y103703D01*
X782850Y102780D01*
X781856Y101980D01*
X780766Y101317D01*
X779599Y100801D01*
X778375Y100442D01*
X777114Y100246D01*
X776488Y100232D01*
X776126D01*
X412497Y100232D01*
X412485Y100230D01*
X412473Y100232D01*
X411835Y100217D01*
X410567Y100354D01*
X409327Y100655D01*
X408137Y101116D01*
X407017Y101728D01*
X405987Y102481D01*
X405064Y103362D01*
X404264Y104356D01*
X403601Y105446D01*
X403085Y106613D01*
X402727Y107837D01*
X402531Y109098D01*
X402516Y109724D01*
X402520Y383500D01*
X402517Y383512D01*
X402519Y383524D01*
X402504Y384161D01*
X402641Y385430D01*
X402943Y386670D01*
X403404Y387860D01*
X404016Y388979D01*
X404769Y390009D01*
X405650Y390932D01*
X406644Y391732D01*
X407734Y392396D01*
X408901Y392911D01*
X410125Y393270D01*
X411386Y393466D01*
X412012Y393480D01*
X596980Y393480D01*
Y369000D01*
X597058Y368610D01*
X597279Y368279D01*
X597610Y368058D01*
X598000Y367981D01*
X664500D01*
X664890Y368058D01*
X665221Y368279D01*
X665442Y368610D01*
X665520Y369000D01*
Y393480D01*
X776000D01*
X776012Y393483D01*
X776024Y393481D01*
X776661Y393496D01*
X777930Y393358D01*
D02*
G37*
%LPC*%
G36*
X539095Y385933D02*
X538322Y385831D01*
X537601Y385533D01*
X536982Y385058D01*
X536507Y384439D01*
X536209Y383718D01*
X536107Y382945D01*
Y379796D01*
X536209Y379022D01*
X536507Y378302D01*
X536982Y377683D01*
X537601Y377208D01*
X538322Y376909D01*
X539095Y376808D01*
X539868Y376909D01*
X540589Y377208D01*
X541208Y377683D01*
X541682Y378302D01*
X541981Y379022D01*
X542083Y379796D01*
Y382945D01*
X541981Y383718D01*
X541682Y384439D01*
X541208Y385058D01*
X540589Y385533D01*
X539868Y385831D01*
X539095Y385933D01*
D02*
G37*
G36*
X503662Y385933D02*
X502888Y385831D01*
X502168Y385532D01*
X501549Y385058D01*
X501074Y384439D01*
X500776Y383718D01*
X500674Y382945D01*
Y379795D01*
X500776Y379022D01*
X501074Y378301D01*
X501549Y377683D01*
X502168Y377208D01*
X502888Y376909D01*
X503662Y376807D01*
X504435Y376909D01*
X505156Y377208D01*
X505774Y377683D01*
X506249Y378301D01*
X506548Y379022D01*
X506649Y379795D01*
Y382945D01*
X506548Y383718D01*
X506249Y384439D01*
X505774Y385058D01*
X505156Y385532D01*
X504435Y385831D01*
X503662Y385933D01*
D02*
G37*
G36*
X776020Y391175D02*
X774350D01*
X772713Y390849D01*
X771171Y390210D01*
X769783Y389283D01*
X768603Y388103D01*
X767675Y386715D01*
X767037Y385172D01*
X766711Y383535D01*
Y381866D01*
X767037Y380229D01*
X767675Y378687D01*
X768603Y377299D01*
X769783Y376118D01*
X771171Y375191D01*
X772713Y374552D01*
X774350Y374227D01*
X776020D01*
X777657Y374552D01*
X779199Y375191D01*
X780587Y376118D01*
X781767Y377299D01*
X782695Y378687D01*
X783333Y380229D01*
X783659Y381866D01*
Y383535D01*
X783333Y385172D01*
X782695Y386715D01*
X781767Y388103D01*
X780587Y389283D01*
X779199Y390210D01*
X777657Y390849D01*
X776020Y391175D01*
D02*
G37*
G36*
X414203Y391147D02*
X412534D01*
X410896Y390821D01*
X409354Y390183D01*
X407966Y389255D01*
X406786Y388075D01*
X405859Y386687D01*
X405220Y385145D01*
X404894Y383508D01*
Y381838D01*
X405220Y380201D01*
X405859Y378659D01*
X406786Y377271D01*
X407966Y376091D01*
X409354Y375163D01*
X410896Y374525D01*
X412534Y374199D01*
X414203D01*
X415840Y374525D01*
X417382Y375163D01*
X418770Y376091D01*
X419950Y377271D01*
X420878Y378659D01*
X421517Y380201D01*
X421842Y381838D01*
Y383508D01*
X421517Y385145D01*
X420878Y386687D01*
X419950Y388075D01*
X418770Y389255D01*
X417382Y390183D01*
X415840Y390821D01*
X414203Y391147D01*
D02*
G37*
G36*
X533169Y369076D02*
X532343D01*
X531580Y368760D01*
X530996Y368176D01*
X530680Y367413D01*
Y366587D01*
X530996Y365824D01*
X531580Y365240D01*
X532343Y364924D01*
X533169D01*
X533932Y365240D01*
X534516Y365824D01*
X534832Y366587D01*
Y367413D01*
X534516Y368176D01*
X533932Y368760D01*
X533169Y369076D01*
D02*
G37*
G36*
X510413D02*
X509587D01*
X508824Y368760D01*
X508240Y368176D01*
X507924Y367413D01*
Y366587D01*
X508240Y365824D01*
X508824Y365240D01*
X509587Y364924D01*
X510413D01*
X511176Y365240D01*
X511760Y365824D01*
X512076Y366587D01*
Y367413D01*
X511760Y368176D01*
X511176Y368760D01*
X510413Y369076D01*
D02*
G37*
G36*
X517358Y368300D02*
X516642D01*
X515980Y368026D01*
X515474Y367520D01*
X515200Y366858D01*
Y366142D01*
X515474Y365480D01*
X515980Y364974D01*
X516642Y364700D01*
X517358D01*
X518020Y364974D01*
X518526Y365480D01*
X518800Y366142D01*
Y366858D01*
X518526Y367520D01*
X518020Y368026D01*
X517358Y368300D01*
D02*
G37*
G36*
X522721Y368163D02*
X522005D01*
X521343Y367889D01*
X520837Y367382D01*
X520563Y366721D01*
Y366005D01*
X520837Y365343D01*
X521343Y364837D01*
X522005Y364563D01*
X522721D01*
X523382Y364837D01*
X523889Y365343D01*
X524163Y366005D01*
Y366721D01*
X523889Y367382D01*
X523382Y367889D01*
X522721Y368163D01*
D02*
G37*
G36*
X556858Y367300D02*
X556142D01*
X555480Y367026D01*
X554974Y366520D01*
X554700Y365858D01*
Y365142D01*
X554974Y364480D01*
X555480Y363974D01*
X556142Y363700D01*
X556858D01*
X557520Y363974D01*
X558026Y364480D01*
X558300Y365142D01*
Y365858D01*
X558026Y366520D01*
X557520Y367026D01*
X556858Y367300D01*
D02*
G37*
G36*
X539095Y370185D02*
X538322Y370083D01*
X537602Y369785D01*
X536983Y369310D01*
X536508Y368691D01*
X536210Y367970D01*
X536108Y367197D01*
Y362866D01*
X536210Y362093D01*
X536508Y361372D01*
X536983Y360754D01*
X537602Y360279D01*
X538322Y359981D01*
X539095Y359879D01*
X539869Y359981D01*
X540589Y360279D01*
X541208Y360754D01*
X541683Y361372D01*
X541982Y362093D01*
X542083Y362866D01*
Y367197D01*
X541982Y367970D01*
X541683Y368691D01*
X541208Y369310D01*
X540589Y369785D01*
X539869Y370083D01*
X539095Y370185D01*
D02*
G37*
G36*
X503662Y370185D02*
X502889Y370083D01*
X502168Y369784D01*
X501550Y369310D01*
X501075Y368691D01*
X500776Y367970D01*
X500674Y367197D01*
Y362866D01*
X500776Y362093D01*
X501075Y361372D01*
X501550Y360753D01*
X502168Y360279D01*
X502889Y359980D01*
X503662Y359878D01*
X504436Y359980D01*
X505156Y360279D01*
X505775Y360753D01*
X506250Y361372D01*
X506548Y362093D01*
X506650Y362866D01*
Y367197D01*
X506548Y367970D01*
X506250Y368691D01*
X505775Y369310D01*
X505156Y369784D01*
X504436Y370083D01*
X503662Y370185D01*
D02*
G37*
G36*
X671858Y359800D02*
X671142D01*
X670480Y359526D01*
X669974Y359020D01*
X669700Y358358D01*
Y357642D01*
X669974Y356980D01*
X670480Y356474D01*
X671142Y356200D01*
X671858D01*
X672520Y356474D01*
X673026Y356980D01*
X673300Y357642D01*
Y358358D01*
X673026Y359020D01*
X672520Y359526D01*
X671858Y359800D01*
D02*
G37*
G36*
X513858Y356300D02*
X513142D01*
X512480Y356026D01*
X511974Y355520D01*
X511700Y354858D01*
Y354142D01*
X511974Y353480D01*
X512480Y352974D01*
X513142Y352700D01*
X513858D01*
X514520Y352974D01*
X515026Y353480D01*
X515300Y354142D01*
Y354858D01*
X515026Y355520D01*
X514520Y356026D01*
X513858Y356300D01*
D02*
G37*
G36*
X590858Y354400D02*
X590142D01*
X589480Y354126D01*
X588974Y353620D01*
X588700Y352958D01*
Y352242D01*
X588974Y351580D01*
X589480Y351074D01*
X590142Y350800D01*
X590858D01*
X591520Y351074D01*
X592026Y351580D01*
X592300Y352242D01*
Y352958D01*
X592026Y353620D01*
X591520Y354126D01*
X590858Y354400D01*
D02*
G37*
G36*
X671858Y350800D02*
X671142D01*
X670480Y350526D01*
X669974Y350020D01*
X669700Y349358D01*
Y348642D01*
X669974Y347980D01*
X670480Y347474D01*
X671142Y347200D01*
X671858D01*
X672520Y347474D01*
X673026Y347980D01*
X673300Y348642D01*
Y349358D01*
X673026Y350020D01*
X672520Y350526D01*
X671858Y350800D01*
D02*
G37*
G36*
X581358Y337300D02*
X580642D01*
X579980Y337026D01*
X579474Y336520D01*
X579262Y336008D01*
X578738D01*
X578526Y336520D01*
X578020Y337026D01*
X577358Y337300D01*
X576642D01*
X575980Y337026D01*
X575474Y336520D01*
X575200Y335858D01*
Y335142D01*
X575474Y334480D01*
X575980Y333974D01*
X576492Y333762D01*
Y333238D01*
X575980Y333026D01*
X575474Y332520D01*
X575200Y331858D01*
Y331142D01*
X575474Y330480D01*
X575980Y329974D01*
X576642Y329700D01*
X577358D01*
X578020Y329974D01*
X578526Y330480D01*
X578738Y330992D01*
X579262D01*
X579474Y330480D01*
X579980Y329974D01*
X580642Y329700D01*
X581358D01*
X582020Y329974D01*
X582526Y330480D01*
X582800Y331142D01*
Y331858D01*
X582526Y332520D01*
X582020Y333026D01*
X581508Y333238D01*
Y333762D01*
X582020Y333974D01*
X582526Y334480D01*
X582800Y335142D01*
Y335858D01*
X582526Y336520D01*
X582020Y337026D01*
X581358Y337300D01*
D02*
G37*
G36*
X535858Y333300D02*
X535142D01*
X534480Y333026D01*
X533974Y332520D01*
X533700Y331858D01*
Y331142D01*
X533974Y330480D01*
X534480Y329974D01*
X535142Y329700D01*
X535858D01*
X536520Y329974D01*
X537026Y330480D01*
X537300Y331142D01*
Y331858D01*
X537026Y332520D01*
X536520Y333026D01*
X535858Y333300D01*
D02*
G37*
G36*
X634858Y339800D02*
X634142D01*
X633480Y339526D01*
X632974Y339020D01*
X632700Y338358D01*
Y337642D01*
X632974Y336980D01*
X633480Y336474D01*
X633442Y335949D01*
X633425Y335942D01*
X632919Y335435D01*
X632645Y334774D01*
Y334058D01*
X632919Y333396D01*
X633316Y332999D01*
X633402Y332752D01*
X633339Y332384D01*
X632974Y332020D01*
X632700Y331358D01*
Y330642D01*
X632974Y329980D01*
X633480Y329474D01*
X634142Y329200D01*
X634858D01*
X635520Y329474D01*
X636026Y329980D01*
X636300Y330642D01*
Y331358D01*
X636026Y332020D01*
X635629Y332417D01*
X635543Y332663D01*
X635606Y333031D01*
X635971Y333396D01*
X636245Y334058D01*
Y334774D01*
X635971Y335435D01*
X635464Y335942D01*
X635502Y336467D01*
X635520Y336474D01*
X636026Y336980D01*
X636300Y337642D01*
Y338358D01*
X636026Y339020D01*
X635520Y339526D01*
X634858Y339800D01*
D02*
G37*
G36*
X630358D02*
X629642D01*
X628980Y339526D01*
X628474Y339020D01*
X628200Y338358D01*
Y337642D01*
X628474Y336980D01*
X628980Y336474D01*
X628942Y335949D01*
X628925Y335942D01*
X628419Y335435D01*
X628145Y334774D01*
Y334058D01*
X628419Y333396D01*
X628816Y332999D01*
X628902Y332752D01*
X628839Y332384D01*
X628474Y332020D01*
X628200Y331358D01*
Y330642D01*
X628474Y329980D01*
X628980Y329474D01*
X629642Y329200D01*
X630358D01*
X631020Y329474D01*
X631526Y329980D01*
X631800Y330642D01*
Y331358D01*
X631526Y332020D01*
X631129Y332417D01*
X631043Y332663D01*
X631106Y333031D01*
X631471Y333396D01*
X631745Y334058D01*
Y334774D01*
X631471Y335435D01*
X630964Y335942D01*
X631003Y336467D01*
X631020Y336474D01*
X631526Y336980D01*
X631800Y337642D01*
Y338358D01*
X631526Y339020D01*
X631020Y339526D01*
X630358Y339800D01*
D02*
G37*
G36*
X625858D02*
X625142D01*
X624480Y339526D01*
X623974Y339020D01*
X623700Y338358D01*
Y337642D01*
X623974Y336980D01*
X624480Y336474D01*
X624442Y335949D01*
X624425Y335942D01*
X623919Y335435D01*
X623645Y334774D01*
Y334058D01*
X623919Y333396D01*
X624316Y332999D01*
X624402Y332752D01*
X624339Y332384D01*
X623974Y332020D01*
X623700Y331358D01*
Y330642D01*
X623974Y329980D01*
X624480Y329474D01*
X625142Y329200D01*
X625858D01*
X626520Y329474D01*
X627026Y329980D01*
X627300Y330642D01*
Y331358D01*
X627026Y332020D01*
X626629Y332417D01*
X626543Y332663D01*
X626606Y333031D01*
X626971Y333396D01*
X627245Y334058D01*
Y334774D01*
X626971Y335435D01*
X626464Y335942D01*
X626503Y336467D01*
X626520Y336474D01*
X627026Y336980D01*
X627300Y337642D01*
Y338358D01*
X627026Y339020D01*
X626520Y339526D01*
X625858Y339800D01*
D02*
G37*
G36*
X563047Y332300D02*
X562331D01*
X561670Y332026D01*
X561163Y331520D01*
X560889Y330858D01*
Y330142D01*
X561163Y329480D01*
X561670Y328974D01*
X562331Y328700D01*
X562697D01*
X563031Y328200D01*
X562889Y327858D01*
Y327142D01*
X563163Y326480D01*
X563670Y325974D01*
X564331Y325700D01*
X565047D01*
X565709Y325974D01*
X566215Y326480D01*
X566489Y327142D01*
Y327858D01*
X566215Y328520D01*
X565709Y329026D01*
X565047Y329300D01*
X564682D01*
X564348Y329800D01*
X564489Y330142D01*
Y330858D01*
X564215Y331520D01*
X563709Y332026D01*
X563047Y332300D01*
D02*
G37*
G36*
X547858Y328800D02*
X547142D01*
X546480Y328526D01*
X545974Y328020D01*
X545700Y327358D01*
Y326642D01*
X545974Y325980D01*
X546480Y325474D01*
X547142Y325200D01*
X547858D01*
X548520Y325474D01*
X549026Y325980D01*
X549300Y326642D01*
Y327358D01*
X549026Y328020D01*
X548520Y328526D01*
X547858Y328800D01*
D02*
G37*
G36*
X571547Y324800D02*
X570831D01*
X570170Y324526D01*
X569663Y324020D01*
X569451Y323508D01*
X568927D01*
X568715Y324020D01*
X568209Y324526D01*
X567547Y324800D01*
X566831D01*
X566170Y324526D01*
X565663Y324020D01*
X565389Y323358D01*
Y322642D01*
X565663Y321980D01*
X566170Y321474D01*
X566831Y321200D01*
X567547D01*
X568209Y321474D01*
X568715Y321980D01*
X568927Y322492D01*
X569451D01*
X569663Y321980D01*
X570170Y321474D01*
X570831Y321200D01*
X571547D01*
X572209Y321474D01*
X572715Y321980D01*
X572989Y322642D01*
Y323358D01*
X572715Y324020D01*
X572209Y324526D01*
X571547Y324800D01*
D02*
G37*
G36*
X673358Y323800D02*
X672642D01*
X671980Y323526D01*
X671474Y323020D01*
X671200Y322358D01*
Y321642D01*
X671474Y320980D01*
X671980Y320474D01*
X672642Y320200D01*
X673358D01*
X674020Y320474D01*
X674526Y320980D01*
X674800Y321642D01*
Y322358D01*
X674526Y323020D01*
X674020Y323526D01*
X673358Y323800D01*
D02*
G37*
G36*
X592317Y318259D02*
X591601D01*
X590939Y317985D01*
X590433Y317479D01*
X590159Y316817D01*
Y316101D01*
X590433Y315439D01*
X590939Y314933D01*
X591601Y314659D01*
X592317D01*
X592979Y314933D01*
X593485Y315439D01*
X593759Y316101D01*
Y316817D01*
X593485Y317479D01*
X592979Y317985D01*
X592317Y318259D01*
D02*
G37*
G36*
X585858Y316800D02*
X585142D01*
X584480Y316526D01*
X583974Y316020D01*
X583700Y315358D01*
Y314642D01*
X583974Y313980D01*
X584480Y313474D01*
X585142Y313200D01*
X585858D01*
X586520Y313474D01*
X587026Y313980D01*
X587300Y314642D01*
Y315358D01*
X587026Y316020D01*
X586520Y316526D01*
X585858Y316800D01*
D02*
G37*
G36*
X524446Y318947D02*
X516553D01*
Y311053D01*
X524446D01*
Y318947D01*
D02*
G37*
G36*
X511020D02*
X509980D01*
X508977Y318677D01*
X508077Y318158D01*
X507342Y317423D01*
X506822Y316523D01*
X506554Y315520D01*
Y314480D01*
X506822Y313477D01*
X507342Y312577D01*
X508077Y311842D01*
X508977Y311322D01*
X509980Y311053D01*
X511020D01*
X512023Y311322D01*
X512923Y311842D01*
X513658Y312577D01*
X514178Y313477D01*
X514446Y314480D01*
Y315520D01*
X514178Y316523D01*
X513658Y317423D01*
X512923Y318158D01*
X512023Y318677D01*
X511020Y318947D01*
D02*
G37*
G36*
X501020D02*
X499980D01*
X498977Y318677D01*
X498077Y318158D01*
X497342Y317423D01*
X496823Y316523D01*
X496554Y315520D01*
Y314480D01*
X496823Y313477D01*
X497342Y312577D01*
X498077Y311842D01*
X498977Y311322D01*
X499980Y311053D01*
X501020D01*
X502023Y311322D01*
X502923Y311842D01*
X503658Y312577D01*
X504178Y313477D01*
X504447Y314480D01*
Y315520D01*
X504178Y316523D01*
X503658Y317423D01*
X502923Y318158D01*
X502023Y318677D01*
X501020Y318947D01*
D02*
G37*
G36*
X411447Y315947D02*
X403553D01*
Y308053D01*
X411447D01*
Y315947D01*
D02*
G37*
G36*
X669958Y307300D02*
X669242D01*
X668580Y307026D01*
X668074Y306520D01*
X667800Y305858D01*
Y305142D01*
X668074Y304480D01*
X668580Y303974D01*
X669242Y303700D01*
X669958D01*
X670620Y303974D01*
X671126Y304480D01*
X671400Y305142D01*
Y305858D01*
X671126Y306520D01*
X670620Y307026D01*
X669958Y307300D01*
D02*
G37*
G36*
X558358D02*
X557642D01*
X556980Y307026D01*
X556474Y306520D01*
X556200Y305858D01*
Y305142D01*
X556474Y304480D01*
X556980Y303974D01*
X557642Y303700D01*
X558358D01*
X559020Y303974D01*
X559526Y304480D01*
X559800Y305142D01*
Y305858D01*
X559526Y306520D01*
X559020Y307026D01*
X558358Y307300D01*
D02*
G37*
G36*
X408020Y305946D02*
X406980D01*
X405977Y305678D01*
X405077Y305158D01*
X404342Y304423D01*
X403823Y303523D01*
X403553Y302520D01*
Y301480D01*
X403823Y300477D01*
X404342Y299577D01*
X405077Y298842D01*
X405977Y298323D01*
X406980Y298054D01*
X408020D01*
X409023Y298323D01*
X409923Y298842D01*
X410658Y299577D01*
X411177Y300477D01*
X411447Y301480D01*
Y302520D01*
X411177Y303523D01*
X410658Y304423D01*
X409923Y305158D01*
X409023Y305678D01*
X408020Y305946D01*
D02*
G37*
G36*
X579358Y291800D02*
X578642D01*
X577980Y291526D01*
X577474Y291020D01*
X577200Y290358D01*
Y289642D01*
X577474Y288980D01*
X577980Y288474D01*
X578642Y288200D01*
X579358D01*
X580020Y288474D01*
X580526Y288980D01*
X580800Y289642D01*
Y290358D01*
X580526Y291020D01*
X580020Y291526D01*
X579358Y291800D01*
D02*
G37*
G36*
X408020Y295947D02*
X406980D01*
X405977Y295677D01*
X405077Y295158D01*
X404342Y294423D01*
X403823Y293523D01*
X403553Y292520D01*
Y291480D01*
X403823Y290477D01*
X404342Y289577D01*
X405077Y288842D01*
X405977Y288322D01*
X406980Y288053D01*
X408020D01*
X409023Y288322D01*
X409923Y288842D01*
X410658Y289577D01*
X411177Y290477D01*
X411447Y291480D01*
Y292520D01*
X411177Y293523D01*
X410658Y294423D01*
X409923Y295158D01*
X409023Y295677D01*
X408020Y295947D01*
D02*
G37*
G36*
X575846Y287288D02*
X575130D01*
X574469Y287014D01*
X573962Y286508D01*
X573688Y285846D01*
Y285130D01*
X573962Y284469D01*
X574469Y283962D01*
X575130Y283688D01*
X575846D01*
X576508Y283962D01*
X577014Y284469D01*
X577288Y285130D01*
Y285846D01*
X577014Y286508D01*
X576508Y287014D01*
X575846Y287288D01*
D02*
G37*
G36*
X564618Y289446D02*
X563579D01*
X562575Y289177D01*
X561675Y288658D01*
X560941Y287923D01*
X560421Y287023D01*
X560152Y286020D01*
Y284980D01*
X560421Y283977D01*
X560941Y283077D01*
X561675Y282342D01*
X562575Y281822D01*
X563579Y281554D01*
X564618D01*
X565622Y281822D01*
X566522Y282342D01*
X567256Y283077D01*
X567776Y283977D01*
X568045Y284980D01*
Y286020D01*
X567776Y287023D01*
X567256Y287923D01*
X566522Y288658D01*
X565622Y289177D01*
X564618Y289446D01*
D02*
G37*
G36*
X554618D02*
X553579D01*
X552575Y289177D01*
X551675Y288658D01*
X550941Y287923D01*
X550421Y287023D01*
X550152Y286020D01*
Y284980D01*
X550421Y283977D01*
X550941Y283077D01*
X551675Y282342D01*
X552575Y281822D01*
X553579Y281554D01*
X554618D01*
X555622Y281822D01*
X556522Y282342D01*
X557256Y283077D01*
X557776Y283977D01*
X558045Y284980D01*
Y286020D01*
X557776Y287023D01*
X557256Y287923D01*
X556522Y288658D01*
X555622Y289177D01*
X554618Y289446D01*
D02*
G37*
G36*
X544618D02*
X543579D01*
X542575Y289177D01*
X541675Y288658D01*
X540941Y287923D01*
X540421Y287023D01*
X540152Y286020D01*
Y284980D01*
X540421Y283977D01*
X540941Y283077D01*
X541675Y282342D01*
X542575Y281822D01*
X543579Y281554D01*
X544618D01*
X545622Y281822D01*
X546522Y282342D01*
X547256Y283077D01*
X547776Y283977D01*
X548045Y284980D01*
Y286020D01*
X547776Y287023D01*
X547256Y287923D01*
X546522Y288658D01*
X545622Y289177D01*
X544618Y289446D01*
D02*
G37*
G36*
X538045D02*
X530152D01*
Y281554D01*
X538045D01*
Y289446D01*
D02*
G37*
G36*
X510520D02*
X509480D01*
X508477Y289177D01*
X507577Y288658D01*
X506842Y287923D01*
X506322Y287023D01*
X506053Y286020D01*
Y284980D01*
X506322Y283977D01*
X506842Y283077D01*
X507577Y282342D01*
X508477Y281822D01*
X509480Y281554D01*
X510520D01*
X511523Y281822D01*
X512423Y282342D01*
X513158Y283077D01*
X513678Y283977D01*
X513946Y284980D01*
Y286020D01*
X513678Y287023D01*
X513158Y287923D01*
X512423Y288658D01*
X511523Y289177D01*
X510520Y289446D01*
D02*
G37*
G36*
X500520D02*
X499480D01*
X498477Y289177D01*
X497577Y288658D01*
X496842Y287923D01*
X496322Y287023D01*
X496054Y286020D01*
Y284980D01*
X496322Y283977D01*
X496842Y283077D01*
X497577Y282342D01*
X498477Y281822D01*
X499480Y281554D01*
X500520D01*
X501523Y281822D01*
X502423Y282342D01*
X503158Y283077D01*
X503678Y283977D01*
X503946Y284980D01*
Y286020D01*
X503678Y287023D01*
X503158Y287923D01*
X502423Y288658D01*
X501523Y289177D01*
X500520Y289446D01*
D02*
G37*
G36*
X483947D02*
X476053D01*
Y281554D01*
X483947D01*
Y289446D01*
D02*
G37*
G36*
X408020Y285946D02*
X406980D01*
X405977Y285678D01*
X405077Y285158D01*
X404342Y284423D01*
X403823Y283523D01*
X403553Y282520D01*
Y281480D01*
X403823Y280477D01*
X404342Y279577D01*
X405077Y278842D01*
X405977Y278323D01*
X406980Y278053D01*
X408020D01*
X409023Y278323D01*
X409923Y278842D01*
X410658Y279577D01*
X411177Y280477D01*
X411447Y281480D01*
Y282520D01*
X411177Y283523D01*
X410658Y284423D01*
X409923Y285158D01*
X409023Y285678D01*
X408020Y285946D01*
D02*
G37*
G36*
X482858Y276300D02*
X482142D01*
X481480Y276026D01*
X480974Y275520D01*
X480762Y275008D01*
X480238D01*
X480026Y275520D01*
X479520Y276026D01*
X478858Y276300D01*
X478142D01*
X477480Y276026D01*
X476974Y275520D01*
X476700Y274858D01*
Y274142D01*
X476974Y273480D01*
X477480Y272974D01*
X478142Y272700D01*
X478858D01*
X479520Y272974D01*
X480026Y273480D01*
X480238Y273992D01*
X480762D01*
X480974Y273480D01*
X481480Y272974D01*
X482142Y272700D01*
X482858D01*
X483520Y272974D01*
X484026Y273480D01*
X484300Y274142D01*
Y274858D01*
X484026Y275520D01*
X483520Y276026D01*
X482858Y276300D01*
D02*
G37*
G36*
X586000Y382149D02*
X573000D01*
X572541Y381959D01*
X572351Y381500D01*
Y354500D01*
X572541Y354041D01*
X573000Y353851D01*
X586000D01*
X586459Y354041D01*
X586649Y354500D01*
Y355047D01*
X593892D01*
X595860Y353078D01*
Y324500D01*
X595860Y324500D01*
X595939Y323900D01*
X596018Y323299D01*
X596482Y322180D01*
X597219Y321219D01*
X608719Y309719D01*
X608719Y309719D01*
X609680Y308982D01*
X610799Y308518D01*
X612000Y308360D01*
X612000Y308360D01*
X643078D01*
X650180Y301258D01*
Y292649D01*
X648000D01*
X647541Y292459D01*
X647351Y292000D01*
Y272000D01*
X647541Y271541D01*
X648000Y271351D01*
X662000D01*
X662459Y271541D01*
X662649Y272000D01*
Y292000D01*
X662459Y292459D01*
X662000Y292649D01*
X659460D01*
Y303180D01*
X659302Y304381D01*
X658838Y305500D01*
X658101Y306461D01*
X658101Y306461D01*
X648281Y316281D01*
X647320Y317018D01*
X646201Y317482D01*
X645600Y317561D01*
X645000Y317640D01*
X645000Y317640D01*
X613922D01*
X605140Y326422D01*
Y355000D01*
X605140Y355000D01*
X604982Y356201D01*
X604518Y357320D01*
X603781Y358281D01*
X599094Y362967D01*
X598134Y363704D01*
X597015Y364168D01*
X596414Y364247D01*
X595814Y364326D01*
X595814Y364326D01*
X586649D01*
Y381500D01*
X586459Y381959D01*
X586000Y382149D01*
D02*
G37*
G36*
X507358Y272300D02*
X506642D01*
X505980Y272026D01*
X505474Y271520D01*
X505200Y270858D01*
Y270142D01*
X505474Y269480D01*
X505980Y268974D01*
X506642Y268700D01*
X507358D01*
X508020Y268974D01*
X508526Y269480D01*
X508800Y270142D01*
Y270858D01*
X508526Y271520D01*
X508020Y272026D01*
X507358Y272300D01*
D02*
G37*
G36*
X408020Y275946D02*
X406980D01*
X405977Y275677D01*
X405077Y275158D01*
X404342Y274423D01*
X403823Y273523D01*
X403553Y272520D01*
Y271480D01*
X403823Y270477D01*
X404342Y269577D01*
X405077Y268842D01*
X405977Y268322D01*
X406980Y268054D01*
X408020D01*
X409023Y268322D01*
X409923Y268842D01*
X410658Y269577D01*
X411177Y270477D01*
X411447Y271480D01*
Y272520D01*
X411177Y273523D01*
X410658Y274423D01*
X409923Y275158D01*
X409023Y275677D01*
X408020Y275946D01*
D02*
G37*
G36*
X574358Y266800D02*
X573642D01*
X572980Y266526D01*
X572474Y266020D01*
X572200Y265358D01*
Y264992D01*
X571700Y264658D01*
X571358Y264800D01*
X570642D01*
X569980Y264526D01*
X569474Y264020D01*
X569200Y263358D01*
Y262642D01*
X569474Y261980D01*
X569980Y261474D01*
X570642Y261200D01*
X571358D01*
X572020Y261474D01*
X572526Y261980D01*
X572800Y262642D01*
Y263007D01*
X573300Y263342D01*
X573642Y263200D01*
X574358D01*
X575020Y263474D01*
X575526Y263980D01*
X575800Y264642D01*
Y265358D01*
X575526Y266020D01*
X575020Y266526D01*
X574358Y266800D01*
D02*
G37*
G36*
X509858Y266300D02*
X509142D01*
X508480Y266026D01*
X507974Y265520D01*
X507700Y264858D01*
Y264142D01*
X507974Y263480D01*
X508480Y262974D01*
X509142Y262700D01*
X509858D01*
X510520Y262974D01*
X511026Y263480D01*
X511300Y264142D01*
Y264858D01*
X511026Y265520D01*
X510520Y266026D01*
X509858Y266300D01*
D02*
G37*
G36*
X493858Y265800D02*
X493142D01*
X492480Y265526D01*
X491974Y265020D01*
X491700Y264358D01*
Y263642D01*
X491974Y262980D01*
X492480Y262474D01*
X493142Y262200D01*
X493858D01*
X494520Y262474D01*
X495026Y262980D01*
X495300Y263642D01*
Y264358D01*
X495026Y265020D01*
X494520Y265526D01*
X493858Y265800D01*
D02*
G37*
G36*
X486730Y267876D02*
X486014D01*
X485353Y267602D01*
X484846Y267096D01*
X484572Y266434D01*
Y265718D01*
X484846Y265057D01*
X485353Y264550D01*
X486014Y264276D01*
X486577D01*
X486857Y263909D01*
X486889Y263814D01*
X486700Y263358D01*
Y262642D01*
X486974Y261980D01*
X487480Y261474D01*
X488142Y261200D01*
X488858D01*
X489520Y261474D01*
X490026Y261980D01*
X490300Y262642D01*
Y263358D01*
X490026Y264020D01*
X489520Y264526D01*
X488858Y264800D01*
X488295D01*
X488016Y265167D01*
X487983Y265262D01*
X488172Y265718D01*
Y266434D01*
X487898Y267096D01*
X487392Y267602D01*
X486730Y267876D01*
D02*
G37*
G36*
X484245Y264413D02*
X483529D01*
X482867Y264139D01*
X482361Y263633D01*
X482087Y262971D01*
Y262255D01*
X482361Y261594D01*
X482867Y261087D01*
X483529Y260813D01*
X484245D01*
X484906Y261087D01*
X485413Y261594D01*
X485686Y262255D01*
Y262971D01*
X485413Y263633D01*
X484906Y264139D01*
X484245Y264413D01*
D02*
G37*
G36*
X408020Y265947D02*
X406980D01*
X405977Y265677D01*
X405077Y265158D01*
X404342Y264423D01*
X403823Y263523D01*
X403553Y262520D01*
Y261480D01*
X403823Y260477D01*
X404342Y259577D01*
X405077Y258842D01*
X405977Y258323D01*
X406980Y258053D01*
X408020D01*
X409023Y258323D01*
X409923Y258842D01*
X410658Y259577D01*
X411177Y260477D01*
X411447Y261480D01*
Y262520D01*
X411177Y263523D01*
X410658Y264423D01*
X409923Y265158D01*
X409023Y265677D01*
X408020Y265947D01*
D02*
G37*
G36*
X566858Y262300D02*
X566142D01*
X565480Y262026D01*
X564974Y261520D01*
X564700Y260858D01*
Y260142D01*
X564974Y259480D01*
X565480Y258974D01*
X565992Y258762D01*
Y258238D01*
X565480Y258026D01*
X564974Y257520D01*
X564700Y256858D01*
Y256142D01*
X564974Y255480D01*
X565480Y254974D01*
X566142Y254700D01*
X566858D01*
X567520Y254974D01*
X568026Y255480D01*
X568300Y256142D01*
Y256858D01*
X568026Y257520D01*
X567520Y258026D01*
X567008Y258238D01*
Y258762D01*
X567520Y258974D01*
X568026Y259480D01*
X568300Y260142D01*
Y260858D01*
X568026Y261520D01*
X567520Y262026D01*
X566858Y262300D01*
D02*
G37*
G36*
X642858Y256300D02*
X642142D01*
X641480Y256026D01*
X640974Y255520D01*
X640700Y254858D01*
Y254142D01*
X640974Y253480D01*
X641480Y252974D01*
X642142Y252700D01*
X642858D01*
X643520Y252974D01*
X644026Y253480D01*
X644300Y254142D01*
Y254858D01*
X644026Y255520D01*
X643520Y256026D01*
X642858Y256300D01*
D02*
G37*
G36*
X633358Y259800D02*
X632642D01*
X631980Y259526D01*
X631474Y259020D01*
X631200Y258358D01*
Y257642D01*
X631474Y256980D01*
X631915Y256540D01*
X631952Y256250D01*
X631915Y255960D01*
X631474Y255520D01*
X631200Y254858D01*
Y254142D01*
X631474Y253480D01*
X631980Y252974D01*
X632642Y252700D01*
X633358D01*
X634020Y252974D01*
X634526Y253480D01*
X634800Y254142D01*
Y254858D01*
X634526Y255520D01*
X634086Y255960D01*
X634048Y256250D01*
X634086Y256540D01*
X634526Y256980D01*
X634800Y257642D01*
Y258358D01*
X634526Y259020D01*
X634020Y259526D01*
X633358Y259800D01*
D02*
G37*
G36*
X627858D02*
X627142D01*
X626480Y259526D01*
X625974Y259020D01*
X625700Y258358D01*
Y257642D01*
X625974Y256980D01*
X626414Y256540D01*
X626452Y256250D01*
X626414Y255960D01*
X625974Y255520D01*
X625700Y254858D01*
Y254142D01*
X625974Y253480D01*
X626480Y252974D01*
X627142Y252700D01*
X627858D01*
X628520Y252974D01*
X629026Y253480D01*
X629300Y254142D01*
Y254858D01*
X629026Y255520D01*
X628585Y255960D01*
X628548Y256250D01*
X628585Y256540D01*
X629026Y256980D01*
X629300Y257642D01*
Y258358D01*
X629026Y259020D01*
X628520Y259526D01*
X627858Y259800D01*
D02*
G37*
G36*
X544358Y254300D02*
X543642D01*
X542980Y254026D01*
X542474Y253520D01*
X542200Y252858D01*
Y252142D01*
X542474Y251480D01*
X542980Y250974D01*
X543642Y250700D01*
X544358D01*
X545020Y250974D01*
X545526Y251480D01*
X545800Y252142D01*
Y252858D01*
X545526Y253520D01*
X545020Y254026D01*
X544358Y254300D01*
D02*
G37*
G36*
X578858Y252800D02*
X578142D01*
X577480Y252526D01*
X576974Y252020D01*
X576700Y251358D01*
Y250642D01*
X576974Y249980D01*
X577480Y249474D01*
X578142Y249200D01*
X578858D01*
X579520Y249474D01*
X580026Y249980D01*
X580300Y250642D01*
Y251358D01*
X580026Y252020D01*
X579520Y252526D01*
X578858Y252800D01*
D02*
G37*
G36*
X573358D02*
X572642D01*
X571980Y252526D01*
X571474Y252020D01*
X571200Y251358D01*
Y250642D01*
X571474Y249980D01*
X571980Y249474D01*
X572642Y249200D01*
X573358D01*
X574020Y249474D01*
X574526Y249980D01*
X574800Y250642D01*
Y251358D01*
X574526Y252020D01*
X574020Y252526D01*
X573358Y252800D01*
D02*
G37*
G36*
X567858D02*
X567142D01*
X566480Y252526D01*
X565974Y252020D01*
X565700Y251358D01*
Y250642D01*
X565974Y249980D01*
X566480Y249474D01*
X567142Y249200D01*
X567858D01*
X568520Y249474D01*
X569026Y249980D01*
X569300Y250642D01*
Y251358D01*
X569026Y252020D01*
X568520Y252526D01*
X567858Y252800D01*
D02*
G37*
G36*
X408020Y255946D02*
X406980D01*
X405977Y255678D01*
X405077Y255158D01*
X404342Y254423D01*
X403823Y253523D01*
X403553Y252520D01*
Y251480D01*
X403823Y250477D01*
X404342Y249577D01*
X405077Y248842D01*
X405977Y248323D01*
X406980Y248054D01*
X408020D01*
X409023Y248323D01*
X409923Y248842D01*
X410658Y249577D01*
X411177Y250477D01*
X411447Y251480D01*
Y252520D01*
X411177Y253523D01*
X410658Y254423D01*
X409923Y255158D01*
X409023Y255678D01*
X408020Y255946D01*
D02*
G37*
G36*
X531858Y248800D02*
X531142D01*
X530480Y248526D01*
X529974Y248020D01*
X529700Y247358D01*
Y246642D01*
X529974Y245980D01*
X530480Y245474D01*
X531142Y245200D01*
X531858D01*
X532520Y245474D01*
X533026Y245980D01*
X533300Y246642D01*
Y247358D01*
X533026Y248020D01*
X532520Y248526D01*
X531858Y248800D01*
D02*
G37*
G36*
X578858Y248300D02*
X578142D01*
X577480Y248026D01*
X576974Y247520D01*
X576700Y246858D01*
Y246142D01*
X576974Y245480D01*
X577480Y244974D01*
X578142Y244700D01*
X578858D01*
X579520Y244974D01*
X580026Y245480D01*
X580300Y246142D01*
Y246858D01*
X580026Y247520D01*
X579520Y248026D01*
X578858Y248300D01*
D02*
G37*
G36*
X573358D02*
X572642D01*
X571980Y248026D01*
X571474Y247520D01*
X571200Y246858D01*
Y246142D01*
X571474Y245480D01*
X571980Y244974D01*
X572642Y244700D01*
X573358D01*
X574020Y244974D01*
X574526Y245480D01*
X574800Y246142D01*
Y246858D01*
X574526Y247520D01*
X574020Y248026D01*
X573358Y248300D01*
D02*
G37*
G36*
X567858D02*
X567142D01*
X566480Y248026D01*
X565974Y247520D01*
X565700Y246858D01*
Y246142D01*
X565974Y245480D01*
X566480Y244974D01*
X567142Y244700D01*
X567858D01*
X568520Y244974D01*
X569026Y245480D01*
X569300Y246142D01*
Y246858D01*
X569026Y247520D01*
X568520Y248026D01*
X567858Y248300D01*
D02*
G37*
G36*
X545858Y243800D02*
X545142D01*
X544480Y243526D01*
X543974Y243020D01*
X543700Y242358D01*
Y241642D01*
X543974Y240980D01*
X544480Y240474D01*
X545142Y240200D01*
X545858D01*
X546520Y240474D01*
X547026Y240980D01*
X547300Y241642D01*
Y242358D01*
X547026Y243020D01*
X546520Y243526D01*
X545858Y243800D01*
D02*
G37*
G36*
X521858Y242800D02*
X521142D01*
X520480Y242526D01*
X519974Y242020D01*
X519700Y241358D01*
Y240642D01*
X519974Y239980D01*
X520480Y239474D01*
X521142Y239200D01*
X521858D01*
X522520Y239474D01*
X523026Y239980D01*
X523300Y240642D01*
Y241358D01*
X523026Y242020D01*
X522520Y242526D01*
X521858Y242800D01*
D02*
G37*
G36*
X408020Y245947D02*
X406980D01*
X405977Y245677D01*
X405077Y245158D01*
X404342Y244423D01*
X403823Y243523D01*
X403553Y242520D01*
Y241480D01*
X403823Y240477D01*
X404342Y239577D01*
X405077Y238842D01*
X405977Y238322D01*
X406980Y238053D01*
X408020D01*
X409023Y238322D01*
X409923Y238842D01*
X410658Y239577D01*
X411177Y240477D01*
X411447Y241480D01*
Y242520D01*
X411177Y243523D01*
X410658Y244423D01*
X409923Y245158D01*
X409023Y245677D01*
X408020Y245947D01*
D02*
G37*
G36*
X539858Y241300D02*
X539142D01*
X538480Y241026D01*
X537974Y240520D01*
X537700Y239858D01*
Y239142D01*
X537974Y238480D01*
X538480Y237974D01*
X539142Y237700D01*
X539858D01*
X540520Y237974D01*
X541026Y238480D01*
X541300Y239142D01*
Y239858D01*
X541026Y240520D01*
X540520Y241026D01*
X539858Y241300D01*
D02*
G37*
G36*
X543858Y235800D02*
X543142D01*
X542480Y235526D01*
X541974Y235020D01*
X541700Y234358D01*
Y233642D01*
X541974Y232980D01*
X542480Y232474D01*
X543142Y232200D01*
X543858D01*
X544520Y232474D01*
X545026Y232980D01*
X545300Y233642D01*
Y234358D01*
X545026Y235020D01*
X544520Y235526D01*
X543858Y235800D01*
D02*
G37*
G36*
X446358D02*
X445642D01*
X444980Y235526D01*
X444474Y235020D01*
X444200Y234358D01*
Y233642D01*
X444474Y232980D01*
X444980Y232474D01*
X445642Y232200D01*
X446358D01*
X447020Y232474D01*
X447526Y232980D01*
X447800Y233642D01*
Y234358D01*
X447526Y235020D01*
X447020Y235526D01*
X446358Y235800D01*
D02*
G37*
G36*
X464358Y234800D02*
X463642D01*
X462980Y234526D01*
X462474Y234020D01*
X462200Y233358D01*
Y232642D01*
X462474Y231980D01*
X462980Y231474D01*
X463642Y231200D01*
X464358D01*
X465020Y231474D01*
X465526Y231980D01*
X465800Y232642D01*
Y233358D01*
X465526Y234020D01*
X465020Y234526D01*
X464358Y234800D01*
D02*
G37*
G36*
X628358Y234300D02*
X627642D01*
X626980Y234026D01*
X626474Y233520D01*
X626200Y232858D01*
Y232142D01*
X626474Y231480D01*
X626980Y230974D01*
X627642Y230700D01*
X628358D01*
X629020Y230974D01*
X629526Y231480D01*
X629800Y232142D01*
Y232858D01*
X629526Y233520D01*
X629020Y234026D01*
X628358Y234300D01*
D02*
G37*
G36*
X632858D02*
X632142D01*
X631480Y234026D01*
X630974Y233520D01*
X630700Y232858D01*
Y232142D01*
X630974Y231480D01*
X631480Y230974D01*
X632142Y230700D01*
X632858D01*
X633520Y230974D01*
X633839Y231294D01*
X634263Y231010D01*
X634200Y230858D01*
Y230142D01*
X634474Y229480D01*
X634980Y228974D01*
X635642Y228700D01*
X636358D01*
X637020Y228974D01*
X637526Y229480D01*
X637738Y229992D01*
X638262D01*
X638474Y229480D01*
X638980Y228974D01*
X639642Y228700D01*
X640358D01*
X641020Y228974D01*
X641526Y229480D01*
X641800Y230142D01*
Y230858D01*
X641526Y231520D01*
X641020Y232026D01*
X640358Y232300D01*
X639642D01*
X638980Y232026D01*
X638474Y231520D01*
X638262Y231008D01*
X637738D01*
X637526Y231520D01*
X637020Y232026D01*
X636358Y232300D01*
X635642D01*
X634980Y232026D01*
X634661Y231706D01*
X634237Y231990D01*
X634300Y232142D01*
Y232858D01*
X634026Y233520D01*
X633520Y234026D01*
X632858Y234300D01*
D02*
G37*
G36*
X609858Y232300D02*
X609142D01*
X608480Y232026D01*
X607974Y231520D01*
X607700Y230858D01*
Y230142D01*
X607974Y229480D01*
X608480Y228974D01*
X609142Y228700D01*
X609858D01*
X610520Y228974D01*
X611026Y229480D01*
X611300Y230142D01*
Y230858D01*
X611026Y231520D01*
X610520Y232026D01*
X609858Y232300D01*
D02*
G37*
G36*
X460858Y231800D02*
X460142D01*
X459480Y231526D01*
X458974Y231020D01*
X458700Y230358D01*
Y229642D01*
X458974Y228980D01*
X459480Y228474D01*
X460142Y228200D01*
X460858D01*
X461520Y228474D01*
X462026Y228980D01*
X462300Y229642D01*
Y230358D01*
X462026Y231020D01*
X461520Y231526D01*
X460858Y231800D01*
D02*
G37*
G36*
X408020Y235946D02*
X406980D01*
X405977Y235678D01*
X405077Y235158D01*
X404342Y234423D01*
X403823Y233523D01*
X403553Y232520D01*
Y231480D01*
X403823Y230477D01*
X404342Y229577D01*
X405077Y228842D01*
X405977Y228323D01*
X406980Y228053D01*
X408020D01*
X409023Y228323D01*
X409923Y228842D01*
X410658Y229577D01*
X411177Y230477D01*
X411447Y231480D01*
Y232520D01*
X411177Y233523D01*
X410658Y234423D01*
X409923Y235158D01*
X409023Y235678D01*
X408020Y235946D01*
D02*
G37*
G36*
X445858Y231300D02*
X445142D01*
X444480Y231026D01*
X443974Y230520D01*
X443700Y229858D01*
Y229142D01*
X443974Y228480D01*
X444480Y227974D01*
X445142Y227700D01*
X445858D01*
X446520Y227974D01*
X447026Y228480D01*
X447300Y229142D01*
Y229858D01*
X447026Y230520D01*
X446520Y231026D01*
X445858Y231300D01*
D02*
G37*
G36*
X622406Y228752D02*
X621690D01*
X621028Y228478D01*
X620522Y227972D01*
X620248Y227310D01*
Y226594D01*
X620522Y225933D01*
X621028Y225427D01*
X621690Y225152D01*
X622406D01*
X623067Y225427D01*
X623573Y225933D01*
X623848Y226594D01*
Y227310D01*
X623573Y227972D01*
X623067Y228478D01*
X622406Y228752D01*
D02*
G37*
G36*
X578858Y225800D02*
X578142D01*
X577480Y225526D01*
X576974Y225020D01*
X576700Y224358D01*
Y223642D01*
X576974Y222980D01*
X577480Y222474D01*
X578142Y222200D01*
X578858D01*
X579520Y222474D01*
X580026Y222980D01*
X580300Y223642D01*
Y224358D01*
X580026Y225020D01*
X579520Y225526D01*
X578858Y225800D01*
D02*
G37*
G36*
X600858Y225300D02*
X600142D01*
X599480Y225026D01*
X598974Y224520D01*
X598700Y223858D01*
Y223142D01*
X598974Y222480D01*
X599480Y221974D01*
X600142Y221700D01*
X600858D01*
X601520Y221974D01*
X602026Y222480D01*
X602300Y223142D01*
Y223858D01*
X602026Y224520D01*
X601520Y225026D01*
X600858Y225300D01*
D02*
G37*
G36*
X500358Y221300D02*
X499642D01*
X498980Y221026D01*
X498540Y220585D01*
X498250Y220548D01*
X497960Y220585D01*
X497520Y221026D01*
X496858Y221300D01*
X496142D01*
X495480Y221026D01*
X494974Y220520D01*
X494700Y219858D01*
Y219142D01*
X494974Y218480D01*
X495480Y217974D01*
X496142Y217700D01*
X496858D01*
X497520Y217974D01*
X497960Y218414D01*
X498250Y218452D01*
X498540Y218414D01*
X498980Y217974D01*
X499642Y217700D01*
X500358D01*
X501020Y217974D01*
X501526Y218480D01*
X501800Y219142D01*
Y219858D01*
X501526Y220520D01*
X501020Y221026D01*
X500358Y221300D01*
D02*
G37*
G36*
X447058Y226800D02*
X446342D01*
X445680Y226526D01*
X445174Y226020D01*
X444900Y225358D01*
Y224642D01*
X445174Y223980D01*
X445680Y223474D01*
X446192Y223262D01*
Y222738D01*
X445680Y222526D01*
X445174Y222020D01*
X444900Y221358D01*
Y220642D01*
X445174Y219980D01*
X445680Y219474D01*
X446342Y219200D01*
X447058D01*
X447720Y219474D01*
X448226Y219980D01*
X448500Y220642D01*
Y221358D01*
X448226Y222020D01*
X447720Y222526D01*
X447208Y222738D01*
Y223262D01*
X447720Y223474D01*
X448226Y223980D01*
X448500Y224642D01*
Y225358D01*
X448226Y226020D01*
X447720Y226526D01*
X447058Y226800D01*
D02*
G37*
G36*
X532358Y221800D02*
X531642D01*
X530980Y221526D01*
X530474Y221020D01*
X530200Y220358D01*
Y219642D01*
X530474Y218980D01*
X530980Y218474D01*
X531642Y218200D01*
X532358D01*
X533020Y218474D01*
X533526Y218980D01*
X533800Y219642D01*
Y220358D01*
X533526Y221020D01*
X533020Y221526D01*
X532358Y221800D01*
D02*
G37*
G36*
X408020Y225946D02*
X406980D01*
X405977Y225677D01*
X405077Y225158D01*
X404342Y224423D01*
X403823Y223523D01*
X403553Y222520D01*
Y221480D01*
X403823Y220477D01*
X404342Y219577D01*
X405077Y218842D01*
X405977Y218322D01*
X406980Y218054D01*
X408020D01*
X409023Y218322D01*
X409923Y218842D01*
X410658Y219577D01*
X411177Y220477D01*
X411447Y221480D01*
Y222520D01*
X411177Y223523D01*
X410658Y224423D01*
X409923Y225158D01*
X409023Y225677D01*
X408020Y225946D01*
D02*
G37*
G36*
X526130Y218528D02*
X525414D01*
X524752Y218254D01*
X524246Y217748D01*
X523972Y217086D01*
Y216370D01*
X524246Y215709D01*
X524752Y215202D01*
X525414Y214928D01*
X526130D01*
X526791Y215202D01*
X527298Y215709D01*
X527572Y216370D01*
Y217086D01*
X527298Y217748D01*
X526791Y218254D01*
X526130Y218528D01*
D02*
G37*
G36*
X535858Y217800D02*
X535142D01*
X534480Y217526D01*
X533974Y217020D01*
X533700Y216358D01*
Y215642D01*
X533974Y214980D01*
X534480Y214474D01*
X535142Y214200D01*
X535858D01*
X536520Y214474D01*
X537026Y214980D01*
X537300Y215642D01*
Y216358D01*
X537026Y217020D01*
X536520Y217526D01*
X535858Y217800D01*
D02*
G37*
G36*
X613358Y210800D02*
X612642D01*
X611980Y210526D01*
X611474Y210020D01*
X611200Y209358D01*
Y208642D01*
X611474Y207980D01*
X611980Y207474D01*
X612642Y207200D01*
X613358D01*
X614020Y207474D01*
X614526Y207980D01*
X614800Y208642D01*
Y209358D01*
X614526Y210020D01*
X614020Y210526D01*
X613358Y210800D01*
D02*
G37*
G36*
X607858D02*
X607142D01*
X606480Y210526D01*
X605974Y210020D01*
X605700Y209358D01*
Y208642D01*
X605974Y207980D01*
X606480Y207474D01*
X607142Y207200D01*
X607858D01*
X608520Y207474D01*
X609026Y207980D01*
X609300Y208642D01*
Y209358D01*
X609026Y210020D01*
X608520Y210526D01*
X607858Y210800D01*
D02*
G37*
G36*
X634358Y207300D02*
X633642D01*
X632980Y207026D01*
X632474Y206520D01*
X632200Y205858D01*
Y205142D01*
X632474Y204480D01*
X632980Y203974D01*
X633642Y203700D01*
X634358D01*
X635020Y203974D01*
X635526Y204480D01*
X635800Y205142D01*
Y205858D01*
X635526Y206520D01*
X635020Y207026D01*
X634358Y207300D01*
D02*
G37*
G36*
X656358Y204300D02*
X655642D01*
X654980Y204026D01*
X654474Y203520D01*
X654262Y203008D01*
X653738D01*
X653526Y203520D01*
X653020Y204026D01*
X652358Y204300D01*
X651642D01*
X650980Y204026D01*
X650474Y203520D01*
X650200Y202858D01*
Y202142D01*
X650474Y201480D01*
X650914Y201040D01*
X650952Y200750D01*
X650914Y200460D01*
X650474Y200020D01*
X650200Y199358D01*
Y198642D01*
X650474Y197980D01*
X650914Y197540D01*
X650952Y197250D01*
X650914Y196960D01*
X650474Y196520D01*
X650200Y195858D01*
Y195142D01*
X650474Y194480D01*
X650980Y193974D01*
X651642Y193700D01*
X652358D01*
X653020Y193974D01*
X653526Y194480D01*
X653738Y194992D01*
X654262D01*
X654474Y194480D01*
X654980Y193974D01*
X655642Y193700D01*
X656358D01*
X657020Y193974D01*
X657526Y194480D01*
X657800Y195142D01*
Y195858D01*
X657526Y196520D01*
X657086Y196960D01*
X657048Y197250D01*
X657086Y197540D01*
X657526Y197980D01*
X657800Y198642D01*
Y199358D01*
X657526Y200020D01*
X657086Y200460D01*
X657048Y200750D01*
X657086Y201040D01*
X657526Y201480D01*
X657800Y202142D01*
Y202858D01*
X657526Y203520D01*
X657020Y204026D01*
X656358Y204300D01*
D02*
G37*
G36*
X504358Y206300D02*
X503642D01*
X502980Y206026D01*
X502474Y205520D01*
X502200Y204858D01*
Y204142D01*
X502474Y203480D01*
X502980Y202974D01*
X503642Y202700D01*
X504358D01*
X505020Y202974D01*
X505526Y203480D01*
X505800Y204142D01*
Y204858D01*
X505526Y205520D01*
X505020Y206026D01*
X504358Y206300D01*
D02*
G37*
G36*
X408020Y205946D02*
X406980D01*
X405977Y205678D01*
X405077Y205158D01*
X404342Y204423D01*
X403823Y203523D01*
X403553Y202520D01*
Y201480D01*
X403823Y200477D01*
X404342Y199577D01*
X405077Y198842D01*
X405977Y198322D01*
X406980Y198054D01*
X408020D01*
X409023Y198322D01*
X409923Y198842D01*
X410658Y199577D01*
X411177Y200477D01*
X411447Y201480D01*
Y202520D01*
X411177Y203523D01*
X410658Y204423D01*
X409923Y205158D01*
X409023Y205678D01*
X408020Y205946D01*
D02*
G37*
G36*
X556858Y201300D02*
X556142D01*
X555480Y201026D01*
X554974Y200520D01*
X554700Y199858D01*
Y199142D01*
X554974Y198480D01*
X555480Y197974D01*
X556142Y197700D01*
X556858D01*
X557520Y197974D01*
X558026Y198480D01*
X558300Y199142D01*
Y199858D01*
X558026Y200520D01*
X557520Y201026D01*
X556858Y201300D01*
D02*
G37*
G36*
X628858Y199800D02*
X628142D01*
X627480Y199526D01*
X626974Y199020D01*
X626700Y198358D01*
Y197642D01*
X626974Y196980D01*
X627480Y196474D01*
X628142Y196200D01*
X628858D01*
X629520Y196474D01*
X630026Y196980D01*
X630300Y197642D01*
Y198358D01*
X630026Y199020D01*
X629520Y199526D01*
X628858Y199800D01*
D02*
G37*
G36*
X504858Y199300D02*
X504142D01*
X503480Y199026D01*
X502974Y198520D01*
X502700Y197858D01*
Y197142D01*
X502974Y196480D01*
X503480Y195974D01*
X504142Y195700D01*
X504858D01*
X505520Y195974D01*
X506026Y196480D01*
X506300Y197142D01*
Y197858D01*
X506026Y198520D01*
X505520Y199026D01*
X504858Y199300D01*
D02*
G37*
G36*
X585358Y195800D02*
X584642D01*
X583980Y195526D01*
X583474Y195020D01*
X583200Y194358D01*
Y193642D01*
X583474Y192980D01*
X583980Y192474D01*
X584642Y192200D01*
X585358D01*
X586020Y192474D01*
X586526Y192980D01*
X586800Y193642D01*
Y194358D01*
X586526Y195020D01*
X586020Y195526D01*
X585358Y195800D01*
D02*
G37*
G36*
X616618Y194541D02*
X615902D01*
X615240Y194266D01*
X614734Y193760D01*
X614460Y193098D01*
Y192382D01*
X614734Y191721D01*
X615240Y191215D01*
X615902Y190940D01*
X616618D01*
X617279Y191215D01*
X617786Y191721D01*
X618059Y192382D01*
Y193098D01*
X617786Y193760D01*
X617279Y194266D01*
X616618Y194541D01*
D02*
G37*
G36*
X565858Y185800D02*
X565142D01*
X564480Y185526D01*
X563974Y185020D01*
X563700Y184358D01*
Y183642D01*
X563974Y182980D01*
X564480Y182474D01*
X565142Y182200D01*
X565858D01*
X566520Y182474D01*
X567026Y182980D01*
X567300Y183642D01*
Y184358D01*
X567026Y185020D01*
X566520Y185526D01*
X565858Y185800D01*
D02*
G37*
G36*
X533858D02*
X533142D01*
X532480Y185526D01*
X531974Y185020D01*
X531700Y184358D01*
Y183642D01*
X531974Y182980D01*
X532480Y182474D01*
X533142Y182200D01*
X533858D01*
X534520Y182474D01*
X535026Y182980D01*
X535300Y183642D01*
Y184358D01*
X535026Y185020D01*
X534520Y185526D01*
X533858Y185800D01*
D02*
G37*
G36*
X497358Y185300D02*
X496642D01*
X495980Y185026D01*
X495474Y184520D01*
X495200Y183858D01*
Y183142D01*
X495474Y182480D01*
X495980Y181974D01*
X496642Y181700D01*
X497358D01*
X498020Y181974D01*
X498526Y182480D01*
X498800Y183142D01*
Y183858D01*
X498526Y184520D01*
X498020Y185026D01*
X497358Y185300D01*
D02*
G37*
G36*
X492858D02*
X492142D01*
X491480Y185026D01*
X490974Y184520D01*
X490700Y183858D01*
Y183142D01*
X490974Y182480D01*
X491480Y181974D01*
X492142Y181700D01*
X492858D01*
X493520Y181974D01*
X494026Y182480D01*
X494300Y183142D01*
Y183858D01*
X494026Y184520D01*
X493520Y185026D01*
X492858Y185300D01*
D02*
G37*
G36*
X629858Y189300D02*
X629142D01*
X628480Y189026D01*
X627974Y188520D01*
X627700Y187858D01*
Y187142D01*
X627974Y186480D01*
X628454Y186000D01*
X627974Y185520D01*
X627700Y184858D01*
Y184142D01*
X627974Y183480D01*
X628414Y183040D01*
X628452Y182750D01*
X628414Y182460D01*
X627974Y182020D01*
X627733Y181438D01*
X627690Y181354D01*
X627200Y181158D01*
X626858Y181300D01*
X626142D01*
X625480Y181026D01*
X624974Y180520D01*
X624700Y179858D01*
Y179142D01*
X624974Y178480D01*
X625480Y177974D01*
X626142Y177700D01*
X626858D01*
X627520Y177974D01*
X628026Y178480D01*
X628267Y179062D01*
X628310Y179146D01*
X628800Y179342D01*
X629142Y179200D01*
X629858D01*
X630520Y179474D01*
X631026Y179980D01*
X631300Y180642D01*
Y181358D01*
X631026Y182020D01*
X630585Y182460D01*
X630548Y182750D01*
X630585Y183040D01*
X631026Y183480D01*
X631300Y184142D01*
Y184858D01*
X631026Y185520D01*
X630546Y186000D01*
X631026Y186480D01*
X631300Y187142D01*
Y187858D01*
X631026Y188520D01*
X630520Y189026D01*
X629858Y189300D01*
D02*
G37*
G36*
X577358Y171800D02*
X576642D01*
X575980Y171526D01*
X575474Y171020D01*
X575200Y170358D01*
Y169642D01*
X575474Y168980D01*
X575980Y168474D01*
X576642Y168200D01*
X577358D01*
X578020Y168474D01*
X578526Y168980D01*
X578800Y169642D01*
Y170358D01*
X578526Y171020D01*
X578020Y171526D01*
X577358Y171800D01*
D02*
G37*
G36*
X517358Y171300D02*
X516642D01*
X515980Y171026D01*
X515474Y170520D01*
X515200Y169858D01*
Y169142D01*
X515474Y168480D01*
X515980Y167974D01*
X516642Y167700D01*
X517358D01*
X518020Y167974D01*
X518526Y168480D01*
X518800Y169142D01*
Y169858D01*
X518526Y170520D01*
X518020Y171026D01*
X517358Y171300D01*
D02*
G37*
G36*
X660858Y167300D02*
X660142D01*
X659480Y167026D01*
X658974Y166520D01*
X658762Y166008D01*
X658238D01*
X658026Y166520D01*
X657520Y167026D01*
X656858Y167300D01*
X656142D01*
X655480Y167026D01*
X654974Y166520D01*
X654700Y165858D01*
Y165142D01*
X654974Y164480D01*
X655454Y164000D01*
X654974Y163520D01*
X654700Y162858D01*
Y162142D01*
X654974Y161480D01*
X655480Y160974D01*
X656142Y160700D01*
X656858D01*
X657520Y160974D01*
X658026Y161480D01*
X658238Y161992D01*
X658762D01*
X658974Y161480D01*
X659480Y160974D01*
X660142Y160700D01*
X660858D01*
X661520Y160974D01*
X662026Y161480D01*
X662300Y162142D01*
Y162858D01*
X662026Y163520D01*
X661546Y164000D01*
X662026Y164480D01*
X662300Y165142D01*
Y165858D01*
X662026Y166520D01*
X661520Y167026D01*
X660858Y167300D01*
D02*
G37*
G36*
X624358Y175900D02*
X623642D01*
X622980Y175626D01*
X622474Y175120D01*
X622200Y174458D01*
Y173742D01*
X622474Y173081D01*
X622678Y172877D01*
X622960Y172550D01*
X622678Y172224D01*
X622474Y172020D01*
X622200Y171358D01*
Y170642D01*
X622474Y169980D01*
X622678Y169776D01*
X622960Y169450D01*
X622678Y169123D01*
X622474Y168919D01*
X622200Y168258D01*
Y167542D01*
X622474Y166880D01*
X622678Y166676D01*
X622960Y166349D01*
X622678Y166023D01*
X622474Y165819D01*
X622200Y165157D01*
Y164441D01*
X622474Y163780D01*
X622678Y163576D01*
X622960Y163249D01*
X622678Y162922D01*
X622540Y162784D01*
X622250Y162747D01*
X621960Y162784D01*
X621520Y163225D01*
X620858Y163499D01*
X620142D01*
X619480Y163225D01*
X618974Y162718D01*
X618700Y162057D01*
Y161341D01*
X618974Y160679D01*
X619480Y160173D01*
X620142Y159899D01*
X620858D01*
X621520Y160173D01*
X621960Y160613D01*
X622250Y160651D01*
X622540Y160613D01*
X622980Y160173D01*
X623642Y159899D01*
X624358D01*
X625020Y160173D01*
X625526Y160679D01*
X625800Y161341D01*
Y162057D01*
X625526Y162718D01*
X625322Y162922D01*
X625040Y163249D01*
X625322Y163576D01*
X625526Y163780D01*
X625800Y164441D01*
Y165157D01*
X625526Y165819D01*
X625322Y166023D01*
X625040Y166349D01*
X625322Y166676D01*
X625526Y166880D01*
X625800Y167542D01*
Y168258D01*
X625526Y168919D01*
X625322Y169123D01*
X625040Y169450D01*
X625322Y169776D01*
X625526Y169980D01*
X625800Y170642D01*
Y171358D01*
X625526Y172020D01*
X625322Y172224D01*
X625040Y172550D01*
X625322Y172877D01*
X625526Y173081D01*
X625800Y173742D01*
Y174458D01*
X625526Y175120D01*
X625020Y175626D01*
X624358Y175900D01*
D02*
G37*
G36*
X565358Y158800D02*
X564642D01*
X563980Y158526D01*
X563474Y158020D01*
X563200Y157358D01*
Y156642D01*
X563474Y155980D01*
X563980Y155474D01*
X564642Y155200D01*
X565358D01*
X566020Y155474D01*
X566526Y155980D01*
X566800Y156642D01*
Y157358D01*
X566526Y158020D01*
X566020Y158526D01*
X565358Y158800D01*
D02*
G37*
G36*
X533858D02*
X533142D01*
X532480Y158526D01*
X531974Y158020D01*
X531700Y157358D01*
Y156642D01*
X531974Y155980D01*
X532480Y155474D01*
X533142Y155200D01*
X533858D01*
X534520Y155474D01*
X535026Y155980D01*
X535300Y156642D01*
Y157358D01*
X535026Y158020D01*
X534520Y158526D01*
X533858Y158800D01*
D02*
G37*
G36*
X605422Y159485D02*
X595579D01*
X594395Y159329D01*
X593291Y158871D01*
X592343Y158144D01*
X591616Y157196D01*
X591159Y156093D01*
X591003Y154908D01*
X591159Y153724D01*
X591616Y152620D01*
X592343Y151673D01*
X593291Y150945D01*
X594395Y150488D01*
X595579Y150332D01*
X605422D01*
X606606Y150488D01*
X607710Y150945D01*
X608658Y151673D01*
X609385Y152620D01*
X609842Y153724D01*
X609998Y154908D01*
X609842Y156093D01*
X609385Y157196D01*
X608658Y158144D01*
X607710Y158871D01*
X606606Y159329D01*
X605422Y159485D01*
D02*
G37*
G36*
X633968Y156990D02*
X633032D01*
X632129Y156748D01*
X631319Y156280D01*
X630657Y155619D01*
X630189Y154808D01*
X629947Y153905D01*
Y152969D01*
X630189Y152066D01*
X630657Y151256D01*
X631319Y150594D01*
X632129Y150126D01*
X633032Y149884D01*
X633968D01*
X634871Y150126D01*
X635681Y150594D01*
X636343Y151256D01*
X636811Y152066D01*
X637053Y152969D01*
Y153905D01*
X636811Y154808D01*
X636343Y155619D01*
X635681Y156280D01*
X634871Y156748D01*
X633968Y156990D01*
D02*
G37*
G36*
X673053Y153427D02*
X665947D01*
Y146321D01*
X673053D01*
Y153427D01*
D02*
G37*
G36*
X517358Y147800D02*
X516642D01*
X515980Y147526D01*
X515474Y147020D01*
X515200Y146358D01*
Y145642D01*
X515474Y144980D01*
X515980Y144474D01*
X516642Y144200D01*
X517358D01*
X518020Y144474D01*
X518526Y144980D01*
X518800Y145642D01*
Y146358D01*
X518526Y147020D01*
X518020Y147526D01*
X517358Y147800D01*
D02*
G37*
G36*
X550858Y146800D02*
X550142D01*
X549480Y146526D01*
X548974Y146020D01*
X548700Y145358D01*
Y144642D01*
X548974Y143980D01*
X549480Y143474D01*
X550142Y143200D01*
X550858D01*
X551520Y143474D01*
X552026Y143980D01*
X552300Y144642D01*
Y145358D01*
X552026Y146020D01*
X551520Y146526D01*
X550858Y146800D01*
D02*
G37*
G36*
X633968Y149116D02*
X633032D01*
X632129Y148874D01*
X631319Y148406D01*
X630657Y147744D01*
X630189Y146934D01*
X629947Y146031D01*
Y145095D01*
X630189Y144192D01*
X630657Y143382D01*
X631319Y142720D01*
X632129Y142252D01*
X633032Y142010D01*
X633968D01*
X634871Y142252D01*
X635681Y142720D01*
X636343Y143382D01*
X636811Y144192D01*
X637053Y145095D01*
Y146031D01*
X636811Y146934D01*
X636343Y147744D01*
X635681Y148406D01*
X634871Y148874D01*
X633968Y149116D01*
D02*
G37*
G36*
X669968Y145553D02*
X669032D01*
X668129Y145311D01*
X667319Y144843D01*
X666657Y144181D01*
X666189Y143371D01*
X665947Y142468D01*
Y141532D01*
X666189Y140629D01*
X666657Y139819D01*
X667319Y139157D01*
X668129Y138689D01*
X669032Y138447D01*
X669968D01*
X670871Y138689D01*
X671681Y139157D01*
X672343Y139819D01*
X672811Y140629D01*
X673053Y141532D01*
Y142468D01*
X672811Y143371D01*
X672343Y144181D01*
X671681Y144843D01*
X670871Y145311D01*
X669968Y145553D01*
D02*
G37*
G36*
X488858Y139300D02*
X488142D01*
X487480Y139026D01*
X486974Y138520D01*
X486700Y137858D01*
Y137142D01*
X486974Y136480D01*
X487480Y135974D01*
X488142Y135700D01*
X488858D01*
X489520Y135974D01*
X490026Y136480D01*
X490300Y137142D01*
Y137858D01*
X490026Y138520D01*
X489520Y139026D01*
X488858Y139300D01*
D02*
G37*
G36*
X570358Y137300D02*
X569642D01*
X568980Y137026D01*
X568474Y136520D01*
X568200Y135858D01*
Y135142D01*
X568474Y134480D01*
X568980Y133974D01*
X569642Y133700D01*
X570358D01*
X571020Y133974D01*
X571526Y134480D01*
X571800Y135142D01*
Y135858D01*
X571526Y136520D01*
X571020Y137026D01*
X570358Y137300D01*
D02*
G37*
G36*
X619005Y152596D02*
X617821Y152440D01*
X616717Y151983D01*
X615769Y151256D01*
X615042Y150308D01*
X614585Y149205D01*
X614429Y148020D01*
Y138178D01*
X614585Y136993D01*
X615042Y135889D01*
X615769Y134942D01*
X616717Y134214D01*
X617821Y133757D01*
X619005Y133601D01*
X620189Y133757D01*
X621293Y134214D01*
X622241Y134942D01*
X622968Y135889D01*
X623425Y136993D01*
X623581Y138178D01*
Y148020D01*
X623425Y149205D01*
X622968Y150308D01*
X622241Y151256D01*
X621293Y151983D01*
X620189Y152440D01*
X619005Y152596D01*
D02*
G37*
G36*
X605421Y135076D02*
X595579D01*
X594394Y134920D01*
X593291Y134463D01*
X592343Y133736D01*
X591616Y132788D01*
X591158Y131684D01*
X591003Y130500D01*
X591158Y129316D01*
X591616Y128212D01*
X592343Y127264D01*
X593291Y126537D01*
X594394Y126080D01*
X595579Y125924D01*
X605421D01*
X606606Y126080D01*
X607709Y126537D01*
X608657Y127264D01*
X609384Y128212D01*
X609841Y129316D01*
X609997Y130500D01*
X609841Y131684D01*
X609384Y132788D01*
X608657Y133736D01*
X607709Y134463D01*
X606606Y134920D01*
X605421Y135076D01*
D02*
G37*
G36*
X513520Y132947D02*
X512480D01*
X511477Y132677D01*
X510577Y132158D01*
X509842Y131423D01*
X509323Y130523D01*
X509054Y129520D01*
Y128480D01*
X509323Y127477D01*
X509842Y126577D01*
X510577Y125842D01*
X511477Y125322D01*
X512480Y125054D01*
X513520D01*
X514523Y125322D01*
X515423Y125842D01*
X516158Y126577D01*
X516678Y127477D01*
X516947Y128480D01*
Y129520D01*
X516678Y130523D01*
X516158Y131423D01*
X515423Y132158D01*
X514523Y132677D01*
X513520Y132947D01*
D02*
G37*
G36*
X503520D02*
X502480D01*
X501477Y132677D01*
X500577Y132158D01*
X499842Y131423D01*
X499323Y130523D01*
X499053Y129520D01*
Y128480D01*
X499323Y127477D01*
X499842Y126577D01*
X500577Y125842D01*
X501477Y125322D01*
X502480Y125054D01*
X503520D01*
X504523Y125322D01*
X505423Y125842D01*
X506158Y126577D01*
X506677Y127477D01*
X506947Y128480D01*
Y129520D01*
X506677Y130523D01*
X506158Y131423D01*
X505423Y132158D01*
X504523Y132677D01*
X503520Y132947D01*
D02*
G37*
G36*
X493520D02*
X492480D01*
X491477Y132677D01*
X490577Y132158D01*
X489842Y131423D01*
X489323Y130523D01*
X489053Y129520D01*
Y128480D01*
X489323Y127477D01*
X489842Y126577D01*
X490577Y125842D01*
X491477Y125322D01*
X492480Y125054D01*
X493520D01*
X494523Y125322D01*
X495423Y125842D01*
X496158Y126577D01*
X496677Y127477D01*
X496946Y128480D01*
Y129520D01*
X496677Y130523D01*
X496158Y131423D01*
X495423Y132158D01*
X494523Y132677D01*
X493520Y132947D01*
D02*
G37*
G36*
X536858Y127300D02*
X536142D01*
X535480Y127026D01*
X534974Y126520D01*
X534700Y125858D01*
Y125142D01*
X534974Y124480D01*
X535480Y123974D01*
X536142Y123700D01*
X536858D01*
X537520Y123974D01*
X538026Y124480D01*
X538300Y125142D01*
Y125858D01*
X538026Y126520D01*
X537520Y127026D01*
X536858Y127300D01*
D02*
G37*
G36*
X531858D02*
X531142D01*
X530480Y127026D01*
X529974Y126520D01*
X529700Y125858D01*
Y125142D01*
X529974Y124480D01*
X530480Y123974D01*
X531142Y123700D01*
X531858D01*
X532520Y123974D01*
X533026Y124480D01*
X533300Y125142D01*
Y125858D01*
X533026Y126520D01*
X532520Y127026D01*
X531858Y127300D01*
D02*
G37*
G36*
X668101Y118037D02*
X666907D01*
X665753Y117728D01*
X664718Y117130D01*
X663873Y116286D01*
X663276Y115251D01*
X662967Y114097D01*
Y112903D01*
X663276Y111749D01*
X663873Y110714D01*
X664718Y109870D01*
X665753Y109272D01*
X666907Y108963D01*
X668101D01*
X669255Y109272D01*
X670290Y109870D01*
X671135Y110714D01*
X671732Y111749D01*
X672041Y112903D01*
Y114097D01*
X671732Y115251D01*
X671135Y116286D01*
X670290Y117130D01*
X669255Y117728D01*
X668101Y118037D01*
D02*
G37*
G36*
X649597D02*
X648403D01*
X647249Y117728D01*
X646214Y117130D01*
X645369Y116286D01*
X644772Y115251D01*
X644463Y114097D01*
Y112903D01*
X644772Y111749D01*
X645369Y110714D01*
X646214Y109870D01*
X647249Y109272D01*
X648403Y108963D01*
X649597D01*
X650751Y109272D01*
X651786Y109870D01*
X652631Y110714D01*
X653228Y111749D01*
X653537Y112903D01*
Y114097D01*
X653228Y115251D01*
X652631Y116286D01*
X651786Y117130D01*
X650751Y117728D01*
X649597Y118037D01*
D02*
G37*
G36*
X631093D02*
X629899D01*
X628745Y117728D01*
X627710Y117130D01*
X626865Y116286D01*
X626268Y115251D01*
X625959Y114097D01*
Y112903D01*
X626268Y111749D01*
X626865Y110714D01*
X627710Y109870D01*
X628745Y109272D01*
X629899Y108963D01*
X631093D01*
X632247Y109272D01*
X633282Y109870D01*
X634127Y110714D01*
X634724Y111749D01*
X635033Y112903D01*
Y114097D01*
X634724Y115251D01*
X634127Y116286D01*
X633282Y117130D01*
X632247Y117728D01*
X631093Y118037D01*
D02*
G37*
G36*
X414200Y119518D02*
X412531D01*
X410894Y119192D01*
X409352Y118553D01*
X407964Y117626D01*
X406784Y116445D01*
X405856Y115058D01*
X405217Y113515D01*
X404892Y111878D01*
Y110209D01*
X405217Y108572D01*
X405856Y107030D01*
X406784Y105642D01*
X407964Y104461D01*
X409352Y103534D01*
X410894Y102895D01*
X412531Y102569D01*
X414200D01*
X415838Y102895D01*
X417380Y103534D01*
X418768Y104461D01*
X419948Y105642D01*
X420875Y107030D01*
X421514Y108572D01*
X421840Y110209D01*
Y111878D01*
X421514Y113515D01*
X420875Y115058D01*
X419948Y116445D01*
X418768Y117626D01*
X417380Y118553D01*
X415838Y119192D01*
X414200Y119518D01*
D02*
G37*
G36*
X775946Y119486D02*
X774276D01*
X772639Y119160D01*
X771097Y118522D01*
X769709Y117594D01*
X768529Y116414D01*
X767601Y115026D01*
X766962Y113484D01*
X766637Y111847D01*
Y110178D01*
X766962Y108540D01*
X767601Y106998D01*
X768529Y105610D01*
X769709Y104430D01*
X771097Y103503D01*
X772639Y102864D01*
X774276Y102538D01*
X775946D01*
X777583Y102864D01*
X779125Y103503D01*
X780513Y104430D01*
X781693Y105610D01*
X782620Y106998D01*
X783259Y108540D01*
X783585Y110178D01*
Y111847D01*
X783259Y113484D01*
X782620Y115026D01*
X781693Y116414D01*
X780513Y117594D01*
X779125Y118522D01*
X777583Y119160D01*
X775946Y119486D01*
D02*
G37*
%LPD*%
D65*
X532756Y367000D02*
D03*
X510000D02*
D03*
D66*
X539095Y381370D02*
D03*
X503662Y381370D02*
D03*
D67*
X503662Y365032D02*
D03*
X539095Y365032D02*
D03*
D68*
X513000Y129000D02*
D03*
X503000D02*
D03*
X493000D02*
D03*
X407500Y302000D02*
D03*
Y292000D02*
D03*
Y282000D02*
D03*
Y272000D02*
D03*
Y262000D02*
D03*
Y252000D02*
D03*
Y242000D02*
D03*
Y232000D02*
D03*
Y222000D02*
D03*
Y212000D02*
D03*
Y202000D02*
D03*
X500500Y315000D02*
D03*
X510500D02*
D03*
X544098Y285500D02*
D03*
X554098D02*
D03*
X564098D02*
D03*
X510000D02*
D03*
X500000D02*
D03*
X490000D02*
D03*
D69*
X483000Y129000D02*
D03*
X520500Y315000D02*
D03*
X534098Y285500D02*
D03*
X480000D02*
D03*
D70*
X407500Y312000D02*
D03*
D71*
X669500Y142000D02*
D03*
X633500Y153437D02*
D03*
Y145563D02*
D03*
D72*
X669500Y149874D02*
D03*
D73*
X600500Y154908D02*
D03*
X600500Y130500D02*
D03*
D74*
X619005Y143099D02*
D03*
D75*
X667504Y113500D02*
D03*
X630496D02*
D03*
X649000D02*
D03*
D76*
X775185Y382701D02*
D03*
X775111Y111012D02*
D03*
X413366Y111044D02*
D03*
X413368Y382673D02*
D03*
D82*
X579000Y376000D02*
D03*
X518500Y205000D02*
D03*
X557000Y205500D02*
D03*
X565000Y190000D02*
D03*
X533000D02*
D03*
X566500Y163500D02*
D03*
X534000Y163000D02*
D03*
X547500Y113000D02*
D03*
X542000Y112500D02*
D03*
X476000Y142000D02*
D03*
X457272Y212228D02*
D03*
X512000Y201500D02*
D03*
X526500Y220500D02*
D03*
X525228Y240728D02*
D03*
X510500Y268000D02*
D03*
X464000Y267000D02*
D03*
X501500Y326500D02*
D03*
X535500Y325000D02*
D03*
X446700Y225000D02*
D03*
Y221000D02*
D03*
X446000Y234000D02*
D03*
X460500Y230000D02*
D03*
X445500Y229500D02*
D03*
X669600Y305500D02*
D03*
X673000Y322000D02*
D03*
X640000Y230500D02*
D03*
X579000Y290000D02*
D03*
X609500Y230500D02*
D03*
X488500Y137500D02*
D03*
X545500Y242000D02*
D03*
X544000Y252500D02*
D03*
X535500Y331500D02*
D03*
X556500Y365500D02*
D03*
X513500Y354500D02*
D03*
X558000Y305500D02*
D03*
X629945Y334416D02*
D03*
X634445D02*
D03*
X625445D02*
D03*
X630000Y331000D02*
D03*
X625500D02*
D03*
X634500D02*
D03*
Y338000D02*
D03*
X625500D02*
D03*
X630000D02*
D03*
X590500Y352600D02*
D03*
X577000Y335500D02*
D03*
X581000D02*
D03*
Y331500D02*
D03*
X577000D02*
D03*
X591959Y316459D02*
D03*
X585500Y315000D02*
D03*
X567500Y246500D02*
D03*
Y251000D02*
D03*
X573000Y246500D02*
D03*
Y251000D02*
D03*
X578500Y246500D02*
D03*
Y251000D02*
D03*
X613000Y209000D02*
D03*
X600500Y223500D02*
D03*
X578500Y224000D02*
D03*
X585000Y194000D02*
D03*
X556500Y199500D02*
D03*
X565500Y184000D02*
D03*
X577000Y170000D02*
D03*
X565000Y157000D02*
D03*
X550500Y145000D02*
D03*
X517000Y146000D02*
D03*
X533500Y157000D02*
D03*
X517000Y169500D02*
D03*
X533500Y184000D02*
D03*
X531500Y247000D02*
D03*
X521500Y241000D02*
D03*
X539500Y239500D02*
D03*
X543500Y234000D02*
D03*
X532000Y220000D02*
D03*
X535500Y216000D02*
D03*
X525772Y216728D02*
D03*
X504500Y197500D02*
D03*
X504000Y204500D02*
D03*
X509500Y264500D02*
D03*
X507000Y270500D02*
D03*
X482500Y274500D02*
D03*
X478500D02*
D03*
X583500Y376000D02*
D03*
X575000D02*
D03*
X583500Y380000D02*
D03*
X579000D02*
D03*
X575000D02*
D03*
X659156Y275047D02*
D03*
X654906D02*
D03*
X650656D02*
D03*
X659070Y278676D02*
D03*
X654820D02*
D03*
X650570D02*
D03*
X650500Y282500D02*
D03*
X654750D02*
D03*
X659000D02*
D03*
X486372Y266076D02*
D03*
X483886Y262613D02*
D03*
X488500Y263000D02*
D03*
X671500Y349000D02*
D03*
Y358000D02*
D03*
X493500Y264000D02*
D03*
X607500Y209000D02*
D03*
X464000Y233000D02*
D03*
X517000Y366500D02*
D03*
X522363Y366363D02*
D03*
X570000Y135500D02*
D03*
X567189Y323000D02*
D03*
X571189D02*
D03*
X562689Y330500D02*
D03*
X564689Y327500D02*
D03*
X571000Y263000D02*
D03*
X574000Y265000D02*
D03*
X566500Y256500D02*
D03*
Y260500D02*
D03*
X575488Y285488D02*
D03*
X547500Y327000D02*
D03*
X500000Y219500D02*
D03*
X496500D02*
D03*
X628500Y198000D02*
D03*
X634000Y205500D02*
D03*
X616259Y192740D02*
D03*
X627500Y258000D02*
D03*
Y254500D02*
D03*
X633000Y258000D02*
D03*
Y254500D02*
D03*
X642500D02*
D03*
X622048Y226952D02*
D03*
X628000Y232500D02*
D03*
X632500D02*
D03*
X636000Y230500D02*
D03*
X656000Y202500D02*
D03*
Y199000D02*
D03*
Y195500D02*
D03*
X652000D02*
D03*
Y199000D02*
D03*
Y202500D02*
D03*
X660500Y162500D02*
D03*
X656500D02*
D03*
X660500Y165500D02*
D03*
X656500D02*
D03*
X624000Y164799D02*
D03*
Y161699D02*
D03*
Y174100D02*
D03*
Y167900D02*
D03*
Y171000D02*
D03*
X620500Y161699D02*
D03*
X626500Y179500D02*
D03*
X629500Y181000D02*
D03*
Y184500D02*
D03*
Y187500D02*
D03*
X536500Y125500D02*
D03*
X531500D02*
D03*
X497000Y183500D02*
D03*
X492500D02*
D03*
D83*
X560000Y251000D02*
D03*
X556500D02*
D03*
X560000Y254000D02*
D03*
X556500D02*
D03*
D84*
X654820Y278676D02*
Y303180D01*
X579814Y359686D02*
X595814D01*
X600500Y355000D01*
Y324500D02*
Y355000D01*
Y324500D02*
X612000Y313000D01*
X645000D01*
X654820Y303180D01*
D85*
X579500Y368000D02*
D03*
D86*
X655000Y282000D02*
D03*
M02*
