G04*
G04 #@! TF.GenerationSoftware,Altium Limited,Altium Designer,22.0.2 (36)*
G04*
G04 Layer_Physical_Order=1*
G04 Layer_Color=12695295*
%FSLAX25Y25*%
%MOIN*%
G70*
G04*
G04 #@! TF.SameCoordinates,7F160BED-0690-4144-9330-6DFC8CD618BD*
G04*
G04*
G04 #@! TF.FilePolarity,Positive*
G04*
G01*
G75*
%ADD10C,0.01000*%
%ADD11C,0.00600*%
%ADD21R,0.01181X0.04528*%
%ADD22R,0.01180X0.04520*%
%ADD23R,0.03000X0.03000*%
%ADD24R,0.03347X0.02953*%
%ADD25R,0.03940X0.02760*%
%ADD26R,0.02953X0.03347*%
%ADD27R,0.01968X0.01968*%
%ADD28R,0.01968X0.01968*%
%ADD29R,0.13776X0.05538*%
%ADD30R,0.08661X0.06890*%
%ADD31R,0.05512X0.06496*%
%ADD32R,0.21654X0.08465*%
%ADD33R,0.02756X0.05118*%
%ADD34R,0.04724X0.05118*%
%ADD35R,0.08465X0.21654*%
%ADD36R,0.03500X0.05000*%
%ADD37R,0.05000X0.03500*%
%ADD38R,0.02760X0.03940*%
%ADD39R,0.07087X0.04331*%
%ADD40O,0.08000X0.02400*%
%ADD41O,0.03150X0.00984*%
%ADD42R,0.00984X0.09646*%
%ADD43R,0.03150X0.03937*%
G04:AMPARAMS|DCode=44|XSize=39.37mil|YSize=31.5mil|CornerRadius=0mil|HoleSize=0mil|Usage=FLASHONLY|Rotation=90.000|XOffset=0mil|YOffset=0mil|HoleType=Round|Shape=Octagon|*
%AMOCTAGOND44*
4,1,8,0.00787,0.01968,-0.00787,0.01968,-0.01575,0.01181,-0.01575,-0.01181,-0.00787,-0.01968,0.00787,-0.01968,0.01575,-0.01181,0.01575,0.01181,0.00787,0.01968,0.0*
%
%ADD44OCTAGOND44*%

%ADD45R,0.04331X0.07087*%
%ADD46R,0.03543X0.03347*%
%ADD47R,0.04724X0.05512*%
%ADD48R,0.08268X0.12598*%
%ADD49R,0.08268X0.03543*%
%ADD50R,0.05512X0.04724*%
%ADD51R,0.12598X0.08268*%
%ADD52R,0.03543X0.08268*%
%ADD53R,0.03937X0.03150*%
G04:AMPARAMS|DCode=54|XSize=39.37mil|YSize=31.5mil|CornerRadius=0mil|HoleSize=0mil|Usage=FLASHONLY|Rotation=0.000|XOffset=0mil|YOffset=0mil|HoleType=Round|Shape=Octagon|*
%AMOCTAGOND54*
4,1,8,0.01968,-0.00787,0.01968,0.00787,0.01181,0.01575,-0.01181,0.01575,-0.01968,0.00787,-0.01968,-0.00787,-0.01181,-0.01575,0.01181,-0.01575,0.01968,-0.00787,0.0*
%
%ADD54OCTAGOND54*%

%ADD55R,0.03347X0.03543*%
%ADD56R,0.11024X0.05512*%
%ADD57R,0.05512X0.09843*%
%ADD58R,0.11024X0.11024*%
%ADD59R,0.01181X0.04724*%
%ADD60R,0.04724X0.01181*%
%ADD61R,0.04724X0.05118*%
%ADD62O,0.02362X0.08661*%
%ADD65C,0.02953*%
%ADD66O,0.04724X0.07874*%
%ADD67O,0.04724X0.09055*%
%ADD68C,0.06693*%
%ADD69R,0.06693X0.06693*%
%ADD70R,0.06693X0.06693*%
%ADD71C,0.05906*%
%ADD72R,0.05906X0.05906*%
%ADD73O,0.17717X0.07874*%
%ADD74O,0.07874X0.17717*%
%ADD75C,0.07874*%
%ADD76C,0.15748*%
%ADD77C,0.02000*%
%ADD78C,0.01500*%
%ADD79C,0.01200*%
%ADD80C,0.03000*%
%ADD81R,0.14000X0.19500*%
%ADD82C,0.02400*%
%ADD83C,0.01800*%
G36*
X506000Y364500D02*
X509645D01*
X509997Y364145D01*
X509959Y359629D01*
X509943Y359612D01*
X501220D01*
Y369720D01*
X501500Y370000D01*
X506000D01*
Y364500D01*
D02*
G37*
G36*
X541500Y369554D02*
Y359446D01*
X532777D01*
X532760Y359463D01*
X532722Y363979D01*
X533075Y364334D01*
X536720D01*
Y369834D01*
X541220D01*
X541500Y369554D01*
D02*
G37*
G36*
X586000Y371000D02*
X582000D01*
Y357500D01*
X582038Y357462D01*
X581847Y357000D01*
X574500D01*
Y371000D01*
X574000Y371500D01*
X573000D01*
Y381500D01*
X586000D01*
Y371000D01*
D02*
G37*
G36*
X582500Y329461D02*
X575500D01*
Y341961D01*
X582500D01*
Y329461D01*
D02*
G37*
G36*
X573689Y320500D02*
X560689D01*
Y321000D01*
Y333500D01*
X573689D01*
Y320500D01*
D02*
G37*
G36*
X573189Y352000D02*
X573689Y351500D01*
X583189D01*
Y348000D01*
X582689Y347500D01*
X573189D01*
Y336500D01*
X572689Y336000D01*
X559189D01*
Y312000D01*
X552689D01*
Y340000D01*
X552189Y340500D01*
X544189D01*
Y346500D01*
X545189Y347500D01*
X552189D01*
Y362500D01*
X573189D01*
Y352000D01*
D02*
G37*
G36*
X562000Y249000D02*
X555000D01*
Y262000D01*
X562000D01*
Y249000D01*
D02*
G37*
G36*
X590500Y282500D02*
Y275500D01*
X605500D01*
Y254500D01*
X595000D01*
X594500Y254000D01*
Y244500D01*
X591000D01*
X590500Y245000D01*
Y254500D01*
X579500D01*
X579000Y255000D01*
Y268500D01*
X555000D01*
Y275000D01*
X583000D01*
X583500Y275500D01*
Y283500D01*
X589500D01*
X590500Y282500D01*
D02*
G37*
G36*
X577000Y252500D02*
X585000D01*
Y244500D01*
X563000D01*
Y267000D01*
X577000D01*
Y252500D01*
D02*
G37*
G36*
X662500Y236500D02*
X662000Y236000D01*
X653000D01*
Y229000D01*
X652500Y228500D01*
X647500D01*
Y234500D01*
X638500D01*
Y256000D01*
X662500D01*
Y236500D01*
D02*
G37*
G36*
X676500Y223500D02*
X673000Y220000D01*
X647000D01*
Y226000D01*
X654500D01*
Y232500D01*
X664500D01*
Y244500D01*
X676500D01*
Y223500D01*
D02*
G37*
G36*
X634500Y232500D02*
X646000D01*
Y220000D01*
X643219D01*
X643000Y220219D01*
Y227500D01*
X635500D01*
Y224500D01*
X630500D01*
Y230000D01*
X626000D01*
Y259500D01*
X634500D01*
Y232500D01*
D02*
G37*
G36*
X676500Y205000D02*
X660500D01*
Y192000D01*
X643000D01*
X642500Y192500D01*
Y209500D01*
X639000D01*
Y216000D01*
X646000D01*
Y209000D01*
X653500D01*
Y216500D01*
X676500D01*
Y205000D01*
D02*
G37*
G36*
X620500Y182500D02*
X619500Y181500D01*
Y171000D01*
X615000D01*
Y173500D01*
X608500D01*
Y151000D01*
X590500D01*
X590500Y152000D01*
Y173500D01*
X590500Y188500D01*
X620500D01*
Y182500D01*
D02*
G37*
G36*
X665500Y177500D02*
X658500D01*
Y168500D01*
X649000D01*
Y190000D01*
X665500D01*
Y177500D01*
D02*
G37*
G36*
X642000Y168500D02*
X633000Y168500D01*
Y170000D01*
X632000Y171000D01*
X627500D01*
Y176500D01*
X632500D01*
Y189500D01*
X633000Y190000D01*
X642000D01*
Y168500D01*
D02*
G37*
G36*
X667000Y174000D02*
Y161991D01*
Y161000D01*
X655500D01*
Y167000D01*
X660000D01*
X660500Y167500D01*
Y174500D01*
X666500D01*
X667000Y174000D01*
D02*
G37*
G36*
X630500Y188500D02*
Y178500D01*
X627500D01*
X626500Y177500D01*
Y170000D01*
X631000D01*
Y169000D01*
X626500D01*
Y161000D01*
X626000Y160500D01*
X616000D01*
Y164000D01*
X616270Y164125D01*
X620157D01*
Y173658D01*
X621500Y175000D01*
Y179500D01*
X623000Y181000D01*
Y189000D01*
X630000D01*
X630500Y188500D01*
D02*
G37*
G36*
X681000Y146000D02*
X666000D01*
Y158500D01*
X669500D01*
Y174500D01*
X667500Y176500D01*
Y190500D01*
X681000D01*
Y146000D01*
D02*
G37*
D10*
X518500Y205000D02*
Y206500D01*
X519230Y207230D01*
X522640D01*
X540360D01*
X551854Y205500D02*
X557000D01*
X560354Y190000D02*
X565000D01*
X527999D02*
X533000D01*
X566000Y163000D02*
X566500Y163500D01*
X560354Y163000D02*
X566000D01*
X528854D02*
X534000D01*
X547500Y113000D02*
X547500Y113000D01*
X547500Y108261D02*
Y113000D01*
X542000Y112500D02*
X542167Y112333D01*
Y108261D02*
Y112333D01*
X457272Y212228D02*
Y221000D01*
X457583Y220689D02*
X470630D01*
X457272Y221000D02*
X457583Y220689D01*
X470630D02*
X470720Y220598D01*
X508728Y201500D02*
X508843Y201386D01*
X511886D01*
X512000Y201500D01*
X508500Y201272D02*
X508728Y201500D01*
X508213Y201559D02*
X508500Y201272D01*
X508122Y212724D02*
X508213Y212634D01*
Y201559D02*
Y212634D01*
X526272Y220272D02*
X526500Y220500D01*
X522500Y220272D02*
X526272D01*
X522264Y220508D02*
X522500Y220272D01*
X515996Y220598D02*
X516087Y220508D01*
X522264D01*
X525228Y240728D02*
Y244000D01*
X516087Y244130D02*
X525099D01*
X515996Y244220D02*
X516087Y244130D01*
X525099D02*
X525228Y244000D01*
X478500Y267228D02*
X478547Y267181D01*
Y258047D02*
X478594Y258000D01*
X478547Y258047D02*
Y267181D01*
X504095Y258090D02*
Y267134D01*
Y258090D02*
X504185Y258000D01*
X504000Y267228D02*
X504095Y267134D01*
X504000Y267228D02*
X509350D01*
X510121Y268000D02*
X510500D01*
X509350Y267228D02*
X510121Y268000D01*
X464000Y267000D02*
X464228Y267228D01*
X478500D01*
X446700Y225000D02*
X450000D01*
X446700Y221000D02*
X453728D01*
X450000Y225000D02*
X450040Y224960D01*
X453703D01*
X671500Y323500D02*
X673000Y322000D01*
X671500Y323500D02*
Y325827D01*
X672500Y288000D02*
X676000Y291500D01*
X674673Y353000D02*
X676000Y351673D01*
Y291500D02*
Y351673D01*
X662067Y329173D02*
X671500D01*
X661988Y329094D02*
X662067Y329173D01*
X533822Y105129D02*
X544727D01*
X531100Y102407D02*
X533822Y105129D01*
X544727D02*
X547303Y102553D01*
X545677Y246323D02*
X545854Y246500D01*
X545500Y242000D02*
X545677Y242177D01*
Y246323D01*
X547870Y252500D02*
X548230Y252140D01*
X544000Y252500D02*
X547870D01*
X548230Y252140D02*
Y269860D01*
X590500Y344673D02*
Y352600D01*
X579000Y324500D02*
X581000Y326500D01*
X586500D02*
X590500Y330500D01*
X581000Y326500D02*
X586500D01*
X579000Y305512D02*
Y324500D01*
X590500Y330500D02*
Y341327D01*
X613000Y209000D02*
Y209842D01*
X608500Y214146D02*
X608697D01*
X613000Y209842D01*
X600500Y219500D02*
Y223500D01*
X578500Y219500D02*
Y224000D01*
X585000Y194000D02*
Y198500D01*
X551854Y199500D02*
X556500D01*
X560354Y184000D02*
X565500D01*
X576790Y169790D02*
X577000Y170000D01*
X571790Y169790D02*
X576790D01*
X554070D02*
X571790D01*
X560354Y157000D02*
X565000D01*
X550500Y145000D02*
X551270D01*
X553480Y142790D02*
X554070D01*
X551270Y145000D02*
X553480Y142790D01*
X554070D02*
X571790D01*
X517000Y146000D02*
X518770D01*
X521980Y142790D02*
X522570D01*
X518770Y146000D02*
X521980Y142790D01*
X522570D02*
X540290D01*
X528854Y157000D02*
X533500D01*
X517000Y169500D02*
X517290Y169790D01*
X521715D01*
X539435D01*
X527999Y184000D02*
X533500D01*
X531500Y246728D02*
Y247000D01*
X528772Y244000D02*
X531500Y246728D01*
X520248Y242252D02*
X521500Y241000D01*
X515996Y242252D02*
X520248D01*
X535772Y239500D02*
X539500D01*
X543366Y234134D02*
X543500Y234000D01*
X538846Y234134D02*
X543366D01*
X532000Y220000D02*
X532154Y220153D01*
Y225866D01*
X535457Y216043D02*
X535500Y216000D01*
X535457Y216043D02*
Y219500D01*
X522500Y216728D02*
X525772D01*
X504500Y197500D02*
X504728Y197728D01*
X508500D01*
X504000Y204500D02*
X506153Y206653D01*
Y212724D01*
X507500Y264500D02*
X509500D01*
X506153Y263154D02*
X507500Y264500D01*
X506153Y258000D02*
Y263154D01*
X504000Y270772D02*
X504136Y270636D01*
X506864D02*
X507000Y270500D01*
X504136Y270636D02*
X506864D01*
X482500Y274500D02*
X482694Y274306D01*
Y270813D02*
Y274306D01*
X478500Y270772D02*
Y274500D01*
X674760Y360913D02*
X674847Y361000D01*
X674673Y353000D02*
X674760Y353087D01*
Y360913D01*
X604500Y288000D02*
X672500D01*
X600571Y291929D02*
X604500Y288000D01*
X600571Y291929D02*
Y305472D01*
X569000Y199500D02*
X570000Y198500D01*
X579291D01*
X569000Y199500D02*
Y227500D01*
X572000Y230500D01*
X593500D01*
X601532Y238531D01*
Y249214D01*
X578500Y209500D02*
Y214500D01*
X482694Y264785D02*
Y267269D01*
X480563Y262654D02*
X482694Y264785D01*
X480563Y258000D02*
Y262654D01*
X590500Y344673D02*
X600402D01*
X600571Y344842D01*
X497500Y264000D02*
X498279Y263221D01*
Y258000D02*
Y263221D01*
X493500Y264000D02*
X497500D01*
X607000Y209500D02*
X607500Y209000D01*
X600500Y209500D02*
X607000D01*
X600500Y204500D02*
Y209500D01*
X570000Y109354D02*
Y135500D01*
X569500Y108854D02*
X570000Y109354D01*
X563500Y108854D02*
X569500D01*
X613600Y164100D02*
X615055Y165555D01*
X617492D02*
X617500Y165563D01*
X615055Y165555D02*
X617492D01*
X613600Y145100D02*
Y164100D01*
X606000Y137500D02*
X613600Y145100D01*
X577000Y137500D02*
X606000D01*
X560600Y139100D02*
X605337D01*
X612000Y145763D02*
Y165500D01*
X605337Y139100D02*
X612000Y145763D01*
X558000Y136500D02*
X560600Y139100D01*
X575000Y135500D02*
X577000Y137500D01*
X575000Y109000D02*
Y135500D01*
X558000Y109000D02*
Y136500D01*
X612000Y165500D02*
X614032Y167532D01*
X617500D01*
X547303Y102553D02*
X547500D01*
X536579D02*
X542167D01*
X536433Y102407D02*
X536579Y102553D01*
X531100Y108407D02*
X531500Y108807D01*
X536433Y108407D02*
X536500Y108474D01*
Y119500D01*
X558146Y103146D02*
X563500D01*
X558000Y103000D02*
X558146Y103146D01*
X578645Y204500D02*
X579291Y203853D01*
X578500Y204500D02*
X578645D01*
X579291Y198500D02*
Y203853D01*
X608303Y219854D02*
X608500D01*
X602949Y214500D02*
X608303Y219854D01*
X600500Y214500D02*
X602949D01*
X614333Y219854D02*
X614333Y219854D01*
X608500Y219854D02*
X614333D01*
X608500Y219854D02*
X608500Y219854D01*
X614333Y214146D02*
X639890D01*
X640760Y213276D01*
Y222169D02*
Y222724D01*
X633000Y221291D02*
X639882D01*
X640760Y222169D01*
X626964Y221244D02*
X626988Y221268D01*
X632976D01*
X633000Y221291D01*
X629114Y157823D02*
X633500Y153437D01*
X629114Y157823D02*
Y163594D01*
X617492Y169508D02*
X617500Y169500D01*
X612638Y169508D02*
X617492D01*
X612000Y170146D02*
X612638Y169508D01*
X655500Y157500D02*
X667500D01*
X632337Y164400D02*
X648600D01*
X655500Y157500D01*
X631182Y165555D02*
X632337Y164400D01*
X629114Y165563D02*
X629122Y165555D01*
X631182D01*
X633000Y166000D02*
X651500D01*
X652759Y167259D01*
X631468Y167532D02*
X633000Y166000D01*
X652759Y178885D02*
X652874Y179000D01*
X652759Y167259D02*
Y178885D01*
X629114Y167532D02*
X631468D01*
X539000Y219500D02*
Y225713D01*
X538846Y225866D02*
X539000Y225713D01*
X515996Y228472D02*
X526050D01*
X527102Y229525D01*
X535384D01*
X538846Y226063D01*
Y225866D02*
Y226063D01*
X522183Y230441D02*
X525876Y234134D01*
X515996Y230441D02*
X522183D01*
X525876Y234134D02*
X532154D01*
X532228Y234209D02*
Y239500D01*
X532154Y234134D02*
X532228Y234209D01*
X536500Y119500D02*
Y125500D01*
X536500Y119500D02*
X536500Y119500D01*
X531500Y108807D02*
Y125500D01*
X492374Y188126D02*
X497000Y183500D01*
X492374Y188126D02*
Y212724D01*
X490406Y185594D02*
X492500Y183500D01*
X490406Y185594D02*
Y212724D01*
X522570Y151250D02*
X540290D01*
X522570D02*
X523146Y151826D01*
Y157000D02*
Y163000D01*
Y151826D02*
Y157000D01*
X554070Y178250D02*
X571790D01*
X554070D02*
X554646Y178826D01*
Y184000D01*
Y190000D01*
X521715Y178250D02*
X539435D01*
X521715D02*
X522291Y178826D01*
Y184000D01*
Y190000D01*
X554070Y151250D02*
X571790D01*
X554646Y157000D02*
Y163000D01*
Y151826D02*
Y157000D01*
X554070Y151250D02*
X554646Y151826D01*
X461040Y224960D02*
X463433Y222567D01*
X470720D01*
X457247Y224960D02*
X461040D01*
D11*
X427500Y232000D02*
X428500Y233000D01*
X407500Y232000D02*
X427500D01*
X428500Y233000D02*
Y237500D01*
X429315Y238315D01*
X470720D01*
X431000Y245000D02*
X433748Y242252D01*
X470720D01*
X446000Y234000D02*
X453145D01*
X461370Y227900D02*
X461942Y228472D01*
X460500Y230000D02*
X460720Y230221D01*
X470500D01*
X461942Y228472D02*
X470720D01*
X459245Y227900D02*
X461370D01*
X453145Y234000D02*
X459245Y227900D01*
X431000Y245000D02*
Y250056D01*
X429056Y252000D02*
X431000Y250056D01*
X407500Y252000D02*
X429056D01*
X442779Y244220D02*
X470720D01*
X440500Y246500D02*
X442779Y244220D01*
X440500Y246500D02*
Y258500D01*
X437000Y262000D02*
X440500Y258500D01*
X407500Y262000D02*
X437000D01*
X450500Y282000D02*
X454500Y278000D01*
Y250000D02*
Y278000D01*
Y250000D02*
X456343Y248158D01*
X407500Y272000D02*
X445000D01*
X449000Y249500D02*
Y268000D01*
X445000Y272000D02*
X449000Y268000D01*
Y249500D02*
X452311Y246189D01*
X470720D01*
X407500Y282000D02*
X450500D01*
X456343Y248158D02*
X470720D01*
X459000Y252500D02*
Y286500D01*
X453500Y292000D02*
X459000Y286500D01*
X407500Y292000D02*
X453500D01*
X461374Y250126D02*
X470720D01*
X459000Y252500D02*
X461374Y250126D01*
X445500Y229500D02*
X455948D01*
X458944Y226504D01*
X470720D01*
X409149Y242000D02*
X410865Y240283D01*
X470720D01*
X407500Y242000D02*
X409149D01*
X529658Y248158D02*
X536250Y254750D01*
X515996Y248158D02*
X529658D01*
X527626Y250126D02*
X534098Y256598D01*
X515996Y250126D02*
X527626D01*
X534098Y256598D02*
Y285500D01*
X536250Y254750D02*
Y277750D01*
X537500Y279000D01*
X543500D01*
X544098Y279598D01*
Y285500D01*
X486400Y262157D02*
Y266049D01*
X486372Y266076D02*
X486400Y266049D01*
X488469Y258032D02*
Y262968D01*
X488500Y263000D01*
X488437Y258000D02*
X488469Y258032D01*
X484791Y260548D02*
X486400Y262157D01*
X484791Y258291D02*
Y260548D01*
X484500Y258000D02*
X484791Y258291D01*
X482531Y261032D02*
X483886Y262386D01*
Y262613D01*
X482531Y258000D02*
Y261032D01*
X671327Y353000D02*
X671500Y352827D01*
Y349000D02*
Y352827D01*
Y358000D02*
Y361000D01*
X661988Y352717D02*
X662271Y353000D01*
X671327D01*
X661988Y360591D02*
X662397Y361000D01*
X671500D01*
X470500Y230221D02*
X470720Y230441D01*
X464000Y233000D02*
X466595D01*
X467185Y232410D02*
X470720D01*
X466595Y233000D02*
X467185Y232410D01*
X518500Y317000D02*
X520500Y315000D01*
X518500Y317000D02*
Y326602D01*
X510500Y315005D02*
X513500Y318005D01*
X510500Y315000D02*
Y315005D01*
X513500Y318005D02*
Y326602D01*
X520394Y352544D02*
Y361888D01*
X518426Y361882D02*
Y365046D01*
X517000Y366472D02*
Y366500D01*
Y366472D02*
X518426Y365046D01*
X520394Y361888D02*
Y365362D01*
X522363Y366363D02*
X522363Y366363D01*
X522363Y361882D02*
Y366363D01*
Y361882D02*
X522363Y361882D01*
X520263Y368263D02*
X521000Y369000D01*
X523980D02*
X524463Y368517D01*
Y365493D02*
Y368517D01*
X524332Y365362D02*
X524463Y365493D01*
X520263D02*
X520394Y365362D01*
X524332Y361889D02*
Y365362D01*
X520263Y365493D02*
Y368263D01*
X521000Y369000D02*
X523980D01*
X523500Y347500D02*
Y351127D01*
X522363Y352264D02*
Y361882D01*
Y352264D02*
X523500Y351127D01*
X518500Y350650D02*
X520394Y352544D01*
X518500Y347500D02*
Y350650D01*
X498279Y217779D02*
X500000Y219500D01*
X498279Y212724D02*
Y217779D01*
X496311Y219311D02*
X496500Y219500D01*
X496311Y212724D02*
Y219311D01*
X540146Y246500D02*
Y252140D01*
X539770D02*
Y269860D01*
X535000Y246500D02*
X540146D01*
X515996Y232410D02*
X520910D01*
X535000Y246500D01*
X546146Y199500D02*
Y205500D01*
Y199500D02*
X546146Y199500D01*
X540360Y198770D02*
X545416D01*
X546146Y199500D01*
X522640Y198770D02*
X540360D01*
X513500Y193500D02*
X518770Y198770D01*
X522640D01*
X502000Y193500D02*
X513500D01*
X500248Y195252D02*
X502000Y193500D01*
X500248Y195252D02*
Y212724D01*
X474465Y224535D02*
X476500Y222500D01*
Y160500D02*
X493000Y144000D01*
X476500Y160500D02*
Y222500D01*
X470720Y224535D02*
X474465D01*
X493000Y129000D02*
Y144000D01*
X488437Y182063D02*
Y212724D01*
Y182063D02*
X492250Y178250D01*
X521715D01*
X491000Y166000D02*
X545000D01*
X546500Y167500D02*
Y176500D01*
X545000Y166000D02*
X546500Y167500D01*
X486469Y170531D02*
X491000Y166000D01*
X486469Y170531D02*
Y212724D01*
X546500Y176500D02*
X548250Y178250D01*
X554070D01*
X503000Y129000D02*
Y138500D01*
X478594Y162906D02*
Y212724D01*
Y162906D02*
X503000Y138500D01*
X482531Y163969D02*
Y212724D01*
Y163969D02*
X510500Y136000D01*
X501750Y151250D02*
X522570D01*
X484500Y168500D02*
Y212724D01*
Y168500D02*
X501750Y151250D01*
X546750Y139351D02*
Y149750D01*
X548250Y151250D01*
X554070D01*
X510500Y136000D02*
X543399D01*
X546750Y139351D01*
D21*
X534568Y361888D02*
D03*
X533387D02*
D03*
X531418Y361898D02*
D03*
X530237D02*
D03*
X526299Y361880D02*
D03*
X524332Y361889D02*
D03*
X522363Y361882D02*
D03*
X520395Y361888D02*
D03*
X518426Y361882D02*
D03*
X514489D02*
D03*
X512521Y361882D02*
D03*
X511339D02*
D03*
X509371Y361882D02*
D03*
X508190D02*
D03*
D22*
X528268Y361882D02*
D03*
X516457Y361882D02*
D03*
D23*
X575000Y103000D02*
D03*
Y109000D02*
D03*
X558000Y103000D02*
D03*
Y109000D02*
D03*
X536433Y108407D02*
D03*
Y102407D02*
D03*
X531100Y108407D02*
D03*
Y102407D02*
D03*
D24*
X569500Y108854D02*
D03*
Y103146D02*
D03*
X563500Y108854D02*
D03*
Y103146D02*
D03*
X547500Y102553D02*
D03*
Y108261D02*
D03*
X542167Y102553D02*
D03*
Y108261D02*
D03*
X530500Y325646D02*
D03*
Y331354D02*
D03*
X633000Y227000D02*
D03*
Y221291D02*
D03*
X626964Y221244D02*
D03*
Y226952D02*
D03*
X614333Y214146D02*
D03*
Y219854D02*
D03*
X608500Y219854D02*
D03*
Y214146D02*
D03*
X612000Y175854D02*
D03*
Y170146D02*
D03*
X591541Y311266D02*
D03*
Y305558D02*
D03*
X585500Y311209D02*
D03*
Y305500D02*
D03*
D25*
X522640Y198770D02*
D03*
X540360D02*
D03*
Y207230D02*
D03*
X522640D02*
D03*
X522570Y151250D02*
D03*
X540290D02*
D03*
Y142790D02*
D03*
X522570D02*
D03*
X554070Y178250D02*
D03*
X571790D02*
D03*
Y169790D02*
D03*
X554070D02*
D03*
X521715Y178250D02*
D03*
X539435D02*
D03*
Y169790D02*
D03*
X521715D02*
D03*
X554070Y142790D02*
D03*
X571790D02*
D03*
Y151250D02*
D03*
X554070D02*
D03*
D26*
X546146Y205500D02*
D03*
X551854D02*
D03*
X546146Y199500D02*
D03*
X551854D02*
D03*
X540146Y246500D02*
D03*
X545854D02*
D03*
X644291Y230500D02*
D03*
X650000D02*
D03*
X639046Y205500D02*
D03*
X644754D02*
D03*
X665646Y163500D02*
D03*
X671354D02*
D03*
X617500Y178000D02*
D03*
X623209D02*
D03*
X579291Y198500D02*
D03*
X585000D02*
D03*
X523146Y157000D02*
D03*
X528854D02*
D03*
X523146Y163000D02*
D03*
X528854D02*
D03*
X522291Y184000D02*
D03*
X527999D02*
D03*
X522291Y190000D02*
D03*
X527999D02*
D03*
X557646Y294500D02*
D03*
X563354D02*
D03*
X557646Y300500D02*
D03*
X563354D02*
D03*
X560354Y184000D02*
D03*
X554646D02*
D03*
X560354Y190000D02*
D03*
X554646D02*
D03*
X560354Y157000D02*
D03*
X554646D02*
D03*
X560354Y163000D02*
D03*
X554646D02*
D03*
X488354Y142000D02*
D03*
X482646D02*
D03*
D27*
X674847Y361000D02*
D03*
X671500D02*
D03*
X674673Y353000D02*
D03*
X671327D02*
D03*
X528772Y244000D02*
D03*
X525228D02*
D03*
X453728Y221000D02*
D03*
X457272D02*
D03*
X453703Y224960D02*
D03*
X457247D02*
D03*
X535457Y219500D02*
D03*
X539000D02*
D03*
X535772Y239500D02*
D03*
X532228D02*
D03*
D28*
X671500Y325827D02*
D03*
Y329173D02*
D03*
X590500Y341327D02*
D03*
Y344673D02*
D03*
X508500Y197728D02*
D03*
Y201272D02*
D03*
X522500Y216728D02*
D03*
Y220272D02*
D03*
X504000Y270772D02*
D03*
Y267228D02*
D03*
X478500Y270772D02*
D03*
Y267228D02*
D03*
X482694Y270813D02*
D03*
Y267269D02*
D03*
D29*
X655000Y267797D02*
D03*
Y253203D02*
D03*
D30*
X669055Y240500D02*
D03*
X650945D02*
D03*
D31*
X630488Y248500D02*
D03*
X641512D02*
D03*
X630488Y239000D02*
D03*
X641512D02*
D03*
X663476Y171500D02*
D03*
X674500D02*
D03*
X634888Y198000D02*
D03*
X645912D02*
D03*
D32*
X665500Y227874D02*
D03*
Y212126D02*
D03*
D33*
X648240Y213276D02*
D03*
X644500D02*
D03*
X640760D02*
D03*
Y222724D02*
D03*
X644500D02*
D03*
X648240D02*
D03*
D34*
X671134Y180000D02*
D03*
X662866D02*
D03*
X671134Y187500D02*
D03*
X662866D02*
D03*
D35*
X637126Y179000D02*
D03*
X652874D02*
D03*
D36*
X618260Y185000D02*
D03*
X625740D02*
D03*
D37*
X611500Y185260D02*
D03*
Y192740D02*
D03*
D38*
X539770Y269860D02*
D03*
Y252140D02*
D03*
X548230D02*
D03*
Y269860D02*
D03*
D39*
X558500Y270878D02*
D03*
Y259500D02*
D03*
D40*
X600500Y204500D02*
D03*
Y209500D02*
D03*
Y214500D02*
D03*
Y219500D02*
D03*
X578500D02*
D03*
Y214500D02*
D03*
Y209500D02*
D03*
Y204500D02*
D03*
D41*
X617500Y171468D02*
D03*
Y169500D02*
D03*
Y167532D02*
D03*
Y165563D02*
D03*
Y163594D02*
D03*
X629114D02*
D03*
Y165563D02*
D03*
Y167532D02*
D03*
Y169500D02*
D03*
Y171468D02*
D03*
D42*
X623307Y167532D02*
D03*
D43*
X547500Y332488D02*
D03*
X579000Y294488D02*
D03*
D44*
X547500Y343512D02*
D03*
X579000Y305512D02*
D03*
D45*
X556811Y315500D02*
D03*
X568189D02*
D03*
D46*
X562551Y323500D02*
D03*
X556449D02*
D03*
D47*
X565307Y368000D02*
D03*
X578693D02*
D03*
X569693Y330500D02*
D03*
X556307D02*
D03*
D48*
X556034Y349476D02*
D03*
D49*
X578475Y358531D02*
D03*
Y349476D02*
D03*
Y340421D02*
D03*
D50*
X574000Y257996D02*
D03*
Y271382D02*
D03*
X609500Y236307D02*
D03*
Y249693D02*
D03*
D51*
X592476Y271655D02*
D03*
D52*
X601532Y249214D02*
D03*
X592476D02*
D03*
X583421D02*
D03*
D53*
X575488Y280000D02*
D03*
D54*
X586512D02*
D03*
D55*
X566500Y265138D02*
D03*
Y271241D02*
D03*
D56*
X661988Y321220D02*
D03*
Y313346D02*
D03*
Y305472D02*
D03*
X600571D02*
D03*
Y313346D02*
D03*
Y321220D02*
D03*
Y329095D02*
D03*
Y336968D02*
D03*
Y344842D02*
D03*
Y352717D02*
D03*
Y360591D02*
D03*
X661988D02*
D03*
Y352717D02*
D03*
Y344842D02*
D03*
Y336968D02*
D03*
Y329094D02*
D03*
D57*
X619468Y300945D02*
D03*
X611594D02*
D03*
X627342D02*
D03*
X635216D02*
D03*
X643090D02*
D03*
X650964D02*
D03*
D58*
X630000Y335000D02*
D03*
D59*
X508122Y212724D02*
D03*
X506153D02*
D03*
X504185D02*
D03*
X502216D02*
D03*
X500248D02*
D03*
X498279D02*
D03*
X496311D02*
D03*
X494343D02*
D03*
X492374D02*
D03*
X490406D02*
D03*
X488437D02*
D03*
X486469D02*
D03*
X484500D02*
D03*
X482531D02*
D03*
X480563D02*
D03*
X478594D02*
D03*
Y258000D02*
D03*
X480563D02*
D03*
X482531D02*
D03*
X484500D02*
D03*
X486469D02*
D03*
X488437D02*
D03*
X490406D02*
D03*
X492374D02*
D03*
X494343D02*
D03*
X496311D02*
D03*
X498279D02*
D03*
X500248D02*
D03*
X502216D02*
D03*
X504185D02*
D03*
X506153D02*
D03*
X508122D02*
D03*
D60*
X470720Y220598D02*
D03*
Y222567D02*
D03*
Y224535D02*
D03*
Y226504D02*
D03*
Y228472D02*
D03*
Y230441D02*
D03*
Y232410D02*
D03*
Y234378D02*
D03*
Y236347D02*
D03*
Y238315D02*
D03*
Y240283D02*
D03*
Y242252D02*
D03*
Y244220D02*
D03*
Y246189D02*
D03*
Y248158D02*
D03*
Y250126D02*
D03*
X515996D02*
D03*
Y248158D02*
D03*
Y246189D02*
D03*
Y244220D02*
D03*
Y242252D02*
D03*
Y240283D02*
D03*
Y238315D02*
D03*
Y236347D02*
D03*
Y234378D02*
D03*
Y232410D02*
D03*
Y230441D02*
D03*
Y228472D02*
D03*
Y226504D02*
D03*
Y224535D02*
D03*
Y222567D02*
D03*
Y220598D02*
D03*
D61*
X538846Y225866D02*
D03*
Y234134D02*
D03*
X532154D02*
D03*
Y225866D02*
D03*
D62*
X508500Y326602D02*
D03*
X513500D02*
D03*
X518500D02*
D03*
X523500D02*
D03*
X508500Y347500D02*
D03*
X513500D02*
D03*
X518500D02*
D03*
X523500D02*
D03*
D65*
X532756Y367000D02*
D03*
X510000D02*
D03*
D66*
X539095Y381370D02*
D03*
X503662Y381370D02*
D03*
D67*
X503662Y365032D02*
D03*
X539095Y365032D02*
D03*
D68*
X513000Y129000D02*
D03*
X503000D02*
D03*
X493000D02*
D03*
X407500Y302000D02*
D03*
Y292000D02*
D03*
Y282000D02*
D03*
Y272000D02*
D03*
Y262000D02*
D03*
Y252000D02*
D03*
Y242000D02*
D03*
Y232000D02*
D03*
Y222000D02*
D03*
Y212000D02*
D03*
Y202000D02*
D03*
X500500Y315000D02*
D03*
X510500D02*
D03*
X544098Y285500D02*
D03*
X554098D02*
D03*
X564098D02*
D03*
X510000D02*
D03*
X500000D02*
D03*
X490000D02*
D03*
D69*
X483000Y129000D02*
D03*
X520500Y315000D02*
D03*
X534098Y285500D02*
D03*
X480000D02*
D03*
D70*
X407500Y312000D02*
D03*
D71*
X669500Y142000D02*
D03*
X633500Y153437D02*
D03*
Y145563D02*
D03*
D72*
X669500Y149874D02*
D03*
D73*
X600500Y154908D02*
D03*
X600500Y130500D02*
D03*
D74*
X619005Y143099D02*
D03*
D75*
X667504Y113500D02*
D03*
X630496D02*
D03*
X649000D02*
D03*
D76*
X775185Y382701D02*
D03*
X775111Y111012D02*
D03*
X413366Y111044D02*
D03*
X413368Y382673D02*
D03*
D77*
X476000Y142000D02*
X482646D01*
Y129354D02*
Y142000D01*
Y129354D02*
X483000Y129000D01*
X661988Y305472D02*
X662002Y305486D01*
X669586D02*
X669600Y305500D01*
X662002Y305486D02*
X669586D01*
X579000Y290000D02*
Y294488D01*
X609500Y230500D02*
Y236307D01*
X539095Y365032D02*
X539095Y365032D01*
X539095Y381370D02*
X539095Y381370D01*
Y365032D02*
Y381370D01*
X503662Y365032D02*
Y381370D01*
X503662Y381370D02*
X503662Y381370D01*
X503662Y365032D02*
X503662Y365032D01*
X575488Y280000D02*
Y285488D01*
X547500Y327000D02*
Y332488D01*
X628500Y198000D02*
X634888D01*
X634000Y205500D02*
X639046D01*
X611500Y192740D02*
X616259D01*
D78*
X501500Y326500D02*
X501602Y326602D01*
X508500D01*
X531146Y325000D02*
X531318Y325172D01*
X535328D01*
X535500Y325000D01*
X530500Y325646D02*
X531146Y325000D01*
X529347Y326602D02*
X530303Y325646D01*
X523500Y326602D02*
X529347D01*
X530303Y325646D02*
X530500D01*
X622048Y226952D02*
X626964D01*
D79*
X574927Y103073D02*
X575000Y103000D01*
X569500Y103146D02*
X569573Y103073D01*
X574927D01*
X488354Y137646D02*
X488500Y137500D01*
X488354Y137646D02*
Y142000D01*
X535354Y331354D02*
X535500Y331500D01*
X530500Y331354D02*
X535354D01*
X556500Y365500D02*
X559000Y368000D01*
X565307D01*
X513500Y347500D02*
Y354500D01*
X554098Y285684D02*
X557646Y289231D01*
X554098Y285500D02*
Y285684D01*
X557646Y289231D02*
Y294500D01*
Y305146D02*
X558000Y305500D01*
X557646Y300500D02*
Y305146D01*
X591541Y316041D02*
X591959Y316459D01*
X591541Y311266D02*
Y316041D01*
X585500Y311209D02*
Y315000D01*
X419000Y115500D02*
X419354Y115146D01*
D80*
X563354Y305500D02*
Y309287D01*
Y300500D02*
Y305500D01*
X578988D01*
X579000Y305512D01*
X563354Y287243D02*
Y294500D01*
Y287243D02*
X564098Y286499D01*
Y285500D02*
Y286499D01*
X563354Y294500D02*
Y300500D01*
Y309287D02*
X568189Y314122D01*
Y315500D01*
X591565Y305534D02*
X600509D01*
X600571Y305472D01*
X591541Y305558D02*
X591565Y305534D01*
X591334Y305500D02*
X591391Y305558D01*
X585500Y305500D02*
X591334D01*
X591391Y305558D02*
X591541D01*
X579000Y305512D02*
X579006Y305506D01*
X585494D01*
X585500Y305500D01*
X601803Y249693D02*
X609500D01*
X601532Y249421D02*
X601803Y249693D01*
X601532Y249214D02*
Y249421D01*
X609500Y249693D02*
Y264500D01*
X612797Y267797D01*
X655000D01*
D81*
Y275250D02*
D03*
D82*
X579000Y376000D02*
D03*
X518500Y205000D02*
D03*
X557000Y205500D02*
D03*
X565000Y190000D02*
D03*
X533000D02*
D03*
X566500Y163500D02*
D03*
X534000Y163000D02*
D03*
X547500Y113000D02*
D03*
X542000Y112500D02*
D03*
X476000Y142000D02*
D03*
X457272Y212228D02*
D03*
X512000Y201500D02*
D03*
X526500Y220500D02*
D03*
X525228Y240728D02*
D03*
X510500Y268000D02*
D03*
X464000Y267000D02*
D03*
X501500Y326500D02*
D03*
X535500Y325000D02*
D03*
X446700Y225000D02*
D03*
Y221000D02*
D03*
X446000Y234000D02*
D03*
X460500Y230000D02*
D03*
X445500Y229500D02*
D03*
X669600Y305500D02*
D03*
X673000Y322000D02*
D03*
X640000Y230500D02*
D03*
X579000Y290000D02*
D03*
X609500Y230500D02*
D03*
X488500Y137500D02*
D03*
X545500Y242000D02*
D03*
X544000Y252500D02*
D03*
X535500Y331500D02*
D03*
X556500Y365500D02*
D03*
X513500Y354500D02*
D03*
X558000Y305500D02*
D03*
X629945Y334416D02*
D03*
X634445D02*
D03*
X625445D02*
D03*
X630000Y331000D02*
D03*
X625500D02*
D03*
X634500D02*
D03*
Y338000D02*
D03*
X625500D02*
D03*
X630000D02*
D03*
X590500Y352600D02*
D03*
X577000Y335500D02*
D03*
X581000D02*
D03*
Y331500D02*
D03*
X577000D02*
D03*
X591959Y316459D02*
D03*
X585500Y315000D02*
D03*
X567500Y246500D02*
D03*
Y251000D02*
D03*
X573000Y246500D02*
D03*
Y251000D02*
D03*
X578500Y246500D02*
D03*
Y251000D02*
D03*
X613000Y209000D02*
D03*
X600500Y223500D02*
D03*
X578500Y224000D02*
D03*
X585000Y194000D02*
D03*
X556500Y199500D02*
D03*
X565500Y184000D02*
D03*
X577000Y170000D02*
D03*
X565000Y157000D02*
D03*
X550500Y145000D02*
D03*
X517000Y146000D02*
D03*
X533500Y157000D02*
D03*
X517000Y169500D02*
D03*
X533500Y184000D02*
D03*
X531500Y247000D02*
D03*
X521500Y241000D02*
D03*
X539500Y239500D02*
D03*
X543500Y234000D02*
D03*
X532000Y220000D02*
D03*
X535500Y216000D02*
D03*
X525772Y216728D02*
D03*
X504500Y197500D02*
D03*
X504000Y204500D02*
D03*
X509500Y264500D02*
D03*
X507000Y270500D02*
D03*
X482500Y274500D02*
D03*
X478500D02*
D03*
X583500Y376000D02*
D03*
X575000D02*
D03*
X583500Y380000D02*
D03*
X579000D02*
D03*
X575000D02*
D03*
X659156Y275047D02*
D03*
X654906D02*
D03*
X650656D02*
D03*
X659070Y278676D02*
D03*
X654820D02*
D03*
X650570D02*
D03*
X650500Y282500D02*
D03*
X654750D02*
D03*
X659000D02*
D03*
X486372Y266076D02*
D03*
X483886Y262613D02*
D03*
X488500Y263000D02*
D03*
X671500Y349000D02*
D03*
Y358000D02*
D03*
X493500Y264000D02*
D03*
X607500Y209000D02*
D03*
X464000Y233000D02*
D03*
X517000Y366500D02*
D03*
X522363Y366363D02*
D03*
X570000Y135500D02*
D03*
X567189Y323000D02*
D03*
X571189D02*
D03*
X562689Y330500D02*
D03*
X564689Y327500D02*
D03*
X571000Y263000D02*
D03*
X574000Y265000D02*
D03*
X566500Y256500D02*
D03*
Y260500D02*
D03*
X575488Y285488D02*
D03*
X547500Y327000D02*
D03*
X500000Y219500D02*
D03*
X496500D02*
D03*
X628500Y198000D02*
D03*
X634000Y205500D02*
D03*
X616259Y192740D02*
D03*
X627500Y258000D02*
D03*
Y254500D02*
D03*
X633000Y258000D02*
D03*
Y254500D02*
D03*
X642500D02*
D03*
X622048Y226952D02*
D03*
X628000Y232500D02*
D03*
X632500D02*
D03*
X636000Y230500D02*
D03*
X656000Y202500D02*
D03*
Y199000D02*
D03*
Y195500D02*
D03*
X652000D02*
D03*
Y199000D02*
D03*
Y202500D02*
D03*
X660500Y162500D02*
D03*
X656500D02*
D03*
X660500Y165500D02*
D03*
X656500D02*
D03*
X624000Y164799D02*
D03*
Y161699D02*
D03*
Y174100D02*
D03*
Y167900D02*
D03*
Y171000D02*
D03*
X620500Y161699D02*
D03*
X626500Y179500D02*
D03*
X629500Y181000D02*
D03*
Y184500D02*
D03*
Y187500D02*
D03*
X536500Y125500D02*
D03*
X531500D02*
D03*
X497000Y183500D02*
D03*
X492500D02*
D03*
D83*
X560000Y251000D02*
D03*
X556500D02*
D03*
X560000Y254000D02*
D03*
X556500D02*
D03*
M02*
