G04*
G04 #@! TF.GenerationSoftware,Altium Limited,Altium Designer,22.0.2 (36)*
G04*
G04 Layer_Color=16711935*
%FSLAX25Y25*%
%MOIN*%
G70*
G04*
G04 #@! TF.SameCoordinates,7F160BED-0690-4144-9330-6DFC8CD618BD*
G04*
G04*
G04 #@! TF.FilePolarity,Negative*
G04*
G01*
G75*
%ADD65C,0.02953*%
%ADD66O,0.04724X0.07874*%
%ADD67O,0.04724X0.09055*%
%ADD68C,0.06693*%
%ADD69R,0.06693X0.06693*%
%ADD70R,0.06693X0.06693*%
%ADD71C,0.05906*%
%ADD72R,0.05906X0.05906*%
%ADD73O,0.17717X0.07874*%
%ADD74O,0.07874X0.17717*%
%ADD75C,0.07874*%
%ADD76C,0.15748*%
D65*
X532756Y367000D02*
D03*
X510000D02*
D03*
D66*
X539095Y381370D02*
D03*
X503662Y381370D02*
D03*
D67*
X503662Y365032D02*
D03*
X539095Y365032D02*
D03*
D68*
X513000Y129000D02*
D03*
X503000D02*
D03*
X493000D02*
D03*
X407500Y302000D02*
D03*
Y292000D02*
D03*
Y282000D02*
D03*
Y272000D02*
D03*
Y262000D02*
D03*
Y252000D02*
D03*
Y242000D02*
D03*
Y232000D02*
D03*
Y222000D02*
D03*
Y212000D02*
D03*
Y202000D02*
D03*
X500500Y315000D02*
D03*
X510500D02*
D03*
X544098Y285500D02*
D03*
X554098D02*
D03*
X564098D02*
D03*
X510000D02*
D03*
X500000D02*
D03*
X490000D02*
D03*
D69*
X483000Y129000D02*
D03*
X520500Y315000D02*
D03*
X534098Y285500D02*
D03*
X480000D02*
D03*
D70*
X407500Y312000D02*
D03*
D71*
X669500Y142000D02*
D03*
X633500Y153437D02*
D03*
Y145563D02*
D03*
D72*
X669500Y149874D02*
D03*
D73*
X600500Y154908D02*
D03*
X600500Y130500D02*
D03*
D74*
X619005Y143099D02*
D03*
D75*
X667504Y113500D02*
D03*
X630496D02*
D03*
X649000D02*
D03*
D76*
X775185Y382701D02*
D03*
X775111Y111012D02*
D03*
X413366Y111044D02*
D03*
X413368Y382673D02*
D03*
M02*
