M48
;Layer_Color=9474304
;FILE_FORMAT=2:5
INCH,LZ
;TYPE=PLATED
T1F00S00C0.01000
T2F00S00C0.01200
T3F00S00C0.03543
T4F00S00C0.12992
%
T01
X04Y0284
X043Y0293
X0433
Y0296
X043
T02
X0147Y01205
X01415Y0128
X0160854Y0126354
X0160146Y0108646
Y0144646
X0194854Y0143854
X0194146Y0126146
X03515Y01105
X03575Y011
X0368Y01065
X0413Y01135
X04105Y0116
X0411Y01315
X0397949Y0131449
X0416Y01445
X0411Y01515
X04365Y01455
X04475Y01315
X0456Y01265
X0422Y0158
X0406Y0195
X03973Y019
X038Y01925
X03785Y0177
X0372Y0202
X03535Y0201354
X0357Y0192
X03455
X0347854Y0208854
X0357Y0215
X0339Y02175
X0383299Y0226299
X03975Y0229
Y02215
X03917Y02165
X0398677Y0237323
X0398956Y0243338
X0399735Y0246235
X0403Y0249
X04075
X0406Y02446
X0414Y02495
X04265Y0249
X04175Y0259
X0402854Y0262354
X04Y0273
X0382Y027
X0375Y0288
X03625Y0297
X0355897Y0293354
X0356Y03085
Y03115
X0359
Y03085
X03595Y02625
X0389898Y0251102
X0391Y0245
X04425Y02525
X0422Y0282
X0408Y02925
X04045
Y02965
X0408
X02875Y0306
X02775Y0294709
X0270449Y027226
X02815Y0256
X0288Y0261
Y0219
X02775Y02075
X0270449Y0229051
X0239Y02275
X0236Y02335
X02265Y0221
X02125Y02065
X0205791Y02117
X0203291Y0233291
X0194146Y0238854
X01845Y02365
X01715
X01675Y02145
X01875Y02215
X01845Y01925
X0194146Y0194854
X0203291Y0189291
X0195Y0175
X0194Y0157
X0160854Y0162354
X0175Y0188
X0236209Y0189291
X0239Y0184
X0249089Y0180089
X0270449Y0185051
X0239Y0271209
X0236209Y02765
X0227Y0265
X02125Y02505
X0196854Y0255854
X01875Y0266
X01845Y0279709
X0194146Y0282063
X0203291Y02765
X0205791Y0298917
X02125Y02935
X02265Y0311
X01875Y03095
X01675Y0303
X0171Y028
X01675Y0261
X01525Y0263
X0143Y02685
Y0289
X01515Y02985
X01415Y01645
X0127Y01635
X01425Y03565
X01405Y0362
X0155854Y0388354
X0165646Y0388854
X01595Y03555
X01675Y0347
X01715Y0325
X0185
X0194646Y0327354
X0203791Y0321791
X02125Y0338
X0198Y03445
X01875Y03535
Y0363
X01795Y0362
X02245Y0366
X0236709Y0321791
X02395Y03165
X0270949Y0317551
X02825Y0344
X0288Y0347
X033875Y0336
X03425
X034625
Y03315
X03425
X033875
X0351Y03595
X0366Y03635
X03815Y0362
X0398Y0359
X04075Y03595
X0399Y0343
X0388Y0342
X0381724Y0342224
X037Y0342
X0369Y0321
X03845Y03245
X04065Y0329
X04125Y03245
X04355Y03345
X04365Y0315
X0423746Y0346746
T03
X01085Y01385
X01185
Y01485
X01085
X04775Y0202
Y0212
Y0222
Y0232
Y0242
Y0252
Y0262
Y0272
Y0282
Y0292
X01205Y02955
Y02855
Y02755
Y02655
X01105
Y02755
Y02855
Y02955
X01085Y01685
Y01585
X01185
Y01685
X01205Y03535
X01105
Y03635
X01205
T04
X0109866Y0111044
X0471611Y0111012
X0109868Y0382673
X0471685Y0382701
M30
