G04*
G04 #@! TF.GenerationSoftware,Altium Limited,Altium Designer,22.0.2 (36)*
G04*
G04 Layer_Color=32896*
%FSLAX25Y25*%
%MOIN*%
G70*
G04*
G04 #@! TF.SameCoordinates,8A9B01F1-EDD2-4DB2-B9E0-C6938A593893*
G04*
G04*
G04 #@! TF.FilePolarity,Positive*
G04*
G01*
G75*
%ADD16C,0.00787*%
%ADD17C,0.01000*%
%ADD51C,0.00200*%
G36*
X477794Y191567D02*
X478315D01*
Y191134D01*
X477794D01*
Y188647D01*
X477411D01*
X475651Y191134D01*
Y191567D01*
X477322D01*
Y192488D01*
X477794D01*
Y191567D01*
D02*
G37*
G36*
X472937Y190928D02*
X473920D01*
X474064Y190923D01*
X474203Y190912D01*
X474325Y190895D01*
X474436Y190873D01*
X474541Y190851D01*
X474630Y190823D01*
X474713Y190790D01*
X474785Y190756D01*
X474846Y190729D01*
X474902Y190695D01*
X474946Y190668D01*
X474980Y190640D01*
X475007Y190623D01*
X475024Y190606D01*
X475035Y190595D01*
X475041Y190590D01*
X475096Y190523D01*
X475146Y190457D01*
X475185Y190390D01*
X475224Y190318D01*
X475257Y190246D01*
X475279Y190179D01*
X475318Y190051D01*
X475329Y189990D01*
X475340Y189935D01*
X475346Y189885D01*
X475351Y189846D01*
X475357Y189807D01*
Y189785D01*
Y189769D01*
Y189763D01*
X475351Y189657D01*
X475340Y189558D01*
X475318Y189469D01*
X475302Y189391D01*
X475279Y189324D01*
X475257Y189275D01*
X475246Y189247D01*
X475241Y189236D01*
X475196Y189152D01*
X475141Y189080D01*
X475091Y189014D01*
X475041Y188964D01*
X474996Y188925D01*
X474963Y188892D01*
X474941Y188875D01*
X474930Y188869D01*
X474858Y188825D01*
X474774Y188786D01*
X474697Y188753D01*
X474624Y188725D01*
X474558Y188708D01*
X474508Y188697D01*
X474469Y188686D01*
X474458D01*
X474375Y188675D01*
X474280Y188664D01*
X474180Y188658D01*
X474086Y188653D01*
X474003Y188647D01*
X472427D01*
Y192488D01*
X472937D01*
Y190928D01*
D02*
G37*
G36*
X470634Y192549D02*
X470745Y192532D01*
X470845Y192510D01*
X470934Y192482D01*
X471006Y192460D01*
X471056Y192438D01*
X471089Y192421D01*
X471100Y192416D01*
X471189Y192360D01*
X471267Y192294D01*
X471328Y192227D01*
X471383Y192166D01*
X471422Y192105D01*
X471450Y192061D01*
X471466Y192027D01*
X471472Y192022D01*
Y192016D01*
X471511Y191905D01*
X471544Y191789D01*
X471566Y191661D01*
X471578Y191539D01*
X471589Y191433D01*
Y191389D01*
X471594Y191345D01*
Y191311D01*
Y191289D01*
Y191272D01*
Y191267D01*
Y188647D01*
X471083D01*
Y191295D01*
Y191411D01*
X471072Y191511D01*
X471067Y191594D01*
X471056Y191661D01*
X471045Y191711D01*
X471039Y191750D01*
X471028Y191772D01*
Y191778D01*
X471006Y191833D01*
X470978Y191877D01*
X470945Y191916D01*
X470917Y191955D01*
X470884Y191977D01*
X470861Y191999D01*
X470845Y192011D01*
X470839Y192016D01*
X470784Y192044D01*
X470728Y192066D01*
X470673Y192077D01*
X470623Y192088D01*
X470573Y192094D01*
X470540Y192099D01*
X470506D01*
X470417Y192094D01*
X470334Y192072D01*
X470268Y192050D01*
X470207Y192016D01*
X470162Y191988D01*
X470129Y191961D01*
X470107Y191944D01*
X470101Y191938D01*
X470073Y191905D01*
X470051Y191866D01*
X470018Y191778D01*
X469985Y191678D01*
X469968Y191578D01*
X469951Y191483D01*
Y191445D01*
X469946Y191411D01*
X469940Y191378D01*
Y191356D01*
Y191345D01*
Y191339D01*
X469480Y191406D01*
Y191511D01*
X469485Y191605D01*
X469502Y191700D01*
X469513Y191783D01*
X469535Y191861D01*
X469557Y191927D01*
X469580Y191994D01*
X469602Y192050D01*
X469629Y192099D01*
X469652Y192144D01*
X469674Y192183D01*
X469696Y192210D01*
X469713Y192233D01*
X469724Y192255D01*
X469729Y192260D01*
X469735Y192266D01*
X469790Y192316D01*
X469846Y192360D01*
X469907Y192399D01*
X469974Y192432D01*
X470101Y192482D01*
X470223Y192516D01*
X470340Y192538D01*
X470384Y192543D01*
X470429Y192549D01*
X470462Y192554D01*
X470512D01*
X470634Y192549D01*
D02*
G37*
%LPC*%
G36*
X477322Y191134D02*
X476112D01*
X477322Y189413D01*
Y191134D01*
D02*
G37*
G36*
X473970Y190473D02*
X472937D01*
Y189102D01*
X474036D01*
X474136Y189108D01*
X474219Y189114D01*
X474286Y189119D01*
X474330Y189130D01*
X474364Y189136D01*
X474386Y189141D01*
X474391D01*
X474464Y189169D01*
X474524Y189202D01*
X474580Y189236D01*
X474630Y189275D01*
X474663Y189313D01*
X474691Y189341D01*
X474708Y189363D01*
X474713Y189369D01*
X474752Y189435D01*
X474785Y189502D01*
X474808Y189574D01*
X474819Y189635D01*
X474830Y189691D01*
X474835Y189741D01*
Y189769D01*
Y189774D01*
Y189779D01*
X474824Y189896D01*
X474802Y189996D01*
X474769Y190085D01*
X474730Y190157D01*
X474691Y190212D01*
X474658Y190257D01*
X474636Y190279D01*
X474624Y190290D01*
X474586Y190323D01*
X474536Y190351D01*
X474430Y190396D01*
X474314Y190429D01*
X474197Y190451D01*
X474092Y190462D01*
X474047Y190468D01*
X474008D01*
X473970Y190473D01*
D02*
G37*
%LPD*%
D16*
X482500Y197000D02*
Y297000D01*
X472500D02*
X482500D01*
X472500Y197000D02*
Y297000D01*
Y197000D02*
X482500D01*
D17*
X110500Y358500D02*
X120500D01*
X115500Y350500D02*
Y366500D01*
X113500Y135500D02*
Y171500D01*
X108500Y163500D02*
X118500D01*
X108500Y153500D02*
X118500D01*
X108500Y143500D02*
X118500D01*
X115500Y262500D02*
Y298500D01*
X110500Y290500D02*
X120500D01*
X110500Y280500D02*
X120500D01*
X110500Y270500D02*
X120500D01*
D51*
X291500Y157900D02*
X304967D01*
X291500Y158100D02*
X304767D01*
X308900Y157900D02*
X309367D01*
X311100D02*
X312967D01*
X308700Y158100D02*
X309367D01*
X311700D02*
X313167D01*
X291300Y158300D02*
X304767D01*
X308700D02*
X309367D01*
X312100D02*
X313167D01*
X291100Y158500D02*
X304567D01*
X308700D02*
X309367D01*
X312500D02*
X312967D01*
X291100Y158700D02*
X304567D01*
X317900Y158100D02*
X318967D01*
X317700Y158700D02*
X318767D01*
X317900Y158300D02*
X318967D01*
X317700Y158500D02*
X318767D01*
X317500Y158900D02*
X318767D01*
X317500Y159100D02*
X318567D01*
X317500Y159300D02*
X318567D01*
X317300Y159500D02*
X318367D01*
X317300Y159700D02*
X318367D01*
X317100Y159900D02*
X318367D01*
X317100Y160100D02*
X318167D01*
X317100Y160300D02*
X318167D01*
X316900Y160500D02*
X317967D01*
X308700Y158700D02*
X309367D01*
X308900Y158900D02*
X309567D01*
X308900Y159100D02*
X309967D01*
X309100Y159300D02*
X310367D01*
X309500Y159500D02*
X310967D01*
X308100Y159900D02*
X308167D01*
X307900Y160100D02*
X308567D01*
X307900Y160300D02*
X308967D01*
X307900Y160500D02*
X309367D01*
X308300Y160700D02*
X309767D01*
X290900Y158900D02*
X304367D01*
X290900Y159100D02*
X304367D01*
X290700Y159300D02*
X304167D01*
X290500Y159500D02*
X304167D01*
X288100Y159700D02*
X303967D01*
X287700Y159900D02*
X303967D01*
X287500Y160100D02*
X303767D01*
X287300Y160300D02*
X303767D01*
X287100Y160500D02*
X303567D01*
X286900Y160700D02*
X303567D01*
X286900Y160900D02*
X303367D01*
X286700Y161100D02*
X303367D01*
X287100Y163900D02*
X301967D01*
X286700Y163300D02*
X302167D01*
X286900Y163500D02*
X302167D01*
X286900Y163700D02*
X301967D01*
X287300Y164100D02*
X301767D01*
X287500Y164300D02*
X301767D01*
X287700Y164500D02*
X301567D01*
X287500Y164700D02*
X301567D01*
X309900Y159700D02*
X311367D01*
X309300Y161100D02*
X310567D01*
X310300Y159900D02*
X311767D01*
X310700Y160100D02*
X312167D01*
X311100Y160300D02*
X312167D01*
X311700Y160500D02*
X312167D01*
X308900Y160900D02*
X310167D01*
X309700Y161300D02*
X310967D01*
X310100Y161500D02*
X311367D01*
X309700Y161700D02*
X311567D01*
X307300Y161900D02*
X311567D01*
X306900Y162100D02*
X311367D01*
X306700Y162300D02*
X311367D01*
X316900Y160700D02*
X317967D01*
X316500Y161300D02*
X317767D01*
X316700Y160900D02*
X317967D01*
X316700Y161100D02*
X317767D01*
X316500Y161500D02*
X317567D01*
X316500Y161700D02*
X317567D01*
X316300Y161900D02*
X317367D01*
X316300Y162100D02*
X317367D01*
X316100Y162300D02*
X317367D01*
X316100Y162500D02*
X317167D01*
X315900Y162700D02*
X317167D01*
X315900Y162900D02*
X316967D01*
X315900Y163100D02*
X316967D01*
X306700Y162500D02*
X310367D01*
X307700Y163100D02*
X308767D01*
X306900Y162700D02*
X308167D01*
X307300Y162900D02*
X308367D01*
X308100Y163300D02*
X309167D01*
X308500Y163500D02*
X309567D01*
X306100Y163700D02*
X306367D01*
X308900D02*
X309967D01*
X306100Y163900D02*
X306767D01*
X309300D02*
X310567D01*
X305900Y164100D02*
X307167D01*
X309700D02*
X310567D01*
X306100Y164300D02*
X307567D01*
X315700Y163300D02*
X316767D01*
X315500Y163900D02*
X316567D01*
X315700Y163500D02*
X316767D01*
X315500Y163700D02*
X316767D01*
X315300Y164100D02*
X316567D01*
X315300Y164300D02*
X316367D01*
X315100Y164500D02*
X316367D01*
X315100Y164700D02*
X316167D01*
X314900Y164900D02*
X316167D01*
X314900Y165100D02*
X315967D01*
X314900Y165300D02*
X315967D01*
X314700Y165500D02*
X315767D01*
X314700Y165700D02*
X315767D01*
X310100Y164300D02*
X310367D01*
X307100Y164900D02*
X308767D01*
X306500Y164500D02*
X307967D01*
X306900Y164700D02*
X308367D01*
X307500Y165100D02*
X309167D01*
X307900Y165300D02*
X309567D01*
X308300Y165500D02*
X309767D01*
X308700Y165700D02*
X309767D01*
X309100Y165900D02*
X309567D01*
X305100Y182100D02*
X306367D01*
X304900Y182300D02*
X306167D01*
X304700Y182500D02*
X305967D01*
X304500Y182700D02*
X305967D01*
X304500Y182900D02*
X305767D01*
X304300Y183100D02*
X305567D01*
X304100Y183300D02*
X305367D01*
X304100Y183500D02*
X305367D01*
X303900Y183700D02*
X305167D01*
X303700Y183900D02*
X304967D01*
X303500Y184100D02*
X304967D01*
X303500Y184300D02*
X304767D01*
X303300Y184500D02*
X304567D01*
X302900Y185100D02*
X304167D01*
X303100Y184700D02*
X304367D01*
X302900Y184900D02*
X304367D01*
X302700Y185300D02*
X303967D01*
X302500Y185500D02*
X303767D01*
X302300Y185700D02*
X303767D01*
X302100Y185900D02*
X303567D01*
X302100Y186100D02*
X303367D01*
X301900Y186300D02*
X303167D01*
X301700Y186500D02*
X303167D01*
X301500Y186700D02*
X302967D01*
X301500Y186900D02*
X302767D01*
X301300Y187100D02*
X302567D01*
X300700Y187700D02*
X302167D01*
X301100Y187300D02*
X302367D01*
X300900Y187500D02*
X302367D01*
X300700Y187900D02*
X301967D01*
X300500Y188100D02*
X301767D01*
X300300Y188300D02*
X301567D01*
X300100Y188500D02*
X301567D01*
X297900Y106300D02*
X301967D01*
X298700Y106500D02*
X302567D01*
X299500Y106700D02*
X303167D01*
X300300Y106900D02*
X303967D01*
X325300Y126300D02*
X326367D01*
X325300Y126900D02*
X326367D01*
X325300Y126500D02*
X326367D01*
X325300Y126700D02*
X326367D01*
X325300Y127100D02*
X326367D01*
X325300Y127300D02*
X326367D01*
X325300Y127500D02*
X326367D01*
X325300Y127700D02*
X326367D01*
X325300Y127900D02*
X326167D01*
X325300Y128100D02*
X326167D01*
X325100Y128300D02*
X326167D01*
X325100Y128500D02*
X326167D01*
X325100Y128700D02*
X326167D01*
X320100Y129500D02*
X320167D01*
X318100Y128300D02*
X318567D01*
X316300Y128700D02*
X320167D01*
X316300Y128500D02*
X317567D01*
X318100D02*
X318567D01*
X316300Y128900D02*
X320367D01*
X316300Y129100D02*
X320367D01*
X317500Y129300D02*
X320367D01*
X317100Y130100D02*
X318367D01*
X316700Y130300D02*
X318967D01*
X316500Y130500D02*
X319367D01*
X316300Y130700D02*
X319567D01*
X307100Y131100D02*
X312367D01*
X316100D02*
X316767D01*
X318700D02*
X319767D01*
X306900Y131300D02*
X312567D01*
X315900D02*
X316567D01*
X319100D02*
X319967D01*
X306900Y131500D02*
X312567D01*
X315900D02*
X316367D01*
X319300D02*
X319967D01*
X306700Y131700D02*
X312567D01*
X306500Y132100D02*
X312567D01*
X315900Y131700D02*
X316367D01*
X319500D02*
X319967D01*
X306500Y131900D02*
X312567D01*
X315900D02*
X316367D01*
X319500D02*
X319967D01*
X315900Y132100D02*
X316367D01*
X319500D02*
X319967D01*
X306300Y132300D02*
X312567D01*
X306100Y132700D02*
X312567D01*
X315900Y132300D02*
X316567D01*
X319500D02*
X319967D01*
X306300Y132500D02*
X312567D01*
X316100D02*
X316767D01*
X319300D02*
X319967D01*
X316300Y132700D02*
X317167D01*
X319100D02*
X319767D01*
X306100Y132900D02*
X312367D01*
X316300D02*
X319767D01*
X316500Y133100D02*
X319567D01*
X316700Y133300D02*
X319367D01*
X324900Y131100D02*
X325967D01*
X324900Y131300D02*
X325767D01*
X324900Y131500D02*
X325767D01*
X324700Y131700D02*
X325767D01*
X324700Y131900D02*
X325767D01*
X324700Y132100D02*
X325767D01*
X324700Y132300D02*
X325767D01*
X324700Y132500D02*
X325767D01*
X324700Y132700D02*
X325567D01*
X324500Y132900D02*
X325567D01*
X324500Y133100D02*
X325567D01*
X324500Y133300D02*
X325567D01*
X324500Y133500D02*
X325567D01*
X305900Y133100D02*
X312367D01*
X305700Y133500D02*
X312367D01*
X305700Y133300D02*
X312367D01*
X317100Y133500D02*
X318967D01*
X305500Y133700D02*
X312367D01*
X305500Y133900D02*
X312367D01*
X305300Y134100D02*
X312367D01*
X305300Y134300D02*
X312367D01*
X315500D02*
X316567D01*
X305100Y134500D02*
X312367D01*
X315500D02*
X317767D01*
X304900Y134700D02*
X312367D01*
X315500D02*
X319167D01*
X318300Y135300D02*
X319567D01*
X304700Y135100D02*
X312167D01*
X304900Y134900D02*
X312167D01*
X316300D02*
X319567D01*
X317500Y135100D02*
X319567D01*
X304700Y135300D02*
X312167D01*
X304500Y135500D02*
X312167D01*
X317700D02*
X319567D01*
X304300Y135700D02*
X312167D01*
X317300D02*
X319367D01*
X316700Y135900D02*
X318767D01*
X302500D02*
X303567D01*
X304300D02*
X312167D01*
X301900Y136100D02*
X311967D01*
X316100D02*
X318367D01*
X301500Y136300D02*
X311967D01*
X315700D02*
X317767D01*
X301300Y136500D02*
X311967D01*
X315300D02*
X317367D01*
X301100Y136700D02*
X311967D01*
X315100D02*
X316967D01*
X300900Y136900D02*
X311967D01*
X315100D02*
X316767D01*
X324500Y133700D02*
X325567D01*
X324300Y134300D02*
X325367D01*
X324500Y133900D02*
X325367D01*
X324500Y134100D02*
X325367D01*
X324300Y134500D02*
X325367D01*
X324300Y134700D02*
X325367D01*
X324300Y134900D02*
X325367D01*
X324300Y135100D02*
X325167D01*
X324300Y135300D02*
X325167D01*
X324100Y135500D02*
X325167D01*
X324100Y135700D02*
X325167D01*
X324100Y135900D02*
X325167D01*
X324100Y136100D02*
X325167D01*
X314700Y142300D02*
X316167D01*
X322900Y141900D02*
X323967D01*
X322900Y142100D02*
X323967D01*
X322700Y142300D02*
X323767D01*
X318100Y140700D02*
X318567D01*
X323100D02*
X324167D01*
X314500Y140900D02*
X316567D01*
X317900D02*
X318567D01*
X323100D02*
X324167D01*
X314300Y141100D02*
X316367D01*
X317300D02*
X318567D01*
X323100D02*
X324167D01*
X314500Y141300D02*
X316367D01*
X317300Y141500D02*
X317967D01*
X322900D02*
X323967D01*
X317300Y141700D02*
X317567D01*
X322900D02*
X323967D01*
X315700Y137300D02*
X319167D01*
X300700Y137100D02*
X311767D01*
X315100D02*
X317967D01*
X300500Y137300D02*
X311767D01*
X300500Y137500D02*
X311767D01*
X316900D02*
X319167D01*
X300500Y137700D02*
X311767D01*
X318100D02*
X319167D01*
X300300Y137900D02*
X311767D01*
X300300Y138100D02*
X311567D01*
X300300Y138300D02*
X311567D01*
X315900D02*
X316967D01*
X300300Y138900D02*
X311367D01*
X314900D02*
X318167D01*
X300100Y143100D02*
X310367D01*
X300300Y142900D02*
X310367D01*
X299900Y143300D02*
X310367D01*
X299900Y143500D02*
X310167D01*
X299700Y143700D02*
X310167D01*
X299700Y143900D02*
X310167D01*
X317100Y143700D02*
X317767D01*
X313900Y142900D02*
X317167D01*
X313700Y143100D02*
X314767D01*
X315700D02*
X317367D01*
X313700Y143300D02*
X314367D01*
X316500D02*
X317567D01*
X313700Y143500D02*
X314167D01*
X316900D02*
X317567D01*
X313500Y143700D02*
X314167D01*
X312900Y143900D02*
X314167D01*
X229300Y127300D02*
X311567D01*
X228900Y128100D02*
X311967D01*
X228700Y128900D02*
X312167D01*
X228700Y129700D02*
X312367D01*
X228900Y128300D02*
X311967D01*
X228900Y128500D02*
X311967D01*
X228700Y128700D02*
X312167D01*
X228700Y129100D02*
X312167D01*
X228700Y129300D02*
X312167D01*
X228700Y129500D02*
X312367D01*
X228500Y129900D02*
X312367D01*
X228500Y130100D02*
X312367D01*
X241100Y130300D02*
X312367D01*
X229100Y127500D02*
X311767D01*
X229100Y127700D02*
X311767D01*
X229100Y127900D02*
X311767D01*
X300900Y107100D02*
X304567D01*
X302900Y107700D02*
X306367D01*
X301700Y107300D02*
X305167D01*
X302300Y107500D02*
X305767D01*
X303700Y107900D02*
X306967D01*
X304300Y108100D02*
X307567D01*
X304900Y108300D02*
X308167D01*
X305500Y108500D02*
X308767D01*
X306100Y108700D02*
X309167D01*
X306700Y108900D02*
X309767D01*
X307300Y109100D02*
X310167D01*
X307900Y109300D02*
X310767D01*
X308500Y109500D02*
X311367D01*
X308900Y109700D02*
X311767D01*
X310500Y110300D02*
X313367D01*
X309500Y109900D02*
X312367D01*
X309900Y110100D02*
X312767D01*
X311100Y110500D02*
X313767D01*
X311500Y110700D02*
X314167D01*
X312100Y110900D02*
X314767D01*
X312500Y111100D02*
X315167D01*
X313100Y111300D02*
X315567D01*
X313500Y111500D02*
X315967D01*
X313900Y111700D02*
X316567D01*
X314500Y111900D02*
X316967D01*
X314900Y112100D02*
X317367D01*
X325700Y120300D02*
X326767D01*
X325700Y119700D02*
X326767D01*
X325700Y119900D02*
X326767D01*
X325700Y120100D02*
X326767D01*
X325700Y120500D02*
X326767D01*
X325700Y120700D02*
X326767D01*
X325700Y120900D02*
X326767D01*
X315300Y112300D02*
X317767D01*
X316700Y112900D02*
X318967D01*
X315700Y112500D02*
X318167D01*
X316100Y112700D02*
X318567D01*
X317100Y113100D02*
X319367D01*
X317500Y113300D02*
X319767D01*
X317900Y113500D02*
X320167D01*
X318300Y113700D02*
X320567D01*
X318700Y113900D02*
X320967D01*
X319100Y114100D02*
X321367D01*
X319500Y114300D02*
X321767D01*
X319900Y114500D02*
X322167D01*
X321900Y115500D02*
X323967D01*
X320300Y114700D02*
X322567D01*
X320700Y114900D02*
X322767D01*
X321100Y115100D02*
X323167D01*
X321500Y115300D02*
X323567D01*
X322100Y115700D02*
X324367D01*
X322500Y115900D02*
X324567D01*
X322900Y116100D02*
X324967D01*
X323300Y116300D02*
X325367D01*
X323700Y116500D02*
X325567D01*
X323900Y116700D02*
X325967D01*
X324300Y116900D02*
X326367D01*
X316700Y124500D02*
X317167D01*
X316700Y123300D02*
X317567D01*
X316500Y123500D02*
X317167D01*
X316500Y123700D02*
X317167D01*
X316500Y123900D02*
X316967D01*
X316500Y124100D02*
X316967D01*
X316500Y124300D02*
X317167D01*
X316700Y124700D02*
X317367D01*
X316900Y124900D02*
X317767D01*
X316900Y125100D02*
X317767D01*
X317100Y125300D02*
X317767D01*
X317500Y125500D02*
X317767D01*
X316500Y126100D02*
X316567D01*
X316500Y126300D02*
X318967D01*
X324700Y117100D02*
X326767D01*
X325700Y117700D02*
X326767D01*
X325100Y117300D02*
X326767D01*
X325300Y117500D02*
X326767D01*
X325700Y117900D02*
X326767D01*
X325700Y118100D02*
X326767D01*
X325700Y118300D02*
X326767D01*
X325700Y118500D02*
X326767D01*
X325700Y118700D02*
X326767D01*
X325700Y118900D02*
X326767D01*
X325700Y119100D02*
X326767D01*
X325700Y119300D02*
X326767D01*
X325700Y119500D02*
X326767D01*
X291300Y125500D02*
X310367D01*
X293900Y124900D02*
X309767D01*
X293100Y125100D02*
X309967D01*
X292300Y125300D02*
X310167D01*
X290300Y125700D02*
X310567D01*
X289300Y125900D02*
X310767D01*
X288100Y126100D02*
X310967D01*
X286700Y126300D02*
X310967D01*
X285100Y126500D02*
X311167D01*
X283300Y126700D02*
X311367D01*
X280700Y126900D02*
X311367D01*
X277100Y127100D02*
X311567D01*
X325100Y129500D02*
X326167D01*
X325100Y128900D02*
X326167D01*
X325100Y129100D02*
X326167D01*
X325100Y129300D02*
X326167D01*
X325100Y129700D02*
X325967D01*
X325100Y129900D02*
X325967D01*
X324900Y130100D02*
X325967D01*
X324900Y130300D02*
X325967D01*
X324900Y130500D02*
X325967D01*
X324900Y130700D02*
X325967D01*
X324900Y130900D02*
X325967D01*
X325700Y121100D02*
X326767D01*
X325700Y121700D02*
X326767D01*
X325700Y121300D02*
X326767D01*
X325700Y121500D02*
X326767D01*
X325700Y121900D02*
X326767D01*
X325700Y122100D02*
X326767D01*
X325700Y122300D02*
X326767D01*
X325700Y122500D02*
X326767D01*
X325700Y122700D02*
X326567D01*
X325700Y122900D02*
X326567D01*
X325700Y123100D02*
X326567D01*
X325700Y123300D02*
X326567D01*
X325700Y123500D02*
X326567D01*
X307500Y130500D02*
X312367D01*
X307300Y130700D02*
X312367D01*
X307100Y130900D02*
X312367D01*
X316100D02*
X319767D01*
X303500Y122900D02*
X305167D01*
X301700Y123100D02*
X306367D01*
X300500Y123300D02*
X307167D01*
X299500Y123500D02*
X307567D01*
X298700Y123700D02*
X307967D01*
X297700Y123900D02*
X308367D01*
X296900Y124100D02*
X308767D01*
X296100Y124300D02*
X309167D01*
X295300Y124500D02*
X309367D01*
X294500Y124700D02*
X309567D01*
X317700Y122500D02*
X319567D01*
X317300Y122700D02*
X319967D01*
X316900Y122900D02*
X320167D01*
X316700Y123100D02*
X320367D01*
X319300Y123300D02*
X320567D01*
X319900Y123500D02*
X320567D01*
X320100Y123700D02*
X320567D01*
X320100Y123900D02*
X320767D01*
X320100Y124100D02*
X320767D01*
X320100Y124300D02*
X320567D01*
X320100Y124500D02*
X320567D01*
X319700Y124700D02*
X320567D01*
X319300Y124900D02*
X320367D01*
X325500Y123700D02*
X326567D01*
X325500Y124300D02*
X326567D01*
X325500Y123900D02*
X326567D01*
X325500Y124100D02*
X326567D01*
X325500Y124500D02*
X326567D01*
X325500Y124700D02*
X326567D01*
X325500Y124900D02*
X326567D01*
X325500Y125100D02*
X326567D01*
X325500Y125300D02*
X326567D01*
X325500Y125500D02*
X326567D01*
X325500Y125700D02*
X326367D01*
X325500Y125900D02*
X326367D01*
X325500Y126100D02*
X326367D01*
X319100Y125100D02*
X320367D01*
X316500Y126500D02*
X320567D01*
X319100Y125300D02*
X320167D01*
X319300Y125500D02*
X319767D01*
X316500Y126700D02*
X320567D01*
X316500Y126900D02*
X320567D01*
X318300Y127100D02*
X318767D01*
X319100D02*
X320367D01*
X318100Y127300D02*
X318767D01*
X318100Y127500D02*
X318767D01*
X318100Y127700D02*
X318767D01*
X318100Y127900D02*
X318767D01*
X318100Y128100D02*
X318767D01*
X306700Y179500D02*
X307967D01*
X307100Y178900D02*
X308367D01*
X307100Y179100D02*
X308367D01*
X306900Y179300D02*
X308167D01*
X306700Y179700D02*
X307967D01*
X306500Y179900D02*
X307767D01*
X306300Y180100D02*
X307567D01*
X306300Y180300D02*
X307567D01*
X306100Y180500D02*
X307367D01*
X305900Y180700D02*
X307367D01*
X305900Y180900D02*
X307167D01*
X305700Y181100D02*
X306967D01*
X305500Y181300D02*
X306767D01*
X305500Y181500D02*
X306767D01*
X305300Y181700D02*
X306567D01*
X305100Y181900D02*
X306367D01*
X306700Y168500D02*
X307367D01*
X306100Y167900D02*
X306767D01*
X306300Y168100D02*
X306967D01*
X306500Y168300D02*
X307167D01*
X306900Y168700D02*
X307567D01*
X307100Y168900D02*
X307767D01*
X307300Y169100D02*
X307967D01*
X307500Y169300D02*
X307767D01*
X307700Y169500D02*
X307767D01*
X304900Y165900D02*
X305567D01*
X305300Y167100D02*
X305967D01*
X304900Y166100D02*
X306567D01*
X304700Y166300D02*
X307567D01*
X304700Y166500D02*
X308567D01*
X304900Y166700D02*
X309167D01*
X305100Y166900D02*
X305767D01*
X306700D02*
X308967D01*
X307700Y167100D02*
X308967D01*
X305500Y167300D02*
X306167D01*
X308700D02*
X308767D01*
X305700Y167500D02*
X306367D01*
X305900Y167700D02*
X306567D01*
X314500Y165900D02*
X315567D01*
X314300Y166500D02*
X315367D01*
X314500Y166100D02*
X315567D01*
X314300Y166300D02*
X315567D01*
X314100Y166700D02*
X315367D01*
X314100Y166900D02*
X315167D01*
X313900Y167100D02*
X315167D01*
X313900Y167300D02*
X314967D01*
X313700Y167500D02*
X314967D01*
X313700Y167700D02*
X314767D01*
X313500Y167900D02*
X314767D01*
X313500Y168100D02*
X314567D01*
X313300Y168300D02*
X314567D01*
X313300Y168500D02*
X314367D01*
X312900Y169100D02*
X314167D01*
X313100Y168700D02*
X314367D01*
X313100Y168900D02*
X314167D01*
X312900Y169300D02*
X313967D01*
X312700Y169500D02*
X313967D01*
X312700Y169700D02*
X313767D01*
X312500Y169900D02*
X313767D01*
X312500Y170100D02*
X313567D01*
X312300Y170300D02*
X313567D01*
X312100Y170500D02*
X313367D01*
X312100Y170700D02*
X313167D01*
X311900Y170900D02*
X313167D01*
X311900Y171100D02*
X312967D01*
X311500Y171700D02*
X312767D01*
X311700Y171300D02*
X312967D01*
X311700Y171500D02*
X312767D01*
X311500Y171900D02*
X312567D01*
X311300Y172100D02*
X312567D01*
X311300Y172300D02*
X312367D01*
X311100Y172500D02*
X312367D01*
X310900Y172700D02*
X312167D01*
X310900Y172900D02*
X311967D01*
X310700Y173100D02*
X311967D01*
X310700Y173300D02*
X311767D01*
X310500Y173500D02*
X311767D01*
X310500Y173700D02*
X311567D01*
X310100Y174300D02*
X311167D01*
X310300Y173900D02*
X311567D01*
X310100Y174100D02*
X311367D01*
X309900Y174500D02*
X311167D01*
X309900Y174700D02*
X310967D01*
X309700Y174900D02*
X310967D01*
X309500Y175100D02*
X310767D01*
X309500Y175300D02*
X310767D01*
X309300Y175500D02*
X310567D01*
X309300Y175700D02*
X310367D01*
X309100Y175900D02*
X310367D01*
X308900Y176100D02*
X310167D01*
X308900Y176300D02*
X310167D01*
X308500Y176900D02*
X309767D01*
X308700Y176500D02*
X309967D01*
X308700Y176700D02*
X309767D01*
X308300Y177100D02*
X309567D01*
X308300Y177300D02*
X309367D01*
X308100Y177500D02*
X309367D01*
X307900Y177700D02*
X309167D01*
X307900Y177900D02*
X309167D01*
X307700Y178100D02*
X308967D01*
X307500Y178300D02*
X308767D01*
X307500Y178500D02*
X308767D01*
X307300Y178700D02*
X308567D01*
X302300Y176700D02*
X302967D01*
X300500Y176300D02*
X302767D01*
X301300Y175700D02*
X302367D01*
X301100Y175900D02*
X302567D01*
X300900Y176100D02*
X302767D01*
X300300Y176500D02*
X301567D01*
X302100D02*
X302767D01*
X302300Y176900D02*
X302967D01*
X302300Y177100D02*
X302767D01*
X302100Y177300D02*
X302767D01*
X301900Y177500D02*
X302767D01*
X301300Y177700D02*
X302567D01*
X301300Y177900D02*
X302367D01*
X301100Y178100D02*
X302167D01*
X301100Y178300D02*
X301967D01*
X324100Y136300D02*
X324967D01*
X323900Y136900D02*
X324967D01*
X323900Y136500D02*
X324967D01*
X323900Y136700D02*
X324967D01*
X323900Y137100D02*
X324967D01*
X323900Y137300D02*
X324967D01*
X323900Y137500D02*
X324767D01*
X323700Y137700D02*
X324767D01*
X323700Y137900D02*
X324767D01*
X323700Y138100D02*
X324767D01*
X323700Y138300D02*
X324767D01*
X300300Y138500D02*
X311567D01*
X315300D02*
X317567D01*
X323700D02*
X324567D01*
X300300Y138700D02*
X311567D01*
X315100D02*
X317967D01*
X323500D02*
X324567D01*
X323500Y138900D02*
X324567D01*
X300300Y139100D02*
X311367D01*
X314900D02*
X315767D01*
X316700D02*
X318367D01*
X323500D02*
X324567D01*
X300300Y139300D02*
X311367D01*
X314700D02*
X315367D01*
X317500D02*
X318567D01*
X323500D02*
X324567D01*
X300300Y139500D02*
X311367D01*
X314700D02*
X315167D01*
X317900D02*
X318567D01*
X323500D02*
X324367D01*
X300500Y139900D02*
X311167D01*
X300500Y139700D02*
X311367D01*
X314700D02*
X315167D01*
X318100D02*
X318767D01*
X323300D02*
X324367D01*
X314700Y139900D02*
X315167D01*
X318100D02*
X318767D01*
X323300D02*
X324367D01*
X300700Y140100D02*
X311167D01*
X314700D02*
X315167D01*
X316100D02*
X316567D01*
X318100D02*
X318767D01*
X323300D02*
X324367D01*
X301100Y140700D02*
X310967D01*
X300700Y140300D02*
X311167D01*
X314700D02*
X315167D01*
X316100D02*
X316567D01*
X318100D02*
X318767D01*
X323300D02*
X324367D01*
X300900Y140500D02*
X311167D01*
X314700D02*
X315367D01*
X316100D02*
X316567D01*
X318100D02*
X318767D01*
X323100D02*
X324167D01*
X314900Y140700D02*
X315567D01*
X315900D02*
X316567D01*
X317300Y141300D02*
X318367D01*
X323100D02*
X323967D01*
X315500Y141500D02*
X316367D01*
X301300Y140900D02*
X310967D01*
X300900Y141700D02*
X310767D01*
X301100Y141500D02*
X310767D01*
X301300Y141100D02*
X310967D01*
X301100Y141300D02*
X310967D01*
X300700Y141900D02*
X310767D01*
X300700Y142100D02*
X310567D01*
X300500Y142300D02*
X310567D01*
X300500Y142500D02*
X310567D01*
X314300D02*
X316567D01*
X300300Y142700D02*
X310567D01*
X314100D02*
X316967D01*
X322700Y142500D02*
X323767D01*
X322500Y143500D02*
X323567D01*
X322700Y142700D02*
X323767D01*
X322700Y142900D02*
X323767D01*
X322700Y143100D02*
X323567D01*
X322500Y143300D02*
X323567D01*
X322500Y143700D02*
X323567D01*
X317300Y143900D02*
X317767D01*
X322500D02*
X323367D01*
X322300Y144100D02*
X323367D01*
X297300D02*
X310167D01*
X312700D02*
X314167D01*
X317300D02*
X317767D01*
X296900Y144300D02*
X309967D01*
X312500D02*
X314167D01*
X317300D02*
X317767D01*
X322300D02*
X323367D01*
X296700Y144500D02*
X309967D01*
X296500Y144700D02*
X309967D01*
X312500Y144500D02*
X313167D01*
X313700D02*
X314367D01*
X317300D02*
X317767D01*
X322300D02*
X323367D01*
X312500Y144700D02*
X313167D01*
X313700D02*
X314767D01*
X317100D02*
X317767D01*
X322100D02*
X323167D01*
X296300Y144900D02*
X309767D01*
X296100Y145100D02*
X309767D01*
X312500Y144900D02*
X313167D01*
X313900D02*
X315367D01*
X316900D02*
X317567D01*
X322100D02*
X323167D01*
X314100Y145100D02*
X317567D01*
X322100D02*
X323167D01*
X296100Y145300D02*
X309767D01*
X314300D02*
X317367D01*
X322100D02*
X323167D01*
X295900Y145500D02*
X309567D01*
X295900Y145700D02*
X309567D01*
X314500Y145500D02*
X317167D01*
X321900D02*
X322967D01*
X315100Y145700D02*
X316767D01*
X321900D02*
X322967D01*
X295900Y145900D02*
X309567D01*
X321900D02*
X322967D01*
X321900Y146100D02*
X322967D01*
X295700D02*
X309367D01*
X295700Y146500D02*
X309367D01*
X313100Y146100D02*
X313367D01*
X295700Y146300D02*
X309367D01*
X313100D02*
X314167D01*
X321700D02*
X322767D01*
X313100Y146500D02*
X314767D01*
X321700D02*
X322767D01*
X295700Y146700D02*
X309167D01*
X312900D02*
X315567D01*
X321700D02*
X322767D01*
X295700Y146900D02*
X309167D01*
X295900Y147100D02*
X309167D01*
X313500Y146900D02*
X316167D01*
X321700D02*
X322567D01*
X314100Y147100D02*
X316967D01*
X321500D02*
X322567D01*
X295900Y147300D02*
X308967D01*
X314900D02*
X316967D01*
X321500D02*
X322567D01*
X295900Y147500D02*
X308967D01*
X296100Y147900D02*
X308767D01*
X315500Y147500D02*
X316967D01*
X321500D02*
X322567D01*
X296100Y147700D02*
X308967D01*
X312700D02*
X312767D01*
X316300D02*
X316967D01*
X321300D02*
X322367D01*
X312500Y147900D02*
X313367D01*
X321300D02*
X322367D01*
X296300Y148100D02*
X308767D01*
X296500Y148500D02*
X308567D01*
X312500Y148100D02*
X314167D01*
X321300D02*
X322367D01*
X296300Y148300D02*
X308767D01*
X312700D02*
X314767D01*
X321300D02*
X322167D01*
X313300Y148500D02*
X315367D01*
X321100D02*
X322167D01*
X296700Y148700D02*
X308567D01*
X296700Y149100D02*
X308367D01*
X313900Y148700D02*
X315967D01*
X321100D02*
X322167D01*
X296700Y148900D02*
X308567D01*
X314500D02*
X316367D01*
X321100D02*
X322167D01*
X315100Y149100D02*
X316367D01*
X320900D02*
X321967D01*
X296500Y149300D02*
X308367D01*
X296300Y149700D02*
X308167D01*
X314700Y149300D02*
X316367D01*
X320900D02*
X321967D01*
X296500Y149500D02*
X308367D01*
X313700D02*
X316367D01*
X320900D02*
X321967D01*
X312900Y149700D02*
X316167D01*
X320900D02*
X321767D01*
X296300Y149900D02*
X308167D01*
X295900Y150300D02*
X307967D01*
X312100Y149900D02*
X315367D01*
X320700D02*
X321767D01*
X296100Y150100D02*
X308167D01*
X311900D02*
X314567D01*
X320700D02*
X321767D01*
X311700Y150300D02*
X313767D01*
X320700D02*
X321767D01*
X295300Y151500D02*
X307567D01*
X295300Y151300D02*
X307567D01*
X313700D02*
X315767D01*
X320300D02*
X321367D01*
X314300Y151500D02*
X315767D01*
X320300D02*
X321367D01*
X295100Y151700D02*
X307567D01*
X314900D02*
X315567D01*
X320100D02*
X321167D01*
X292500Y151900D02*
X307367D01*
X311500D02*
X313167D01*
X320100D02*
X321167D01*
X295900Y150500D02*
X307967D01*
X295700Y150900D02*
X307767D01*
X311700Y150500D02*
X313167D01*
X320500D02*
X321567D01*
X295700Y150700D02*
X307767D01*
X311900D02*
X313967D01*
X320500D02*
X321567D01*
X312500Y150900D02*
X314367D01*
X320500D02*
X321567D01*
X320300Y151100D02*
X321367D01*
X295500D02*
X307767D01*
X313100D02*
X315167D01*
X319900Y152700D02*
X320967D01*
X292300Y152100D02*
X307367D01*
X311300D02*
X313767D01*
X320100D02*
X321167D01*
X292100Y152300D02*
X307167D01*
X311100D02*
X313967D01*
X319900D02*
X320967D01*
X291900Y152500D02*
X307167D01*
X310900D02*
X314167D01*
X319900D02*
X320967D01*
X291500Y152900D02*
X306967D01*
X291300Y153500D02*
X306767D01*
X291500Y153100D02*
X306967D01*
X310700Y152900D02*
X311367D01*
X313500D02*
X314567D01*
X310700Y153100D02*
X311367D01*
X313900D02*
X314767D01*
X291300Y153300D02*
X306767D01*
X310700D02*
X311167D01*
X314100D02*
X314767D01*
X314300Y153500D02*
X314767D01*
X291700Y152700D02*
X307167D01*
X310900D02*
X311767D01*
X312900D02*
X314367D01*
X314300Y154100D02*
X314767D01*
X310700Y153500D02*
X311167D01*
X291300Y153700D02*
X306767D01*
X310700D02*
X311367D01*
X312300D02*
X312767D01*
X314300D02*
X314767D01*
X291300Y153900D02*
X306567D01*
X310900D02*
X311367D01*
X312100D02*
X312767D01*
X314300D02*
X314767D01*
X291300Y154100D02*
X306567D01*
X291100Y154500D02*
X306367D01*
X291100Y154300D02*
X306367D01*
X310300Y154100D02*
X311567D01*
X312100D02*
X312567D01*
X310300Y154300D02*
X312567D01*
X314100D02*
X314767D01*
X310700Y154500D02*
X312367D01*
X314100D02*
X314567D01*
X291300Y154700D02*
X306367D01*
X311100D02*
X312367D01*
X313700D02*
X314567D01*
X319700Y152900D02*
X320767D01*
X319500Y153900D02*
X320567D01*
X319700Y153100D02*
X320767D01*
X319700Y153300D02*
X320767D01*
X319500Y153500D02*
X320567D01*
X319500Y153700D02*
X320567D01*
X319300Y154100D02*
X320367D01*
X319300Y154300D02*
X320367D01*
X319300Y154500D02*
X320367D01*
X319100Y154700D02*
X320167D01*
X319100Y154900D02*
X320167D01*
X319100Y155100D02*
X320167D01*
X318900Y155300D02*
X319967D01*
X291300Y154900D02*
X306167D01*
X291300Y155100D02*
X306167D01*
X311700Y154900D02*
X312167D01*
X313100D02*
X314367D01*
X313100Y155100D02*
X314167D01*
X291300Y155300D02*
X305967D01*
X313100D02*
X313767D01*
X291500Y155500D02*
X305967D01*
X291500Y155700D02*
X305767D01*
X291700Y155900D02*
X305767D01*
X291900Y156100D02*
X305767D01*
X291900Y156300D02*
X305567D01*
X292300Y156500D02*
X305567D01*
X292300Y156700D02*
X305367D01*
X291900Y157100D02*
X305167D01*
X292100Y156900D02*
X305367D01*
X309500D02*
X310567D01*
X309300Y157100D02*
X311167D01*
X291900Y157300D02*
X305167D01*
X309100D02*
X311567D01*
X291700Y157500D02*
X304967D01*
X309100D02*
X312167D01*
X291700Y157700D02*
X304967D01*
X308900D02*
X309567D01*
X310700D02*
X312567D01*
X318900Y155500D02*
X319967D01*
X318700Y156100D02*
X319767D01*
X318900Y155700D02*
X319967D01*
X318700Y155900D02*
X319767D01*
X318500Y156300D02*
X319567D01*
X318500Y156500D02*
X319567D01*
X318500Y156700D02*
X319567D01*
X318300Y156900D02*
X319367D01*
X318300Y157100D02*
X319367D01*
X318300Y157300D02*
X319367D01*
X318100Y157500D02*
X319167D01*
X318100Y157700D02*
X319167D01*
X317900Y157900D02*
X319167D01*
X286700Y161300D02*
X303167D01*
X286700Y161500D02*
X303167D01*
X286700Y161700D02*
X302967D01*
X286500Y161900D02*
X302967D01*
X286500Y162100D02*
X302767D01*
X286500Y162300D02*
X302767D01*
X286500Y162500D02*
X302567D01*
X286700Y162700D02*
X302567D01*
X286700Y162900D02*
X302367D01*
X286700Y163100D02*
X302367D01*
X301500Y173900D02*
X302967D01*
X302300Y174100D02*
X302767D01*
X304300Y173900D02*
X304967D01*
X304300Y174100D02*
X304967D01*
X302300Y174300D02*
X302767D01*
X304100D02*
X304767D01*
X302300Y174500D02*
X302967D01*
X303900D02*
X304567D01*
X302300Y174700D02*
X304567D01*
X302500Y174900D02*
X304367D01*
X302500Y175100D02*
X304167D01*
X302900Y175300D02*
X303967D01*
X303300Y175500D02*
X303567D01*
X303700Y168100D02*
X303767D01*
X303700Y168300D02*
X304167D01*
X303500Y168500D02*
X304567D01*
X303300Y168700D02*
X304767D01*
X303300Y168900D02*
X305167D01*
X303100Y169100D02*
X303767D01*
X304100D02*
X305567D01*
X303100Y169300D02*
X303767D01*
X304500D02*
X305967D01*
X302900Y169500D02*
X303567D01*
X304700D02*
X306167D01*
X302700Y169700D02*
X303567D01*
X304900D02*
X306567D01*
X302700Y169900D02*
X303367D01*
X304700D02*
X306967D01*
X302500Y170100D02*
X303167D01*
X304700D02*
X305367D01*
X305900D02*
X307167D01*
X302500Y170300D02*
X303167D01*
X304500D02*
X305167D01*
X306100D02*
X307167D01*
X302700Y170500D02*
X302967D01*
X304500D02*
X305167D01*
X306500D02*
X307167D01*
X304300Y170700D02*
X304967D01*
X306300D02*
X306967D01*
X304300Y170900D02*
X304767D01*
X306300D02*
X306967D01*
X301900Y171100D02*
X302367D01*
X304500D02*
X304767D01*
X306100D02*
X306767D01*
X301900Y171300D02*
X302567D01*
X305900D02*
X306567D01*
X301700Y171500D02*
X302967D01*
X305900D02*
X306567D01*
X301900Y171700D02*
X303167D01*
X305700D02*
X306367D01*
X302300Y171900D02*
X303567D01*
X305700D02*
X306367D01*
X302500Y172100D02*
X303967D01*
X305500D02*
X306167D01*
X302900Y172300D02*
X304167D01*
X305700D02*
X305967D01*
X303100Y172500D02*
X304567D01*
X302900Y172700D02*
X304767D01*
X302900Y172900D02*
X303367D01*
X303700D02*
X305167D01*
X300700Y173100D02*
X301567D01*
X302700D02*
X303367D01*
X304100D02*
X305367D01*
X300500Y173300D02*
X303167D01*
X304300D02*
X305367D01*
X300500Y173500D02*
X302967D01*
X304700D02*
X305367D01*
X300500Y173700D02*
X302967D01*
X304500D02*
X305167D01*
X214900Y130500D02*
X215967D01*
X214900Y130700D02*
X215967D01*
X214900Y130900D02*
X215967D01*
X215100Y131100D02*
X215967D01*
X215100Y131300D02*
X215967D01*
X215100Y131500D02*
X215967D01*
X218300Y146900D02*
X219367D01*
X218300Y147100D02*
X219367D01*
X218500Y147300D02*
X219367D01*
X217300Y142900D02*
X218167D01*
X217300Y143100D02*
X218367D01*
X217300Y143300D02*
X218367D01*
X217300Y143500D02*
X218367D01*
X217500Y143700D02*
X218367D01*
X216300Y138500D02*
X217367D01*
X216300Y138700D02*
X217367D01*
X216300Y138900D02*
X217367D01*
X216300Y139100D02*
X217367D01*
X216500Y139300D02*
X217367D01*
X215700Y135300D02*
X216567D01*
X215700Y135500D02*
X216767D01*
X215700Y135700D02*
X216767D01*
X215700Y135900D02*
X216767D01*
X215900Y136100D02*
X216767D01*
X215900Y136300D02*
X216767D01*
X225300Y165500D02*
X226367D01*
X225100Y164900D02*
X226167D01*
X225100Y165100D02*
X226167D01*
X225100Y165300D02*
X226367D01*
X221100Y155700D02*
X222167D01*
X221300Y155900D02*
X222367D01*
X221300Y156100D02*
X222367D01*
X221500Y156300D02*
X222367D01*
X221500Y156500D02*
X222567D01*
X221500Y156700D02*
X222567D01*
X221700Y156900D02*
X222567D01*
X215300Y132900D02*
X216167D01*
X221500D02*
X222767D01*
X215300Y133100D02*
X216367D01*
X215300Y133300D02*
X216367D01*
X215300Y133500D02*
X216367D01*
X215300Y133700D02*
X216367D01*
X215500Y133900D02*
X216367D01*
X215500Y134100D02*
X216367D01*
X215500Y134300D02*
X216567D01*
X215500Y134500D02*
X216567D01*
X215500Y134700D02*
X216567D01*
X215500Y134900D02*
X216567D01*
X215700Y135100D02*
X216567D01*
X218900Y148900D02*
X219967D01*
X218700Y148100D02*
X219767D01*
X218700Y148300D02*
X219767D01*
X218700Y148500D02*
X219767D01*
X218900Y148700D02*
X219767D01*
X218900Y149100D02*
X219967D01*
X219100Y149300D02*
X219967D01*
X219100Y149500D02*
X220167D01*
X219100Y149700D02*
X220167D01*
X219100Y149900D02*
X220167D01*
X217700Y144700D02*
X218767D01*
X223300D02*
X223967D01*
X225900D02*
X226367D01*
X217700Y144900D02*
X218767D01*
X217900Y145100D02*
X218767D01*
X217900Y145300D02*
X218967D01*
X217900Y145500D02*
X218967D01*
X217900Y145700D02*
X218967D01*
X218100Y145900D02*
X218967D01*
X218100Y146100D02*
X219167D01*
X218100Y146300D02*
X219167D01*
X218100Y146500D02*
X219167D01*
X218300Y146700D02*
X219167D01*
X218500Y147700D02*
X219567D01*
X218500Y147500D02*
X219567D01*
X225100D02*
X225567D01*
X224900Y147700D02*
X225567D01*
X218500Y147900D02*
X219567D01*
X224700D02*
X225567D01*
X224700Y148100D02*
X225367D01*
X224500Y148300D02*
X225167D01*
X224500Y148500D02*
X224967D01*
X224500Y148700D02*
X224967D01*
X224500Y148900D02*
X224967D01*
X224500Y149100D02*
X224967D01*
X224500Y149300D02*
X225167D01*
X224700Y149500D02*
X225567D01*
X225700Y152900D02*
X225967D01*
X221100Y129500D02*
X222367D01*
X220900Y129700D02*
X221967D01*
X220700Y130500D02*
X221967D01*
X221500Y133100D02*
X222167D01*
X221300Y133300D02*
X221967D01*
X221300Y133500D02*
X221767D01*
X221300Y133700D02*
X221767D01*
X221300Y133900D02*
X221767D01*
X221300Y134100D02*
X221767D01*
X221300Y134300D02*
X221967D01*
X221300Y134500D02*
X222167D01*
X219300Y150100D02*
X220367D01*
X219300Y150300D02*
X220367D01*
X219300Y150500D02*
X220367D01*
X219500Y150700D02*
X220567D01*
X219500Y150900D02*
X220567D01*
X219500Y151100D02*
X220567D01*
X219700Y151300D02*
X220767D01*
X219700Y151500D02*
X220767D01*
X219700Y151700D02*
X220767D01*
X219900Y151900D02*
X220967D01*
X219900Y152100D02*
X220967D01*
X219900Y152300D02*
X220967D01*
X220100Y152500D02*
X221167D01*
X220100Y152700D02*
X221167D01*
X220100Y152900D02*
X221167D01*
X220300Y153100D02*
X221367D01*
X220300Y153300D02*
X221367D01*
X220300Y153500D02*
X221367D01*
X220500Y153700D02*
X221567D01*
X220500Y153900D02*
X221567D01*
X220500Y154100D02*
X221567D01*
X220700Y154300D02*
X221767D01*
X220700Y154500D02*
X221767D01*
X220900Y154700D02*
X221767D01*
X220900Y154900D02*
X221967D01*
X220900Y155100D02*
X221967D01*
X221100Y155300D02*
X221967D01*
X221100Y155500D02*
X222167D01*
X221700Y157100D02*
X222767D01*
X221900Y157700D02*
X222967D01*
X221700Y157300D02*
X222767D01*
X221900Y157500D02*
X222967D01*
X222100Y157900D02*
X222967D01*
X222100Y158100D02*
X223167D01*
X222100Y158300D02*
X223167D01*
X222300Y158500D02*
X223367D01*
X222300Y158700D02*
X223367D01*
X222500Y158900D02*
X223367D01*
X222500Y159100D02*
X223567D01*
X222500Y159300D02*
X223567D01*
X222700Y159500D02*
X223767D01*
X222700Y159700D02*
X223767D01*
X222900Y160300D02*
X223967D01*
X222900Y159900D02*
X223767D01*
X222900Y160100D02*
X223967D01*
X223100Y160500D02*
X224167D01*
X223100Y160700D02*
X224167D01*
X223300Y160900D02*
X224367D01*
X223300Y161100D02*
X224367D01*
X223300Y161300D02*
X224367D01*
X223500Y161500D02*
X224567D01*
X223500Y161700D02*
X224567D01*
X223700Y161900D02*
X224767D01*
X223700Y162100D02*
X224767D01*
X223900Y162300D02*
X224967D01*
X224100Y162900D02*
X225167D01*
X223900Y162500D02*
X224967D01*
X224100Y162700D02*
X225167D01*
X224100Y163100D02*
X225167D01*
X224300Y163300D02*
X225367D01*
X224300Y163500D02*
X225367D01*
X224500Y163700D02*
X225567D01*
X224500Y163900D02*
X225567D01*
X224700Y164100D02*
X225767D01*
X224700Y164300D02*
X225767D01*
X224900Y164500D02*
X225967D01*
X224900Y164700D02*
X225967D01*
X288700Y159500D02*
X289967D01*
X287500Y164900D02*
X301367D01*
X287300Y165100D02*
X301167D01*
X254900Y203500D02*
X256367D01*
X254300Y202900D02*
X255767D01*
X254500Y203100D02*
X255967D01*
X254700Y203300D02*
X256167D01*
X255100Y203700D02*
X256767D01*
X255500Y203900D02*
X256967D01*
X255700Y204100D02*
X257167D01*
X255900Y204300D02*
X257367D01*
X245900Y195100D02*
X247167D01*
X246500Y195700D02*
X247767D01*
X246100Y195300D02*
X247367D01*
X246300Y195500D02*
X247567D01*
X246700Y195900D02*
X247967D01*
X246900Y196100D02*
X248167D01*
X247100Y196300D02*
X248367D01*
X247300Y196500D02*
X248567D01*
X247500Y196700D02*
X248767D01*
X247700Y196900D02*
X248967D01*
X247900Y197100D02*
X249167D01*
X248100Y197300D02*
X249367D01*
X248300Y197500D02*
X249567D01*
X248500Y197700D02*
X249767D01*
X249100Y198300D02*
X250567D01*
X248700Y197900D02*
X249967D01*
X248900Y198100D02*
X250167D01*
X249300Y198500D02*
X250767D01*
X249500Y198700D02*
X250967D01*
X249700Y198900D02*
X251167D01*
X249900Y199100D02*
X251367D01*
X250100Y199300D02*
X251567D01*
X250300Y199500D02*
X251767D01*
X250500Y199700D02*
X251967D01*
X250700Y199900D02*
X252167D01*
X251100Y200100D02*
X252367D01*
X251300Y200300D02*
X252767D01*
X251900Y200900D02*
X253367D01*
X251500Y200500D02*
X252967D01*
X251700Y200700D02*
X253167D01*
X252100Y201100D02*
X253567D01*
X252300Y201300D02*
X253767D01*
X252500Y201500D02*
X253967D01*
X252900Y201700D02*
X254367D01*
X253100Y201900D02*
X254567D01*
X253300Y202100D02*
X254767D01*
X253500Y202300D02*
X254967D01*
X253700Y202500D02*
X255167D01*
X253900Y202700D02*
X255567D01*
X267900Y212900D02*
X269967D01*
X266900Y212300D02*
X268967D01*
X267300Y212500D02*
X269167D01*
X267700Y212700D02*
X269567D01*
X268300Y213100D02*
X270167D01*
X268500Y213300D02*
X270567D01*
X257500Y188100D02*
X267367D01*
X258100Y188700D02*
X267567D01*
X257700Y188300D02*
X267367D01*
X257900Y188500D02*
X267567D01*
X258300Y188900D02*
X267767D01*
X258500Y189100D02*
X267767D01*
X258700Y189300D02*
X267967D01*
X259100Y189500D02*
X267967D01*
X259300Y189700D02*
X268167D01*
X259500Y189900D02*
X268367D01*
X259700Y190100D02*
X268367D01*
X259900Y190300D02*
X268567D01*
X260100Y190500D02*
X268567D01*
X261100Y191300D02*
X269167D01*
X260300Y190700D02*
X268767D01*
X260500Y190900D02*
X268967D01*
X260900Y191100D02*
X268967D01*
X261300Y191500D02*
X269167D01*
X261500Y191700D02*
X269367D01*
X261700Y191900D02*
X269367D01*
X262100Y192100D02*
X269567D01*
X262300Y192300D02*
X269767D01*
X262500Y192500D02*
X269767D01*
X262700Y192700D02*
X269967D01*
X262900Y192900D02*
X269967D01*
X263300Y193100D02*
X270167D01*
X263500Y193300D02*
X270367D01*
X263700Y193500D02*
X270367D01*
X264100Y193700D02*
X270567D01*
X257700Y199900D02*
X257967D01*
X257100Y199300D02*
X258367D01*
X257700Y198900D02*
X258767D01*
X256900Y199100D02*
X258567D01*
X257300Y199500D02*
X258367D01*
X257500Y199700D02*
X258167D01*
X257900Y195500D02*
X258567D01*
X256700Y196300D02*
X257767D01*
X257500Y195700D02*
X259167D01*
X257100Y195900D02*
X259367D01*
X256900Y196100D02*
X259567D01*
X258900Y196300D02*
X259767D01*
X256500Y196500D02*
X257567D01*
X259300D02*
X260167D01*
X256500Y196700D02*
X257167D01*
X259500D02*
X260367D01*
X259500Y196900D02*
X260567D01*
X259300Y197100D02*
X260367D01*
X259100Y197300D02*
X260167D01*
X258900Y197500D02*
X259967D01*
X258700Y197900D02*
X259767D01*
X258900Y197700D02*
X259767D01*
X261700Y197900D02*
X261767D01*
X258500Y198100D02*
X259567D01*
X261500D02*
X262167D01*
X258300Y198300D02*
X259367D01*
X261300D02*
X262167D01*
X258100Y198500D02*
X259167D01*
X261300D02*
X262167D01*
X257900Y198700D02*
X258967D01*
X261100D02*
X262167D01*
X260900Y198900D02*
X262167D01*
X259700Y201500D02*
X259767D01*
X261300Y201100D02*
X261967D01*
X259500Y201300D02*
X259967D01*
X261300D02*
X261767D01*
X261300Y201500D02*
X261767D01*
X262100D02*
X262967D01*
X261300Y201700D02*
X262767D01*
X261300Y201900D02*
X262567D01*
X261300Y202100D02*
X262367D01*
X261100Y202300D02*
X262367D01*
X261100Y202500D02*
X262167D01*
X261300Y202700D02*
X261967D01*
X261500Y202900D02*
X261767D01*
X264500Y203900D02*
X265167D01*
X264700Y203300D02*
X265367D01*
X264500Y203500D02*
X265367D01*
X264500Y203700D02*
X265167D01*
X264300Y204100D02*
X265167D01*
X264300Y204300D02*
X264967D01*
X264300Y204500D02*
X265967D01*
X264300Y204700D02*
X265767D01*
X264300Y204900D02*
X265567D01*
X264500Y205100D02*
X265167D01*
X264900Y205300D02*
X264967D01*
X260700Y199100D02*
X262167D01*
X263700Y199500D02*
X263767D01*
X260500Y199300D02*
X262167D01*
X260500Y199500D02*
X262167D01*
X260300Y199700D02*
X261167D01*
X261500D02*
X261967D01*
X263500D02*
X264167D01*
X263500Y199900D02*
X264167D01*
X263300Y200100D02*
X263967D01*
X263100Y200300D02*
X263767D01*
X262900Y200500D02*
X263767D01*
X260100Y199900D02*
X260967D01*
X259700Y200500D02*
X260567D01*
X261500Y199900D02*
X261967D01*
X259900Y200100D02*
X260967D01*
X261500D02*
X261967D01*
X259900Y200300D02*
X260767D01*
X261500D02*
X261967D01*
X261500Y200500D02*
X261967D01*
X259500Y200700D02*
X260367D01*
X261300D02*
X261967D01*
X259300Y200900D02*
X260367D01*
X261300D02*
X261967D01*
X259300Y201100D02*
X260167D01*
X262900Y200700D02*
X263567D01*
X262500Y201100D02*
X263167D01*
X265300Y200700D02*
X265367D01*
X262700Y200900D02*
X263367D01*
X265300D02*
X265767D01*
X265100Y201100D02*
X265967D01*
X262300Y201300D02*
X263167D01*
X265100D02*
X265767D01*
X265100Y201500D02*
X265767D01*
X265100Y201700D02*
X265767D01*
X264900Y201900D02*
X265767D01*
X264900Y202100D02*
X265767D01*
X264900Y202300D02*
X266167D01*
X264700Y202700D02*
X266767D01*
X264900Y202500D02*
X266367D01*
X267700D02*
X268167D01*
X267300Y202700D02*
X268367D01*
X264700Y202900D02*
X265367D01*
X265900D02*
X268167D01*
X264700Y203100D02*
X265367D01*
X266100D02*
X267767D01*
X266500Y203300D02*
X267567D01*
X266300Y203500D02*
X267367D01*
X266100Y203700D02*
X266967D01*
X265900Y203900D02*
X266767D01*
X265700Y204100D02*
X266567D01*
X265300Y204300D02*
X266367D01*
X256300Y196900D02*
X257167D01*
X256100Y197500D02*
X256767D01*
X256300Y197100D02*
X256967D01*
X256300Y197300D02*
X256767D01*
X256100Y197700D02*
X256767D01*
X256100Y197900D02*
X256567D01*
X256100Y198100D02*
X256767D01*
X256300Y198300D02*
X256767D01*
X256300Y198500D02*
X256967D01*
X256500Y198700D02*
X257167D01*
X256700Y198900D02*
X257367D01*
X256100Y204500D02*
X257767D01*
X257500Y205500D02*
X258967D01*
X256500Y204700D02*
X257967D01*
X256700Y204900D02*
X258167D01*
X256900Y205100D02*
X258567D01*
X257100Y205300D02*
X258767D01*
X257700Y205700D02*
X259167D01*
X257900Y205900D02*
X259567D01*
X258100Y206100D02*
X259767D01*
X258500Y206300D02*
X259967D01*
X258700Y206500D02*
X260367D01*
X258900Y206700D02*
X260567D01*
X259300Y206900D02*
X260767D01*
X259500Y207100D02*
X261167D01*
X260300Y207700D02*
X261967D01*
X259700Y207300D02*
X261367D01*
X260100Y207500D02*
X261767D01*
X260500Y207900D02*
X262167D01*
X260900Y208100D02*
X262567D01*
X261100Y208300D02*
X262767D01*
X261300Y208500D02*
X263167D01*
X261700Y208700D02*
X263367D01*
X261900Y208900D02*
X263567D01*
X262300Y209100D02*
X263967D01*
X262500Y209300D02*
X264167D01*
X262900Y209500D02*
X264567D01*
X263100Y209700D02*
X264767D01*
X263900Y210300D02*
X265767D01*
X263300Y209900D02*
X265167D01*
X263700Y210100D02*
X265367D01*
X264300Y210500D02*
X265967D01*
X264500Y210700D02*
X266367D01*
X264900Y210900D02*
X266567D01*
X265100Y211100D02*
X266967D01*
X265500Y211300D02*
X267367D01*
X265700Y211500D02*
X267567D01*
X266100Y211700D02*
X267967D01*
X266300Y211900D02*
X268167D01*
X266700Y212100D02*
X268567D01*
X234500Y171300D02*
X235367D01*
X234500Y171700D02*
X236167D01*
X235900Y171300D02*
X236967D01*
X234500Y171500D02*
X236567D01*
X234700Y171900D02*
X235967D01*
X234700Y172100D02*
X235567D01*
X234900Y172300D02*
X235167D01*
X228100Y170900D02*
X229167D01*
X228300Y171500D02*
X229567D01*
X228100Y171100D02*
X229367D01*
X228300Y171300D02*
X229367D01*
X228500Y171700D02*
X229567D01*
X228500Y171900D02*
X229767D01*
X228700Y172100D02*
X229767D01*
X228900Y172300D02*
X229967D01*
X228900Y172500D02*
X229967D01*
X229100Y172700D02*
X230167D01*
X229100Y172900D02*
X230367D01*
X229300Y173100D02*
X230367D01*
X229300Y173300D02*
X230567D01*
X239100Y178700D02*
X239567D01*
X239300Y177500D02*
X239967D01*
X239500Y177300D02*
X239767D01*
X239300Y177700D02*
X239967D01*
X239100Y177900D02*
X239767D01*
X239100Y178100D02*
X239767D01*
X239100Y178300D02*
X239567D01*
X239100Y178500D02*
X239567D01*
X239100Y178900D02*
X239767D01*
X239300Y179100D02*
X239967D01*
X244300Y171900D02*
X258567D01*
X244700Y172500D02*
X258167D01*
X244300Y172100D02*
X258367D01*
X244500Y172300D02*
X258167D01*
X244700Y172700D02*
X258367D01*
X244900Y172900D02*
X258367D01*
X245100Y173100D02*
X258567D01*
X245100Y173300D02*
X258567D01*
X245300Y173500D02*
X258767D01*
X245500Y173700D02*
X258967D01*
X245500Y173900D02*
X258967D01*
X245700Y174100D02*
X259167D01*
X245900Y174300D02*
X259167D01*
X238300Y172500D02*
X239567D01*
X237900Y172700D02*
X239767D01*
X237500Y172900D02*
X240167D01*
X237100Y173100D02*
X238767D01*
X239300D02*
X240167D01*
X236900Y173300D02*
X238167D01*
X239700D02*
X240367D01*
X239900Y173500D02*
X240567D01*
X239900Y173700D02*
X240567D01*
X239900Y173900D02*
X240567D01*
X239900Y174100D02*
X240567D01*
X239900Y174300D02*
X240567D01*
X239700Y174500D02*
X240567D01*
X229500Y173500D02*
X230567D01*
X229900Y174100D02*
X230967D01*
X229700Y173700D02*
X230767D01*
X229700Y173900D02*
X230967D01*
X229900Y174300D02*
X231167D01*
X230100Y174500D02*
X231167D01*
X230100Y174700D02*
X231367D01*
X230300Y174900D02*
X231567D01*
X230500Y175100D02*
X231567D01*
X230500Y175300D02*
X231767D01*
X230700Y175500D02*
X231767D01*
X230900Y175700D02*
X231967D01*
X230900Y175900D02*
X232167D01*
X239500Y174700D02*
X240367D01*
X238500Y175300D02*
X239967D01*
X239300Y174900D02*
X240367D01*
X238900Y175100D02*
X240167D01*
X236900Y175500D02*
X239767D01*
X237100Y175700D02*
X239567D01*
X237300Y175900D02*
X239167D01*
X237700Y176100D02*
X238767D01*
X240900Y176300D02*
X241967D01*
X240700Y176500D02*
X242367D01*
X240900Y176700D02*
X242567D01*
X240900Y176900D02*
X241167D01*
X241900D02*
X242567D01*
X245900Y174500D02*
X259367D01*
X246300Y175100D02*
X259767D01*
X246100Y174700D02*
X259367D01*
X246300Y174900D02*
X259567D01*
X246500Y175300D02*
X259767D01*
X260300D02*
X261767D01*
X246700Y175500D02*
X262367D01*
X246900Y175700D02*
X262567D01*
X246900Y175900D02*
X262967D01*
X247100Y176100D02*
X263167D01*
X247300Y176300D02*
X263167D01*
X247500Y176500D02*
X263367D01*
X247500Y176700D02*
X263567D01*
X231100Y176100D02*
X232167D01*
X231500Y176700D02*
X232567D01*
X231100Y176300D02*
X232367D01*
X231300Y176500D02*
X232367D01*
X231500Y176900D02*
X232767D01*
X231700Y177100D02*
X232767D01*
X231700Y177300D02*
X232967D01*
X231900Y177500D02*
X233167D01*
X232100Y177700D02*
X233167D01*
X232100Y177900D02*
X233367D01*
X232300Y178100D02*
X233567D01*
X232500Y178300D02*
X233567D01*
X232500Y178500D02*
X233767D01*
X247700Y176900D02*
X263567D01*
X248100Y177500D02*
X263767D01*
X247900Y177100D02*
X263567D01*
X247900Y177300D02*
X263767D01*
X248300Y177700D02*
X263767D01*
X248500Y177900D02*
X263767D01*
X248500Y178100D02*
X263767D01*
X248700Y178300D02*
X263767D01*
X248900Y178500D02*
X263767D01*
X249100Y178700D02*
X263767D01*
X249300Y178900D02*
X263567D01*
X249300Y179100D02*
X263567D01*
X249500Y179300D02*
X263567D01*
X242300Y177100D02*
X242767D01*
X242300Y177300D02*
X242967D01*
X242500Y177500D02*
X242967D01*
X242500Y177700D02*
X242967D01*
X242300Y177900D02*
X242967D01*
X242300Y178100D02*
X242967D01*
X242100Y178300D02*
X242967D01*
X241900Y178500D02*
X242767D01*
X241700Y178700D02*
X242767D01*
X241300Y178900D02*
X242567D01*
X240900Y179100D02*
X242367D01*
X236900Y173500D02*
X237767D01*
X236500Y174300D02*
X237167D01*
X236700Y173700D02*
X237567D01*
X236500Y173900D02*
X237367D01*
X236500Y174100D02*
X237167D01*
X236500Y174500D02*
X236967D01*
X236500Y174700D02*
X236967D01*
X236500Y174900D02*
X237167D01*
X236500Y175100D02*
X237167D01*
X236700Y175300D02*
X237367D01*
X241500Y182100D02*
X242167D01*
X241700Y182500D02*
X242367D01*
X243500Y182100D02*
X244967D01*
X241500Y182300D02*
X242367D01*
X243500D02*
X244767D01*
X243300Y182500D02*
X244367D01*
X246700D02*
X246967D01*
X252300D02*
X263967D01*
X252300Y182700D02*
X264167D01*
X252500Y182900D02*
X264167D01*
X298500Y182100D02*
X299367D01*
X277500D02*
X289567D01*
X294100D02*
X294367D01*
X277300Y182300D02*
X289367D01*
X293900D02*
X294567D01*
X298300D02*
X299167D01*
X277300Y182500D02*
X289167D01*
X293700D02*
X294767D01*
X298100D02*
X298967D01*
X277100Y182700D02*
X288967D01*
X293900D02*
X294967D01*
X277100Y182900D02*
X288767D01*
X294100D02*
X295367D01*
X251900Y182100D02*
X263767D01*
X252100Y182300D02*
X263967D01*
X295100Y183900D02*
X297767D01*
X295100Y184100D02*
X295767D01*
X298100Y182700D02*
X298767D01*
X298100Y182900D02*
X298767D01*
X298300Y183100D02*
X298567D01*
X294300D02*
X295967D01*
X294500Y183300D02*
X297167D01*
X294900Y183500D02*
X298167D01*
X295100Y183700D02*
X297967D01*
X297300Y184100D02*
X297767D01*
X295300Y184300D02*
X295767D01*
X295300Y184500D02*
X295967D01*
X295500Y184700D02*
X295967D01*
X295500Y184900D02*
X296167D01*
X295500Y185100D02*
X296167D01*
X295700Y185300D02*
X296167D01*
X265300Y183100D02*
X266167D01*
X252700D02*
X264367D01*
X252900Y183300D02*
X266767D01*
X253100Y183500D02*
X267167D01*
X253300Y183700D02*
X267367D01*
X253500Y183900D02*
X267567D01*
X253700Y184100D02*
X267767D01*
X253900Y184300D02*
X267967D01*
X253900Y184500D02*
X268167D01*
X254100Y184700D02*
X268167D01*
X254300Y184900D02*
X268167D01*
X254500Y185100D02*
X268367D01*
X254700Y185300D02*
X268367D01*
X274900Y183100D02*
X276367D01*
X273500Y184100D02*
X287767D01*
X276900Y183100D02*
X288567D01*
X274500Y183300D02*
X288367D01*
X274100Y183500D02*
X288367D01*
X273900Y183700D02*
X288167D01*
X273700Y183900D02*
X287967D01*
X273300Y184300D02*
X287567D01*
X273300Y184500D02*
X287367D01*
X273100Y184700D02*
X287167D01*
X273100Y184900D02*
X286967D01*
X273100Y185100D02*
X286767D01*
X272900Y185300D02*
X286567D01*
X291700Y185500D02*
X292567D01*
X291300Y185700D02*
X292967D01*
X295700Y185500D02*
X296367D01*
X295900Y185700D02*
X296367D01*
X291100Y185900D02*
X293367D01*
X295900D02*
X296167D01*
X290900Y186100D02*
X293567D01*
X295900D02*
X295967D01*
X292300Y186300D02*
X293767D01*
X292700Y186500D02*
X293967D01*
X293100Y186700D02*
X294167D01*
X293300Y186900D02*
X294367D01*
X254900Y185500D02*
X268367D01*
X255500Y186100D02*
X268367D01*
X255100Y185700D02*
X268367D01*
X255300Y185900D02*
X268367D01*
X255700Y186300D02*
X268367D01*
X255900Y186500D02*
X268367D01*
X256100Y186700D02*
X268367D01*
X256300Y186900D02*
X268167D01*
X256500Y187100D02*
X268167D01*
X256700Y187300D02*
X267967D01*
X256900Y187500D02*
X267767D01*
X257100Y187700D02*
X267767D01*
X257300Y187900D02*
X267567D01*
X272900Y185500D02*
X286367D01*
X272900Y186100D02*
X285767D01*
X272900Y185700D02*
X286167D01*
X272900Y185900D02*
X285967D01*
X272900Y186300D02*
X285767D01*
X273100Y186500D02*
X285567D01*
X273100Y186700D02*
X285367D01*
X273100Y186900D02*
X285167D01*
X273300Y187100D02*
X284967D01*
X273300Y187300D02*
X284767D01*
X273500Y187500D02*
X284567D01*
X273700Y187700D02*
X284367D01*
X273900Y187900D02*
X284167D01*
X299900Y188700D02*
X301367D01*
X299700Y188900D02*
X301167D01*
X299700Y189100D02*
X300967D01*
X299500Y189300D02*
X300767D01*
X299300Y189500D02*
X300567D01*
X288300Y200700D02*
X289967D01*
X288900Y200100D02*
X290567D01*
X288700Y200300D02*
X290367D01*
X288500Y200500D02*
X290167D01*
X288100Y200900D02*
X289767D01*
X290100Y192300D02*
X290967D01*
X290700Y191700D02*
X291567D01*
X290500Y191900D02*
X291367D01*
X290300Y192100D02*
X291167D01*
X290100Y192500D02*
X290767D01*
X290300Y192700D02*
X290567D01*
X293900Y187900D02*
X294567D01*
X293500Y187100D02*
X294367D01*
X293700Y187300D02*
X294367D01*
X293700Y187500D02*
X294567D01*
X293900Y187700D02*
X294567D01*
X293900Y188100D02*
X294567D01*
X293700Y188300D02*
X294367D01*
X293700Y188500D02*
X294367D01*
X293500Y188700D02*
X294167D01*
X290900Y186300D02*
X291567D01*
X290500Y187100D02*
X291167D01*
X290700Y186500D02*
X291367D01*
X290700Y186700D02*
X291167D01*
X290500Y186900D02*
X291167D01*
X290500Y187300D02*
X291167D01*
X290700Y187500D02*
X291167D01*
X290700Y187700D02*
X291367D01*
X290700Y187900D02*
X291367D01*
X290900Y188100D02*
X291567D01*
X290900Y188300D02*
X291967D01*
X291100Y188500D02*
X292167D01*
X291300Y188700D02*
X292567D01*
X289300Y188100D02*
X289367D01*
X288900Y188700D02*
X289967D01*
X289100Y188300D02*
X289567D01*
X288900Y188500D02*
X289767D01*
X289100Y188900D02*
X290167D01*
X291500D02*
X294167D01*
X289300Y189100D02*
X290367D01*
X291700D02*
X293967D01*
X289500Y189300D02*
X290567D01*
X292100D02*
X293567D01*
X289700Y189500D02*
X290767D01*
X289900Y189700D02*
X290967D01*
X290100Y189900D02*
X291167D01*
X289900Y190100D02*
X291367D01*
X289500Y190500D02*
X290167D01*
X289700Y190300D02*
X291567D01*
X290700Y190500D02*
X291767D01*
X289300Y190700D02*
X289967D01*
X290900D02*
X291967D01*
X289100Y190900D02*
X289767D01*
X291100D02*
X292167D01*
X289300Y191100D02*
X289767D01*
X291300D02*
X292167D01*
X289500Y191300D02*
X289567D01*
X291100D02*
X291967D01*
X290900Y191500D02*
X291767D01*
X299100Y189700D02*
X300567D01*
X298500Y190300D02*
X299967D01*
X298900Y189900D02*
X300367D01*
X298700Y190100D02*
X300167D01*
X298500Y190500D02*
X299767D01*
X298300Y190700D02*
X299567D01*
X298100Y190900D02*
X299567D01*
X297900Y191100D02*
X299367D01*
X297700Y191300D02*
X299167D01*
X297500Y191500D02*
X298967D01*
X297300Y191700D02*
X298767D01*
X297100Y191900D02*
X298567D01*
X296900Y192100D02*
X298367D01*
X296900Y192300D02*
X298167D01*
X296300Y192900D02*
X297767D01*
X296700Y192500D02*
X298167D01*
X296500Y192700D02*
X297967D01*
X296100Y193100D02*
X297567D01*
X295900Y193300D02*
X297367D01*
X295700Y193500D02*
X297167D01*
X295500Y193700D02*
X296967D01*
X295300Y193900D02*
X296767D01*
X295100Y194100D02*
X296567D01*
X294900Y194300D02*
X296367D01*
X294700Y194500D02*
X296167D01*
X294500Y194700D02*
X295967D01*
X294300Y194900D02*
X295767D01*
X293700Y195500D02*
X295367D01*
X294100Y195100D02*
X295767D01*
X293900Y195300D02*
X295567D01*
X293500Y195700D02*
X295167D01*
X293300Y195900D02*
X294967D01*
X293100Y196100D02*
X294767D01*
X292900Y196300D02*
X294567D01*
X292700Y196500D02*
X294367D01*
X292500Y196700D02*
X294167D01*
X292300Y196900D02*
X293967D01*
X292100Y197100D02*
X293767D01*
X291900Y197300D02*
X293567D01*
X291700Y197500D02*
X293367D01*
X291100Y198100D02*
X292767D01*
X291500Y197700D02*
X293167D01*
X291300Y197900D02*
X292967D01*
X290900Y198300D02*
X292567D01*
X290700Y198500D02*
X292367D01*
X290500Y198700D02*
X292167D01*
X290300Y198900D02*
X291967D01*
X290100Y199100D02*
X291767D01*
X289900Y199300D02*
X291367D01*
X289700Y199500D02*
X291167D01*
X289500Y199700D02*
X290967D01*
X289100Y199900D02*
X290767D01*
X270900Y214700D02*
X270967D01*
X269900Y214100D02*
X271967D01*
X270100Y214300D02*
X271567D01*
X270500Y214500D02*
X271367D01*
X278300Y202700D02*
X279167D01*
X279500Y201700D02*
X280367D01*
X280100Y201300D02*
X280167D01*
X279700Y201500D02*
X280167D01*
X278300Y201900D02*
X280167D01*
X278300Y202100D02*
X279967D01*
X278500Y202300D02*
X279767D01*
X278500Y202500D02*
X279567D01*
X278100Y202900D02*
X278967D01*
X277900Y203100D02*
X278767D01*
X277900Y203300D02*
X278567D01*
X278100Y203500D02*
X278167D01*
X273300D02*
X275367D01*
X274700Y202900D02*
X276567D01*
X273100Y203100D02*
X276767D01*
X273300Y203300D02*
X276967D01*
X276300Y203500D02*
X276967D01*
X273500Y203700D02*
X274967D01*
X276300D02*
X276967D01*
X273700Y203900D02*
X274367D01*
X276300D02*
X276967D01*
X276300Y204100D02*
X276967D01*
X276100Y204300D02*
X276767D01*
X275100Y204500D02*
X275167D01*
X275900D02*
X276567D01*
X274900Y204700D02*
X276567D01*
X274900Y204900D02*
X276167D01*
X274700Y205100D02*
X275967D01*
X276900Y199300D02*
X277167D01*
X276700Y199500D02*
X277167D01*
X276500Y199700D02*
X277367D01*
X276700Y199900D02*
X277567D01*
X276700Y200100D02*
X277767D01*
X276900Y200300D02*
X277967D01*
X277100Y200500D02*
X277967D01*
X277300Y200700D02*
X278167D01*
X277500Y200900D02*
X278367D01*
X277500Y201100D02*
X278567D01*
X277700Y201300D02*
X278767D01*
X277900Y201500D02*
X278767D01*
X278100Y201700D02*
X278967D01*
X282100Y199500D02*
X282567D01*
X278900D02*
X280767D01*
X279300Y199700D02*
X280367D01*
X282100D02*
X282567D01*
X281900Y199900D02*
X282567D01*
X281700Y200100D02*
X282567D01*
X280900Y200300D02*
X282367D01*
X280700Y200500D02*
X282167D01*
X280500Y200700D02*
X281967D01*
X280500Y200900D02*
X281567D01*
X274300Y201100D02*
X275567D01*
X273500Y201700D02*
X274567D01*
X273900Y201300D02*
X275767D01*
X273700Y201500D02*
X275567D01*
X275100Y201700D02*
X275367D01*
X273300Y201900D02*
X274167D01*
X273300Y202100D02*
X273967D01*
X273100Y202300D02*
X273767D01*
X273100Y202500D02*
X273767D01*
X275700D02*
X275967D01*
X273100Y202700D02*
X273567D01*
X275100D02*
X276367D01*
X273100Y202900D02*
X273767D01*
X287900Y201100D02*
X289567D01*
X287700Y201300D02*
X289167D01*
X287300Y201500D02*
X288967D01*
X287100Y201700D02*
X288767D01*
X286900Y201900D02*
X288567D01*
X286700Y202100D02*
X288367D01*
X286500Y202300D02*
X288167D01*
X286300Y202500D02*
X287967D01*
X285900Y202700D02*
X287767D01*
X285700Y202900D02*
X287367D01*
X285500Y203100D02*
X287167D01*
X285300Y203300D02*
X286967D01*
X285100Y203500D02*
X286767D01*
X284700Y203700D02*
X286567D01*
X284100Y204300D02*
X285767D01*
X284500Y203900D02*
X286167D01*
X284300Y204100D02*
X285967D01*
X283700Y204500D02*
X285567D01*
X283500Y204700D02*
X285367D01*
X283300Y204900D02*
X284967D01*
X283100Y205100D02*
X284767D01*
X282700Y205300D02*
X284567D01*
X282500Y205500D02*
X284367D01*
X282300Y205700D02*
X283967D01*
X281900Y205900D02*
X283767D01*
X281700Y206100D02*
X283567D01*
X281500Y206300D02*
X283367D01*
X280700Y206900D02*
X282567D01*
X281100Y206500D02*
X282967D01*
X280900Y206700D02*
X282767D01*
X280500Y207100D02*
X282167D01*
X280100Y207300D02*
X281967D01*
X279900Y207500D02*
X281767D01*
X279500Y207700D02*
X281367D01*
X279300Y207900D02*
X281167D01*
X279100Y208100D02*
X280967D01*
X278700Y208300D02*
X280567D01*
X278500Y208500D02*
X280367D01*
X278100Y208700D02*
X279967D01*
X277900Y208900D02*
X279767D01*
X277100Y209500D02*
X278967D01*
X277700Y209100D02*
X279567D01*
X277300Y209300D02*
X279167D01*
X276700Y209700D02*
X278767D01*
X276500Y209900D02*
X278367D01*
X276100Y210100D02*
X278167D01*
X275900Y210300D02*
X277767D01*
X275500Y210500D02*
X277567D01*
X275300Y210700D02*
X277167D01*
X274900Y210900D02*
X276967D01*
X274700Y211100D02*
X276567D01*
X274300Y211300D02*
X276367D01*
X274100Y211500D02*
X275967D01*
X273100Y212100D02*
X275167D01*
X273700Y211700D02*
X275767D01*
X273500Y211900D02*
X275367D01*
X272700Y212300D02*
X274767D01*
X272500Y212500D02*
X274567D01*
X272100Y212700D02*
X274167D01*
X271700Y212900D02*
X273967D01*
X271500Y213100D02*
X273567D01*
X271100Y213300D02*
X273167D01*
X268900Y213500D02*
X272967D01*
X269300Y213700D02*
X272567D01*
X269500Y213900D02*
X272167D01*
X274100Y188100D02*
X283767D01*
X273700Y188700D02*
X283167D01*
X273900Y188300D02*
X283567D01*
X273700Y188500D02*
X283367D01*
X273500Y188900D02*
X282967D01*
X273500Y189100D02*
X282767D01*
X273300Y189300D02*
X282567D01*
X273300Y189500D02*
X282367D01*
X273100Y189700D02*
X282167D01*
X272900Y189900D02*
X281967D01*
X272900Y190100D02*
X281767D01*
X272700Y190300D02*
X281567D01*
X272700Y190500D02*
X281367D01*
X272500Y190700D02*
X280967D01*
X272100Y191300D02*
X280367D01*
X272300Y190900D02*
X280767D01*
X272300Y191100D02*
X280567D01*
X286300Y191300D02*
X286367D01*
X272100Y191500D02*
X280167D01*
X286100D02*
X286567D01*
X271900Y191700D02*
X279967D01*
X285900D02*
X286767D01*
X271900Y191900D02*
X279767D01*
X285900D02*
X286967D01*
X286100Y192100D02*
X287167D01*
X286300Y192300D02*
X287367D01*
X271700Y192100D02*
X279367D01*
X271500Y192500D02*
X278967D01*
X271500Y192300D02*
X279167D01*
X286500Y192500D02*
X287567D01*
X271300Y192700D02*
X278767D01*
X286700D02*
X287767D01*
X271300Y192900D02*
X278567D01*
X286900D02*
X287967D01*
X271100Y193100D02*
X278167D01*
X286700D02*
X288167D01*
X286500Y193300D02*
X288367D01*
X286300Y193500D02*
X287167D01*
X287500D02*
X288567D01*
X271100Y193300D02*
X277967D01*
X270900Y193700D02*
X277567D01*
X270900Y193500D02*
X277767D01*
X287700Y194700D02*
X288767D01*
X286100Y193700D02*
X286967D01*
X287700D02*
X288767D01*
X285900Y193900D02*
X286767D01*
X287900D02*
X288967D01*
X285900Y194100D02*
X286567D01*
X288100D02*
X289167D01*
X285700Y194300D02*
X286367D01*
X288100D02*
X289167D01*
X285700Y194500D02*
X286367D01*
X287900D02*
X288967D01*
X285700Y194700D02*
X286367D01*
X285700Y194900D02*
X286567D01*
X287500D02*
X288567D01*
X241900Y182700D02*
X242567D01*
X242100Y183100D02*
X243567D01*
X243100Y182700D02*
X244167D01*
X246500D02*
X246967D01*
X242100Y182900D02*
X243967D01*
X246300D02*
X247167D01*
X246500Y183100D02*
X247367D01*
X242300Y183300D02*
X243367D01*
X246700D02*
X247567D01*
X242500Y183500D02*
X243167D01*
X246900D02*
X247767D01*
X242700Y183700D02*
X242767D01*
X247100D02*
X247767D01*
X246500Y188500D02*
X247167D01*
X246700Y187900D02*
X246767D01*
X246500Y188100D02*
X246967D01*
X246300Y188300D02*
X246967D01*
X246700Y188700D02*
X247367D01*
X246900Y188900D02*
X247567D01*
X246900Y189100D02*
X247767D01*
X247100Y189300D02*
X248967D01*
X247300Y189500D02*
X248767D01*
X247500Y189700D02*
X248567D01*
X247700Y189900D02*
X248367D01*
X247900Y190100D02*
X248167D01*
X235100Y182100D02*
X236167D01*
X235900Y183300D02*
X237167D01*
X235100Y182300D02*
X236367D01*
X235300Y182500D02*
X236567D01*
X235500Y182700D02*
X236567D01*
X235500Y182900D02*
X236767D01*
X235700Y183100D02*
X236967D01*
X236100Y183500D02*
X237167D01*
X236100Y183700D02*
X237367D01*
X236300Y183900D02*
X237567D01*
X236500Y184100D02*
X237767D01*
X236700Y184300D02*
X237767D01*
X236700Y184500D02*
X237967D01*
X247100Y183900D02*
X247967D01*
X247100Y184500D02*
X248367D01*
X247300Y184100D02*
X248167D01*
X247300Y184300D02*
X248367D01*
X246900Y184700D02*
X247967D01*
X246500Y184900D02*
X247767D01*
X246300Y185100D02*
X247567D01*
X246100Y185300D02*
X247367D01*
X245900Y185500D02*
X246967D01*
X249300D02*
X249367D01*
X245700Y185700D02*
X246767D01*
X249100D02*
X249567D01*
X248900Y185900D02*
X249567D01*
X245300D02*
X246567D01*
X244900Y186300D02*
X246167D01*
X245100Y186100D02*
X246367D01*
X249100D02*
X249767D01*
X249300Y186300D02*
X249967D01*
X244900Y186500D02*
X245767D01*
X249300D02*
X250167D01*
X244900Y186700D02*
X245567D01*
X249500D02*
X250367D01*
X245100Y186900D02*
X245367D01*
X249700D02*
X250567D01*
X236900Y184700D02*
X238167D01*
X237300Y185300D02*
X238567D01*
X237100Y184900D02*
X238367D01*
X237300Y185100D02*
X238367D01*
X237500Y185500D02*
X238767D01*
X237700Y185700D02*
X238967D01*
X237900Y185900D02*
X239167D01*
X237900Y186100D02*
X239167D01*
X238100Y186300D02*
X239367D01*
X238300Y186500D02*
X239567D01*
X238500Y186700D02*
X239767D01*
X238700Y186900D02*
X239967D01*
X238700Y187100D02*
X239967D01*
X249100Y191500D02*
X249967D01*
X249300Y190900D02*
X249367D01*
X249100Y191100D02*
X249567D01*
X248900Y191300D02*
X249767D01*
X248100Y187100D02*
X248367D01*
X247900Y187500D02*
X248567D01*
X249900Y187100D02*
X250767D01*
X247900Y187300D02*
X248367D01*
X250100D02*
X250767D01*
X250100Y187500D02*
X250967D01*
X248100Y187700D02*
X248767D01*
X249900D02*
X250767D01*
X248300Y187900D02*
X248967D01*
X249700D02*
X250567D01*
X248500Y188100D02*
X250367D01*
X248700Y188300D02*
X250167D01*
X248700Y188500D02*
X249967D01*
X238900Y187300D02*
X240167D01*
X239500Y187900D02*
X240767D01*
X239100Y187500D02*
X240367D01*
X239300Y187700D02*
X240567D01*
X239500Y188100D02*
X240767D01*
X239700Y188300D02*
X240967D01*
X239900Y188500D02*
X241167D01*
X240100Y188700D02*
X241367D01*
X240300Y188900D02*
X241567D01*
X240500Y189100D02*
X241767D01*
X240500Y189300D02*
X241767D01*
X240700Y189500D02*
X241967D01*
X240900Y189700D02*
X242167D01*
X249700Y192100D02*
X250767D01*
X250300Y191500D02*
X251367D01*
X249300Y191700D02*
X251167D01*
X249500Y191900D02*
X250967D01*
X249900Y192300D02*
X250767D01*
X250100Y192500D02*
X250767D01*
X250300Y192700D02*
X250967D01*
X250500Y192900D02*
X251167D01*
X250700Y193100D02*
X251367D01*
X250900Y193300D02*
X251167D01*
X248700Y188700D02*
X249767D01*
X252500Y189500D02*
X252767D01*
X248500Y188900D02*
X249567D01*
X248100Y189100D02*
X249367D01*
X252300Y189700D02*
X252967D01*
X252100Y189900D02*
X253167D01*
X251900Y190100D02*
X252967D01*
X251500Y190300D02*
X252767D01*
X251300Y190500D02*
X252367D01*
X251100Y190700D02*
X252167D01*
X250900Y190900D02*
X251967D01*
X250700Y191100D02*
X251767D01*
X250500Y191300D02*
X251567D01*
X241100Y189900D02*
X242367D01*
X241700Y190500D02*
X242967D01*
X241300Y190100D02*
X242567D01*
X241500Y190300D02*
X242767D01*
X241700Y190700D02*
X243167D01*
X241900Y190900D02*
X243167D01*
X242100Y191100D02*
X243367D01*
X242300Y191300D02*
X243567D01*
X242500Y191500D02*
X243767D01*
X242700Y191700D02*
X243967D01*
X242900Y191900D02*
X244167D01*
X243100Y192100D02*
X244367D01*
X243300Y192300D02*
X244567D01*
X243300Y192500D02*
X244767D01*
X243900Y193100D02*
X245167D01*
X243500Y192700D02*
X244967D01*
X243700Y192900D02*
X245167D01*
X244100Y193300D02*
X245367D01*
X244300Y193500D02*
X245567D01*
X244500Y193700D02*
X245767D01*
X244700Y193900D02*
X245967D01*
X244900Y194100D02*
X246167D01*
X245100Y194300D02*
X246367D01*
X245300Y194500D02*
X246567D01*
X245500Y194700D02*
X246767D01*
X245700Y194900D02*
X246967D01*
X286100Y195500D02*
X287767D01*
X285900Y195100D02*
X286767D01*
X287300D02*
X288367D01*
X285900Y195300D02*
X287967D01*
X286300Y195700D02*
X287567D01*
X286700Y195900D02*
X287167D01*
X268700Y197100D02*
X272967D01*
X267900Y196500D02*
X273767D01*
X268100Y196700D02*
X273567D01*
X268500Y196900D02*
X273167D01*
X269100Y197300D02*
X272567D01*
X269300Y197500D02*
X272367D01*
X269700Y197700D02*
X272167D01*
X269900Y197900D02*
X271767D01*
X270300Y198100D02*
X271567D01*
X270700Y198300D02*
X271167D01*
X282300Y197500D02*
X283367D01*
X284900Y196900D02*
X285567D01*
X284900Y197100D02*
X285567D01*
X284900Y197300D02*
X285567D01*
X284700Y197500D02*
X285567D01*
X282500Y197700D02*
X283567D01*
X284500D02*
X285367D01*
X282700Y197900D02*
X285167D01*
X282900Y198100D02*
X284967D01*
X283300Y198300D02*
X284767D01*
X283900Y198500D02*
X284167D01*
X264300Y193900D02*
X277167D01*
X265100Y194500D02*
X276567D01*
X264500Y194100D02*
X276967D01*
X264700Y194300D02*
X276767D01*
X265300Y194700D02*
X276167D01*
X265500Y194900D02*
X275967D01*
X265900Y195100D02*
X275767D01*
X266100Y195300D02*
X275367D01*
X266500Y195500D02*
X275167D01*
X266700Y195700D02*
X274967D01*
X266900Y195900D02*
X274567D01*
X267300Y196100D02*
X274367D01*
X267500Y196300D02*
X274167D01*
X283300Y194500D02*
X283567D01*
X282100Y195100D02*
X284767D01*
X282700Y194700D02*
X284167D01*
X282300Y194900D02*
X284567D01*
X282100Y195300D02*
X282567D01*
X283900D02*
X284967D01*
X284100Y195500D02*
X285167D01*
X284300Y195700D02*
X285167D01*
X284500Y195900D02*
X285367D01*
X284700Y196100D02*
X285567D01*
X284700Y196300D02*
X285567D01*
X284900Y196500D02*
X285567D01*
X284900Y196700D02*
X285567D01*
X281900Y195500D02*
X282367D01*
X281900Y196500D02*
X282367D01*
X281900Y195700D02*
X282367D01*
X281900Y195900D02*
X282367D01*
X281700Y196100D02*
X282367D01*
X281700Y196300D02*
X282367D01*
X281900Y196700D02*
X282567D01*
X281900Y196900D02*
X282767D01*
X279900Y197100D02*
X281167D01*
X282100D02*
X282967D01*
X279700Y197300D02*
X281167D01*
X282100D02*
X282967D01*
X279300Y197500D02*
X280967D01*
X279100Y197700D02*
X279967D01*
X278700Y198300D02*
X279367D01*
X278900Y197900D02*
X279767D01*
X278900Y198100D02*
X279567D01*
X278700Y198500D02*
X279367D01*
X280900D02*
X282167D01*
X278700Y198700D02*
X279367D01*
X280500D02*
X282367D01*
X278700Y198900D02*
X279367D01*
X280100D02*
X282567D01*
X278700Y199100D02*
X282567D01*
X278700Y199300D02*
X281167D01*
X281900D02*
X282567D01*
X275500Y107300D02*
X276967D01*
X275500Y107500D02*
X276967D01*
X275500Y107700D02*
X276367D01*
X288300Y111500D02*
X288967D01*
X293300D02*
X293567D01*
X288300Y111700D02*
X288967D01*
X292700D02*
X293967D01*
X288100Y111900D02*
X288967D01*
X292300D02*
X293967D01*
X287900Y112100D02*
X288967D01*
X285700Y103900D02*
X291967D01*
X287100Y104100D02*
X293167D01*
X288500Y104300D02*
X293967D01*
X246300Y104500D02*
X251767D01*
X264500D02*
X266167D01*
X268300D02*
X270167D01*
X271900D02*
X273567D01*
X275500D02*
X275967D01*
X245500Y104700D02*
X250567D01*
X264300D02*
X264967D01*
X265700D02*
X266367D01*
X268100D02*
X268967D01*
X269300D02*
X270367D01*
X290700D02*
X295767D01*
X291700Y104900D02*
X296767D01*
X292700Y105100D02*
X297567D01*
X242900Y105300D02*
X247567D01*
X264100D02*
X264567D01*
X266300D02*
X266767D01*
X267900D02*
X268367D01*
X270100D02*
X270567D01*
X271500D02*
X271967D01*
X275500D02*
X275967D01*
X242100Y105500D02*
X246567D01*
X264100D02*
X264567D01*
X266300D02*
X266767D01*
X271300Y106300D02*
X271967D01*
X238500Y106500D02*
X242367D01*
X264100D02*
X264567D01*
X266300D02*
X266767D01*
X268100D02*
X269167D01*
X269500D02*
X270367D01*
X271300D02*
X271967D01*
X237900Y106700D02*
X241567D01*
X264100D02*
X264567D01*
X266300D02*
X266767D01*
X268500D02*
X270367D01*
X271300D02*
X271967D01*
X237300Y106900D02*
X240767D01*
X269900D02*
X270167D01*
X271300D02*
X271967D01*
X273100Y106100D02*
X273767D01*
X294700Y105500D02*
X299167D01*
X295500Y105700D02*
X299767D01*
X296300Y105900D02*
X300567D01*
X275500Y106100D02*
X275967D01*
X273300Y106300D02*
X273767D01*
X275500D02*
X275967D01*
X273500Y106500D02*
X273967D01*
X275500D02*
X275967D01*
X273500Y106700D02*
X273967D01*
X275500D02*
X275967D01*
X273500Y106900D02*
X273967D01*
X275500D02*
X275967D01*
X271300Y107100D02*
X271967D01*
X273500D02*
X273967D01*
X275500D02*
X275967D01*
X269900Y107300D02*
X270167D01*
X271500D02*
X271967D01*
X273500D02*
X273967D01*
X269900Y107500D02*
X270167D01*
X271500D02*
X271967D01*
X273500D02*
X273967D01*
X269700Y107700D02*
X270167D01*
X271500D02*
X272167D01*
X273300D02*
X273767D01*
X268100Y107900D02*
X270167D01*
X271700D02*
X273567D01*
X275500D02*
X275967D01*
X268100Y108100D02*
X270167D01*
X271900D02*
X273367D01*
X275500D02*
X275967D01*
X268100Y108300D02*
X270167D01*
X272300D02*
X272967D01*
X275500D02*
X275767D01*
X272700Y109300D02*
X273167D01*
X272500Y109500D02*
X273167D01*
X272300Y109700D02*
X272967D01*
X272100Y109900D02*
X272767D01*
X272100Y110100D02*
X272767D01*
X274100Y118700D02*
X275567D01*
X280700D02*
X280967D01*
X270500Y118900D02*
X273567D01*
X274100D02*
X275367D01*
X272100Y119100D02*
X273367D01*
X274100D02*
X275167D01*
X272900Y119300D02*
X273367D01*
X274100D02*
X274967D01*
X272900Y119500D02*
X273367D01*
X274100D02*
X274967D01*
X275700D02*
X275767D01*
X272900Y119700D02*
X273367D01*
X273900D02*
X274967D01*
X214300Y119500D02*
X215167D01*
X242900D02*
X245567D01*
X245900D02*
X246167D01*
X214300Y119700D02*
X215167D01*
X242700D02*
X246167D01*
X214300Y119900D02*
X215167D01*
X214300Y120100D02*
X215167D01*
X242700D02*
X245967D01*
X214300Y120300D02*
X215167D01*
X242700D02*
X244367D01*
X244900D02*
X245567D01*
X214300Y120500D02*
X215167D01*
X242700D02*
X244167D01*
X254900Y119900D02*
X255767D01*
X247300Y120100D02*
X247567D01*
X253300D02*
X253567D01*
X254900D02*
X255767D01*
X247300Y120300D02*
X247767D01*
X253300D02*
X253567D01*
X254900D02*
X255567D01*
X247300Y120500D02*
X248167D01*
X253500D02*
X253567D01*
X254700D02*
X255567D01*
X247300Y120700D02*
X248167D01*
X254900D02*
X255567D01*
X247300Y120900D02*
X248167D01*
X244700Y120500D02*
X245367D01*
X214300Y120700D02*
X215167D01*
X242700D02*
X243967D01*
X244700D02*
X245167D01*
X214300Y120900D02*
X215167D01*
X242900D02*
X243767D01*
X244500D02*
X245167D01*
X214300Y121100D02*
X215167D01*
X243300D02*
X243567D01*
X244500D02*
X245167D01*
X214300Y121300D02*
X215167D01*
X244300D02*
X244967D01*
X214300Y121500D02*
X215167D01*
X275500Y119700D02*
X275767D01*
X273700Y119900D02*
X275567D01*
X273300Y120100D02*
X275567D01*
X273100Y120300D02*
X273567D01*
X274300D02*
X275367D01*
X272700Y120500D02*
X273367D01*
X274300D02*
X275167D01*
X272500Y120700D02*
X272967D01*
X273900D02*
X274967D01*
X272500Y120900D02*
X272767D01*
X273700D02*
X274767D01*
X273500Y121100D02*
X274567D01*
X273300Y121300D02*
X274567D01*
X223700Y112100D02*
X226167D01*
X223300Y112300D02*
X225567D01*
X222900Y112500D02*
X225167D01*
X222500Y112700D02*
X224767D01*
X222100Y112900D02*
X224367D01*
X221500Y113100D02*
X223767D01*
X221100Y113300D02*
X223367D01*
X220900Y113500D02*
X222967D01*
X220500Y113700D02*
X222567D01*
X220100Y113900D02*
X222167D01*
X219700Y114100D02*
X221767D01*
X219300Y114300D02*
X221367D01*
X222900Y122700D02*
X223567D01*
X244300Y121500D02*
X245167D01*
X214300Y121700D02*
X215167D01*
X244300D02*
X245167D01*
X214300Y121900D02*
X215167D01*
X214300Y122100D02*
X215167D01*
X214300Y122300D02*
X215167D01*
X214300Y122500D02*
X215167D01*
X214300Y122700D02*
X215167D01*
X236100D02*
X237567D01*
X214300Y122900D02*
X215167D01*
X234900D02*
X239367D01*
X214300Y123100D02*
X215167D01*
X234100D02*
X240567D01*
X254900Y120900D02*
X255367D01*
X247300Y121100D02*
X248167D01*
X254900D02*
X255367D01*
X247500Y121300D02*
X247967D01*
X254900D02*
X255367D01*
X255100Y121500D02*
X255367D01*
X245500Y121700D02*
X245767D01*
X244300Y121900D02*
X245767D01*
X244500Y122100D02*
X245767D01*
X244700Y122300D02*
X245567D01*
X233100Y123500D02*
X242567D01*
X232900Y123700D02*
X243367D01*
X232500Y123900D02*
X244167D01*
X267100Y118100D02*
X267567D01*
X271100D02*
X271367D01*
X272300D02*
X272767D01*
X265500Y118300D02*
X266167D01*
X267100D02*
X267367D01*
X271100D02*
X271167D01*
X265300Y118500D02*
X265967D01*
X267100D02*
X267367D01*
X270900D02*
X271167D01*
X265100Y118700D02*
X265767D01*
X267100D02*
X267167D01*
X270700D02*
X271167D01*
X264300Y118900D02*
X265567D01*
X244100Y116500D02*
X245367D01*
X246300D02*
X246567D01*
X247100D02*
X247567D01*
X214900Y116700D02*
X216967D01*
X244100D02*
X245367D01*
X246100D02*
X246367D01*
X246900D02*
X247367D01*
X214700Y116900D02*
X216567D01*
X244100D02*
X245967D01*
X246700D02*
X247167D01*
X214300Y117100D02*
X216167D01*
X244300D02*
X245767D01*
X246500D02*
X246967D01*
X265300Y116700D02*
X265967D01*
X266900D02*
X268167D01*
X247900Y116900D02*
X248367D01*
X254900D02*
X257767D01*
X263100D02*
X263767D01*
X264500D02*
X265967D01*
X266700D02*
X268167D01*
X247900Y117100D02*
X248367D01*
X254700D02*
X257167D01*
X262700D02*
X263567D01*
X264500D02*
X265967D01*
X266500D02*
X267967D01*
X247900Y117300D02*
X248367D01*
X266300D02*
X267967D01*
X254500D02*
X256567D01*
X262500D02*
X263767D01*
X264100D02*
X265167D01*
X247900Y117500D02*
X248367D01*
X254500D02*
X256567D01*
X262500D02*
X264767D01*
X247300Y117700D02*
X248367D01*
X254500D02*
X256367D01*
X262700D02*
X264767D01*
X247100Y117900D02*
X248367D01*
X254300D02*
X256367D01*
X262700D02*
X263567D01*
X264300D02*
X265167D01*
X214300Y117300D02*
X215967D01*
X244500D02*
X245367D01*
X246300D02*
X246967D01*
X214300Y117500D02*
X215567D01*
X244700D02*
X244767D01*
X246100D02*
X246767D01*
X214300Y117700D02*
X215167D01*
X244500D02*
X244967D01*
X245700D02*
X246167D01*
X246500D02*
X246767D01*
X214300Y117900D02*
X215167D01*
X244100D02*
X246767D01*
X214300Y118100D02*
X215167D01*
X246700D02*
X248367D01*
X254300D02*
X256367D01*
X262900D02*
X263367D01*
X243700Y118300D02*
X248367D01*
X253900D02*
X254767D01*
X255100D02*
X256167D01*
X245500Y118500D02*
X247567D01*
X247900D02*
X248367D01*
X253700D02*
X254367D01*
X255100D02*
X256167D01*
X246100Y118700D02*
X246567D01*
X247100D02*
X247567D01*
X247900D02*
X248367D01*
X243900Y118100D02*
X246367D01*
X214300Y118300D02*
X215167D01*
X214300Y118500D02*
X215167D01*
X243500D02*
X245167D01*
X214300Y118700D02*
X215167D01*
X243300D02*
X244767D01*
X245300D02*
X245767D01*
X214300Y118900D02*
X215167D01*
X243300D02*
X244567D01*
X214300Y119100D02*
X215167D01*
X243100D02*
X244367D01*
X214300Y119300D02*
X215167D01*
X242900D02*
X245567D01*
X292900Y112700D02*
X293767D01*
X291500D02*
X292367D01*
X291500Y112900D02*
X292167D01*
X292900D02*
X293567D01*
X291500Y113100D02*
X291967D01*
X292900D02*
X293567D01*
X292700Y113300D02*
X293567D01*
X292500Y113500D02*
X293367D01*
X292500Y113700D02*
X293367D01*
X292300Y113900D02*
X293367D01*
X292100Y112100D02*
X293967D01*
X284500Y112300D02*
X285167D01*
X287900D02*
X288967D01*
X291700D02*
X293967D01*
X280900Y112500D02*
X281767D01*
X282300D02*
X283367D01*
X284300D02*
X285167D01*
X287700D02*
X288967D01*
X291500D02*
X293767D01*
X280700Y112700D02*
X281967D01*
X282300D02*
X283567D01*
X284300D02*
X285167D01*
X287700D02*
X288967D01*
X280700Y112900D02*
X281967D01*
X282300D02*
X283567D01*
X284100D02*
X284967D01*
X287500D02*
X288767D01*
X280900Y113100D02*
X282567D01*
X283900D02*
X284767D01*
X287300D02*
X288567D01*
X265100D02*
X265767D01*
X272100D02*
X272767D01*
X244500Y113300D02*
X246767D01*
X247700D02*
X247967D01*
X249900D02*
X250367D01*
X253900D02*
X254567D01*
X257500D02*
X257967D01*
X262900D02*
X263567D01*
X265100D02*
X265967D01*
X272100D02*
X272767D01*
X244700Y113500D02*
X246167D01*
X247500D02*
X247967D01*
X249700D02*
X250567D01*
X265100D02*
X265767D01*
X272100D02*
X272767D01*
X277900Y132100D02*
X281767D01*
X277700Y131700D02*
X281967D01*
X277700Y131900D02*
X281967D01*
X287100Y132100D02*
X290767D01*
X278100Y132300D02*
X281567D01*
X287300D02*
X290567D01*
X278500Y132500D02*
X281167D01*
X287500D02*
X290367D01*
X278900Y132700D02*
X280767D01*
X287900D02*
X289967D01*
X296900D02*
X298967D01*
X296100Y132100D02*
X299767D01*
X296300Y132300D02*
X299567D01*
X296500Y132500D02*
X299367D01*
X277300Y131100D02*
X282367D01*
X277500Y131500D02*
X282167D01*
X286500Y131100D02*
X291367D01*
X295500D02*
X300367D01*
X277500Y131300D02*
X282367D01*
X286500D02*
X291367D01*
X295500D02*
X300367D01*
X286500Y131500D02*
X291167D01*
X295500D02*
X300167D01*
X286700Y131700D02*
X291167D01*
X295700D02*
X300167D01*
X286900Y131900D02*
X290967D01*
X295900D02*
X299967D01*
X283100Y116900D02*
X283567D01*
X280300Y116700D02*
X283367D01*
X281700Y116900D02*
X282767D01*
X281700Y117100D02*
X282567D01*
X283100D02*
X283567D01*
X281500Y117300D02*
X283567D01*
X281100Y117500D02*
X283567D01*
X280900Y117700D02*
X282167D01*
X280300Y118300D02*
X282367D01*
X281500Y118500D02*
X282167D01*
X281700Y118700D02*
X282167D01*
X282900D02*
X283567D01*
X281300Y118900D02*
X281967D01*
X282700D02*
X283367D01*
X281300Y119100D02*
X281767D01*
X282500D02*
X283167D01*
X275500Y116900D02*
X276167D01*
X277100D02*
X277367D01*
X280300D02*
X281167D01*
X271300Y117100D02*
X271567D01*
X272300D02*
X273367D01*
X274300D02*
X276167D01*
X276900D02*
X277167D01*
X280500D02*
X281167D01*
X271300Y117300D02*
X271567D01*
X272300D02*
X273367D01*
X274100D02*
X276167D01*
X276500D02*
X276967D01*
X280900D02*
X280967D01*
X273700Y117900D02*
X273967D01*
X274100Y117500D02*
X275167D01*
X275900D02*
X276767D01*
X273900Y117700D02*
X274967D01*
X275900D02*
X276567D01*
X274500Y117900D02*
X274967D01*
X275900D02*
X276367D01*
X280500D02*
X281967D01*
X273100Y118100D02*
X273967D01*
X274300D02*
X274967D01*
X275900D02*
X276167D01*
X280300D02*
X281767D01*
X272100Y118300D02*
X274967D01*
X275700D02*
X275967D01*
X271900Y118500D02*
X275167D01*
X275500D02*
X275767D01*
X280500D02*
X281167D01*
X271700Y118700D02*
X273567D01*
X262300Y120900D02*
X262967D01*
X231300Y124700D02*
X247367D01*
X231100Y124900D02*
X248167D01*
X230900Y125100D02*
X248967D01*
X230700Y125300D02*
X249767D01*
X230500Y125500D02*
X250767D01*
X230300Y125700D02*
X251967D01*
X230100Y125900D02*
X253167D01*
X229900Y126100D02*
X254567D01*
X229900Y126300D02*
X255967D01*
X229700Y126500D02*
X257767D01*
X229500Y126700D02*
X259967D01*
X229500Y126900D02*
X262567D01*
X214300Y123300D02*
X215167D01*
X222100D02*
X224167D01*
X233700D02*
X241567D01*
X214300Y123500D02*
X215167D01*
X222100D02*
X224167D01*
X214300Y123700D02*
X215167D01*
X223700D02*
X224367D01*
X214300Y123900D02*
X215167D01*
X223900D02*
X224367D01*
X214300Y124100D02*
X215367D01*
X223900D02*
X224367D01*
X214300Y124300D02*
X215367D01*
X223900D02*
X224367D01*
X222500Y122900D02*
X223767D01*
X220700Y123100D02*
X220967D01*
X222300D02*
X223967D01*
X220500Y123300D02*
X220967D01*
X220300Y123500D02*
X221167D01*
X220300Y123700D02*
X220967D01*
X221900D02*
X222767D01*
X220300Y123900D02*
X220767D01*
X221900D02*
X222767D01*
X220300Y124100D02*
X220767D01*
X221900D02*
X222767D01*
X220300Y124300D02*
X220767D01*
X221900D02*
X222767D01*
X214300Y124500D02*
X215367D01*
X223900D02*
X224367D01*
X214300Y124700D02*
X215367D01*
X223900D02*
X224367D01*
X214300Y124900D02*
X215367D01*
X223900D02*
X224367D01*
X214500Y125100D02*
X215367D01*
X223700D02*
X224367D01*
X214500Y125300D02*
X215367D01*
X223500D02*
X224167D01*
X214500Y125500D02*
X215367D01*
X223500D02*
X224167D01*
X214500Y125700D02*
X215367D01*
X223500D02*
X223967D01*
X214500Y125900D02*
X215367D01*
X223500D02*
X223767D01*
X214500Y126100D02*
X215367D01*
X214500Y126300D02*
X215367D01*
X214500Y126500D02*
X215367D01*
X214500Y126700D02*
X215567D01*
X214500Y126900D02*
X215567D01*
X214500Y127100D02*
X215567D01*
X214500Y127300D02*
X215567D01*
X214700Y127500D02*
X215567D01*
X214700Y127700D02*
X215567D01*
X214700Y127900D02*
X215567D01*
X232100Y124100D02*
X244967D01*
X231700Y124300D02*
X245767D01*
X231500Y124500D02*
X246567D01*
X224100Y127100D02*
X224567D01*
X222100Y127300D02*
X224567D01*
X220700Y127500D02*
X224567D01*
X220500Y127700D02*
X224567D01*
X223300Y127900D02*
X224567D01*
X223100Y128100D02*
X224167D01*
X222700Y128300D02*
X223967D01*
X222500Y128500D02*
X223767D01*
X222300Y128700D02*
X223367D01*
X221900Y128900D02*
X223167D01*
X220300Y124500D02*
X220767D01*
X221700D02*
X222567D01*
X220300Y124700D02*
X220767D01*
X221700D02*
X222567D01*
X220300Y124900D02*
X220967D01*
X221700D02*
X222567D01*
X220300Y125100D02*
X222567D01*
X220500Y125300D02*
X222567D01*
X220700Y125500D02*
X222367D01*
X220900Y125700D02*
X222167D01*
X221300Y125900D02*
X221767D01*
X220700Y128100D02*
X220967D01*
X221500Y129300D02*
X222567D01*
X268900Y132100D02*
X272767D01*
X269100Y132300D02*
X272567D01*
X269500Y132500D02*
X272167D01*
X269900Y132700D02*
X271767D01*
X228900Y135300D02*
X236767D01*
X228900Y135500D02*
X236767D01*
X228900Y135700D02*
X236967D01*
X229100Y135900D02*
X236967D01*
X237700D02*
X239167D01*
X229100Y136100D02*
X239567D01*
X229100Y136300D02*
X239967D01*
X229100Y136500D02*
X240167D01*
X244700D02*
X249367D01*
X281900Y138100D02*
X286567D01*
X282300Y137500D02*
X286967D01*
X282500Y137100D02*
X287167D01*
X282500Y137300D02*
X287167D01*
X282100Y137700D02*
X286967D01*
X282100Y137900D02*
X286767D01*
X281900Y138300D02*
X286567D01*
X282900Y136500D02*
X287567D01*
X282700Y136700D02*
X287367D01*
X292500Y136500D02*
X297167D01*
X292300Y136700D02*
X297167D01*
X282700Y136900D02*
X287367D01*
X292300D02*
X296967D01*
X292100Y137100D02*
X296967D01*
X292100Y137300D02*
X296767D01*
X291900Y137500D02*
X296767D01*
X291900Y137700D02*
X296567D01*
X291700Y137900D02*
X296367D01*
X291500Y138100D02*
X296367D01*
X291500Y138300D02*
X296167D01*
X279300Y142900D02*
X283967D01*
X288900D02*
X293567D01*
X279100Y143100D02*
X283767D01*
X288700D02*
X293367D01*
X278900Y143300D02*
X283567D01*
X288500D02*
X293367D01*
X278900Y143500D02*
X283567D01*
X288500D02*
X293167D01*
X278700Y143700D02*
X283367D01*
X288300D02*
X292967D01*
X278700Y143900D02*
X283367D01*
X288300D02*
X292967D01*
X281300Y139100D02*
X286167D01*
X281300Y139300D02*
X285967D01*
X290900D02*
X295567D01*
X281100Y139500D02*
X285767D01*
X290700D02*
X295567D01*
X281100Y139700D02*
X285767D01*
X290700D02*
X295367D01*
X280900Y139900D02*
X285567D01*
X290500D02*
X295367D01*
X280900Y140100D02*
X285567D01*
X290500D02*
X295167D01*
X297700Y143900D02*
X299167D01*
X280700Y140300D02*
X285367D01*
X290300D02*
X294967D01*
X280500Y140500D02*
X285367D01*
X290300D02*
X294967D01*
X280500Y140700D02*
X285167D01*
X290100D02*
X294767D01*
X280300Y140900D02*
X284967D01*
X289900D02*
X294767D01*
X280300Y141100D02*
X284967D01*
X289900D02*
X294567D01*
X280100Y141300D02*
X284767D01*
X289700D02*
X294367D01*
X280100Y141500D02*
X284767D01*
X289700D02*
X294367D01*
X279900Y141700D02*
X284567D01*
X289500D02*
X294167D01*
X279700Y141900D02*
X284367D01*
X289300D02*
X294167D01*
X279700Y142100D02*
X284367D01*
X289300D02*
X293967D01*
X279500Y142300D02*
X284167D01*
X289100D02*
X293967D01*
X279500Y142500D02*
X284167D01*
X289100D02*
X293767D01*
X279300Y142700D02*
X283967D01*
X288900D02*
X293567D01*
X259700Y143500D02*
X264367D01*
X259700Y143700D02*
X264167D01*
X259500Y143900D02*
X264167D01*
X284300Y103700D02*
X290967D01*
X289700Y104500D02*
X294967D01*
X293700Y105300D02*
X298367D01*
X297100Y106100D02*
X301167D01*
X266100Y101900D02*
X275567D01*
X262700Y102100D02*
X278967D01*
X274300Y102900D02*
X286167D01*
X273300Y136500D02*
X277967D01*
X273300Y136700D02*
X277767D01*
X273100Y136900D02*
X277767D01*
X273100Y137100D02*
X277567D01*
X272900Y137300D02*
X277567D01*
X272700Y137500D02*
X277367D01*
X272700Y137700D02*
X277167D01*
X272500Y137900D02*
X277167D01*
X272500Y138100D02*
X276967D01*
X272300Y138300D02*
X276967D01*
X272100Y138500D02*
X276767D01*
X272100Y138700D02*
X276767D01*
X271900Y138900D02*
X276567D01*
X271900Y139100D02*
X276367D01*
X271700Y139300D02*
X276367D01*
X271700Y139500D02*
X276167D01*
X271500Y139700D02*
X276167D01*
X271300Y139900D02*
X275967D01*
X271300Y140100D02*
X275967D01*
X261700Y140300D02*
X266167D01*
X271100D02*
X275767D01*
X261500Y140500D02*
X266167D01*
X261300Y140700D02*
X265967D01*
X261300Y140900D02*
X265967D01*
X261100Y141100D02*
X265767D01*
X261100Y141300D02*
X265567D01*
X260900Y141500D02*
X265567D01*
X260900Y141700D02*
X265367D01*
X260700Y141900D02*
X265367D01*
X260500Y142100D02*
X265167D01*
X260500Y142300D02*
X264967D01*
X260300Y142500D02*
X264967D01*
X260300Y142700D02*
X264767D01*
X260100Y142900D02*
X264767D01*
X260100Y143100D02*
X264567D01*
X259900Y143300D02*
X264567D01*
X264100Y106900D02*
X264567D01*
X266300D02*
X266767D01*
X268900D02*
X269367D01*
X236500Y107100D02*
X240167D01*
X264100D02*
X264567D01*
X266300D02*
X266767D01*
X235900Y107300D02*
X239367D01*
X264100D02*
X264567D01*
X266100D02*
X266567D01*
X235300Y107500D02*
X238767D01*
X264300D02*
X264767D01*
X266100D02*
X266567D01*
X234700Y107700D02*
X237967D01*
X281900Y119700D02*
X282567D01*
X282300Y119300D02*
X282967D01*
X282100Y119500D02*
X282767D01*
X284900D02*
X285567D01*
X284300Y119700D02*
X285567D01*
X281700Y119900D02*
X282567D01*
X283700D02*
X285767D01*
X281300Y120100D02*
X282367D01*
X283100D02*
X285967D01*
X281100Y120300D02*
X286167D01*
X280700Y120500D02*
X285967D01*
X280100Y120700D02*
X283567D01*
X280100Y120900D02*
X283167D01*
X292500Y114100D02*
X293767D01*
X292700Y114700D02*
X293367D01*
X292700Y114300D02*
X293767D01*
X292900Y114500D02*
X293767D01*
X292700Y114900D02*
X293367D01*
X294300D02*
X294367D01*
X292700Y115100D02*
X293367D01*
X294100D02*
X294767D01*
X292500Y115300D02*
X293367D01*
X293900D02*
X294767D01*
X296300D02*
X296767D01*
X292300Y115700D02*
X293167D01*
X292500Y115500D02*
X293167D01*
X293900D02*
X294567D01*
X296100D02*
X297367D01*
X293700Y115700D02*
X294567D01*
X295900D02*
X297767D01*
X291900Y115900D02*
X292967D01*
X293700D02*
X294367D01*
X295700D02*
X298167D01*
X291700Y116100D02*
X292967D01*
X293500D02*
X294167D01*
X295500D02*
X297967D01*
X292300Y120900D02*
X293367D01*
X292900Y120300D02*
X293767D01*
X292700Y120500D02*
X293567D01*
X292500Y120700D02*
X293367D01*
X295300Y116300D02*
X297767D01*
X291500D02*
X293967D01*
X291300Y116500D02*
X293767D01*
X295100D02*
X297367D01*
X291100Y116700D02*
X293767D01*
X294900D02*
X296967D01*
X291100Y116900D02*
X293567D01*
X294700D02*
X296767D01*
X290900Y117100D02*
X293567D01*
X294500D02*
X296367D01*
X294100Y117300D02*
X295967D01*
X290700D02*
X293367D01*
X290900Y117700D02*
X291567D01*
X290700Y117500D02*
X291567D01*
X292300D02*
X293367D01*
X293700D02*
X295567D01*
X292300Y117700D02*
X294967D01*
X292100Y117900D02*
X294567D01*
X291700Y118100D02*
X294167D01*
X291500Y118300D02*
X293767D01*
X291300Y118500D02*
X293367D01*
X291100Y118700D02*
X293167D01*
X291100Y118900D02*
X292767D01*
X294100D02*
X294367D01*
X284900Y116300D02*
X285567D01*
X284100Y117300D02*
X284767D01*
X284700Y116500D02*
X285567D01*
X284700Y116700D02*
X285367D01*
X284500Y116900D02*
X285167D01*
X284300Y117100D02*
X284967D01*
X283900Y117500D02*
X284567D01*
X282500Y117700D02*
X284367D01*
X282500Y117900D02*
X284167D01*
X282300Y118100D02*
X283967D01*
X283100Y118300D02*
X283767D01*
X282900Y118500D02*
X283767D01*
X281500Y113300D02*
X282367D01*
X283700D02*
X284567D01*
X287300D02*
X288367D01*
X281700Y113500D02*
X282367D01*
X283700D02*
X284367D01*
X287100D02*
X288167D01*
X270900Y113700D02*
X271167D01*
X272100D02*
X272767D01*
X281500D02*
X282367D01*
X283500D02*
X284167D01*
X286900D02*
X287967D01*
X270700Y113900D02*
X272767D01*
X281500D02*
X282367D01*
X253500Y113500D02*
X254367D01*
X257300D02*
X257967D01*
X262900D02*
X263567D01*
X244900Y113700D02*
X245967D01*
X246700D02*
X247767D01*
X249500D02*
X250567D01*
X253300D02*
X254167D01*
X257100D02*
X257967D01*
X262900D02*
X263367D01*
X244900Y113900D02*
X247367D01*
X249300D02*
X250567D01*
X253300D02*
X254367D01*
X256900D02*
X257767D01*
X266100Y105100D02*
X266567D01*
X267900D02*
X268367D01*
X270100D02*
X270567D01*
X269900Y107100D02*
X270167D01*
X265100Y113700D02*
X265567D01*
X266700D02*
X266967D01*
X264900Y113900D02*
X265567D01*
X266500D02*
X266967D01*
X256700Y114100D02*
X257767D01*
X264700D02*
X265767D01*
X266100D02*
X266967D01*
X253500Y114300D02*
X257567D01*
X264500D02*
X266967D01*
X283300Y113900D02*
X283967D01*
X286900D02*
X287767D01*
X270700Y114100D02*
X272767D01*
X275300D02*
X275767D01*
X281300D02*
X282167D01*
X283100D02*
X283767D01*
X286700D02*
X287567D01*
X270700Y114300D02*
X272767D01*
X275100D02*
X275967D01*
X281100D02*
X281767D01*
X282700D02*
X283567D01*
X286500D02*
X287367D01*
X265700Y114500D02*
X266767D01*
X281100D02*
X281767D01*
X282100D02*
X283567D01*
X286300D02*
X287167D01*
X281300Y114900D02*
X283167D01*
X286100D02*
X286967D01*
X273700Y115100D02*
X275167D01*
X276700D02*
X277367D01*
X281700D02*
X282967D01*
X283700D02*
X284967D01*
X285900D02*
X286767D01*
X272300Y115300D02*
X273167D01*
X273700D02*
X275167D01*
X276500D02*
X277367D01*
X281300D02*
X281967D01*
X282500D02*
X282967D01*
X283700D02*
X284967D01*
X244900Y114100D02*
X246767D01*
X249100D02*
X250167D01*
X253300D02*
X254967D01*
X244700Y114300D02*
X246367D01*
X248700D02*
X250167D01*
X218900Y114500D02*
X220967D01*
X244700D02*
X246167D01*
X248500D02*
X249967D01*
X218500Y114700D02*
X220567D01*
X244700D02*
X245967D01*
X248300D02*
X248767D01*
X249300D02*
X249567D01*
X218100Y114900D02*
X220167D01*
X270500Y114500D02*
X270967D01*
X272100D02*
X272767D01*
X274700D02*
X275967D01*
X256300Y114700D02*
X257367D01*
X264100D02*
X264367D01*
X264900D02*
X265367D01*
X265700D02*
X266567D01*
X270500D02*
X270967D01*
X272100D02*
X272767D01*
X274300D02*
X275767D01*
X256300Y114900D02*
X257167D01*
X263700D02*
X264367D01*
X264900D02*
X265367D01*
X274100D02*
X275367D01*
X278300Y103100D02*
X287567D01*
X280700Y103300D02*
X288767D01*
X282500Y103500D02*
X289967D01*
X250300Y103700D02*
X256967D01*
X249300Y103900D02*
X255567D01*
X248300Y104100D02*
X254167D01*
X247300Y104300D02*
X252767D01*
X264900D02*
X265967D01*
X268700D02*
X269767D01*
X272300D02*
X273367D01*
X275500D02*
X275967D01*
X280900Y114700D02*
X283367D01*
X286300D02*
X287167D01*
X285700Y115300D02*
X286567D01*
X285700Y115500D02*
X286367D01*
X285500Y115700D02*
X286167D01*
X285300Y115900D02*
X285967D01*
X285100Y116100D02*
X285767D01*
X244700Y114900D02*
X245967D01*
X248100D02*
X248567D01*
X249300D02*
X249367D01*
X217700Y115100D02*
X219767D01*
X245500D02*
X246167D01*
X247900D02*
X248167D01*
X217500Y115300D02*
X219367D01*
X245500D02*
X246167D01*
X247700D02*
X247967D01*
X217100Y115500D02*
X219167D01*
X245500D02*
X246367D01*
X247500D02*
X247767D01*
X248500D02*
X248567D01*
X265700Y114900D02*
X266367D01*
X270500D02*
X270767D01*
X272100D02*
X272967D01*
X256100Y115100D02*
X257167D01*
X263500D02*
X264167D01*
X264900D02*
X266167D01*
X270500D02*
X270967D01*
X272100D02*
X272967D01*
X256100Y115300D02*
X256967D01*
X263300D02*
X264167D01*
X264700D02*
X265967D01*
X270700D02*
X270967D01*
X255900Y115500D02*
X256967D01*
X270900Y115700D02*
X271167D01*
X272300Y115500D02*
X273167D01*
X273700D02*
X274167D01*
X274500D02*
X275167D01*
X276300D02*
X276967D01*
X281300D02*
X281767D01*
X282300D02*
X282767D01*
X283700D02*
X284767D01*
X272300Y115700D02*
X273167D01*
X273700D02*
X273967D01*
X274500D02*
X275567D01*
X283700D02*
X284567D01*
X277500Y116100D02*
X278367D01*
X280700D02*
X282167D01*
X271100Y116300D02*
X271367D01*
X272300D02*
X272567D01*
X273100D02*
X273567D01*
X274100D02*
X275167D01*
X275700D02*
X276167D01*
X277500D02*
X278367D01*
X280300D02*
X282167D01*
X271300Y116500D02*
X271567D01*
X272300D02*
X272567D01*
X273100D02*
X273367D01*
X273900D02*
X275167D01*
X263300Y115500D02*
X265767D01*
X270700D02*
X270967D01*
X248300Y115700D02*
X248567D01*
X255900D02*
X257167D01*
X257900D02*
X258967D01*
X263300D02*
X265367D01*
X247900Y115900D02*
X248367D01*
X255700D02*
X259367D01*
X263500D02*
X264367D01*
X265100D02*
X265367D01*
X247700Y116100D02*
X247967D01*
X255700D02*
X259367D01*
X267700D02*
X268167D01*
X276300Y115700D02*
X276567D01*
X277900D02*
X278367D01*
X281900D02*
X282967D01*
X270900Y115900D02*
X271167D01*
X272300D02*
X273367D01*
X273700D02*
X273767D01*
X274300D02*
X275167D01*
X276100D02*
X276567D01*
X277700D02*
X278367D01*
X271100Y116100D02*
X271367D01*
X272300D02*
X273567D01*
X274100D02*
X275167D01*
X275900D02*
X276367D01*
X216700Y115700D02*
X218767D01*
X245300D02*
X246167D01*
X247300D02*
X247567D01*
X216300Y115900D02*
X218367D01*
X244900D02*
X245967D01*
X247100D02*
X247367D01*
X216100Y116100D02*
X217967D01*
X244500D02*
X245767D01*
X246900D02*
X247167D01*
X215700Y116300D02*
X217567D01*
X244300D02*
X245567D01*
X246700D02*
X246767D01*
X215300Y116500D02*
X217167D01*
X275700D02*
X276167D01*
X277300D02*
X277767D01*
X280300D02*
X281767D01*
X271300Y116700D02*
X271567D01*
X272300D02*
X272567D01*
X273100D02*
X273367D01*
X273700D02*
X275167D01*
X275700D02*
X276367D01*
X277100D02*
X277567D01*
X271300Y116900D02*
X271567D01*
X272300D02*
X272767D01*
X273100D02*
X273367D01*
X273700D02*
X275167D01*
X271900Y104700D02*
X272367D01*
X273300D02*
X273767D01*
X275500D02*
X275967D01*
X244500Y104900D02*
X249567D01*
X264300D02*
X264767D01*
X266100D02*
X266567D01*
X268100D02*
X268567D01*
X269900D02*
X270367D01*
X271700D02*
X272167D01*
X273500D02*
X273767D01*
X275500D02*
X275967D01*
X243700Y105100D02*
X248367D01*
X264300D02*
X264767D01*
X271500D02*
X271967D01*
X273500D02*
X273967D01*
X275500D02*
X275967D01*
X267900Y105500D02*
X268367D01*
X271500D02*
X271767D01*
X275500D02*
X275967D01*
X241300Y105700D02*
X245567D01*
X264100D02*
X264567D01*
X266300D02*
X266767D01*
X267900D02*
X268367D01*
X271500D02*
X271767D01*
X272300D02*
X273167D01*
X275500D02*
X275967D01*
X240700Y105900D02*
X244767D01*
X264100D02*
X264567D01*
X266300D02*
X266767D01*
X275500D02*
X275967D01*
X267900D02*
X268367D01*
X271300D02*
X271767D01*
X272100D02*
X273567D01*
X239900Y106100D02*
X243967D01*
X264100D02*
X264567D01*
X266300D02*
X266767D01*
X267900D02*
X268367D01*
X271300D02*
X272367D01*
X239300Y106300D02*
X243167D01*
X264100D02*
X264567D01*
X266300D02*
X266767D01*
X268100D02*
X268567D01*
X269900D02*
X270367D01*
X264300Y107700D02*
X264967D01*
X265900D02*
X266567D01*
X234100Y107900D02*
X237367D01*
X264500D02*
X266367D01*
X233500Y108100D02*
X236767D01*
X264700D02*
X266167D01*
X232900Y108300D02*
X236167D01*
X265100D02*
X265767D01*
X232500Y108500D02*
X235567D01*
X231900Y108700D02*
X234967D01*
X231300Y108900D02*
X234367D01*
X230700Y109100D02*
X233767D01*
X230300Y109300D02*
X233167D01*
X229700Y109500D02*
X232567D01*
X229300Y109700D02*
X231967D01*
X228700Y109900D02*
X231567D01*
X228300Y110100D02*
X230967D01*
X227700Y110300D02*
X230367D01*
X227300Y110500D02*
X229967D01*
X226900Y110700D02*
X229367D01*
X226300Y110900D02*
X228967D01*
X225900Y111100D02*
X228367D01*
X225500Y111300D02*
X227967D01*
X224900Y111500D02*
X227367D01*
X224500Y111700D02*
X226967D01*
X224100Y111900D02*
X226567D01*
X272100Y110300D02*
X272767D01*
X272100Y110500D02*
X272767D01*
X272100Y110700D02*
X272767D01*
X272100Y110900D02*
X272767D01*
X272100Y111100D02*
X272767D01*
X272100Y111300D02*
X272767D01*
X272100Y111500D02*
X272767D01*
X272100Y111700D02*
X272767D01*
X272100Y111900D02*
X272767D01*
X264900Y112100D02*
X265567D01*
X272100D02*
X272767D01*
X264300Y112300D02*
X265567D01*
X272100D02*
X272767D01*
X264100Y112500D02*
X265567D01*
X272100D02*
X272767D01*
X246100Y112700D02*
X247967D01*
X263700D02*
X265567D01*
X272100D02*
X272767D01*
X245100Y112900D02*
X247967D01*
X263500D02*
X264367D01*
X265100D02*
X265767D01*
X272100D02*
X272767D01*
X244700Y113100D02*
X247967D01*
X254300D02*
X254767D01*
X257700D02*
X257967D01*
X263100D02*
X263967D01*
X247500Y116300D02*
X247767D01*
X255500D02*
X259167D01*
X267300D02*
X268367D01*
X248100Y116500D02*
X248167D01*
X255100D02*
X258767D01*
X263900D02*
X264167D01*
X264900D02*
X264967D01*
X265500D02*
X265967D01*
X267100D02*
X268367D01*
X247900Y116700D02*
X248367D01*
X254900D02*
X258367D01*
X263500D02*
X264167D01*
X264700D02*
X264967D01*
X260300Y102300D02*
X281167D01*
X258300Y102500D02*
X283167D01*
X256700Y102700D02*
X284567D01*
X255100Y102900D02*
X267167D01*
X253900Y103100D02*
X263167D01*
X252700Y103300D02*
X260767D01*
X251300Y103500D02*
X258767D01*
X281500Y115900D02*
X283367D01*
X283900D02*
X284367D01*
X282700Y116100D02*
X283367D01*
X283900D02*
X284167D01*
X282500Y116300D02*
X282967D01*
X282300Y116500D02*
X283167D01*
X266100Y117500D02*
X267767D01*
X271300D02*
X271567D01*
X272300D02*
X273367D01*
X266100Y117700D02*
X266967D01*
X267300D02*
X267767D01*
X271300D02*
X271567D01*
X272300D02*
X273367D01*
X265900Y117900D02*
X266767D01*
X267300D02*
X267567D01*
X271300D02*
X271367D01*
X272300D02*
X272767D01*
X273100D02*
X273367D01*
X265700Y118100D02*
X266367D01*
X253700Y118700D02*
X254167D01*
X255100D02*
X256167D01*
X245100Y118900D02*
X246567D01*
X246900D02*
X247567D01*
X248100D02*
X248567D01*
X253500D02*
X253967D01*
X254900D02*
X255967D01*
X244700Y119100D02*
X247567D01*
X248100D02*
X248567D01*
X253500D02*
X253767D01*
X254900D02*
X255967D01*
X246100Y119300D02*
X247567D01*
X248300D02*
X248567D01*
X253900Y114500D02*
X255367D01*
X256500D02*
X257367D01*
X264300D02*
X265367D01*
X264300Y118100D02*
X264967D01*
X264300Y118300D02*
X264767D01*
X264100Y118500D02*
X264767D01*
X263700Y118700D02*
X264767D01*
X263500Y118900D02*
X263967D01*
X263100Y119100D02*
X263767D01*
X264300D02*
X265167D01*
X262700Y119300D02*
X263567D01*
X264300D02*
X264967D01*
X262500Y119500D02*
X263367D01*
X253300Y119300D02*
X253767D01*
X254900D02*
X255967D01*
X246700Y119500D02*
X246967D01*
X247300D02*
X247567D01*
X253300D02*
X253567D01*
X254900D02*
X255967D01*
X246500Y119700D02*
X246967D01*
X247300D02*
X247567D01*
X253300D02*
X253567D01*
X254900D02*
X255767D01*
X242700Y119900D02*
X246967D01*
X247300D02*
X247567D01*
X253300D02*
X253567D01*
X280300Y121500D02*
X281167D01*
X280300Y121300D02*
X283367D01*
X280100Y121100D02*
X283167D01*
X281500Y121500D02*
X283567D01*
X280700Y121700D02*
X281167D01*
X281700D02*
X283967D01*
X281700Y121900D02*
X284167D01*
X281900Y122100D02*
X281967D01*
X282900D02*
X284167D01*
X283300Y122300D02*
X284167D01*
X283700Y122500D02*
X283967D01*
X277300Y130500D02*
X282567D01*
X277300Y130700D02*
X282367D01*
X277300Y130900D02*
X282367D01*
X291300Y117900D02*
X291367D01*
X291300Y119100D02*
X291567D01*
X291900D02*
X292967D01*
X293900D02*
X294367D01*
X291900Y119300D02*
X292967D01*
X293700D02*
X294167D01*
X291700Y119500D02*
X292767D01*
X293700D02*
X294167D01*
X291700Y119700D02*
X292767D01*
X293500D02*
X293967D01*
X291900Y119900D02*
X292367D01*
X293300D02*
X293967D01*
X293100Y120100D02*
X293767D01*
X292100Y121100D02*
X293167D01*
X291900Y121300D02*
X292967D01*
X291700Y121500D02*
X292967D01*
X291500Y121700D02*
X292767D01*
X291300Y121900D02*
X292767D01*
X291300Y122100D02*
X292567D01*
X291100Y122300D02*
X292567D01*
X291100Y122500D02*
X292367D01*
X290900Y122700D02*
X292367D01*
X290900Y122900D02*
X292367D01*
X291300Y123700D02*
X291967D01*
X291300Y123900D02*
X291967D01*
X291500Y124100D02*
X291767D01*
X286300Y130500D02*
X291567D01*
X286300Y130700D02*
X291567D01*
X286300Y130900D02*
X291567D01*
X295300D02*
X300567D01*
X295300Y130500D02*
X300567D01*
X295300Y130700D02*
X300567D01*
X291300Y123500D02*
X292167D01*
X290900Y123100D02*
X292167D01*
X291100Y123300D02*
X292167D01*
X270500Y119100D02*
X271567D01*
X270500Y119300D02*
X271167D01*
X272100D02*
X272567D01*
X272100Y119500D02*
X272567D01*
X272100Y119700D02*
X272567D01*
X272100Y119900D02*
X272567D01*
X271900Y120100D02*
X272567D01*
X271900Y120300D02*
X272567D01*
X264900Y121100D02*
X264967D01*
X264100Y121300D02*
X265367D01*
X263300Y121500D02*
X265567D01*
X263300Y121700D02*
X265367D01*
X263500Y121900D02*
X265367D01*
X264100Y119500D02*
X264767D01*
X262100Y119700D02*
X263167D01*
X264100D02*
X264767D01*
X261900Y119900D02*
X262967D01*
X263700D02*
X264767D01*
X261900Y120100D02*
X262967D01*
X263300D02*
X263767D01*
X264100D02*
X264767D01*
X261900Y120300D02*
X263567D01*
X264100D02*
X264767D01*
X261900Y120500D02*
X263367D01*
X264300D02*
X264767D01*
X262100Y120700D02*
X263167D01*
X220500Y127900D02*
X222767D01*
X214700Y128100D02*
X215567D01*
X214700Y128300D02*
X215567D01*
X214700Y128500D02*
X215767D01*
X214700Y128700D02*
X215767D01*
X214700Y128900D02*
X215767D01*
X214700Y129100D02*
X215767D01*
X214700Y129300D02*
X215767D01*
X214900Y129500D02*
X215767D01*
X214900Y129700D02*
X215767D01*
X214900Y129900D02*
X215767D01*
X214900Y130100D02*
X215767D01*
X214900Y130300D02*
X215967D01*
X228500D02*
X233967D01*
X228500Y130500D02*
X233967D01*
X241100D02*
X246367D01*
X228500Y130700D02*
X234167D01*
X241100D02*
X246367D01*
X228500Y130900D02*
X234167D01*
X241100D02*
X246367D01*
X228500Y131100D02*
X234367D01*
X241300D02*
X246367D01*
X228500Y131300D02*
X234367D01*
X241300D02*
X246167D01*
X228500Y131500D02*
X234567D01*
X241500D02*
X246167D01*
X273300Y121500D02*
X274567D01*
X273500Y121700D02*
X274567D01*
X273500Y121900D02*
X274567D01*
X273700Y122100D02*
X274567D01*
X274100Y122300D02*
X274567D01*
X268100Y130500D02*
X273567D01*
X268300Y130700D02*
X273367D01*
X268300Y130900D02*
X273367D01*
X268300Y131100D02*
X273367D01*
X268500Y131300D02*
X273367D01*
X268500Y131500D02*
X273167D01*
X268700Y131700D02*
X272967D01*
X268700Y131900D02*
X272967D01*
X229300Y127100D02*
X266567D01*
X250100Y130500D02*
X255567D01*
X259100D02*
X264567D01*
X250300Y130700D02*
X255367D01*
X259300D02*
X264367D01*
X250300Y130900D02*
X255367D01*
X259300D02*
X264367D01*
X250300Y131100D02*
X255367D01*
X259300D02*
X264367D01*
X250500Y131300D02*
X255167D01*
X259500D02*
X264167D01*
X250500Y131500D02*
X255167D01*
X259500D02*
X264167D01*
X228500Y131700D02*
X234567D01*
X241500D02*
X245967D01*
X228500Y131900D02*
X234767D01*
X241700D02*
X245767D01*
X228500Y132100D02*
X234967D01*
X241900D02*
X245567D01*
X228500Y132300D02*
X234967D01*
X242100D02*
X245367D01*
X221900Y132500D02*
X224967D01*
X228500D02*
X235167D01*
X242300D02*
X245167D01*
X221700Y132700D02*
X225167D01*
X228500D02*
X235167D01*
X221700Y129100D02*
X222967D01*
X223300Y129700D02*
X224767D01*
X220700Y129900D02*
X224767D01*
X220700Y130100D02*
X224767D01*
X220700Y130300D02*
X223767D01*
X215100Y131700D02*
X216167D01*
X215100Y131900D02*
X216167D01*
X215100Y132100D02*
X216167D01*
X222700D02*
X224167D01*
X215100Y132300D02*
X216167D01*
X222300D02*
X224567D01*
X215300Y132500D02*
X216167D01*
X215300Y132700D02*
X216167D01*
X262700Y138500D02*
X267367D01*
X263100Y137900D02*
X267567D01*
X262900Y138100D02*
X267567D01*
X262700Y138300D02*
X267367D01*
X262500Y138700D02*
X267167D01*
X262500Y138900D02*
X266967D01*
X262300Y139100D02*
X266967D01*
X262100Y139300D02*
X266767D01*
X262100Y139500D02*
X266767D01*
X261900Y139700D02*
X266567D01*
X261900Y139900D02*
X266367D01*
X261700Y140100D02*
X266367D01*
X250700Y131700D02*
X254967D01*
X259700D02*
X263967D01*
X250700Y131900D02*
X254967D01*
X259700D02*
X263967D01*
X250900Y132100D02*
X254767D01*
X259900D02*
X263767D01*
X251100Y132300D02*
X254567D01*
X260100D02*
X263567D01*
X251500Y132500D02*
X254167D01*
X260500D02*
X263167D01*
X251900Y132700D02*
X253767D01*
X260900D02*
X262767D01*
X228700Y134300D02*
X236167D01*
X254300Y136500D02*
X258967D01*
X263900D02*
X268367D01*
X229100Y136700D02*
X240367D01*
X244700D02*
X249167D01*
X254100D02*
X258767D01*
X263700D02*
X268367D01*
X229300Y136900D02*
X240567D01*
X244900D02*
X249167D01*
X254100D02*
X258567D01*
X263500D02*
X268167D01*
X229300Y137100D02*
X240767D01*
X244900D02*
X248967D01*
X253900D02*
X258567D01*
X263500D02*
X268167D01*
X229300Y137300D02*
X240767D01*
X245100D02*
X248767D01*
X253700D02*
X258367D01*
X263300D02*
X267967D01*
X229300Y137500D02*
X240967D01*
X245300D02*
X248767D01*
X253700D02*
X258367D01*
X263300D02*
X267767D01*
X229500Y137700D02*
X240967D01*
X245300D02*
X248567D01*
X253500D02*
X258167D01*
X263100D02*
X267767D01*
X229500Y137900D02*
X240967D01*
X245500D02*
X248567D01*
X253500D02*
X257967D01*
X229500Y138100D02*
X240967D01*
X245500D02*
X248367D01*
X253300D02*
X257967D01*
X229500Y138300D02*
X241167D01*
X245700D02*
X248167D01*
X253100D02*
X257767D01*
X229700Y138500D02*
X241167D01*
X245700D02*
X248167D01*
X253100D02*
X257767D01*
X229700Y138700D02*
X241167D01*
X245900D02*
X247967D01*
X252900D02*
X257567D01*
X229700Y138900D02*
X241167D01*
X246100D02*
X247967D01*
X252900D02*
X257567D01*
X229700Y139100D02*
X240967D01*
X246100D02*
X247767D01*
X252700D02*
X257367D01*
X229700Y139300D02*
X240967D01*
X246300D02*
X247767D01*
X252700D02*
X257167D01*
X229900Y139500D02*
X240967D01*
X246300D02*
X247567D01*
X230100Y140500D02*
X240367D01*
X246900D02*
X246967D01*
X251900D02*
X256567D01*
X230100Y140700D02*
X240167D01*
X251900D02*
X256367D01*
X230300Y140900D02*
X239967D01*
X251700D02*
X256367D01*
X230300Y141100D02*
X239967D01*
X251500D02*
X256167D01*
X230300Y141300D02*
X240167D01*
X251500D02*
X256167D01*
X230300Y141500D02*
X240367D01*
X251300D02*
X255967D01*
X252500Y139500D02*
X257167D01*
X229900Y139700D02*
X240967D01*
X246500D02*
X247367D01*
X252300D02*
X256967D01*
X229900Y139900D02*
X240767D01*
X246700D02*
X247367D01*
X252300D02*
X256967D01*
X230100Y140100D02*
X240767D01*
X246700D02*
X247167D01*
X252100D02*
X256767D01*
X230100Y140300D02*
X240567D01*
X246900D02*
X247167D01*
X252100D02*
X256767D01*
X230500Y141700D02*
X240367D01*
X251300D02*
X255967D01*
X230500Y141900D02*
X240567D01*
X251100D02*
X255767D01*
X226700Y142100D02*
X226767D01*
X230500D02*
X240567D01*
X250900D02*
X255567D01*
X226500Y142300D02*
X226767D01*
X230700D02*
X240767D01*
X250900D02*
X255567D01*
X226100Y142500D02*
X226967D01*
X230700D02*
X240767D01*
X250700D02*
X255367D01*
X224900Y143300D02*
X226167D01*
X225900Y142700D02*
X226967D01*
X230700D02*
X240967D01*
X250700D02*
X255367D01*
X225500Y142900D02*
X226767D01*
X230700D02*
X241167D01*
X250500D02*
X255167D01*
X225100Y143100D02*
X226567D01*
X230900D02*
X241167D01*
X250500D02*
X254967D01*
X230900Y143300D02*
X241367D01*
X250300D02*
X254967D01*
X224500Y143500D02*
X226167D01*
X255900Y155900D02*
X257167D01*
X255500Y155300D02*
X257567D01*
X255700Y155500D02*
X257367D01*
X255700Y155700D02*
X257167D01*
X256100Y156100D02*
X256967D01*
X256100Y156300D02*
X256967D01*
X256300Y156500D02*
X256767D01*
X256300Y156700D02*
X256567D01*
X256500Y156900D02*
X256567D01*
X262300Y155500D02*
X286167D01*
X262700Y154900D02*
X286567D01*
X262500Y155100D02*
X286367D01*
X262500Y155300D02*
X286367D01*
X262300Y155700D02*
X286167D01*
X262100Y155900D02*
X285967D01*
X261900Y156100D02*
X285767D01*
X261900Y156300D02*
X285767D01*
X261700Y156500D02*
X285567D01*
X261700Y156700D02*
X285567D01*
X261500Y156900D02*
X285367D01*
X259500Y144100D02*
X263967D01*
X259300Y144300D02*
X263967D01*
X259100Y144500D02*
X263767D01*
X259100Y144700D02*
X263567D01*
X268700D02*
X282767D01*
X287700D02*
X292567D01*
X268500Y144900D02*
X282767D01*
X287700D02*
X292367D01*
X268300Y145100D02*
X282567D01*
X287500D02*
X292167D01*
X268300Y145300D02*
X282567D01*
X287500D02*
X292167D01*
X268100Y145500D02*
X282367D01*
X267900Y145900D02*
X282167D01*
X287300Y145500D02*
X291967D01*
X268100Y145700D02*
X282367D01*
X287300D02*
X291967D01*
X287100Y145900D02*
X291767D01*
X267900Y146100D02*
X281967D01*
X286900D02*
X291567D01*
X267700Y146300D02*
X281967D01*
X286900D02*
X291567D01*
X267500Y146500D02*
X281767D01*
X286700D02*
X291367D01*
X267500Y146700D02*
X281767D01*
X258900Y144900D02*
X263567D01*
X258700Y145500D02*
X263167D01*
X258900Y145100D02*
X263367D01*
X258700Y145300D02*
X263367D01*
X258500Y145700D02*
X263167D01*
X258300Y145900D02*
X262967D01*
X258300Y146100D02*
X262767D01*
X258100Y146300D02*
X262767D01*
X258100Y146500D02*
X262567D01*
X257900Y146700D02*
X262567D01*
X257900Y146900D02*
X262367D01*
X257700Y147100D02*
X262167D01*
X257500Y147300D02*
X262167D01*
X286700Y146700D02*
X291367D01*
X267300Y147100D02*
X281367D01*
X267300Y146900D02*
X281567D01*
X286500D02*
X291167D01*
X286500Y147100D02*
X291167D01*
X267100Y147300D02*
X281367D01*
X286300D02*
X290967D01*
X266900Y147500D02*
X281167D01*
X286100D02*
X290767D01*
X266900Y147700D02*
X281167D01*
X286100D02*
X290767D01*
X266700Y147900D02*
X280967D01*
X285900D02*
X290567D01*
X266700Y148100D02*
X280967D01*
X266500Y148300D02*
X280767D01*
X285900Y148100D02*
X290567D01*
X285700Y148300D02*
X290367D01*
X266500Y148500D02*
X280567D01*
X285500D02*
X290167D01*
X266300Y148700D02*
X280567D01*
X285500D02*
X290167D01*
X285300Y148900D02*
X289967D01*
X285300Y149100D02*
X289967D01*
X285100Y149300D02*
X289767D01*
X285100Y149500D02*
X289767D01*
X257500Y147500D02*
X261967D01*
X257100Y148100D02*
X261767D01*
X257300Y147700D02*
X261967D01*
X257300Y147900D02*
X261767D01*
X257100Y148300D02*
X261567D01*
X256900Y148500D02*
X261367D01*
X256700Y148700D02*
X261367D01*
X256700Y148900D02*
X261167D01*
X256500Y149100D02*
X261167D01*
X256500Y149300D02*
X260967D01*
X256300Y149500D02*
X260767D01*
X256100Y149700D02*
X260767D01*
X256100Y149900D02*
X260567D01*
X284900Y149700D02*
X289567D01*
X284500Y150500D02*
X289167D01*
X284700Y149900D02*
X289367D01*
X284700Y150100D02*
X289367D01*
X284500Y150300D02*
X289167D01*
X284300Y150700D02*
X288967D01*
X284300Y150900D02*
X288967D01*
X284100Y151100D02*
X288767D01*
X283900Y151300D02*
X288567D01*
X283900Y151500D02*
X288567D01*
X283700Y151700D02*
X288367D01*
X283700Y151900D02*
X288367D01*
X283500Y152100D02*
X288167D01*
X255900Y150100D02*
X260567D01*
X255700Y150700D02*
X260167D01*
X255900Y150300D02*
X260367D01*
X255700Y150500D02*
X260367D01*
X255500Y150900D02*
X259967D01*
X255300Y151100D02*
X259967D01*
X255300Y151300D02*
X259767D01*
X255100Y151500D02*
X259767D01*
X255100Y151700D02*
X259567D01*
X254900Y151900D02*
X259367D01*
X254900Y152100D02*
X259367D01*
X254700Y152300D02*
X259167D01*
X254500Y152500D02*
X259167D01*
X283500Y152300D02*
X287967D01*
X282900Y152900D02*
X287767D01*
X283300Y152500D02*
X287967D01*
X283100Y152700D02*
X287767D01*
X263700Y153100D02*
X287567D01*
X263500Y153300D02*
X287567D01*
X263500Y153500D02*
X287367D01*
X263300Y153700D02*
X287167D01*
X263300Y153900D02*
X287167D01*
X263100Y154100D02*
X286967D01*
X263100Y154300D02*
X286967D01*
X262900Y154500D02*
X286767D01*
X262700Y154700D02*
X286567D01*
X254500Y152700D02*
X258967D01*
X254300Y153300D02*
X258567D01*
X254300Y152900D02*
X258967D01*
X254300Y153100D02*
X258767D01*
X254500Y153500D02*
X258567D01*
X254700Y153700D02*
X258367D01*
X254700Y153900D02*
X258367D01*
X254900Y154100D02*
X258167D01*
X254900Y154300D02*
X257967D01*
X255100Y154500D02*
X257967D01*
X255100Y154700D02*
X257767D01*
X255300Y154900D02*
X257767D01*
X255500Y155100D02*
X257567D01*
X264700Y171300D02*
X267367D01*
X264500Y170700D02*
X267767D01*
X264500Y170900D02*
X267567D01*
X264700Y171100D02*
X267567D01*
X264900Y171500D02*
X267367D01*
X265100Y171700D02*
X267167D01*
X265100Y171900D02*
X266967D01*
X265300Y172100D02*
X266967D01*
X265300Y172300D02*
X266767D01*
X265500Y172500D02*
X266767D01*
X265500Y172700D02*
X266567D01*
X265700Y172900D02*
X266567D01*
X265900Y173100D02*
X266367D01*
X265900Y173300D02*
X266167D01*
X266100Y173500D02*
X266167D01*
X264700Y168100D02*
X269167D01*
X264300Y168700D02*
X268967D01*
X264500Y168300D02*
X269167D01*
X264300Y168500D02*
X268967D01*
X264100Y168900D02*
X268767D01*
X264100Y169100D02*
X268767D01*
X263900Y169300D02*
X268567D01*
X263700Y169500D02*
X268367D01*
X263900Y169700D02*
X268367D01*
X263900Y169900D02*
X268167D01*
X264100Y170100D02*
X268167D01*
X264100Y170300D02*
X267967D01*
X264300Y170500D02*
X267967D01*
X270100Y180500D02*
X271567D01*
X269700Y179900D02*
X271967D01*
X269900Y180100D02*
X271967D01*
X269900Y180300D02*
X271767D01*
X270100Y180700D02*
X271567D01*
X270300Y180900D02*
X271367D01*
X270500Y181100D02*
X271367D01*
X270500Y181300D02*
X271167D01*
X270700Y181500D02*
X270967D01*
X270700Y181700D02*
X270967D01*
X282900Y172700D02*
X296567D01*
X282300Y173700D02*
X295967D01*
X282700Y172900D02*
X296567D01*
X282700Y173100D02*
X296367D01*
X282500Y173300D02*
X296167D01*
X282500Y173500D02*
X296167D01*
X282100Y173900D02*
X295767D01*
X282100Y174100D02*
X295767D01*
X281900Y174300D02*
X295567D01*
X281900Y174500D02*
X295367D01*
X281700Y174700D02*
X295167D01*
X281700Y174900D02*
X295167D01*
X281500Y175100D02*
X294967D01*
X297100Y180700D02*
X298367D01*
X296500Y180300D02*
X297767D01*
X296900Y180500D02*
X298167D01*
X299700D02*
X299967D01*
X299700Y180700D02*
X300167D01*
X297300Y180900D02*
X298567D01*
X299500D02*
X300167D01*
X297500Y181100D02*
X298767D01*
X299300D02*
X299967D01*
X297900Y181300D02*
X299967D01*
X298100Y181500D02*
X299767D01*
X298300Y181700D02*
X299567D01*
X298500Y181900D02*
X299367D01*
X300100Y176700D02*
X301167D01*
X277900Y181500D02*
X289967D01*
X278100Y180900D02*
X290567D01*
X278100Y181100D02*
X290367D01*
X277900Y181300D02*
X290167D01*
X277700Y181700D02*
X289767D01*
X277700Y181900D02*
X289767D01*
X269300Y176500D02*
X273967D01*
X269300Y176700D02*
X273767D01*
X277900Y176500D02*
X293967D01*
X277700Y176700D02*
X293767D01*
X269100Y176900D02*
X273767D01*
X277700D02*
X293567D01*
X268900Y177100D02*
X273567D01*
X277700D02*
X293567D01*
X277500Y177300D02*
X293367D01*
X277500Y177500D02*
X293167D01*
X277500Y177700D02*
X293167D01*
X277500Y177900D02*
X292967D01*
X277500Y178100D02*
X292767D01*
X298700Y176500D02*
X299367D01*
X297700Y177300D02*
X297767D01*
X298700Y176700D02*
X299567D01*
X298900Y176900D02*
X300967D01*
X298900Y177100D02*
X300767D01*
X299100Y177300D02*
X300567D01*
X297700Y177500D02*
X297967D01*
X299500D02*
X300167D01*
X297500Y177700D02*
X298367D01*
X297300Y177900D02*
X298567D01*
X297700Y178100D02*
X298767D01*
X297900Y178300D02*
X299167D01*
X298100Y178500D02*
X299367D01*
X268900Y177300D02*
X273567D01*
X268700Y178100D02*
X272967D01*
X268700Y177500D02*
X273367D01*
X268700Y177700D02*
X273367D01*
X268700Y177900D02*
X273167D01*
X268900Y178300D02*
X272967D01*
X268900Y178500D02*
X272767D01*
X269100Y178700D02*
X272767D01*
X269100Y178900D02*
X272567D01*
X269300Y179100D02*
X272367D01*
X269300Y179300D02*
X272367D01*
X269500Y179500D02*
X272167D01*
X269700Y179700D02*
X272167D01*
X298500Y178700D02*
X299567D01*
X296300Y179300D02*
X296567D01*
X298700Y178900D02*
X299967D01*
X298900Y179100D02*
X300167D01*
X299300Y179300D02*
X300367D01*
X296100Y179500D02*
X296767D01*
X299500D02*
X300767D01*
X295900Y179700D02*
X296967D01*
X299700D02*
X300967D01*
X296100Y179900D02*
X297367D01*
X300100D02*
X300967D01*
X296300Y180100D02*
X297567D01*
X300300D02*
X300767D01*
X277500Y178300D02*
X292567D01*
X277700Y178900D02*
X292167D01*
X277500Y178500D02*
X292367D01*
X277500Y178700D02*
X292367D01*
X277700Y179100D02*
X291967D01*
X277900Y179300D02*
X291767D01*
X277900Y179500D02*
X291567D01*
X278100Y179700D02*
X291567D01*
X278300Y179900D02*
X291367D01*
X278500Y180100D02*
X291167D01*
X278500Y180300D02*
X290967D01*
X278500Y180500D02*
X290767D01*
X278300Y180700D02*
X290767D01*
X234900Y181900D02*
X236167D01*
X234500Y181300D02*
X235567D01*
X234500Y181500D02*
X235767D01*
X234700Y181700D02*
X235967D01*
X250100Y180100D02*
X262767D01*
X249700Y179500D02*
X263367D01*
X249900Y179700D02*
X263167D01*
X250100Y179900D02*
X262967D01*
X250300Y180300D02*
X262767D01*
X250500Y180500D02*
X262767D01*
X250700Y180700D02*
X262967D01*
X250900Y180900D02*
X263167D01*
X251100Y181100D02*
X263167D01*
X251100Y181300D02*
X263367D01*
X251300Y181500D02*
X263367D01*
X251500Y181700D02*
X263567D01*
X251700Y181900D02*
X263567D01*
X242900Y181100D02*
X243567D01*
X243100Y180700D02*
X243167D01*
X244700D02*
X245567D01*
X242900Y180900D02*
X243367D01*
X244900D02*
X245567D01*
X245100Y181100D02*
X245767D01*
X243100Y181300D02*
X243767D01*
X244900D02*
X245967D01*
X241300Y181500D02*
X241567D01*
X243100D02*
X243767D01*
X244700D02*
X245767D01*
X241100Y181700D02*
X241767D01*
X243300D02*
X243967D01*
X244300D02*
X245567D01*
X241300Y181900D02*
X241967D01*
X243500D02*
X245167D01*
X239300Y179300D02*
X242167D01*
X239700Y179700D02*
X241567D01*
X244300Y179300D02*
X244367D01*
X239500Y179500D02*
X241967D01*
X244100D02*
X244567D01*
X244100Y179700D02*
X244767D01*
X240100Y179900D02*
X240967D01*
X244100D02*
X244967D01*
X244300Y180100D02*
X244967D01*
X244500Y180300D02*
X245167D01*
X244700Y180500D02*
X245367D01*
X232700Y178700D02*
X233967D01*
X233100Y179300D02*
X234367D01*
X232900Y178900D02*
X233967D01*
X232900Y179100D02*
X234167D01*
X233300Y179500D02*
X234367D01*
X233300Y179700D02*
X234567D01*
X233500Y179900D02*
X234767D01*
X233700Y180100D02*
X234767D01*
X233700Y180300D02*
X234967D01*
X233900Y180500D02*
X235167D01*
X234100Y180700D02*
X235167D01*
X234100Y180900D02*
X235367D01*
X234300Y181100D02*
X235567D01*
X281500Y138900D02*
X286167D01*
X281700Y138500D02*
X286367D01*
X291300D02*
X296167D01*
X281700Y138700D02*
X286367D01*
X291300D02*
X295967D01*
X291100Y138900D02*
X295767D01*
X291100Y139100D02*
X295767D01*
X278300Y144500D02*
X282967D01*
X278500Y144100D02*
X283167D01*
X288100D02*
X292767D01*
X278500Y144300D02*
X283167D01*
X288100D02*
X292767D01*
X287900Y144500D02*
X292567D01*
X242700Y132700D02*
X244767D01*
X224300Y132900D02*
X225167D01*
X228500D02*
X235367D01*
X224700Y133100D02*
X225367D01*
X228500D02*
X235367D01*
X224700Y133300D02*
X225367D01*
X228500D02*
X235567D01*
X224900Y133500D02*
X225367D01*
X228700D02*
X235767D01*
X224900Y133700D02*
X225367D01*
X228700D02*
X235767D01*
X224900Y133900D02*
X225367D01*
X228700D02*
X235967D01*
X224700Y134100D02*
X225367D01*
X228700D02*
X235967D01*
X224700Y134300D02*
X225367D01*
X224300Y134500D02*
X225167D01*
X221500Y134700D02*
X225167D01*
X221500Y134900D02*
X224967D01*
X221700Y135100D02*
X224767D01*
X221900Y135300D02*
X224367D01*
X222300Y135500D02*
X223967D01*
X215900Y136500D02*
X216967D01*
X215900Y136700D02*
X216967D01*
X225500D02*
X225767D01*
X215900Y136900D02*
X216967D01*
X224300D02*
X225967D01*
X215900Y137100D02*
X216967D01*
X223100D02*
X225967D01*
X216100Y137300D02*
X216967D01*
X221900D02*
X225967D01*
X216100Y137500D02*
X216967D01*
X221900D02*
X225367D01*
X216100Y137700D02*
X217167D01*
X221900D02*
X224167D01*
X216100Y137900D02*
X217167D01*
X221900D02*
X222967D01*
X216100Y138100D02*
X217167D01*
X216300Y138300D02*
X217167D01*
X228700Y134500D02*
X236167D01*
X228700Y134700D02*
X236367D01*
X228900Y134900D02*
X236567D01*
X228900Y135100D02*
X236567D01*
X216500Y139500D02*
X217567D01*
X222100D02*
X222767D01*
X216500Y139700D02*
X217567D01*
X222100D02*
X222767D01*
X216500Y139900D02*
X217567D01*
X222300D02*
X222767D01*
X225500D02*
X226367D01*
X216700Y140100D02*
X217567D01*
X222300D02*
X222767D01*
X224300D02*
X226367D01*
X216700Y140300D02*
X217567D01*
X222300D02*
X222967D01*
X223300D02*
X226367D01*
X216700Y140500D02*
X217767D01*
X222300D02*
X226367D01*
X216700Y140700D02*
X217767D01*
X222300D02*
X225567D01*
X216700Y140900D02*
X217767D01*
X222500D02*
X224567D01*
X216900Y141100D02*
X217767D01*
X222500D02*
X223567D01*
X216900Y141300D02*
X217967D01*
X222500D02*
X222967D01*
X216900Y141500D02*
X217967D01*
X222500D02*
X223167D01*
X216900Y141700D02*
X217967D01*
X222500D02*
X223167D01*
X217100Y141900D02*
X217967D01*
X222700D02*
X223167D01*
X217100Y142100D02*
X218167D01*
X222700D02*
X223167D01*
X217100Y142300D02*
X218167D01*
X222700D02*
X223167D01*
X217100Y142500D02*
X218167D01*
X217100Y142700D02*
X218167D01*
X230900Y143500D02*
X241367D01*
X250100D02*
X254767D01*
X224100Y143700D02*
X226167D01*
X231100D02*
X241567D01*
X250100D02*
X254767D01*
X217500Y143900D02*
X218567D01*
X223900D02*
X225367D01*
X225700D02*
X226167D01*
X231100D02*
X241567D01*
X242100D02*
X243967D01*
X249900D02*
X254567D01*
X217500Y144100D02*
X218567D01*
X223500D02*
X224967D01*
X217700Y144300D02*
X218567D01*
X225700Y144100D02*
X226367D01*
X223300Y144300D02*
X224567D01*
X225700D02*
X226367D01*
X217700Y144500D02*
X218767D01*
X223100D02*
X224367D01*
X225700D02*
X226367D01*
X223300Y144900D02*
X226567D01*
X223300Y145100D02*
X227567D01*
X223700Y145300D02*
X227567D01*
X225900Y145500D02*
X227567D01*
X249900Y144100D02*
X254567D01*
X231100D02*
X244367D01*
X231300Y144300D02*
X244567D01*
X249700D02*
X254367D01*
X231300Y144500D02*
X244767D01*
X249700D02*
X254167D01*
X231300Y144700D02*
X244967D01*
X249500D02*
X254167D01*
X231500Y144900D02*
X245167D01*
X249500D02*
X253967D01*
X231500Y145100D02*
X245367D01*
X249700D02*
X253967D01*
X231500Y145300D02*
X245367D01*
X250500Y146500D02*
X253167D01*
X231700Y145700D02*
X245567D01*
X249700Y145300D02*
X253767D01*
X231700Y145500D02*
X245567D01*
X249900D02*
X253767D01*
X249900Y145700D02*
X253567D01*
X231700Y145900D02*
X245567D01*
X250100D02*
X253367D01*
X231900Y146100D02*
X245567D01*
X250100D02*
X253367D01*
X231900Y146300D02*
X245567D01*
X250300D02*
X253167D01*
X231900Y146500D02*
X245767D01*
X251100Y147500D02*
X252567D01*
X250500Y146700D02*
X252967D01*
X250700Y146900D02*
X252767D01*
X250700Y147100D02*
X252767D01*
X250900Y147300D02*
X252567D01*
X251100Y147700D02*
X252367D01*
X251300Y147900D02*
X252367D01*
X251300Y148100D02*
X252167D01*
X251500Y148300D02*
X251967D01*
X251700Y148500D02*
X251967D01*
X251700Y148700D02*
X251767D01*
X232100Y146700D02*
X245567D01*
X232100Y146900D02*
X245567D01*
X232100Y147100D02*
X245567D01*
X232300Y147300D02*
X245567D01*
X232300Y147500D02*
X245567D01*
X232300Y147700D02*
X245367D01*
X232500Y147900D02*
X245367D01*
X232500Y148100D02*
X245167D01*
X232500Y148300D02*
X244967D01*
X232700Y148500D02*
X244767D01*
X232700Y148700D02*
X244567D01*
X232700Y148900D02*
X244567D01*
X232900Y149100D02*
X244767D01*
X226700Y146900D02*
X227367D01*
X227900Y148300D02*
X228767D01*
X226700Y147100D02*
X227967D01*
X226700Y147300D02*
X228167D01*
X226900Y147500D02*
X228367D01*
X227500Y147700D02*
X228567D01*
X227900Y147900D02*
X228567D01*
X227900Y148100D02*
X228567D01*
X227900Y148500D02*
X228767D01*
X227900Y148700D02*
X228767D01*
X227700Y148900D02*
X228567D01*
X227300Y149100D02*
X228567D01*
X226900Y149300D02*
X228367D01*
X293100Y151700D02*
X294767D01*
X225900Y149500D02*
X228167D01*
X225300Y150100D02*
X227367D01*
X224700Y149700D02*
X227967D01*
X224900Y149900D02*
X227767D01*
X225700Y150300D02*
X226567D01*
X232900Y149300D02*
X244767D01*
X233100Y149900D02*
X245167D01*
X233100Y149500D02*
X244967D01*
X233100Y149700D02*
X244967D01*
X233300Y150100D02*
X245167D01*
X233300Y150300D02*
X245367D01*
X233300Y150500D02*
X245367D01*
X233500Y150700D02*
X245567D01*
X233500Y150900D02*
X245767D01*
X233700Y151100D02*
X245767D01*
X233700Y151300D02*
X245967D01*
X233700Y151500D02*
X245967D01*
X233900Y151700D02*
X246167D01*
X228900Y151100D02*
X229367D01*
X228300Y151300D02*
X229367D01*
X227700Y151500D02*
X229367D01*
X227100Y151700D02*
X229367D01*
X226700Y151900D02*
X228967D01*
X226100Y152100D02*
X228367D01*
X225500Y152300D02*
X227767D01*
X225500Y152500D02*
X227167D01*
X225500Y152700D02*
X226567D01*
X246700Y151700D02*
X248367D01*
X234100Y152300D02*
X249367D01*
X233900Y151900D02*
X248767D01*
X234100Y152100D02*
X248967D01*
X234100Y152500D02*
X249567D01*
X234300Y152700D02*
X249567D01*
X234300Y152900D02*
X249767D01*
X234500Y153100D02*
X249967D01*
X234500Y153300D02*
X249967D01*
X234500Y153500D02*
X249967D01*
X234700Y153700D02*
X250167D01*
X234700Y153900D02*
X250167D01*
X234900Y154100D02*
X250167D01*
X229900Y153300D02*
X229967D01*
X228900Y153700D02*
X230167D01*
X229500Y153500D02*
X230167D01*
X228500Y153900D02*
X230167D01*
X227900Y154100D02*
X230167D01*
X227500Y154300D02*
X229967D01*
X229100Y154500D02*
X229767D01*
X228900Y154700D02*
X229767D01*
X226900Y154500D02*
X228767D01*
X226500Y154700D02*
X228167D01*
X226300Y154900D02*
X227767D01*
X228700D02*
X229567D01*
X226300Y155100D02*
X227167D01*
X228700D02*
X229367D01*
X226500Y155300D02*
X226767D01*
X228500D02*
X229167D01*
X234900Y154300D02*
X250167D01*
X235100Y154900D02*
X250167D01*
X234900Y154500D02*
X250167D01*
X235100Y154700D02*
X250167D01*
X235300Y155100D02*
X249967D01*
X235300Y155300D02*
X249967D01*
X235500Y155500D02*
X249967D01*
X235500Y155700D02*
X249767D01*
X235500Y155900D02*
X249567D01*
X235700Y156100D02*
X249567D01*
X235700Y156300D02*
X249367D01*
X235900Y156500D02*
X249167D01*
X235900Y156700D02*
X248967D01*
X228300Y155500D02*
X229167D01*
X227700Y156300D02*
X228567D01*
X228100Y155700D02*
X228967D01*
X230900D02*
X230967D01*
X227900Y155900D02*
X228767D01*
X230300D02*
X231167D01*
X227900Y156100D02*
X228567D01*
X229900D02*
X231167D01*
X229300Y156300D02*
X230967D01*
X227500Y156500D02*
X228367D01*
X228900D02*
X230567D01*
X227300Y156700D02*
X229967D01*
X227300Y156900D02*
X229567D01*
X227100Y157100D02*
X228967D01*
X227500Y157700D02*
X227567D01*
X227300Y157300D02*
X228567D01*
X227300Y157500D02*
X227967D01*
X230700Y158300D02*
X231967D01*
X230300Y158500D02*
X232167D01*
X229900Y158700D02*
X232367D01*
X229300Y158900D02*
X230567D01*
X231900D02*
X232567D01*
X228900Y159100D02*
X230167D01*
X231900D02*
X232567D01*
X232100Y159300D02*
X232567D01*
X232100Y159500D02*
X232767D01*
X236100Y156900D02*
X249167D01*
X236300Y157500D02*
X249567D01*
X236100Y157100D02*
X249367D01*
X236300Y157300D02*
X249367D01*
X236300Y157700D02*
X249567D01*
X236500Y157900D02*
X249767D01*
X236500Y158100D02*
X249767D01*
X236700Y158300D02*
X249967D01*
X236700Y158500D02*
X250167D01*
X236900Y158700D02*
X250167D01*
X236900Y158900D02*
X250367D01*
X237100Y159100D02*
X250367D01*
X237100Y159300D02*
X250567D01*
X228300D02*
X229767D01*
X228300Y159700D02*
X228967D01*
X228300Y159500D02*
X229367D01*
X232100Y159700D02*
X232767D01*
X228500Y159900D02*
X228567D01*
X231900D02*
X232767D01*
X231700Y160100D02*
X232767D01*
X231300Y160300D02*
X232567D01*
X230900Y160500D02*
X232367D01*
X230300Y160700D02*
X232167D01*
X229900Y160900D02*
X231767D01*
X229500Y161100D02*
X231367D01*
X229100Y161300D02*
X230967D01*
X237300Y159500D02*
X250567D01*
X237500Y159900D02*
X253567D01*
X251300Y159500D02*
X252567D01*
X237300Y159700D02*
X253167D01*
X237500Y160100D02*
X253767D01*
X237700Y160300D02*
X253967D01*
X237700Y160500D02*
X254167D01*
X237900Y160700D02*
X254367D01*
X237900Y160900D02*
X254367D01*
X238100Y161100D02*
X254567D01*
X238100Y161300D02*
X254567D01*
X238300Y161500D02*
X254567D01*
X238300Y161700D02*
X254767D01*
X229100Y161500D02*
X230367D01*
X229300Y161900D02*
X229567D01*
X229300Y161700D02*
X229967D01*
X233500Y161900D02*
X233767D01*
X233100Y162100D02*
X233967D01*
X232900Y162300D02*
X234167D01*
X232500Y162500D02*
X234167D01*
X232100Y162700D02*
X233767D01*
X231700Y162900D02*
X233367D01*
X231300Y163100D02*
X232967D01*
X230900Y163300D02*
X232567D01*
X259100Y161500D02*
X263567D01*
X268500D02*
X273167D01*
X278100D02*
X282767D01*
X268300Y161700D02*
X272967D01*
X277900D02*
X282567D01*
X268300Y161900D02*
X272767D01*
X277700D02*
X282567D01*
X277700Y162100D02*
X282367D01*
X277500Y162300D02*
X282167D01*
X277500Y162500D02*
X282167D01*
X277300Y162700D02*
X281967D01*
X277300Y162900D02*
X281967D01*
X261100Y164900D02*
X261567D01*
X260700Y164300D02*
X261967D01*
X260900Y164500D02*
X261767D01*
X260900Y164700D02*
X261567D01*
X261100Y165100D02*
X261367D01*
X261300Y165300D02*
X261367D01*
X276700Y163900D02*
X281367D01*
X277100Y163100D02*
X281767D01*
X276900Y163300D02*
X281767D01*
X276900Y163500D02*
X281567D01*
X276700Y163700D02*
X281367D01*
X276500Y164100D02*
X281167D01*
X276500Y164300D02*
X281167D01*
X276300Y164500D02*
X280967D01*
X276100Y164700D02*
X280767D01*
X276100Y164900D02*
X280767D01*
X275900Y165100D02*
X280567D01*
X275900Y165300D02*
X280567D01*
X258900Y161300D02*
X263567D01*
X268500D02*
X273167D01*
X278100D02*
X282767D01*
X259300Y161700D02*
X263367D01*
X259700Y162500D02*
X262967D01*
X259500Y162100D02*
X263167D01*
X259300Y161900D02*
X263367D01*
X259500Y162300D02*
X262967D01*
X259700Y162700D02*
X262767D01*
X259900Y162900D02*
X262767D01*
X260100Y163100D02*
X262567D01*
X260100Y163300D02*
X262367D01*
X260300Y163500D02*
X262367D01*
X260300Y163700D02*
X262167D01*
X260500Y163900D02*
X262167D01*
X260500Y164100D02*
X261967D01*
X268100Y162100D02*
X272767D01*
X267700Y162900D02*
X272367D01*
X267900Y162300D02*
X272567D01*
X267900Y162500D02*
X272567D01*
X267700Y162700D02*
X272367D01*
X267500Y163100D02*
X272167D01*
X267500Y163300D02*
X271967D01*
X267300Y163500D02*
X271967D01*
X267100Y163700D02*
X271767D01*
X267100Y163900D02*
X271767D01*
X266900Y164100D02*
X271567D01*
X266900Y164300D02*
X271367D01*
X266700Y164500D02*
X271367D01*
X266500Y164700D02*
X271167D01*
X266300Y165300D02*
X270967D01*
X266500Y164900D02*
X271167D01*
X266300Y165100D02*
X270967D01*
X287100Y165300D02*
X301167D01*
X287100Y165500D02*
X300967D01*
X286900Y165700D02*
X300967D01*
X286900Y165900D02*
X300767D01*
X286700Y166100D02*
X300767D01*
X286700Y166300D02*
X300567D01*
X286500Y166500D02*
X300367D01*
X286300Y166700D02*
X300367D01*
X286300Y166900D02*
X300167D01*
X266100Y165500D02*
X270767D01*
X265700Y166100D02*
X270367D01*
X266100Y165700D02*
X270567D01*
X265900Y165900D02*
X270567D01*
X265700Y166300D02*
X270367D01*
X265500Y166500D02*
X270167D01*
X265500Y166700D02*
X270167D01*
X265300Y166900D02*
X269967D01*
X265100Y167100D02*
X269767D01*
X265100Y167300D02*
X269767D01*
X264900Y167500D02*
X269567D01*
X264900Y167700D02*
X269567D01*
X264700Y167900D02*
X269367D01*
X275700Y165500D02*
X280367D01*
X275100Y166500D02*
X279767D01*
X275500Y165700D02*
X280367D01*
X275500Y165900D02*
X280167D01*
X275300Y166100D02*
X279967D01*
X275300Y166300D02*
X279967D01*
X275100Y166700D02*
X279767D01*
X274900Y166900D02*
X279567D01*
X274700Y167100D02*
X279367D01*
X274700Y167300D02*
X279367D01*
X274500Y167500D02*
X279167D01*
X274500Y167700D02*
X279167D01*
X274300Y167900D02*
X278967D01*
X238500Y161900D02*
X254767D01*
X238700Y162500D02*
X254767D01*
X238500Y162100D02*
X254767D01*
X238700Y162300D02*
X254767D01*
X238900Y162700D02*
X254767D01*
X238900Y162900D02*
X254567D01*
X239100Y163100D02*
X254567D01*
X239100Y163300D02*
X254567D01*
X239300Y163500D02*
X254367D01*
X239300Y163700D02*
X254367D01*
X239500Y163900D02*
X254167D01*
X239500Y164100D02*
X253967D01*
X239700Y164300D02*
X253767D01*
X230500Y163500D02*
X232167D01*
X230300Y163900D02*
X231367D01*
X234300Y163500D02*
X234767D01*
X230300Y163700D02*
X231767D01*
X233300D02*
X234767D01*
X232100Y163900D02*
X234767D01*
X230500Y164100D02*
X234567D01*
X230500Y164300D02*
X234367D01*
X230700Y164500D02*
X231967D01*
X233300D02*
X234167D01*
X230700Y164700D02*
X230767D01*
X233100D02*
X233967D01*
X235300Y164900D02*
X235367D01*
X232500Y165300D02*
X233367D01*
X232900Y164900D02*
X233767D01*
X232700Y165100D02*
X233567D01*
X234900D02*
X235567D01*
X234500Y165300D02*
X235567D01*
X232300Y165500D02*
X233167D01*
X234100D02*
X235567D01*
X232100Y165700D02*
X232967D01*
X233700D02*
X235167D01*
X231900Y165900D02*
X232767D01*
X233300D02*
X234767D01*
X231700Y166100D02*
X232567D01*
X239900Y164500D02*
X253567D01*
X240100Y165100D02*
X253967D01*
X239900Y164700D02*
X253567D01*
X240100Y164900D02*
X253767D01*
X240300Y165300D02*
X253967D01*
X240300Y165500D02*
X254167D01*
X240500Y165700D02*
X254167D01*
X240500Y165900D02*
X254367D01*
X240700Y166100D02*
X254567D01*
X240900Y166300D02*
X254567D01*
X240900Y166500D02*
X254767D01*
X241100Y166700D02*
X254767D01*
X241100Y166900D02*
X254967D01*
X225300Y165700D02*
X226567D01*
X225500Y165900D02*
X226567D01*
X225500Y166100D02*
X226767D01*
X225700Y166300D02*
X226767D01*
X225700Y166500D02*
X226767D01*
X225900Y166700D02*
X226967D01*
X225900Y166900D02*
X227167D01*
X226100Y167100D02*
X227167D01*
X226100Y167300D02*
X227167D01*
X226300Y167500D02*
X227367D01*
X226300Y167700D02*
X227367D01*
X226500Y167900D02*
X227567D01*
X226500Y168100D02*
X227767D01*
X232900Y166100D02*
X234367D01*
X236100Y167100D02*
X236567D01*
X231500Y166300D02*
X233967D01*
X231700Y166500D02*
X233567D01*
X231700Y166700D02*
X233167D01*
X231900Y166900D02*
X232767D01*
X231900Y167100D02*
X232367D01*
X235900Y167300D02*
X236767D01*
X235500Y167500D02*
X236767D01*
X235100Y167700D02*
X236567D01*
X234700Y167900D02*
X236167D01*
X234500Y168100D02*
X235767D01*
X234100Y168300D02*
X235567D01*
X241300Y167100D02*
X254967D01*
X241500Y167500D02*
X255367D01*
X241300Y167300D02*
X255167D01*
X256300D02*
X256767D01*
X255700Y167500D02*
X257567D01*
X241700Y167700D02*
X257967D01*
X241700Y167900D02*
X258167D01*
X241900Y168100D02*
X258567D01*
X241900Y168300D02*
X258567D01*
X242100Y168500D02*
X258767D01*
X242300Y168700D02*
X258967D01*
X242300Y168900D02*
X258967D01*
X242500Y169100D02*
X259167D01*
X233700Y168500D02*
X235167D01*
X233100Y168900D02*
X234567D01*
X233300Y168700D02*
X234767D01*
X236500D02*
X237567D01*
X235700Y168900D02*
X237567D01*
X233100Y169100D02*
X234167D01*
X234700D02*
X237367D01*
X233100Y169300D02*
X237167D01*
X233300Y169500D02*
X235767D01*
X236100D02*
X236967D01*
X233300Y169700D02*
X234767D01*
X236100D02*
X236767D01*
X233500Y169900D02*
X233767D01*
X226700Y168300D02*
X227767D01*
X226900Y168900D02*
X228167D01*
X226700Y168500D02*
X227967D01*
X226900Y168700D02*
X227967D01*
X227100Y169100D02*
X228167D01*
X227100Y169300D02*
X228367D01*
X227300Y169500D02*
X228367D01*
X227300Y169700D02*
X228567D01*
X227500Y169900D02*
X228567D01*
X227700Y170100D02*
X228767D01*
X227700Y170300D02*
X228767D01*
X227900Y170500D02*
X228967D01*
X227900Y170700D02*
X228967D01*
X235900Y169900D02*
X236767D01*
X235500Y170300D02*
X236367D01*
X235700Y170100D02*
X236567D01*
X237900D02*
X238367D01*
X237500Y170300D02*
X238367D01*
X235300Y170500D02*
X236167D01*
X237300D02*
X238367D01*
X235100Y170700D02*
X235967D01*
X236900D02*
X237967D01*
X234900Y170900D02*
X235767D01*
X236500D02*
X237567D01*
X234700Y171100D02*
X235567D01*
X236100D02*
X237167D01*
X242500Y169300D02*
X259167D01*
X242900Y169900D02*
X259367D01*
X242700Y169500D02*
X259167D01*
X242900Y169700D02*
X259167D01*
X243100Y170100D02*
X259367D01*
X243100Y170300D02*
X259367D01*
X243300Y170500D02*
X259167D01*
X243500Y170700D02*
X259167D01*
X243500Y170900D02*
X259167D01*
X243700Y171100D02*
X259167D01*
X243900Y171300D02*
X258967D01*
X243900Y171500D02*
X258967D01*
X244100Y171700D02*
X258767D01*
X278700Y175700D02*
X294567D01*
X279500Y175300D02*
X280967D01*
X281300D02*
X294767D01*
X278900Y175500D02*
X294767D01*
X278300Y175900D02*
X294367D01*
X278300Y176100D02*
X294167D01*
X278100Y176300D02*
X294167D01*
X270900Y173900D02*
X275567D01*
X271100Y173300D02*
X275767D01*
X271100Y173500D02*
X275767D01*
X270900Y173700D02*
X275567D01*
X270700Y174100D02*
X275367D01*
X270700Y174300D02*
X275167D01*
X270500Y174500D02*
X275167D01*
X270300Y174700D02*
X274967D01*
X270300Y174900D02*
X274967D01*
X270100Y175100D02*
X274767D01*
X270100Y175300D02*
X274767D01*
X269900Y175500D02*
X274567D01*
X269700Y175700D02*
X274367D01*
X269700Y175900D02*
X274367D01*
X269500Y176100D02*
X274167D01*
X269500Y176300D02*
X274167D01*
X286100Y167100D02*
X300167D01*
X283500Y167500D02*
X299967D01*
X284100Y167300D02*
X285167D01*
X286100D02*
X299967D01*
X283300Y167700D02*
X299767D01*
X282900Y167900D02*
X299567D01*
X282700Y168100D02*
X299567D01*
X282500Y168300D02*
X299367D01*
X282500Y168500D02*
X299367D01*
X282300Y168700D02*
X299167D01*
X282100Y169100D02*
X298967D01*
X282300Y168900D02*
X298967D01*
X282100Y169300D02*
X298767D01*
X282100Y169500D02*
X298767D01*
X282100Y169700D02*
X298567D01*
X282100Y169900D02*
X298367D01*
X281900Y170100D02*
X298367D01*
X282100Y170300D02*
X298167D01*
X282100Y170500D02*
X297967D01*
X282100Y170700D02*
X297967D01*
X274300Y168100D02*
X278967D01*
X273900Y168700D02*
X278567D01*
X274100Y168300D02*
X278767D01*
X273900Y168500D02*
X278567D01*
X273700Y168900D02*
X278367D01*
X273700Y169100D02*
X278367D01*
X273500Y169300D02*
X278167D01*
X273300Y169500D02*
X277967D01*
X273300Y169700D02*
X277967D01*
X273100Y169900D02*
X277767D01*
X273100Y170100D02*
X277767D01*
X272900Y170300D02*
X277567D01*
X272900Y170500D02*
X277567D01*
X282100Y170900D02*
X297767D01*
X282300Y171100D02*
X297767D01*
X282300Y171300D02*
X297567D01*
X282500Y171500D02*
X297367D01*
X282500Y171700D02*
X297367D01*
X282700Y171900D02*
X297167D01*
X282900Y172100D02*
X296967D01*
X283100Y172300D02*
X296967D01*
X282900Y172500D02*
X296767D01*
X299100Y175300D02*
X299967D01*
X300100Y174500D02*
X300767D01*
X299700Y174700D02*
X300767D01*
X299500Y174900D02*
X300767D01*
X299300Y175100D02*
X300567D01*
X299100Y175500D02*
X299767D01*
X298900Y175700D02*
X299567D01*
X298900Y175900D02*
X299367D01*
X298900Y176100D02*
X299367D01*
X298700Y176300D02*
X299167D01*
X272700Y170700D02*
X277367D01*
X272300Y171300D02*
X276967D01*
X272500Y170900D02*
X277167D01*
X272500Y171100D02*
X277167D01*
X272300Y171500D02*
X276967D01*
X272100Y171700D02*
X276767D01*
X272100Y171900D02*
X276567D01*
X271900Y172100D02*
X276567D01*
X271700Y172300D02*
X276367D01*
X271700Y172500D02*
X276367D01*
X271500Y172700D02*
X276167D01*
X271500Y172900D02*
X276167D01*
X271300Y173100D02*
X275967D01*
M02*
