G04*
G04 #@! TF.GenerationSoftware,Altium Limited,Altium Designer,22.0.2 (36)*
G04*
G04 Layer_Physical_Order=4*
G04 Layer_Color=1930808*
%FSLAX25Y25*%
%MOIN*%
G70*
G04*
G04 #@! TF.SameCoordinates,7F160BED-0690-4144-9330-6DFC8CD618BD*
G04*
G04*
G04 #@! TF.FilePolarity,Positive*
G04*
G01*
G75*
%ADD10C,0.01000*%
%ADD11C,0.00600*%
%ADD65C,0.02953*%
%ADD66O,0.04724X0.07874*%
%ADD67O,0.04724X0.09055*%
%ADD68C,0.06693*%
%ADD69R,0.06693X0.06693*%
%ADD70R,0.06693X0.06693*%
%ADD71C,0.05906*%
%ADD72R,0.05906X0.05906*%
%ADD73O,0.17717X0.07874*%
%ADD74O,0.07874X0.17717*%
%ADD75C,0.07874*%
%ADD76C,0.15748*%
%ADD78C,0.01500*%
%ADD82C,0.02400*%
%ADD83C,0.01800*%
%ADD84C,0.08000*%
%ADD87R,0.58000X0.64500*%
G36*
X695500Y105000D02*
X695000Y104500D01*
X660000D01*
Y125000D01*
X660500Y125500D01*
X674500D01*
Y146500D01*
X666000D01*
Y158500D01*
X695500D01*
Y105000D01*
D02*
G37*
G36*
X659000Y192500D02*
Y192000D01*
X653000D01*
Y160000D01*
X656000Y157000D01*
X656500D01*
Y106000D01*
X640500D01*
Y200500D01*
Y203500D01*
Y205000D01*
X659000D01*
Y192500D01*
D02*
G37*
D10*
X536500Y125500D02*
Y139500D01*
X535000Y141000D02*
X536500Y139500D01*
X493500Y212500D02*
Y264000D01*
Y212500D02*
X497000Y209000D01*
X607500D01*
X570000Y153000D02*
X571908Y154908D01*
X600500D01*
X570000Y135500D02*
Y153000D01*
X502500Y141000D02*
X535000D01*
X497000Y146500D02*
X502500Y141000D01*
X497000Y146500D02*
Y183500D01*
X531500Y125500D02*
Y135000D01*
X529500Y137000D02*
X531500Y135000D01*
X500500Y137000D02*
X529500D01*
X492500Y145000D02*
X500500Y137000D01*
X492500Y145000D02*
Y183500D01*
D11*
X446000Y234000D02*
Y307500D01*
X460500Y230000D02*
Y232470D01*
X467000Y238970D01*
X432500Y302000D02*
X436000Y298500D01*
X407500Y302000D02*
X432500D01*
X436000Y233500D02*
Y298500D01*
Y233500D02*
X440000Y229500D01*
X445500D01*
X441500Y312000D02*
X446000Y307500D01*
X407500Y312000D02*
X441500D01*
X666000Y295500D02*
X667500Y297000D01*
X478000Y295500D02*
X666000D01*
X667500Y297000D02*
Y344513D01*
X671500Y348513D01*
Y349000D01*
X472400Y264600D02*
Y292900D01*
Y264600D02*
X474500Y262500D01*
X472400Y292900D02*
X477000Y297500D01*
X590500Y325757D02*
Y352600D01*
X589859Y301859D02*
Y325115D01*
X590500Y325757D01*
X588000Y300000D02*
X589859Y301859D01*
X477000Y266000D02*
X486296D01*
X475000Y268000D02*
Y292500D01*
Y268000D02*
X477000Y266000D01*
X486296D02*
X486372Y266076D01*
X483773Y262500D02*
X483886Y262613D01*
X474500Y262500D02*
X483773D01*
X468726Y301727D02*
X472000Y305000D01*
X467000Y233000D02*
X468726Y234727D01*
Y301727D01*
X470500Y260500D02*
Y296000D01*
Y260500D02*
X472500Y258500D01*
X470500Y296000D02*
X474500Y300000D01*
X464000Y233000D02*
X467000D01*
Y238970D02*
Y304000D01*
X470500Y307500D01*
X477000Y297500D02*
X660000D01*
X475000Y292500D02*
X478000Y295500D01*
X474500Y300000D02*
X588000D01*
X488500Y260000D02*
Y263000D01*
X487000Y258500D02*
X488500Y260000D01*
X472500Y258500D02*
X487000D01*
X660000Y297500D02*
X662000Y299500D01*
Y352500D01*
X667500Y358000D01*
X671500D01*
X472000Y305000D02*
X519000D01*
X520500Y306500D01*
Y315000D01*
X470500Y307500D02*
X509500D01*
X510500Y308500D01*
Y315000D01*
X517069Y366431D02*
X522294D01*
X522363Y366363D01*
X517000Y366500D02*
X517069Y366431D01*
X500000Y275500D02*
X510000Y285500D01*
X500000Y219500D02*
Y275500D01*
X496500Y282000D02*
X500000Y285500D01*
X496500Y219500D02*
Y282000D01*
D65*
X532756Y367000D02*
D03*
X510000D02*
D03*
D66*
X539095Y381370D02*
D03*
X503662Y381370D02*
D03*
D67*
X503662Y365032D02*
D03*
X539095Y365032D02*
D03*
D68*
X513000Y129000D02*
D03*
X503000D02*
D03*
X493000D02*
D03*
X407500Y302000D02*
D03*
Y292000D02*
D03*
Y282000D02*
D03*
Y272000D02*
D03*
Y262000D02*
D03*
Y252000D02*
D03*
Y242000D02*
D03*
Y232000D02*
D03*
Y222000D02*
D03*
Y212000D02*
D03*
Y202000D02*
D03*
X500500Y315000D02*
D03*
X510500D02*
D03*
X544098Y285500D02*
D03*
X554098D02*
D03*
X564098D02*
D03*
X510000D02*
D03*
X500000D02*
D03*
X490000D02*
D03*
D69*
X483000Y129000D02*
D03*
X520500Y315000D02*
D03*
X534098Y285500D02*
D03*
X480000D02*
D03*
D70*
X407500Y312000D02*
D03*
D71*
X669500Y142000D02*
D03*
X633500Y153437D02*
D03*
Y145563D02*
D03*
D72*
X669500Y149874D02*
D03*
D73*
X600500Y154908D02*
D03*
X600500Y130500D02*
D03*
D74*
X619005Y143099D02*
D03*
D75*
X667504Y113500D02*
D03*
X630496D02*
D03*
X649000D02*
D03*
D76*
X775185Y382701D02*
D03*
X775111Y111012D02*
D03*
X413366Y111044D02*
D03*
X413368Y382673D02*
D03*
D78*
X641000Y263000D02*
X642500Y261500D01*
Y254500D02*
Y261500D01*
X623500Y263000D02*
X641000D01*
X622048Y261548D02*
X623500Y263000D01*
X622048Y226952D02*
Y261548D01*
D82*
X579000Y376000D02*
D03*
X518500Y205000D02*
D03*
X557000Y205500D02*
D03*
X565000Y190000D02*
D03*
X533000D02*
D03*
X566500Y163500D02*
D03*
X534000Y163000D02*
D03*
X547500Y113000D02*
D03*
X542000Y112500D02*
D03*
X476000Y142000D02*
D03*
X457272Y212228D02*
D03*
X512000Y201500D02*
D03*
X526500Y220500D02*
D03*
X525228Y240728D02*
D03*
X510500Y268000D02*
D03*
X464000Y267000D02*
D03*
X501500Y326500D02*
D03*
X535500Y325000D02*
D03*
X446700Y225000D02*
D03*
Y221000D02*
D03*
X446000Y234000D02*
D03*
X460500Y230000D02*
D03*
X445500Y229500D02*
D03*
X669600Y305500D02*
D03*
X673000Y322000D02*
D03*
X640000Y230500D02*
D03*
X579000Y290000D02*
D03*
X609500Y230500D02*
D03*
X488500Y137500D02*
D03*
X545500Y242000D02*
D03*
X544000Y252500D02*
D03*
X535500Y331500D02*
D03*
X556500Y365500D02*
D03*
X513500Y354500D02*
D03*
X558000Y305500D02*
D03*
X629945Y334416D02*
D03*
X634445D02*
D03*
X625445D02*
D03*
X630000Y331000D02*
D03*
X625500D02*
D03*
X634500D02*
D03*
Y338000D02*
D03*
X625500D02*
D03*
X630000D02*
D03*
X590500Y352600D02*
D03*
X577000Y335500D02*
D03*
X581000D02*
D03*
Y331500D02*
D03*
X577000D02*
D03*
X591959Y316459D02*
D03*
X585500Y315000D02*
D03*
X567500Y246500D02*
D03*
Y251000D02*
D03*
X573000Y246500D02*
D03*
Y251000D02*
D03*
X578500Y246500D02*
D03*
Y251000D02*
D03*
X613000Y209000D02*
D03*
X600500Y223500D02*
D03*
X578500Y224000D02*
D03*
X585000Y194000D02*
D03*
X556500Y199500D02*
D03*
X565500Y184000D02*
D03*
X577000Y170000D02*
D03*
X565000Y157000D02*
D03*
X550500Y145000D02*
D03*
X517000Y146000D02*
D03*
X533500Y157000D02*
D03*
X517000Y169500D02*
D03*
X533500Y184000D02*
D03*
X531500Y247000D02*
D03*
X521500Y241000D02*
D03*
X539500Y239500D02*
D03*
X543500Y234000D02*
D03*
X532000Y220000D02*
D03*
X535500Y216000D02*
D03*
X525772Y216728D02*
D03*
X504500Y197500D02*
D03*
X504000Y204500D02*
D03*
X509500Y264500D02*
D03*
X507000Y270500D02*
D03*
X482500Y274500D02*
D03*
X478500D02*
D03*
X583500Y376000D02*
D03*
X575000D02*
D03*
X583500Y380000D02*
D03*
X579000D02*
D03*
X575000D02*
D03*
X659156Y275047D02*
D03*
X654906D02*
D03*
X650656D02*
D03*
X659070Y278676D02*
D03*
X654820D02*
D03*
X650570D02*
D03*
X650500Y282500D02*
D03*
X654750D02*
D03*
X659000D02*
D03*
X486372Y266076D02*
D03*
X483886Y262613D02*
D03*
X488500Y263000D02*
D03*
X671500Y349000D02*
D03*
Y358000D02*
D03*
X493500Y264000D02*
D03*
X607500Y209000D02*
D03*
X464000Y233000D02*
D03*
X517000Y366500D02*
D03*
X522363Y366363D02*
D03*
X570000Y135500D02*
D03*
X567189Y323000D02*
D03*
X571189D02*
D03*
X562689Y330500D02*
D03*
X564689Y327500D02*
D03*
X571000Y263000D02*
D03*
X574000Y265000D02*
D03*
X566500Y256500D02*
D03*
Y260500D02*
D03*
X575488Y285488D02*
D03*
X547500Y327000D02*
D03*
X500000Y219500D02*
D03*
X496500D02*
D03*
X628500Y198000D02*
D03*
X634000Y205500D02*
D03*
X616259Y192740D02*
D03*
X627500Y258000D02*
D03*
Y254500D02*
D03*
X633000Y258000D02*
D03*
Y254500D02*
D03*
X642500D02*
D03*
X622048Y226952D02*
D03*
X628000Y232500D02*
D03*
X632500D02*
D03*
X636000Y230500D02*
D03*
X656000Y202500D02*
D03*
Y199000D02*
D03*
Y195500D02*
D03*
X652000D02*
D03*
Y199000D02*
D03*
Y202500D02*
D03*
X660500Y162500D02*
D03*
X656500D02*
D03*
X660500Y165500D02*
D03*
X656500D02*
D03*
X624000Y164799D02*
D03*
Y161699D02*
D03*
Y174100D02*
D03*
Y167900D02*
D03*
Y171000D02*
D03*
X620500Y161699D02*
D03*
X626500Y179500D02*
D03*
X629500Y181000D02*
D03*
Y184500D02*
D03*
Y187500D02*
D03*
X536500Y125500D02*
D03*
X531500D02*
D03*
X497000Y183500D02*
D03*
X492500D02*
D03*
D83*
X560000Y251000D02*
D03*
X556500D02*
D03*
X560000Y254000D02*
D03*
X556500D02*
D03*
D84*
X579000Y363000D02*
Y380000D01*
X407500Y222000D02*
X420500D01*
X430000Y212500D01*
X447814D01*
X452500Y217186D01*
Y327500D01*
X464500Y339500D01*
X555500D01*
X579000Y363000D01*
D87*
X629000Y334250D02*
D03*
M02*
